G04 #@! TF.GenerationSoftware,KiCad,Pcbnew,6.0.0-unknown-cbea514~86~ubuntu18.04.1*
G04 #@! TF.CreationDate,2019-06-12T12:40:36-05:00*
G04 #@! TF.ProjectId,power,706f7765-722e-46b6-9963-61645f706362,rev?*
G04 #@! TF.SameCoordinates,Original*
G04 #@! TF.FileFunction,Soldermask,Bot*
G04 #@! TF.FilePolarity,Negative*
%FSLAX46Y46*%
G04 Gerber Fmt 4.6, Leading zero omitted, Abs format (unit mm)*
G04 Created by KiCad (PCBNEW 6.0.0-unknown-cbea514~86~ubuntu18.04.1) date 2019-06-12 12:40:36*
%MOMM*%
%LPD*%
G04 APERTURE LIST*
%ADD10O,4.500000X2.250000*%
%ADD11O,2.250000X4.500000*%
%ADD12O,2.500000X5.000000*%
%ADD13C,0.150000*%
%ADD14C,0.950000*%
%ADD15C,0.300000*%
%ADD16O,1.700000X1.700000*%
%ADD17R,1.700000X1.700000*%
%ADD18C,1.524000*%
%ADD19R,1.524000X1.524000*%
%ADD20C,1.650000*%
%ADD21O,3.500000X1.900000*%
%ADD22C,1.100000*%
%ADD23C,4.500000*%
%ADD24R,0.900000X0.800000*%
G04 APERTURE END LIST*
D10*
X57861200Y-41630600D03*
D11*
X54861200Y-36930600D03*
D12*
X60861200Y-36930600D03*
D13*
G36*
X132145360Y-91422413D02*
G01*
X132225257Y-91480461D01*
X132274636Y-91565988D01*
X132286260Y-91639380D01*
X132286260Y-92114380D01*
X132265727Y-92210980D01*
X132207679Y-92290877D01*
X132122152Y-92340256D01*
X132048760Y-92351880D01*
X131473760Y-92351880D01*
X131377160Y-92331347D01*
X131297263Y-92273299D01*
X131247884Y-92187772D01*
X131236260Y-92114380D01*
X131236260Y-91639380D01*
X131256793Y-91542780D01*
X131314841Y-91462883D01*
X131400368Y-91413504D01*
X131473760Y-91401880D01*
X132048760Y-91401880D01*
X132145360Y-91422413D01*
X132145360Y-91422413D01*
G37*
D14*
X131761260Y-91876880D03*
D13*
G36*
X133895360Y-91422413D02*
G01*
X133975257Y-91480461D01*
X134024636Y-91565988D01*
X134036260Y-91639380D01*
X134036260Y-92114380D01*
X134015727Y-92210980D01*
X133957679Y-92290877D01*
X133872152Y-92340256D01*
X133798760Y-92351880D01*
X133223760Y-92351880D01*
X133127160Y-92331347D01*
X133047263Y-92273299D01*
X132997884Y-92187772D01*
X132986260Y-92114380D01*
X132986260Y-91639380D01*
X133006793Y-91542780D01*
X133064841Y-91462883D01*
X133150368Y-91413504D01*
X133223760Y-91401880D01*
X133798760Y-91401880D01*
X133895360Y-91422413D01*
X133895360Y-91422413D01*
G37*
D14*
X133511260Y-91876880D03*
D13*
G36*
X114946307Y-69910676D02*
G01*
X114968274Y-69963709D01*
X114968274Y-70113709D01*
X114946307Y-70166742D01*
X114893274Y-70188709D01*
X113568274Y-70188709D01*
X113515241Y-70166742D01*
X113493274Y-70113709D01*
X113493274Y-69963709D01*
X113515241Y-69910676D01*
X113568274Y-69888709D01*
X114893274Y-69888709D01*
X114946307Y-69910676D01*
X114946307Y-69910676D01*
G37*
D15*
X114230774Y-70038709D03*
D13*
G36*
X114946307Y-70410676D02*
G01*
X114968274Y-70463709D01*
X114968274Y-70613709D01*
X114946307Y-70666742D01*
X114893274Y-70688709D01*
X113568274Y-70688709D01*
X113515241Y-70666742D01*
X113493274Y-70613709D01*
X113493274Y-70463709D01*
X113515241Y-70410676D01*
X113568274Y-70388709D01*
X114893274Y-70388709D01*
X114946307Y-70410676D01*
X114946307Y-70410676D01*
G37*
D15*
X114230774Y-70538709D03*
D13*
G36*
X114946307Y-70910676D02*
G01*
X114968274Y-70963709D01*
X114968274Y-71113709D01*
X114946307Y-71166742D01*
X114893274Y-71188709D01*
X113568274Y-71188709D01*
X113515241Y-71166742D01*
X113493274Y-71113709D01*
X113493274Y-70963709D01*
X113515241Y-70910676D01*
X113568274Y-70888709D01*
X114893274Y-70888709D01*
X114946307Y-70910676D01*
X114946307Y-70910676D01*
G37*
D15*
X114230774Y-71038709D03*
D13*
G36*
X114946307Y-71410676D02*
G01*
X114968274Y-71463709D01*
X114968274Y-71613709D01*
X114946307Y-71666742D01*
X114893274Y-71688709D01*
X113568274Y-71688709D01*
X113515241Y-71666742D01*
X113493274Y-71613709D01*
X113493274Y-71463709D01*
X113515241Y-71410676D01*
X113568274Y-71388709D01*
X114893274Y-71388709D01*
X114946307Y-71410676D01*
X114946307Y-71410676D01*
G37*
D15*
X114230774Y-71538709D03*
D13*
G36*
X114946307Y-71910676D02*
G01*
X114968274Y-71963709D01*
X114968274Y-72113709D01*
X114946307Y-72166742D01*
X114893274Y-72188709D01*
X113568274Y-72188709D01*
X113515241Y-72166742D01*
X113493274Y-72113709D01*
X113493274Y-71963709D01*
X113515241Y-71910676D01*
X113568274Y-71888709D01*
X114893274Y-71888709D01*
X114946307Y-71910676D01*
X114946307Y-71910676D01*
G37*
D15*
X114230774Y-72038709D03*
D13*
G36*
X114946307Y-72410676D02*
G01*
X114968274Y-72463709D01*
X114968274Y-72613709D01*
X114946307Y-72666742D01*
X114893274Y-72688709D01*
X113568274Y-72688709D01*
X113515241Y-72666742D01*
X113493274Y-72613709D01*
X113493274Y-72463709D01*
X113515241Y-72410676D01*
X113568274Y-72388709D01*
X114893274Y-72388709D01*
X114946307Y-72410676D01*
X114946307Y-72410676D01*
G37*
D15*
X114230774Y-72538709D03*
D13*
G36*
X114946307Y-72910676D02*
G01*
X114968274Y-72963709D01*
X114968274Y-73113709D01*
X114946307Y-73166742D01*
X114893274Y-73188709D01*
X113568274Y-73188709D01*
X113515241Y-73166742D01*
X113493274Y-73113709D01*
X113493274Y-72963709D01*
X113515241Y-72910676D01*
X113568274Y-72888709D01*
X114893274Y-72888709D01*
X114946307Y-72910676D01*
X114946307Y-72910676D01*
G37*
D15*
X114230774Y-73038709D03*
D13*
G36*
X114946307Y-73410676D02*
G01*
X114968274Y-73463709D01*
X114968274Y-73613709D01*
X114946307Y-73666742D01*
X114893274Y-73688709D01*
X113568274Y-73688709D01*
X113515241Y-73666742D01*
X113493274Y-73613709D01*
X113493274Y-73463709D01*
X113515241Y-73410676D01*
X113568274Y-73388709D01*
X114893274Y-73388709D01*
X114946307Y-73410676D01*
X114946307Y-73410676D01*
G37*
D15*
X114230774Y-73538709D03*
D13*
G36*
X114946307Y-73910676D02*
G01*
X114968274Y-73963709D01*
X114968274Y-74113709D01*
X114946307Y-74166742D01*
X114893274Y-74188709D01*
X113568274Y-74188709D01*
X113515241Y-74166742D01*
X113493274Y-74113709D01*
X113493274Y-73963709D01*
X113515241Y-73910676D01*
X113568274Y-73888709D01*
X114893274Y-73888709D01*
X114946307Y-73910676D01*
X114946307Y-73910676D01*
G37*
D15*
X114230774Y-74038709D03*
D13*
G36*
X114946307Y-74410676D02*
G01*
X114968274Y-74463709D01*
X114968274Y-74613709D01*
X114946307Y-74666742D01*
X114893274Y-74688709D01*
X113568274Y-74688709D01*
X113515241Y-74666742D01*
X113493274Y-74613709D01*
X113493274Y-74463709D01*
X113515241Y-74410676D01*
X113568274Y-74388709D01*
X114893274Y-74388709D01*
X114946307Y-74410676D01*
X114946307Y-74410676D01*
G37*
D15*
X114230774Y-74538709D03*
D13*
G36*
X114946307Y-74910676D02*
G01*
X114968274Y-74963709D01*
X114968274Y-75113709D01*
X114946307Y-75166742D01*
X114893274Y-75188709D01*
X113568274Y-75188709D01*
X113515241Y-75166742D01*
X113493274Y-75113709D01*
X113493274Y-74963709D01*
X113515241Y-74910676D01*
X113568274Y-74888709D01*
X114893274Y-74888709D01*
X114946307Y-74910676D01*
X114946307Y-74910676D01*
G37*
D15*
X114230774Y-75038709D03*
D13*
G36*
X114946307Y-75410676D02*
G01*
X114968274Y-75463709D01*
X114968274Y-75613709D01*
X114946307Y-75666742D01*
X114893274Y-75688709D01*
X113568274Y-75688709D01*
X113515241Y-75666742D01*
X113493274Y-75613709D01*
X113493274Y-75463709D01*
X113515241Y-75410676D01*
X113568274Y-75388709D01*
X114893274Y-75388709D01*
X114946307Y-75410676D01*
X114946307Y-75410676D01*
G37*
D15*
X114230774Y-75538709D03*
D13*
G36*
X114946307Y-75910676D02*
G01*
X114968274Y-75963709D01*
X114968274Y-76113709D01*
X114946307Y-76166742D01*
X114893274Y-76188709D01*
X113568274Y-76188709D01*
X113515241Y-76166742D01*
X113493274Y-76113709D01*
X113493274Y-75963709D01*
X113515241Y-75910676D01*
X113568274Y-75888709D01*
X114893274Y-75888709D01*
X114946307Y-75910676D01*
X114946307Y-75910676D01*
G37*
D15*
X114230774Y-76038709D03*
D13*
G36*
X114946307Y-76410676D02*
G01*
X114968274Y-76463709D01*
X114968274Y-76613709D01*
X114946307Y-76666742D01*
X114893274Y-76688709D01*
X113568274Y-76688709D01*
X113515241Y-76666742D01*
X113493274Y-76613709D01*
X113493274Y-76463709D01*
X113515241Y-76410676D01*
X113568274Y-76388709D01*
X114893274Y-76388709D01*
X114946307Y-76410676D01*
X114946307Y-76410676D01*
G37*
D15*
X114230774Y-76538709D03*
D13*
G36*
X114946307Y-76910676D02*
G01*
X114968274Y-76963709D01*
X114968274Y-77113709D01*
X114946307Y-77166742D01*
X114893274Y-77188709D01*
X113568274Y-77188709D01*
X113515241Y-77166742D01*
X113493274Y-77113709D01*
X113493274Y-76963709D01*
X113515241Y-76910676D01*
X113568274Y-76888709D01*
X114893274Y-76888709D01*
X114946307Y-76910676D01*
X114946307Y-76910676D01*
G37*
D15*
X114230774Y-77038709D03*
D13*
G36*
X114946307Y-77410676D02*
G01*
X114968274Y-77463709D01*
X114968274Y-77613709D01*
X114946307Y-77666742D01*
X114893274Y-77688709D01*
X113568274Y-77688709D01*
X113515241Y-77666742D01*
X113493274Y-77613709D01*
X113493274Y-77463709D01*
X113515241Y-77410676D01*
X113568274Y-77388709D01*
X114893274Y-77388709D01*
X114946307Y-77410676D01*
X114946307Y-77410676D01*
G37*
D15*
X114230774Y-77538709D03*
D13*
G36*
X114946307Y-77910676D02*
G01*
X114968274Y-77963709D01*
X114968274Y-78113709D01*
X114946307Y-78166742D01*
X114893274Y-78188709D01*
X113568274Y-78188709D01*
X113515241Y-78166742D01*
X113493274Y-78113709D01*
X113493274Y-77963709D01*
X113515241Y-77910676D01*
X113568274Y-77888709D01*
X114893274Y-77888709D01*
X114946307Y-77910676D01*
X114946307Y-77910676D01*
G37*
D15*
X114230774Y-78038709D03*
D13*
G36*
X114946307Y-78410676D02*
G01*
X114968274Y-78463709D01*
X114968274Y-78613709D01*
X114946307Y-78666742D01*
X114893274Y-78688709D01*
X113568274Y-78688709D01*
X113515241Y-78666742D01*
X113493274Y-78613709D01*
X113493274Y-78463709D01*
X113515241Y-78410676D01*
X113568274Y-78388709D01*
X114893274Y-78388709D01*
X114946307Y-78410676D01*
X114946307Y-78410676D01*
G37*
D15*
X114230774Y-78538709D03*
D13*
G36*
X114946307Y-78910676D02*
G01*
X114968274Y-78963709D01*
X114968274Y-79113709D01*
X114946307Y-79166742D01*
X114893274Y-79188709D01*
X113568274Y-79188709D01*
X113515241Y-79166742D01*
X113493274Y-79113709D01*
X113493274Y-78963709D01*
X113515241Y-78910676D01*
X113568274Y-78888709D01*
X114893274Y-78888709D01*
X114946307Y-78910676D01*
X114946307Y-78910676D01*
G37*
D15*
X114230774Y-79038709D03*
D13*
G36*
X114946307Y-79410676D02*
G01*
X114968274Y-79463709D01*
X114968274Y-79613709D01*
X114946307Y-79666742D01*
X114893274Y-79688709D01*
X113568274Y-79688709D01*
X113515241Y-79666742D01*
X113493274Y-79613709D01*
X113493274Y-79463709D01*
X113515241Y-79410676D01*
X113568274Y-79388709D01*
X114893274Y-79388709D01*
X114946307Y-79410676D01*
X114946307Y-79410676D01*
G37*
D15*
X114230774Y-79538709D03*
D13*
G36*
X114946307Y-79910676D02*
G01*
X114968274Y-79963709D01*
X114968274Y-80113709D01*
X114946307Y-80166742D01*
X114893274Y-80188709D01*
X113568274Y-80188709D01*
X113515241Y-80166742D01*
X113493274Y-80113709D01*
X113493274Y-79963709D01*
X113515241Y-79910676D01*
X113568274Y-79888709D01*
X114893274Y-79888709D01*
X114946307Y-79910676D01*
X114946307Y-79910676D01*
G37*
D15*
X114230774Y-80038709D03*
D13*
G36*
X114946307Y-80410676D02*
G01*
X114968274Y-80463709D01*
X114968274Y-80613709D01*
X114946307Y-80666742D01*
X114893274Y-80688709D01*
X113568274Y-80688709D01*
X113515241Y-80666742D01*
X113493274Y-80613709D01*
X113493274Y-80463709D01*
X113515241Y-80410676D01*
X113568274Y-80388709D01*
X114893274Y-80388709D01*
X114946307Y-80410676D01*
X114946307Y-80410676D01*
G37*
D15*
X114230774Y-80538709D03*
D13*
G36*
X114946307Y-80910676D02*
G01*
X114968274Y-80963709D01*
X114968274Y-81113709D01*
X114946307Y-81166742D01*
X114893274Y-81188709D01*
X113568274Y-81188709D01*
X113515241Y-81166742D01*
X113493274Y-81113709D01*
X113493274Y-80963709D01*
X113515241Y-80910676D01*
X113568274Y-80888709D01*
X114893274Y-80888709D01*
X114946307Y-80910676D01*
X114946307Y-80910676D01*
G37*
D15*
X114230774Y-81038709D03*
D13*
G36*
X114946307Y-81410676D02*
G01*
X114968274Y-81463709D01*
X114968274Y-81613709D01*
X114946307Y-81666742D01*
X114893274Y-81688709D01*
X113568274Y-81688709D01*
X113515241Y-81666742D01*
X113493274Y-81613709D01*
X113493274Y-81463709D01*
X113515241Y-81410676D01*
X113568274Y-81388709D01*
X114893274Y-81388709D01*
X114946307Y-81410676D01*
X114946307Y-81410676D01*
G37*
D15*
X114230774Y-81538709D03*
D13*
G36*
X114946307Y-81910676D02*
G01*
X114968274Y-81963709D01*
X114968274Y-82113709D01*
X114946307Y-82166742D01*
X114893274Y-82188709D01*
X113568274Y-82188709D01*
X113515241Y-82166742D01*
X113493274Y-82113709D01*
X113493274Y-81963709D01*
X113515241Y-81910676D01*
X113568274Y-81888709D01*
X114893274Y-81888709D01*
X114946307Y-81910676D01*
X114946307Y-81910676D01*
G37*
D15*
X114230774Y-82038709D03*
D13*
G36*
X114946307Y-82410676D02*
G01*
X114968274Y-82463709D01*
X114968274Y-82613709D01*
X114946307Y-82666742D01*
X114893274Y-82688709D01*
X113568274Y-82688709D01*
X113515241Y-82666742D01*
X113493274Y-82613709D01*
X113493274Y-82463709D01*
X113515241Y-82410676D01*
X113568274Y-82388709D01*
X114893274Y-82388709D01*
X114946307Y-82410676D01*
X114946307Y-82410676D01*
G37*
D15*
X114230774Y-82538709D03*
D13*
G36*
X114946307Y-82910676D02*
G01*
X114968274Y-82963709D01*
X114968274Y-83113709D01*
X114946307Y-83166742D01*
X114893274Y-83188709D01*
X113568274Y-83188709D01*
X113515241Y-83166742D01*
X113493274Y-83113709D01*
X113493274Y-82963709D01*
X113515241Y-82910676D01*
X113568274Y-82888709D01*
X114893274Y-82888709D01*
X114946307Y-82910676D01*
X114946307Y-82910676D01*
G37*
D15*
X114230774Y-83038709D03*
D13*
G36*
X114946307Y-83410676D02*
G01*
X114968274Y-83463709D01*
X114968274Y-83613709D01*
X114946307Y-83666742D01*
X114893274Y-83688709D01*
X113568274Y-83688709D01*
X113515241Y-83666742D01*
X113493274Y-83613709D01*
X113493274Y-83463709D01*
X113515241Y-83410676D01*
X113568274Y-83388709D01*
X114893274Y-83388709D01*
X114946307Y-83410676D01*
X114946307Y-83410676D01*
G37*
D15*
X114230774Y-83538709D03*
D13*
G36*
X114946307Y-83910676D02*
G01*
X114968274Y-83963709D01*
X114968274Y-84113709D01*
X114946307Y-84166742D01*
X114893274Y-84188709D01*
X113568274Y-84188709D01*
X113515241Y-84166742D01*
X113493274Y-84113709D01*
X113493274Y-83963709D01*
X113515241Y-83910676D01*
X113568274Y-83888709D01*
X114893274Y-83888709D01*
X114946307Y-83910676D01*
X114946307Y-83910676D01*
G37*
D15*
X114230774Y-84038709D03*
D13*
G36*
X114946307Y-84410676D02*
G01*
X114968274Y-84463709D01*
X114968274Y-84613709D01*
X114946307Y-84666742D01*
X114893274Y-84688709D01*
X113568274Y-84688709D01*
X113515241Y-84666742D01*
X113493274Y-84613709D01*
X113493274Y-84463709D01*
X113515241Y-84410676D01*
X113568274Y-84388709D01*
X114893274Y-84388709D01*
X114946307Y-84410676D01*
X114946307Y-84410676D01*
G37*
D15*
X114230774Y-84538709D03*
D13*
G36*
X114946307Y-84910676D02*
G01*
X114968274Y-84963709D01*
X114968274Y-85113709D01*
X114946307Y-85166742D01*
X114893274Y-85188709D01*
X113568274Y-85188709D01*
X113515241Y-85166742D01*
X113493274Y-85113709D01*
X113493274Y-84963709D01*
X113515241Y-84910676D01*
X113568274Y-84888709D01*
X114893274Y-84888709D01*
X114946307Y-84910676D01*
X114946307Y-84910676D01*
G37*
D15*
X114230774Y-85038709D03*
D13*
G36*
X114946307Y-85410676D02*
G01*
X114968274Y-85463709D01*
X114968274Y-85613709D01*
X114946307Y-85666742D01*
X114893274Y-85688709D01*
X113568274Y-85688709D01*
X113515241Y-85666742D01*
X113493274Y-85613709D01*
X113493274Y-85463709D01*
X113515241Y-85410676D01*
X113568274Y-85388709D01*
X114893274Y-85388709D01*
X114946307Y-85410676D01*
X114946307Y-85410676D01*
G37*
D15*
X114230774Y-85538709D03*
D13*
G36*
X114946307Y-85910676D02*
G01*
X114968274Y-85963709D01*
X114968274Y-86113709D01*
X114946307Y-86166742D01*
X114893274Y-86188709D01*
X113568274Y-86188709D01*
X113515241Y-86166742D01*
X113493274Y-86113709D01*
X113493274Y-85963709D01*
X113515241Y-85910676D01*
X113568274Y-85888709D01*
X114893274Y-85888709D01*
X114946307Y-85910676D01*
X114946307Y-85910676D01*
G37*
D15*
X114230774Y-86038709D03*
D13*
G36*
X114946307Y-86410676D02*
G01*
X114968274Y-86463709D01*
X114968274Y-86613709D01*
X114946307Y-86666742D01*
X114893274Y-86688709D01*
X113568274Y-86688709D01*
X113515241Y-86666742D01*
X113493274Y-86613709D01*
X113493274Y-86463709D01*
X113515241Y-86410676D01*
X113568274Y-86388709D01*
X114893274Y-86388709D01*
X114946307Y-86410676D01*
X114946307Y-86410676D01*
G37*
D15*
X114230774Y-86538709D03*
D13*
G36*
X114946307Y-86910676D02*
G01*
X114968274Y-86963709D01*
X114968274Y-87113709D01*
X114946307Y-87166742D01*
X114893274Y-87188709D01*
X113568274Y-87188709D01*
X113515241Y-87166742D01*
X113493274Y-87113709D01*
X113493274Y-86963709D01*
X113515241Y-86910676D01*
X113568274Y-86888709D01*
X114893274Y-86888709D01*
X114946307Y-86910676D01*
X114946307Y-86910676D01*
G37*
D15*
X114230774Y-87038709D03*
D13*
G36*
X114946307Y-87410676D02*
G01*
X114968274Y-87463709D01*
X114968274Y-87613709D01*
X114946307Y-87666742D01*
X114893274Y-87688709D01*
X113568274Y-87688709D01*
X113515241Y-87666742D01*
X113493274Y-87613709D01*
X113493274Y-87463709D01*
X113515241Y-87410676D01*
X113568274Y-87388709D01*
X114893274Y-87388709D01*
X114946307Y-87410676D01*
X114946307Y-87410676D01*
G37*
D15*
X114230774Y-87538709D03*
D13*
G36*
X116271307Y-88735676D02*
G01*
X116293274Y-88788709D01*
X116293274Y-90113709D01*
X116271307Y-90166742D01*
X116218274Y-90188709D01*
X116068274Y-90188709D01*
X116015241Y-90166742D01*
X115993274Y-90113709D01*
X115993274Y-88788709D01*
X116015241Y-88735676D01*
X116068274Y-88713709D01*
X116218274Y-88713709D01*
X116271307Y-88735676D01*
X116271307Y-88735676D01*
G37*
D15*
X116143274Y-89451209D03*
D13*
G36*
X116771307Y-88735676D02*
G01*
X116793274Y-88788709D01*
X116793274Y-90113709D01*
X116771307Y-90166742D01*
X116718274Y-90188709D01*
X116568274Y-90188709D01*
X116515241Y-90166742D01*
X116493274Y-90113709D01*
X116493274Y-88788709D01*
X116515241Y-88735676D01*
X116568274Y-88713709D01*
X116718274Y-88713709D01*
X116771307Y-88735676D01*
X116771307Y-88735676D01*
G37*
D15*
X116643274Y-89451209D03*
D13*
G36*
X117271307Y-88735676D02*
G01*
X117293274Y-88788709D01*
X117293274Y-90113709D01*
X117271307Y-90166742D01*
X117218274Y-90188709D01*
X117068274Y-90188709D01*
X117015241Y-90166742D01*
X116993274Y-90113709D01*
X116993274Y-88788709D01*
X117015241Y-88735676D01*
X117068274Y-88713709D01*
X117218274Y-88713709D01*
X117271307Y-88735676D01*
X117271307Y-88735676D01*
G37*
D15*
X117143274Y-89451209D03*
D13*
G36*
X117771307Y-88735676D02*
G01*
X117793274Y-88788709D01*
X117793274Y-90113709D01*
X117771307Y-90166742D01*
X117718274Y-90188709D01*
X117568274Y-90188709D01*
X117515241Y-90166742D01*
X117493274Y-90113709D01*
X117493274Y-88788709D01*
X117515241Y-88735676D01*
X117568274Y-88713709D01*
X117718274Y-88713709D01*
X117771307Y-88735676D01*
X117771307Y-88735676D01*
G37*
D15*
X117643274Y-89451209D03*
D13*
G36*
X118271307Y-88735676D02*
G01*
X118293274Y-88788709D01*
X118293274Y-90113709D01*
X118271307Y-90166742D01*
X118218274Y-90188709D01*
X118068274Y-90188709D01*
X118015241Y-90166742D01*
X117993274Y-90113709D01*
X117993274Y-88788709D01*
X118015241Y-88735676D01*
X118068274Y-88713709D01*
X118218274Y-88713709D01*
X118271307Y-88735676D01*
X118271307Y-88735676D01*
G37*
D15*
X118143274Y-89451209D03*
D13*
G36*
X118771307Y-88735676D02*
G01*
X118793274Y-88788709D01*
X118793274Y-90113709D01*
X118771307Y-90166742D01*
X118718274Y-90188709D01*
X118568274Y-90188709D01*
X118515241Y-90166742D01*
X118493274Y-90113709D01*
X118493274Y-88788709D01*
X118515241Y-88735676D01*
X118568274Y-88713709D01*
X118718274Y-88713709D01*
X118771307Y-88735676D01*
X118771307Y-88735676D01*
G37*
D15*
X118643274Y-89451209D03*
D13*
G36*
X119271307Y-88735676D02*
G01*
X119293274Y-88788709D01*
X119293274Y-90113709D01*
X119271307Y-90166742D01*
X119218274Y-90188709D01*
X119068274Y-90188709D01*
X119015241Y-90166742D01*
X118993274Y-90113709D01*
X118993274Y-88788709D01*
X119015241Y-88735676D01*
X119068274Y-88713709D01*
X119218274Y-88713709D01*
X119271307Y-88735676D01*
X119271307Y-88735676D01*
G37*
D15*
X119143274Y-89451209D03*
D13*
G36*
X119771307Y-88735676D02*
G01*
X119793274Y-88788709D01*
X119793274Y-90113709D01*
X119771307Y-90166742D01*
X119718274Y-90188709D01*
X119568274Y-90188709D01*
X119515241Y-90166742D01*
X119493274Y-90113709D01*
X119493274Y-88788709D01*
X119515241Y-88735676D01*
X119568274Y-88713709D01*
X119718274Y-88713709D01*
X119771307Y-88735676D01*
X119771307Y-88735676D01*
G37*
D15*
X119643274Y-89451209D03*
D13*
G36*
X120271307Y-88735676D02*
G01*
X120293274Y-88788709D01*
X120293274Y-90113709D01*
X120271307Y-90166742D01*
X120218274Y-90188709D01*
X120068274Y-90188709D01*
X120015241Y-90166742D01*
X119993274Y-90113709D01*
X119993274Y-88788709D01*
X120015241Y-88735676D01*
X120068274Y-88713709D01*
X120218274Y-88713709D01*
X120271307Y-88735676D01*
X120271307Y-88735676D01*
G37*
D15*
X120143274Y-89451209D03*
D13*
G36*
X120771307Y-88735676D02*
G01*
X120793274Y-88788709D01*
X120793274Y-90113709D01*
X120771307Y-90166742D01*
X120718274Y-90188709D01*
X120568274Y-90188709D01*
X120515241Y-90166742D01*
X120493274Y-90113709D01*
X120493274Y-88788709D01*
X120515241Y-88735676D01*
X120568274Y-88713709D01*
X120718274Y-88713709D01*
X120771307Y-88735676D01*
X120771307Y-88735676D01*
G37*
D15*
X120643274Y-89451209D03*
D13*
G36*
X121271307Y-88735676D02*
G01*
X121293274Y-88788709D01*
X121293274Y-90113709D01*
X121271307Y-90166742D01*
X121218274Y-90188709D01*
X121068274Y-90188709D01*
X121015241Y-90166742D01*
X120993274Y-90113709D01*
X120993274Y-88788709D01*
X121015241Y-88735676D01*
X121068274Y-88713709D01*
X121218274Y-88713709D01*
X121271307Y-88735676D01*
X121271307Y-88735676D01*
G37*
D15*
X121143274Y-89451209D03*
D13*
G36*
X121771307Y-88735676D02*
G01*
X121793274Y-88788709D01*
X121793274Y-90113709D01*
X121771307Y-90166742D01*
X121718274Y-90188709D01*
X121568274Y-90188709D01*
X121515241Y-90166742D01*
X121493274Y-90113709D01*
X121493274Y-88788709D01*
X121515241Y-88735676D01*
X121568274Y-88713709D01*
X121718274Y-88713709D01*
X121771307Y-88735676D01*
X121771307Y-88735676D01*
G37*
D15*
X121643274Y-89451209D03*
D13*
G36*
X122271307Y-88735676D02*
G01*
X122293274Y-88788709D01*
X122293274Y-90113709D01*
X122271307Y-90166742D01*
X122218274Y-90188709D01*
X122068274Y-90188709D01*
X122015241Y-90166742D01*
X121993274Y-90113709D01*
X121993274Y-88788709D01*
X122015241Y-88735676D01*
X122068274Y-88713709D01*
X122218274Y-88713709D01*
X122271307Y-88735676D01*
X122271307Y-88735676D01*
G37*
D15*
X122143274Y-89451209D03*
D13*
G36*
X122771307Y-88735676D02*
G01*
X122793274Y-88788709D01*
X122793274Y-90113709D01*
X122771307Y-90166742D01*
X122718274Y-90188709D01*
X122568274Y-90188709D01*
X122515241Y-90166742D01*
X122493274Y-90113709D01*
X122493274Y-88788709D01*
X122515241Y-88735676D01*
X122568274Y-88713709D01*
X122718274Y-88713709D01*
X122771307Y-88735676D01*
X122771307Y-88735676D01*
G37*
D15*
X122643274Y-89451209D03*
D13*
G36*
X123271307Y-88735676D02*
G01*
X123293274Y-88788709D01*
X123293274Y-90113709D01*
X123271307Y-90166742D01*
X123218274Y-90188709D01*
X123068274Y-90188709D01*
X123015241Y-90166742D01*
X122993274Y-90113709D01*
X122993274Y-88788709D01*
X123015241Y-88735676D01*
X123068274Y-88713709D01*
X123218274Y-88713709D01*
X123271307Y-88735676D01*
X123271307Y-88735676D01*
G37*
D15*
X123143274Y-89451209D03*
D13*
G36*
X123771307Y-88735676D02*
G01*
X123793274Y-88788709D01*
X123793274Y-90113709D01*
X123771307Y-90166742D01*
X123718274Y-90188709D01*
X123568274Y-90188709D01*
X123515241Y-90166742D01*
X123493274Y-90113709D01*
X123493274Y-88788709D01*
X123515241Y-88735676D01*
X123568274Y-88713709D01*
X123718274Y-88713709D01*
X123771307Y-88735676D01*
X123771307Y-88735676D01*
G37*
D15*
X123643274Y-89451209D03*
D13*
G36*
X124271307Y-88735676D02*
G01*
X124293274Y-88788709D01*
X124293274Y-90113709D01*
X124271307Y-90166742D01*
X124218274Y-90188709D01*
X124068274Y-90188709D01*
X124015241Y-90166742D01*
X123993274Y-90113709D01*
X123993274Y-88788709D01*
X124015241Y-88735676D01*
X124068274Y-88713709D01*
X124218274Y-88713709D01*
X124271307Y-88735676D01*
X124271307Y-88735676D01*
G37*
D15*
X124143274Y-89451209D03*
D13*
G36*
X124771307Y-88735676D02*
G01*
X124793274Y-88788709D01*
X124793274Y-90113709D01*
X124771307Y-90166742D01*
X124718274Y-90188709D01*
X124568274Y-90188709D01*
X124515241Y-90166742D01*
X124493274Y-90113709D01*
X124493274Y-88788709D01*
X124515241Y-88735676D01*
X124568274Y-88713709D01*
X124718274Y-88713709D01*
X124771307Y-88735676D01*
X124771307Y-88735676D01*
G37*
D15*
X124643274Y-89451209D03*
D13*
G36*
X125271307Y-88735676D02*
G01*
X125293274Y-88788709D01*
X125293274Y-90113709D01*
X125271307Y-90166742D01*
X125218274Y-90188709D01*
X125068274Y-90188709D01*
X125015241Y-90166742D01*
X124993274Y-90113709D01*
X124993274Y-88788709D01*
X125015241Y-88735676D01*
X125068274Y-88713709D01*
X125218274Y-88713709D01*
X125271307Y-88735676D01*
X125271307Y-88735676D01*
G37*
D15*
X125143274Y-89451209D03*
D13*
G36*
X125771307Y-88735676D02*
G01*
X125793274Y-88788709D01*
X125793274Y-90113709D01*
X125771307Y-90166742D01*
X125718274Y-90188709D01*
X125568274Y-90188709D01*
X125515241Y-90166742D01*
X125493274Y-90113709D01*
X125493274Y-88788709D01*
X125515241Y-88735676D01*
X125568274Y-88713709D01*
X125718274Y-88713709D01*
X125771307Y-88735676D01*
X125771307Y-88735676D01*
G37*
D15*
X125643274Y-89451209D03*
D13*
G36*
X126271307Y-88735676D02*
G01*
X126293274Y-88788709D01*
X126293274Y-90113709D01*
X126271307Y-90166742D01*
X126218274Y-90188709D01*
X126068274Y-90188709D01*
X126015241Y-90166742D01*
X125993274Y-90113709D01*
X125993274Y-88788709D01*
X126015241Y-88735676D01*
X126068274Y-88713709D01*
X126218274Y-88713709D01*
X126271307Y-88735676D01*
X126271307Y-88735676D01*
G37*
D15*
X126143274Y-89451209D03*
D13*
G36*
X126771307Y-88735676D02*
G01*
X126793274Y-88788709D01*
X126793274Y-90113709D01*
X126771307Y-90166742D01*
X126718274Y-90188709D01*
X126568274Y-90188709D01*
X126515241Y-90166742D01*
X126493274Y-90113709D01*
X126493274Y-88788709D01*
X126515241Y-88735676D01*
X126568274Y-88713709D01*
X126718274Y-88713709D01*
X126771307Y-88735676D01*
X126771307Y-88735676D01*
G37*
D15*
X126643274Y-89451209D03*
D13*
G36*
X127271307Y-88735676D02*
G01*
X127293274Y-88788709D01*
X127293274Y-90113709D01*
X127271307Y-90166742D01*
X127218274Y-90188709D01*
X127068274Y-90188709D01*
X127015241Y-90166742D01*
X126993274Y-90113709D01*
X126993274Y-88788709D01*
X127015241Y-88735676D01*
X127068274Y-88713709D01*
X127218274Y-88713709D01*
X127271307Y-88735676D01*
X127271307Y-88735676D01*
G37*
D15*
X127143274Y-89451209D03*
D13*
G36*
X127771307Y-88735676D02*
G01*
X127793274Y-88788709D01*
X127793274Y-90113709D01*
X127771307Y-90166742D01*
X127718274Y-90188709D01*
X127568274Y-90188709D01*
X127515241Y-90166742D01*
X127493274Y-90113709D01*
X127493274Y-88788709D01*
X127515241Y-88735676D01*
X127568274Y-88713709D01*
X127718274Y-88713709D01*
X127771307Y-88735676D01*
X127771307Y-88735676D01*
G37*
D15*
X127643274Y-89451209D03*
D13*
G36*
X128271307Y-88735676D02*
G01*
X128293274Y-88788709D01*
X128293274Y-90113709D01*
X128271307Y-90166742D01*
X128218274Y-90188709D01*
X128068274Y-90188709D01*
X128015241Y-90166742D01*
X127993274Y-90113709D01*
X127993274Y-88788709D01*
X128015241Y-88735676D01*
X128068274Y-88713709D01*
X128218274Y-88713709D01*
X128271307Y-88735676D01*
X128271307Y-88735676D01*
G37*
D15*
X128143274Y-89451209D03*
D13*
G36*
X128771307Y-88735676D02*
G01*
X128793274Y-88788709D01*
X128793274Y-90113709D01*
X128771307Y-90166742D01*
X128718274Y-90188709D01*
X128568274Y-90188709D01*
X128515241Y-90166742D01*
X128493274Y-90113709D01*
X128493274Y-88788709D01*
X128515241Y-88735676D01*
X128568274Y-88713709D01*
X128718274Y-88713709D01*
X128771307Y-88735676D01*
X128771307Y-88735676D01*
G37*
D15*
X128643274Y-89451209D03*
D13*
G36*
X129271307Y-88735676D02*
G01*
X129293274Y-88788709D01*
X129293274Y-90113709D01*
X129271307Y-90166742D01*
X129218274Y-90188709D01*
X129068274Y-90188709D01*
X129015241Y-90166742D01*
X128993274Y-90113709D01*
X128993274Y-88788709D01*
X129015241Y-88735676D01*
X129068274Y-88713709D01*
X129218274Y-88713709D01*
X129271307Y-88735676D01*
X129271307Y-88735676D01*
G37*
D15*
X129143274Y-89451209D03*
D13*
G36*
X129771307Y-88735676D02*
G01*
X129793274Y-88788709D01*
X129793274Y-90113709D01*
X129771307Y-90166742D01*
X129718274Y-90188709D01*
X129568274Y-90188709D01*
X129515241Y-90166742D01*
X129493274Y-90113709D01*
X129493274Y-88788709D01*
X129515241Y-88735676D01*
X129568274Y-88713709D01*
X129718274Y-88713709D01*
X129771307Y-88735676D01*
X129771307Y-88735676D01*
G37*
D15*
X129643274Y-89451209D03*
D13*
G36*
X130271307Y-88735676D02*
G01*
X130293274Y-88788709D01*
X130293274Y-90113709D01*
X130271307Y-90166742D01*
X130218274Y-90188709D01*
X130068274Y-90188709D01*
X130015241Y-90166742D01*
X129993274Y-90113709D01*
X129993274Y-88788709D01*
X130015241Y-88735676D01*
X130068274Y-88713709D01*
X130218274Y-88713709D01*
X130271307Y-88735676D01*
X130271307Y-88735676D01*
G37*
D15*
X130143274Y-89451209D03*
D13*
G36*
X130771307Y-88735676D02*
G01*
X130793274Y-88788709D01*
X130793274Y-90113709D01*
X130771307Y-90166742D01*
X130718274Y-90188709D01*
X130568274Y-90188709D01*
X130515241Y-90166742D01*
X130493274Y-90113709D01*
X130493274Y-88788709D01*
X130515241Y-88735676D01*
X130568274Y-88713709D01*
X130718274Y-88713709D01*
X130771307Y-88735676D01*
X130771307Y-88735676D01*
G37*
D15*
X130643274Y-89451209D03*
D13*
G36*
X131271307Y-88735676D02*
G01*
X131293274Y-88788709D01*
X131293274Y-90113709D01*
X131271307Y-90166742D01*
X131218274Y-90188709D01*
X131068274Y-90188709D01*
X131015241Y-90166742D01*
X130993274Y-90113709D01*
X130993274Y-88788709D01*
X131015241Y-88735676D01*
X131068274Y-88713709D01*
X131218274Y-88713709D01*
X131271307Y-88735676D01*
X131271307Y-88735676D01*
G37*
D15*
X131143274Y-89451209D03*
D13*
G36*
X131771307Y-88735676D02*
G01*
X131793274Y-88788709D01*
X131793274Y-90113709D01*
X131771307Y-90166742D01*
X131718274Y-90188709D01*
X131568274Y-90188709D01*
X131515241Y-90166742D01*
X131493274Y-90113709D01*
X131493274Y-88788709D01*
X131515241Y-88735676D01*
X131568274Y-88713709D01*
X131718274Y-88713709D01*
X131771307Y-88735676D01*
X131771307Y-88735676D01*
G37*
D15*
X131643274Y-89451209D03*
D13*
G36*
X132271307Y-88735676D02*
G01*
X132293274Y-88788709D01*
X132293274Y-90113709D01*
X132271307Y-90166742D01*
X132218274Y-90188709D01*
X132068274Y-90188709D01*
X132015241Y-90166742D01*
X131993274Y-90113709D01*
X131993274Y-88788709D01*
X132015241Y-88735676D01*
X132068274Y-88713709D01*
X132218274Y-88713709D01*
X132271307Y-88735676D01*
X132271307Y-88735676D01*
G37*
D15*
X132143274Y-89451209D03*
D13*
G36*
X132771307Y-88735676D02*
G01*
X132793274Y-88788709D01*
X132793274Y-90113709D01*
X132771307Y-90166742D01*
X132718274Y-90188709D01*
X132568274Y-90188709D01*
X132515241Y-90166742D01*
X132493274Y-90113709D01*
X132493274Y-88788709D01*
X132515241Y-88735676D01*
X132568274Y-88713709D01*
X132718274Y-88713709D01*
X132771307Y-88735676D01*
X132771307Y-88735676D01*
G37*
D15*
X132643274Y-89451209D03*
D13*
G36*
X133271307Y-88735676D02*
G01*
X133293274Y-88788709D01*
X133293274Y-90113709D01*
X133271307Y-90166742D01*
X133218274Y-90188709D01*
X133068274Y-90188709D01*
X133015241Y-90166742D01*
X132993274Y-90113709D01*
X132993274Y-88788709D01*
X133015241Y-88735676D01*
X133068274Y-88713709D01*
X133218274Y-88713709D01*
X133271307Y-88735676D01*
X133271307Y-88735676D01*
G37*
D15*
X133143274Y-89451209D03*
D13*
G36*
X133771307Y-88735676D02*
G01*
X133793274Y-88788709D01*
X133793274Y-90113709D01*
X133771307Y-90166742D01*
X133718274Y-90188709D01*
X133568274Y-90188709D01*
X133515241Y-90166742D01*
X133493274Y-90113709D01*
X133493274Y-88788709D01*
X133515241Y-88735676D01*
X133568274Y-88713709D01*
X133718274Y-88713709D01*
X133771307Y-88735676D01*
X133771307Y-88735676D01*
G37*
D15*
X133643274Y-89451209D03*
D13*
G36*
X136271307Y-87410676D02*
G01*
X136293274Y-87463709D01*
X136293274Y-87613709D01*
X136271307Y-87666742D01*
X136218274Y-87688709D01*
X134893274Y-87688709D01*
X134840241Y-87666742D01*
X134818274Y-87613709D01*
X134818274Y-87463709D01*
X134840241Y-87410676D01*
X134893274Y-87388709D01*
X136218274Y-87388709D01*
X136271307Y-87410676D01*
X136271307Y-87410676D01*
G37*
D15*
X135555774Y-87538709D03*
D13*
G36*
X136271307Y-86910676D02*
G01*
X136293274Y-86963709D01*
X136293274Y-87113709D01*
X136271307Y-87166742D01*
X136218274Y-87188709D01*
X134893274Y-87188709D01*
X134840241Y-87166742D01*
X134818274Y-87113709D01*
X134818274Y-86963709D01*
X134840241Y-86910676D01*
X134893274Y-86888709D01*
X136218274Y-86888709D01*
X136271307Y-86910676D01*
X136271307Y-86910676D01*
G37*
D15*
X135555774Y-87038709D03*
D13*
G36*
X136271307Y-86410676D02*
G01*
X136293274Y-86463709D01*
X136293274Y-86613709D01*
X136271307Y-86666742D01*
X136218274Y-86688709D01*
X134893274Y-86688709D01*
X134840241Y-86666742D01*
X134818274Y-86613709D01*
X134818274Y-86463709D01*
X134840241Y-86410676D01*
X134893274Y-86388709D01*
X136218274Y-86388709D01*
X136271307Y-86410676D01*
X136271307Y-86410676D01*
G37*
D15*
X135555774Y-86538709D03*
D13*
G36*
X136271307Y-85910676D02*
G01*
X136293274Y-85963709D01*
X136293274Y-86113709D01*
X136271307Y-86166742D01*
X136218274Y-86188709D01*
X134893274Y-86188709D01*
X134840241Y-86166742D01*
X134818274Y-86113709D01*
X134818274Y-85963709D01*
X134840241Y-85910676D01*
X134893274Y-85888709D01*
X136218274Y-85888709D01*
X136271307Y-85910676D01*
X136271307Y-85910676D01*
G37*
D15*
X135555774Y-86038709D03*
D13*
G36*
X136271307Y-85410676D02*
G01*
X136293274Y-85463709D01*
X136293274Y-85613709D01*
X136271307Y-85666742D01*
X136218274Y-85688709D01*
X134893274Y-85688709D01*
X134840241Y-85666742D01*
X134818274Y-85613709D01*
X134818274Y-85463709D01*
X134840241Y-85410676D01*
X134893274Y-85388709D01*
X136218274Y-85388709D01*
X136271307Y-85410676D01*
X136271307Y-85410676D01*
G37*
D15*
X135555774Y-85538709D03*
D13*
G36*
X136271307Y-84910676D02*
G01*
X136293274Y-84963709D01*
X136293274Y-85113709D01*
X136271307Y-85166742D01*
X136218274Y-85188709D01*
X134893274Y-85188709D01*
X134840241Y-85166742D01*
X134818274Y-85113709D01*
X134818274Y-84963709D01*
X134840241Y-84910676D01*
X134893274Y-84888709D01*
X136218274Y-84888709D01*
X136271307Y-84910676D01*
X136271307Y-84910676D01*
G37*
D15*
X135555774Y-85038709D03*
D13*
G36*
X136271307Y-84410676D02*
G01*
X136293274Y-84463709D01*
X136293274Y-84613709D01*
X136271307Y-84666742D01*
X136218274Y-84688709D01*
X134893274Y-84688709D01*
X134840241Y-84666742D01*
X134818274Y-84613709D01*
X134818274Y-84463709D01*
X134840241Y-84410676D01*
X134893274Y-84388709D01*
X136218274Y-84388709D01*
X136271307Y-84410676D01*
X136271307Y-84410676D01*
G37*
D15*
X135555774Y-84538709D03*
D13*
G36*
X136271307Y-83910676D02*
G01*
X136293274Y-83963709D01*
X136293274Y-84113709D01*
X136271307Y-84166742D01*
X136218274Y-84188709D01*
X134893274Y-84188709D01*
X134840241Y-84166742D01*
X134818274Y-84113709D01*
X134818274Y-83963709D01*
X134840241Y-83910676D01*
X134893274Y-83888709D01*
X136218274Y-83888709D01*
X136271307Y-83910676D01*
X136271307Y-83910676D01*
G37*
D15*
X135555774Y-84038709D03*
D13*
G36*
X136271307Y-83410676D02*
G01*
X136293274Y-83463709D01*
X136293274Y-83613709D01*
X136271307Y-83666742D01*
X136218274Y-83688709D01*
X134893274Y-83688709D01*
X134840241Y-83666742D01*
X134818274Y-83613709D01*
X134818274Y-83463709D01*
X134840241Y-83410676D01*
X134893274Y-83388709D01*
X136218274Y-83388709D01*
X136271307Y-83410676D01*
X136271307Y-83410676D01*
G37*
D15*
X135555774Y-83538709D03*
D13*
G36*
X136271307Y-82910676D02*
G01*
X136293274Y-82963709D01*
X136293274Y-83113709D01*
X136271307Y-83166742D01*
X136218274Y-83188709D01*
X134893274Y-83188709D01*
X134840241Y-83166742D01*
X134818274Y-83113709D01*
X134818274Y-82963709D01*
X134840241Y-82910676D01*
X134893274Y-82888709D01*
X136218274Y-82888709D01*
X136271307Y-82910676D01*
X136271307Y-82910676D01*
G37*
D15*
X135555774Y-83038709D03*
D13*
G36*
X136271307Y-82410676D02*
G01*
X136293274Y-82463709D01*
X136293274Y-82613709D01*
X136271307Y-82666742D01*
X136218274Y-82688709D01*
X134893274Y-82688709D01*
X134840241Y-82666742D01*
X134818274Y-82613709D01*
X134818274Y-82463709D01*
X134840241Y-82410676D01*
X134893274Y-82388709D01*
X136218274Y-82388709D01*
X136271307Y-82410676D01*
X136271307Y-82410676D01*
G37*
D15*
X135555774Y-82538709D03*
D13*
G36*
X136271307Y-81910676D02*
G01*
X136293274Y-81963709D01*
X136293274Y-82113709D01*
X136271307Y-82166742D01*
X136218274Y-82188709D01*
X134893274Y-82188709D01*
X134840241Y-82166742D01*
X134818274Y-82113709D01*
X134818274Y-81963709D01*
X134840241Y-81910676D01*
X134893274Y-81888709D01*
X136218274Y-81888709D01*
X136271307Y-81910676D01*
X136271307Y-81910676D01*
G37*
D15*
X135555774Y-82038709D03*
D13*
G36*
X136271307Y-81410676D02*
G01*
X136293274Y-81463709D01*
X136293274Y-81613709D01*
X136271307Y-81666742D01*
X136218274Y-81688709D01*
X134893274Y-81688709D01*
X134840241Y-81666742D01*
X134818274Y-81613709D01*
X134818274Y-81463709D01*
X134840241Y-81410676D01*
X134893274Y-81388709D01*
X136218274Y-81388709D01*
X136271307Y-81410676D01*
X136271307Y-81410676D01*
G37*
D15*
X135555774Y-81538709D03*
D13*
G36*
X136271307Y-80910676D02*
G01*
X136293274Y-80963709D01*
X136293274Y-81113709D01*
X136271307Y-81166742D01*
X136218274Y-81188709D01*
X134893274Y-81188709D01*
X134840241Y-81166742D01*
X134818274Y-81113709D01*
X134818274Y-80963709D01*
X134840241Y-80910676D01*
X134893274Y-80888709D01*
X136218274Y-80888709D01*
X136271307Y-80910676D01*
X136271307Y-80910676D01*
G37*
D15*
X135555774Y-81038709D03*
D13*
G36*
X136271307Y-80410676D02*
G01*
X136293274Y-80463709D01*
X136293274Y-80613709D01*
X136271307Y-80666742D01*
X136218274Y-80688709D01*
X134893274Y-80688709D01*
X134840241Y-80666742D01*
X134818274Y-80613709D01*
X134818274Y-80463709D01*
X134840241Y-80410676D01*
X134893274Y-80388709D01*
X136218274Y-80388709D01*
X136271307Y-80410676D01*
X136271307Y-80410676D01*
G37*
D15*
X135555774Y-80538709D03*
D13*
G36*
X136271307Y-79910676D02*
G01*
X136293274Y-79963709D01*
X136293274Y-80113709D01*
X136271307Y-80166742D01*
X136218274Y-80188709D01*
X134893274Y-80188709D01*
X134840241Y-80166742D01*
X134818274Y-80113709D01*
X134818274Y-79963709D01*
X134840241Y-79910676D01*
X134893274Y-79888709D01*
X136218274Y-79888709D01*
X136271307Y-79910676D01*
X136271307Y-79910676D01*
G37*
D15*
X135555774Y-80038709D03*
D13*
G36*
X136271307Y-79410676D02*
G01*
X136293274Y-79463709D01*
X136293274Y-79613709D01*
X136271307Y-79666742D01*
X136218274Y-79688709D01*
X134893274Y-79688709D01*
X134840241Y-79666742D01*
X134818274Y-79613709D01*
X134818274Y-79463709D01*
X134840241Y-79410676D01*
X134893274Y-79388709D01*
X136218274Y-79388709D01*
X136271307Y-79410676D01*
X136271307Y-79410676D01*
G37*
D15*
X135555774Y-79538709D03*
D13*
G36*
X136271307Y-78910676D02*
G01*
X136293274Y-78963709D01*
X136293274Y-79113709D01*
X136271307Y-79166742D01*
X136218274Y-79188709D01*
X134893274Y-79188709D01*
X134840241Y-79166742D01*
X134818274Y-79113709D01*
X134818274Y-78963709D01*
X134840241Y-78910676D01*
X134893274Y-78888709D01*
X136218274Y-78888709D01*
X136271307Y-78910676D01*
X136271307Y-78910676D01*
G37*
D15*
X135555774Y-79038709D03*
D13*
G36*
X136271307Y-78410676D02*
G01*
X136293274Y-78463709D01*
X136293274Y-78613709D01*
X136271307Y-78666742D01*
X136218274Y-78688709D01*
X134893274Y-78688709D01*
X134840241Y-78666742D01*
X134818274Y-78613709D01*
X134818274Y-78463709D01*
X134840241Y-78410676D01*
X134893274Y-78388709D01*
X136218274Y-78388709D01*
X136271307Y-78410676D01*
X136271307Y-78410676D01*
G37*
D15*
X135555774Y-78538709D03*
D13*
G36*
X136271307Y-77910676D02*
G01*
X136293274Y-77963709D01*
X136293274Y-78113709D01*
X136271307Y-78166742D01*
X136218274Y-78188709D01*
X134893274Y-78188709D01*
X134840241Y-78166742D01*
X134818274Y-78113709D01*
X134818274Y-77963709D01*
X134840241Y-77910676D01*
X134893274Y-77888709D01*
X136218274Y-77888709D01*
X136271307Y-77910676D01*
X136271307Y-77910676D01*
G37*
D15*
X135555774Y-78038709D03*
D13*
G36*
X136271307Y-77410676D02*
G01*
X136293274Y-77463709D01*
X136293274Y-77613709D01*
X136271307Y-77666742D01*
X136218274Y-77688709D01*
X134893274Y-77688709D01*
X134840241Y-77666742D01*
X134818274Y-77613709D01*
X134818274Y-77463709D01*
X134840241Y-77410676D01*
X134893274Y-77388709D01*
X136218274Y-77388709D01*
X136271307Y-77410676D01*
X136271307Y-77410676D01*
G37*
D15*
X135555774Y-77538709D03*
D13*
G36*
X136271307Y-76910676D02*
G01*
X136293274Y-76963709D01*
X136293274Y-77113709D01*
X136271307Y-77166742D01*
X136218274Y-77188709D01*
X134893274Y-77188709D01*
X134840241Y-77166742D01*
X134818274Y-77113709D01*
X134818274Y-76963709D01*
X134840241Y-76910676D01*
X134893274Y-76888709D01*
X136218274Y-76888709D01*
X136271307Y-76910676D01*
X136271307Y-76910676D01*
G37*
D15*
X135555774Y-77038709D03*
D13*
G36*
X136271307Y-76410676D02*
G01*
X136293274Y-76463709D01*
X136293274Y-76613709D01*
X136271307Y-76666742D01*
X136218274Y-76688709D01*
X134893274Y-76688709D01*
X134840241Y-76666742D01*
X134818274Y-76613709D01*
X134818274Y-76463709D01*
X134840241Y-76410676D01*
X134893274Y-76388709D01*
X136218274Y-76388709D01*
X136271307Y-76410676D01*
X136271307Y-76410676D01*
G37*
D15*
X135555774Y-76538709D03*
D13*
G36*
X136271307Y-75910676D02*
G01*
X136293274Y-75963709D01*
X136293274Y-76113709D01*
X136271307Y-76166742D01*
X136218274Y-76188709D01*
X134893274Y-76188709D01*
X134840241Y-76166742D01*
X134818274Y-76113709D01*
X134818274Y-75963709D01*
X134840241Y-75910676D01*
X134893274Y-75888709D01*
X136218274Y-75888709D01*
X136271307Y-75910676D01*
X136271307Y-75910676D01*
G37*
D15*
X135555774Y-76038709D03*
D13*
G36*
X136271307Y-75410676D02*
G01*
X136293274Y-75463709D01*
X136293274Y-75613709D01*
X136271307Y-75666742D01*
X136218274Y-75688709D01*
X134893274Y-75688709D01*
X134840241Y-75666742D01*
X134818274Y-75613709D01*
X134818274Y-75463709D01*
X134840241Y-75410676D01*
X134893274Y-75388709D01*
X136218274Y-75388709D01*
X136271307Y-75410676D01*
X136271307Y-75410676D01*
G37*
D15*
X135555774Y-75538709D03*
D13*
G36*
X136271307Y-74910676D02*
G01*
X136293274Y-74963709D01*
X136293274Y-75113709D01*
X136271307Y-75166742D01*
X136218274Y-75188709D01*
X134893274Y-75188709D01*
X134840241Y-75166742D01*
X134818274Y-75113709D01*
X134818274Y-74963709D01*
X134840241Y-74910676D01*
X134893274Y-74888709D01*
X136218274Y-74888709D01*
X136271307Y-74910676D01*
X136271307Y-74910676D01*
G37*
D15*
X135555774Y-75038709D03*
D13*
G36*
X136271307Y-74410676D02*
G01*
X136293274Y-74463709D01*
X136293274Y-74613709D01*
X136271307Y-74666742D01*
X136218274Y-74688709D01*
X134893274Y-74688709D01*
X134840241Y-74666742D01*
X134818274Y-74613709D01*
X134818274Y-74463709D01*
X134840241Y-74410676D01*
X134893274Y-74388709D01*
X136218274Y-74388709D01*
X136271307Y-74410676D01*
X136271307Y-74410676D01*
G37*
D15*
X135555774Y-74538709D03*
D13*
G36*
X136271307Y-73910676D02*
G01*
X136293274Y-73963709D01*
X136293274Y-74113709D01*
X136271307Y-74166742D01*
X136218274Y-74188709D01*
X134893274Y-74188709D01*
X134840241Y-74166742D01*
X134818274Y-74113709D01*
X134818274Y-73963709D01*
X134840241Y-73910676D01*
X134893274Y-73888709D01*
X136218274Y-73888709D01*
X136271307Y-73910676D01*
X136271307Y-73910676D01*
G37*
D15*
X135555774Y-74038709D03*
D13*
G36*
X136271307Y-73410676D02*
G01*
X136293274Y-73463709D01*
X136293274Y-73613709D01*
X136271307Y-73666742D01*
X136218274Y-73688709D01*
X134893274Y-73688709D01*
X134840241Y-73666742D01*
X134818274Y-73613709D01*
X134818274Y-73463709D01*
X134840241Y-73410676D01*
X134893274Y-73388709D01*
X136218274Y-73388709D01*
X136271307Y-73410676D01*
X136271307Y-73410676D01*
G37*
D15*
X135555774Y-73538709D03*
D13*
G36*
X136271307Y-72910676D02*
G01*
X136293274Y-72963709D01*
X136293274Y-73113709D01*
X136271307Y-73166742D01*
X136218274Y-73188709D01*
X134893274Y-73188709D01*
X134840241Y-73166742D01*
X134818274Y-73113709D01*
X134818274Y-72963709D01*
X134840241Y-72910676D01*
X134893274Y-72888709D01*
X136218274Y-72888709D01*
X136271307Y-72910676D01*
X136271307Y-72910676D01*
G37*
D15*
X135555774Y-73038709D03*
D13*
G36*
X136271307Y-72410676D02*
G01*
X136293274Y-72463709D01*
X136293274Y-72613709D01*
X136271307Y-72666742D01*
X136218274Y-72688709D01*
X134893274Y-72688709D01*
X134840241Y-72666742D01*
X134818274Y-72613709D01*
X134818274Y-72463709D01*
X134840241Y-72410676D01*
X134893274Y-72388709D01*
X136218274Y-72388709D01*
X136271307Y-72410676D01*
X136271307Y-72410676D01*
G37*
D15*
X135555774Y-72538709D03*
D13*
G36*
X136271307Y-71910676D02*
G01*
X136293274Y-71963709D01*
X136293274Y-72113709D01*
X136271307Y-72166742D01*
X136218274Y-72188709D01*
X134893274Y-72188709D01*
X134840241Y-72166742D01*
X134818274Y-72113709D01*
X134818274Y-71963709D01*
X134840241Y-71910676D01*
X134893274Y-71888709D01*
X136218274Y-71888709D01*
X136271307Y-71910676D01*
X136271307Y-71910676D01*
G37*
D15*
X135555774Y-72038709D03*
D13*
G36*
X136271307Y-71410676D02*
G01*
X136293274Y-71463709D01*
X136293274Y-71613709D01*
X136271307Y-71666742D01*
X136218274Y-71688709D01*
X134893274Y-71688709D01*
X134840241Y-71666742D01*
X134818274Y-71613709D01*
X134818274Y-71463709D01*
X134840241Y-71410676D01*
X134893274Y-71388709D01*
X136218274Y-71388709D01*
X136271307Y-71410676D01*
X136271307Y-71410676D01*
G37*
D15*
X135555774Y-71538709D03*
D13*
G36*
X136271307Y-70910676D02*
G01*
X136293274Y-70963709D01*
X136293274Y-71113709D01*
X136271307Y-71166742D01*
X136218274Y-71188709D01*
X134893274Y-71188709D01*
X134840241Y-71166742D01*
X134818274Y-71113709D01*
X134818274Y-70963709D01*
X134840241Y-70910676D01*
X134893274Y-70888709D01*
X136218274Y-70888709D01*
X136271307Y-70910676D01*
X136271307Y-70910676D01*
G37*
D15*
X135555774Y-71038709D03*
D13*
G36*
X136271307Y-70410676D02*
G01*
X136293274Y-70463709D01*
X136293274Y-70613709D01*
X136271307Y-70666742D01*
X136218274Y-70688709D01*
X134893274Y-70688709D01*
X134840241Y-70666742D01*
X134818274Y-70613709D01*
X134818274Y-70463709D01*
X134840241Y-70410676D01*
X134893274Y-70388709D01*
X136218274Y-70388709D01*
X136271307Y-70410676D01*
X136271307Y-70410676D01*
G37*
D15*
X135555774Y-70538709D03*
D13*
G36*
X136271307Y-69910676D02*
G01*
X136293274Y-69963709D01*
X136293274Y-70113709D01*
X136271307Y-70166742D01*
X136218274Y-70188709D01*
X134893274Y-70188709D01*
X134840241Y-70166742D01*
X134818274Y-70113709D01*
X134818274Y-69963709D01*
X134840241Y-69910676D01*
X134893274Y-69888709D01*
X136218274Y-69888709D01*
X136271307Y-69910676D01*
X136271307Y-69910676D01*
G37*
D15*
X135555774Y-70038709D03*
D13*
G36*
X133771307Y-67410676D02*
G01*
X133793274Y-67463709D01*
X133793274Y-68788709D01*
X133771307Y-68841742D01*
X133718274Y-68863709D01*
X133568274Y-68863709D01*
X133515241Y-68841742D01*
X133493274Y-68788709D01*
X133493274Y-67463709D01*
X133515241Y-67410676D01*
X133568274Y-67388709D01*
X133718274Y-67388709D01*
X133771307Y-67410676D01*
X133771307Y-67410676D01*
G37*
D15*
X133643274Y-68126209D03*
D13*
G36*
X133271307Y-67410676D02*
G01*
X133293274Y-67463709D01*
X133293274Y-68788709D01*
X133271307Y-68841742D01*
X133218274Y-68863709D01*
X133068274Y-68863709D01*
X133015241Y-68841742D01*
X132993274Y-68788709D01*
X132993274Y-67463709D01*
X133015241Y-67410676D01*
X133068274Y-67388709D01*
X133218274Y-67388709D01*
X133271307Y-67410676D01*
X133271307Y-67410676D01*
G37*
D15*
X133143274Y-68126209D03*
D13*
G36*
X132771307Y-67410676D02*
G01*
X132793274Y-67463709D01*
X132793274Y-68788709D01*
X132771307Y-68841742D01*
X132718274Y-68863709D01*
X132568274Y-68863709D01*
X132515241Y-68841742D01*
X132493274Y-68788709D01*
X132493274Y-67463709D01*
X132515241Y-67410676D01*
X132568274Y-67388709D01*
X132718274Y-67388709D01*
X132771307Y-67410676D01*
X132771307Y-67410676D01*
G37*
D15*
X132643274Y-68126209D03*
D13*
G36*
X132271307Y-67410676D02*
G01*
X132293274Y-67463709D01*
X132293274Y-68788709D01*
X132271307Y-68841742D01*
X132218274Y-68863709D01*
X132068274Y-68863709D01*
X132015241Y-68841742D01*
X131993274Y-68788709D01*
X131993274Y-67463709D01*
X132015241Y-67410676D01*
X132068274Y-67388709D01*
X132218274Y-67388709D01*
X132271307Y-67410676D01*
X132271307Y-67410676D01*
G37*
D15*
X132143274Y-68126209D03*
D13*
G36*
X131771307Y-67410676D02*
G01*
X131793274Y-67463709D01*
X131793274Y-68788709D01*
X131771307Y-68841742D01*
X131718274Y-68863709D01*
X131568274Y-68863709D01*
X131515241Y-68841742D01*
X131493274Y-68788709D01*
X131493274Y-67463709D01*
X131515241Y-67410676D01*
X131568274Y-67388709D01*
X131718274Y-67388709D01*
X131771307Y-67410676D01*
X131771307Y-67410676D01*
G37*
D15*
X131643274Y-68126209D03*
D13*
G36*
X131271307Y-67410676D02*
G01*
X131293274Y-67463709D01*
X131293274Y-68788709D01*
X131271307Y-68841742D01*
X131218274Y-68863709D01*
X131068274Y-68863709D01*
X131015241Y-68841742D01*
X130993274Y-68788709D01*
X130993274Y-67463709D01*
X131015241Y-67410676D01*
X131068274Y-67388709D01*
X131218274Y-67388709D01*
X131271307Y-67410676D01*
X131271307Y-67410676D01*
G37*
D15*
X131143274Y-68126209D03*
D13*
G36*
X130771307Y-67410676D02*
G01*
X130793274Y-67463709D01*
X130793274Y-68788709D01*
X130771307Y-68841742D01*
X130718274Y-68863709D01*
X130568274Y-68863709D01*
X130515241Y-68841742D01*
X130493274Y-68788709D01*
X130493274Y-67463709D01*
X130515241Y-67410676D01*
X130568274Y-67388709D01*
X130718274Y-67388709D01*
X130771307Y-67410676D01*
X130771307Y-67410676D01*
G37*
D15*
X130643274Y-68126209D03*
D13*
G36*
X130271307Y-67410676D02*
G01*
X130293274Y-67463709D01*
X130293274Y-68788709D01*
X130271307Y-68841742D01*
X130218274Y-68863709D01*
X130068274Y-68863709D01*
X130015241Y-68841742D01*
X129993274Y-68788709D01*
X129993274Y-67463709D01*
X130015241Y-67410676D01*
X130068274Y-67388709D01*
X130218274Y-67388709D01*
X130271307Y-67410676D01*
X130271307Y-67410676D01*
G37*
D15*
X130143274Y-68126209D03*
D13*
G36*
X129771307Y-67410676D02*
G01*
X129793274Y-67463709D01*
X129793274Y-68788709D01*
X129771307Y-68841742D01*
X129718274Y-68863709D01*
X129568274Y-68863709D01*
X129515241Y-68841742D01*
X129493274Y-68788709D01*
X129493274Y-67463709D01*
X129515241Y-67410676D01*
X129568274Y-67388709D01*
X129718274Y-67388709D01*
X129771307Y-67410676D01*
X129771307Y-67410676D01*
G37*
D15*
X129643274Y-68126209D03*
D13*
G36*
X129271307Y-67410676D02*
G01*
X129293274Y-67463709D01*
X129293274Y-68788709D01*
X129271307Y-68841742D01*
X129218274Y-68863709D01*
X129068274Y-68863709D01*
X129015241Y-68841742D01*
X128993274Y-68788709D01*
X128993274Y-67463709D01*
X129015241Y-67410676D01*
X129068274Y-67388709D01*
X129218274Y-67388709D01*
X129271307Y-67410676D01*
X129271307Y-67410676D01*
G37*
D15*
X129143274Y-68126209D03*
D13*
G36*
X128771307Y-67410676D02*
G01*
X128793274Y-67463709D01*
X128793274Y-68788709D01*
X128771307Y-68841742D01*
X128718274Y-68863709D01*
X128568274Y-68863709D01*
X128515241Y-68841742D01*
X128493274Y-68788709D01*
X128493274Y-67463709D01*
X128515241Y-67410676D01*
X128568274Y-67388709D01*
X128718274Y-67388709D01*
X128771307Y-67410676D01*
X128771307Y-67410676D01*
G37*
D15*
X128643274Y-68126209D03*
D13*
G36*
X128271307Y-67410676D02*
G01*
X128293274Y-67463709D01*
X128293274Y-68788709D01*
X128271307Y-68841742D01*
X128218274Y-68863709D01*
X128068274Y-68863709D01*
X128015241Y-68841742D01*
X127993274Y-68788709D01*
X127993274Y-67463709D01*
X128015241Y-67410676D01*
X128068274Y-67388709D01*
X128218274Y-67388709D01*
X128271307Y-67410676D01*
X128271307Y-67410676D01*
G37*
D15*
X128143274Y-68126209D03*
D13*
G36*
X127771307Y-67410676D02*
G01*
X127793274Y-67463709D01*
X127793274Y-68788709D01*
X127771307Y-68841742D01*
X127718274Y-68863709D01*
X127568274Y-68863709D01*
X127515241Y-68841742D01*
X127493274Y-68788709D01*
X127493274Y-67463709D01*
X127515241Y-67410676D01*
X127568274Y-67388709D01*
X127718274Y-67388709D01*
X127771307Y-67410676D01*
X127771307Y-67410676D01*
G37*
D15*
X127643274Y-68126209D03*
D13*
G36*
X127271307Y-67410676D02*
G01*
X127293274Y-67463709D01*
X127293274Y-68788709D01*
X127271307Y-68841742D01*
X127218274Y-68863709D01*
X127068274Y-68863709D01*
X127015241Y-68841742D01*
X126993274Y-68788709D01*
X126993274Y-67463709D01*
X127015241Y-67410676D01*
X127068274Y-67388709D01*
X127218274Y-67388709D01*
X127271307Y-67410676D01*
X127271307Y-67410676D01*
G37*
D15*
X127143274Y-68126209D03*
D13*
G36*
X126771307Y-67410676D02*
G01*
X126793274Y-67463709D01*
X126793274Y-68788709D01*
X126771307Y-68841742D01*
X126718274Y-68863709D01*
X126568274Y-68863709D01*
X126515241Y-68841742D01*
X126493274Y-68788709D01*
X126493274Y-67463709D01*
X126515241Y-67410676D01*
X126568274Y-67388709D01*
X126718274Y-67388709D01*
X126771307Y-67410676D01*
X126771307Y-67410676D01*
G37*
D15*
X126643274Y-68126209D03*
D13*
G36*
X126271307Y-67410676D02*
G01*
X126293274Y-67463709D01*
X126293274Y-68788709D01*
X126271307Y-68841742D01*
X126218274Y-68863709D01*
X126068274Y-68863709D01*
X126015241Y-68841742D01*
X125993274Y-68788709D01*
X125993274Y-67463709D01*
X126015241Y-67410676D01*
X126068274Y-67388709D01*
X126218274Y-67388709D01*
X126271307Y-67410676D01*
X126271307Y-67410676D01*
G37*
D15*
X126143274Y-68126209D03*
D13*
G36*
X125771307Y-67410676D02*
G01*
X125793274Y-67463709D01*
X125793274Y-68788709D01*
X125771307Y-68841742D01*
X125718274Y-68863709D01*
X125568274Y-68863709D01*
X125515241Y-68841742D01*
X125493274Y-68788709D01*
X125493274Y-67463709D01*
X125515241Y-67410676D01*
X125568274Y-67388709D01*
X125718274Y-67388709D01*
X125771307Y-67410676D01*
X125771307Y-67410676D01*
G37*
D15*
X125643274Y-68126209D03*
D13*
G36*
X125271307Y-67410676D02*
G01*
X125293274Y-67463709D01*
X125293274Y-68788709D01*
X125271307Y-68841742D01*
X125218274Y-68863709D01*
X125068274Y-68863709D01*
X125015241Y-68841742D01*
X124993274Y-68788709D01*
X124993274Y-67463709D01*
X125015241Y-67410676D01*
X125068274Y-67388709D01*
X125218274Y-67388709D01*
X125271307Y-67410676D01*
X125271307Y-67410676D01*
G37*
D15*
X125143274Y-68126209D03*
D13*
G36*
X124771307Y-67410676D02*
G01*
X124793274Y-67463709D01*
X124793274Y-68788709D01*
X124771307Y-68841742D01*
X124718274Y-68863709D01*
X124568274Y-68863709D01*
X124515241Y-68841742D01*
X124493274Y-68788709D01*
X124493274Y-67463709D01*
X124515241Y-67410676D01*
X124568274Y-67388709D01*
X124718274Y-67388709D01*
X124771307Y-67410676D01*
X124771307Y-67410676D01*
G37*
D15*
X124643274Y-68126209D03*
D13*
G36*
X124271307Y-67410676D02*
G01*
X124293274Y-67463709D01*
X124293274Y-68788709D01*
X124271307Y-68841742D01*
X124218274Y-68863709D01*
X124068274Y-68863709D01*
X124015241Y-68841742D01*
X123993274Y-68788709D01*
X123993274Y-67463709D01*
X124015241Y-67410676D01*
X124068274Y-67388709D01*
X124218274Y-67388709D01*
X124271307Y-67410676D01*
X124271307Y-67410676D01*
G37*
D15*
X124143274Y-68126209D03*
D13*
G36*
X123771307Y-67410676D02*
G01*
X123793274Y-67463709D01*
X123793274Y-68788709D01*
X123771307Y-68841742D01*
X123718274Y-68863709D01*
X123568274Y-68863709D01*
X123515241Y-68841742D01*
X123493274Y-68788709D01*
X123493274Y-67463709D01*
X123515241Y-67410676D01*
X123568274Y-67388709D01*
X123718274Y-67388709D01*
X123771307Y-67410676D01*
X123771307Y-67410676D01*
G37*
D15*
X123643274Y-68126209D03*
D13*
G36*
X123271307Y-67410676D02*
G01*
X123293274Y-67463709D01*
X123293274Y-68788709D01*
X123271307Y-68841742D01*
X123218274Y-68863709D01*
X123068274Y-68863709D01*
X123015241Y-68841742D01*
X122993274Y-68788709D01*
X122993274Y-67463709D01*
X123015241Y-67410676D01*
X123068274Y-67388709D01*
X123218274Y-67388709D01*
X123271307Y-67410676D01*
X123271307Y-67410676D01*
G37*
D15*
X123143274Y-68126209D03*
D13*
G36*
X122771307Y-67410676D02*
G01*
X122793274Y-67463709D01*
X122793274Y-68788709D01*
X122771307Y-68841742D01*
X122718274Y-68863709D01*
X122568274Y-68863709D01*
X122515241Y-68841742D01*
X122493274Y-68788709D01*
X122493274Y-67463709D01*
X122515241Y-67410676D01*
X122568274Y-67388709D01*
X122718274Y-67388709D01*
X122771307Y-67410676D01*
X122771307Y-67410676D01*
G37*
D15*
X122643274Y-68126209D03*
D13*
G36*
X122271307Y-67410676D02*
G01*
X122293274Y-67463709D01*
X122293274Y-68788709D01*
X122271307Y-68841742D01*
X122218274Y-68863709D01*
X122068274Y-68863709D01*
X122015241Y-68841742D01*
X121993274Y-68788709D01*
X121993274Y-67463709D01*
X122015241Y-67410676D01*
X122068274Y-67388709D01*
X122218274Y-67388709D01*
X122271307Y-67410676D01*
X122271307Y-67410676D01*
G37*
D15*
X122143274Y-68126209D03*
D13*
G36*
X121771307Y-67410676D02*
G01*
X121793274Y-67463709D01*
X121793274Y-68788709D01*
X121771307Y-68841742D01*
X121718274Y-68863709D01*
X121568274Y-68863709D01*
X121515241Y-68841742D01*
X121493274Y-68788709D01*
X121493274Y-67463709D01*
X121515241Y-67410676D01*
X121568274Y-67388709D01*
X121718274Y-67388709D01*
X121771307Y-67410676D01*
X121771307Y-67410676D01*
G37*
D15*
X121643274Y-68126209D03*
D13*
G36*
X121271307Y-67410676D02*
G01*
X121293274Y-67463709D01*
X121293274Y-68788709D01*
X121271307Y-68841742D01*
X121218274Y-68863709D01*
X121068274Y-68863709D01*
X121015241Y-68841742D01*
X120993274Y-68788709D01*
X120993274Y-67463709D01*
X121015241Y-67410676D01*
X121068274Y-67388709D01*
X121218274Y-67388709D01*
X121271307Y-67410676D01*
X121271307Y-67410676D01*
G37*
D15*
X121143274Y-68126209D03*
D13*
G36*
X120771307Y-67410676D02*
G01*
X120793274Y-67463709D01*
X120793274Y-68788709D01*
X120771307Y-68841742D01*
X120718274Y-68863709D01*
X120568274Y-68863709D01*
X120515241Y-68841742D01*
X120493274Y-68788709D01*
X120493274Y-67463709D01*
X120515241Y-67410676D01*
X120568274Y-67388709D01*
X120718274Y-67388709D01*
X120771307Y-67410676D01*
X120771307Y-67410676D01*
G37*
D15*
X120643274Y-68126209D03*
D13*
G36*
X120271307Y-67410676D02*
G01*
X120293274Y-67463709D01*
X120293274Y-68788709D01*
X120271307Y-68841742D01*
X120218274Y-68863709D01*
X120068274Y-68863709D01*
X120015241Y-68841742D01*
X119993274Y-68788709D01*
X119993274Y-67463709D01*
X120015241Y-67410676D01*
X120068274Y-67388709D01*
X120218274Y-67388709D01*
X120271307Y-67410676D01*
X120271307Y-67410676D01*
G37*
D15*
X120143274Y-68126209D03*
D13*
G36*
X119771307Y-67410676D02*
G01*
X119793274Y-67463709D01*
X119793274Y-68788709D01*
X119771307Y-68841742D01*
X119718274Y-68863709D01*
X119568274Y-68863709D01*
X119515241Y-68841742D01*
X119493274Y-68788709D01*
X119493274Y-67463709D01*
X119515241Y-67410676D01*
X119568274Y-67388709D01*
X119718274Y-67388709D01*
X119771307Y-67410676D01*
X119771307Y-67410676D01*
G37*
D15*
X119643274Y-68126209D03*
D13*
G36*
X119271307Y-67410676D02*
G01*
X119293274Y-67463709D01*
X119293274Y-68788709D01*
X119271307Y-68841742D01*
X119218274Y-68863709D01*
X119068274Y-68863709D01*
X119015241Y-68841742D01*
X118993274Y-68788709D01*
X118993274Y-67463709D01*
X119015241Y-67410676D01*
X119068274Y-67388709D01*
X119218274Y-67388709D01*
X119271307Y-67410676D01*
X119271307Y-67410676D01*
G37*
D15*
X119143274Y-68126209D03*
D13*
G36*
X118771307Y-67410676D02*
G01*
X118793274Y-67463709D01*
X118793274Y-68788709D01*
X118771307Y-68841742D01*
X118718274Y-68863709D01*
X118568274Y-68863709D01*
X118515241Y-68841742D01*
X118493274Y-68788709D01*
X118493274Y-67463709D01*
X118515241Y-67410676D01*
X118568274Y-67388709D01*
X118718274Y-67388709D01*
X118771307Y-67410676D01*
X118771307Y-67410676D01*
G37*
D15*
X118643274Y-68126209D03*
D13*
G36*
X118271307Y-67410676D02*
G01*
X118293274Y-67463709D01*
X118293274Y-68788709D01*
X118271307Y-68841742D01*
X118218274Y-68863709D01*
X118068274Y-68863709D01*
X118015241Y-68841742D01*
X117993274Y-68788709D01*
X117993274Y-67463709D01*
X118015241Y-67410676D01*
X118068274Y-67388709D01*
X118218274Y-67388709D01*
X118271307Y-67410676D01*
X118271307Y-67410676D01*
G37*
D15*
X118143274Y-68126209D03*
D13*
G36*
X117771307Y-67410676D02*
G01*
X117793274Y-67463709D01*
X117793274Y-68788709D01*
X117771307Y-68841742D01*
X117718274Y-68863709D01*
X117568274Y-68863709D01*
X117515241Y-68841742D01*
X117493274Y-68788709D01*
X117493274Y-67463709D01*
X117515241Y-67410676D01*
X117568274Y-67388709D01*
X117718274Y-67388709D01*
X117771307Y-67410676D01*
X117771307Y-67410676D01*
G37*
D15*
X117643274Y-68126209D03*
D13*
G36*
X117271307Y-67410676D02*
G01*
X117293274Y-67463709D01*
X117293274Y-68788709D01*
X117271307Y-68841742D01*
X117218274Y-68863709D01*
X117068274Y-68863709D01*
X117015241Y-68841742D01*
X116993274Y-68788709D01*
X116993274Y-67463709D01*
X117015241Y-67410676D01*
X117068274Y-67388709D01*
X117218274Y-67388709D01*
X117271307Y-67410676D01*
X117271307Y-67410676D01*
G37*
D15*
X117143274Y-68126209D03*
D13*
G36*
X116771307Y-67410676D02*
G01*
X116793274Y-67463709D01*
X116793274Y-68788709D01*
X116771307Y-68841742D01*
X116718274Y-68863709D01*
X116568274Y-68863709D01*
X116515241Y-68841742D01*
X116493274Y-68788709D01*
X116493274Y-67463709D01*
X116515241Y-67410676D01*
X116568274Y-67388709D01*
X116718274Y-67388709D01*
X116771307Y-67410676D01*
X116771307Y-67410676D01*
G37*
D15*
X116643274Y-68126209D03*
D13*
G36*
X116271307Y-67410676D02*
G01*
X116293274Y-67463709D01*
X116293274Y-68788709D01*
X116271307Y-68841742D01*
X116218274Y-68863709D01*
X116068274Y-68863709D01*
X116015241Y-68841742D01*
X115993274Y-68788709D01*
X115993274Y-67463709D01*
X116015241Y-67410676D01*
X116068274Y-67388709D01*
X116218274Y-67388709D01*
X116271307Y-67410676D01*
X116271307Y-67410676D01*
G37*
D15*
X116143274Y-68126209D03*
D16*
X137728960Y-19989800D03*
D17*
X137728960Y-17449800D03*
D13*
G36*
X104437800Y-89380253D02*
G01*
X104517697Y-89438301D01*
X104567076Y-89523828D01*
X104578700Y-89597220D01*
X104578700Y-90072220D01*
X104558167Y-90168820D01*
X104500119Y-90248717D01*
X104414592Y-90298096D01*
X104341200Y-90309720D01*
X103766200Y-90309720D01*
X103669600Y-90289187D01*
X103589703Y-90231139D01*
X103540324Y-90145612D01*
X103528700Y-90072220D01*
X103528700Y-89597220D01*
X103549233Y-89500620D01*
X103607281Y-89420723D01*
X103692808Y-89371344D01*
X103766200Y-89359720D01*
X104341200Y-89359720D01*
X104437800Y-89380253D01*
X104437800Y-89380253D01*
G37*
D14*
X104053700Y-89834720D03*
D13*
G36*
X106187800Y-89380253D02*
G01*
X106267697Y-89438301D01*
X106317076Y-89523828D01*
X106328700Y-89597220D01*
X106328700Y-90072220D01*
X106308167Y-90168820D01*
X106250119Y-90248717D01*
X106164592Y-90298096D01*
X106091200Y-90309720D01*
X105516200Y-90309720D01*
X105419600Y-90289187D01*
X105339703Y-90231139D01*
X105290324Y-90145612D01*
X105278700Y-90072220D01*
X105278700Y-89597220D01*
X105299233Y-89500620D01*
X105357281Y-89420723D01*
X105442808Y-89371344D01*
X105516200Y-89359720D01*
X106091200Y-89359720D01*
X106187800Y-89380253D01*
X106187800Y-89380253D01*
G37*
D14*
X105803700Y-89834720D03*
D18*
X80504540Y-49489880D03*
X80504540Y-47489880D03*
X80504540Y-45489880D03*
X80504540Y-43489880D03*
X80504540Y-41489880D03*
X80504540Y-39489880D03*
X80504540Y-37489880D03*
X80504540Y-35489880D03*
X80504540Y-33489880D03*
X80504540Y-31489880D03*
X80504540Y-29489880D03*
X80504540Y-27489880D03*
X80504540Y-25489880D03*
X80504540Y-23489880D03*
X80504540Y-21489880D03*
X80504540Y-19489880D03*
X104904540Y-19489880D03*
X104904540Y-21489880D03*
X104904540Y-23489880D03*
X104904540Y-25489880D03*
X104904540Y-27489880D03*
X104904540Y-29489880D03*
X104904540Y-31489880D03*
X104904540Y-33489880D03*
X104904540Y-35489880D03*
X104904540Y-37489880D03*
X104904540Y-39489880D03*
X104904540Y-41489880D03*
X104904540Y-43489880D03*
X104904540Y-45489880D03*
X104904540Y-47489880D03*
D19*
X104904540Y-49489880D03*
D13*
G36*
X107782980Y-85580413D02*
G01*
X107862877Y-85638461D01*
X107912256Y-85723988D01*
X107923880Y-85797380D01*
X107923880Y-86272380D01*
X107903347Y-86368980D01*
X107845299Y-86448877D01*
X107759772Y-86498256D01*
X107686380Y-86509880D01*
X107111380Y-86509880D01*
X107014780Y-86489347D01*
X106934883Y-86431299D01*
X106885504Y-86345772D01*
X106873880Y-86272380D01*
X106873880Y-85797380D01*
X106894413Y-85700780D01*
X106952461Y-85620883D01*
X107037988Y-85571504D01*
X107111380Y-85559880D01*
X107686380Y-85559880D01*
X107782980Y-85580413D01*
X107782980Y-85580413D01*
G37*
D14*
X107398880Y-86034880D03*
D13*
G36*
X109532980Y-85580413D02*
G01*
X109612877Y-85638461D01*
X109662256Y-85723988D01*
X109673880Y-85797380D01*
X109673880Y-86272380D01*
X109653347Y-86368980D01*
X109595299Y-86448877D01*
X109509772Y-86498256D01*
X109436380Y-86509880D01*
X108861380Y-86509880D01*
X108764780Y-86489347D01*
X108684883Y-86431299D01*
X108635504Y-86345772D01*
X108623880Y-86272380D01*
X108623880Y-85797380D01*
X108644413Y-85700780D01*
X108702461Y-85620883D01*
X108787988Y-85571504D01*
X108861380Y-85559880D01*
X109436380Y-85559880D01*
X109532980Y-85580413D01*
X109532980Y-85580413D01*
G37*
D14*
X109148880Y-86034880D03*
D20*
X142346622Y-76674692D03*
D13*
G36*
X141073830Y-76568626D02*
G01*
X142240556Y-75401900D01*
X143619414Y-76780758D01*
X142452688Y-77947484D01*
X141073830Y-76568626D01*
X141073830Y-76568626D01*
G37*
D20*
X144291165Y-78619235D03*
D13*
G36*
X143018373Y-78513169D02*
G01*
X144185099Y-77346443D01*
X145563957Y-78725301D01*
X144397231Y-79892027D01*
X143018373Y-78513169D01*
X143018373Y-78513169D01*
G37*
D20*
X145846800Y-77063600D03*
D13*
G36*
X144574008Y-76957534D02*
G01*
X145740734Y-75790808D01*
X147119592Y-77169666D01*
X145952866Y-78336392D01*
X144574008Y-76957534D01*
X144574008Y-76957534D01*
G37*
D20*
X143902257Y-75119057D03*
D13*
G36*
X142629465Y-75012991D02*
G01*
X143796191Y-73846265D01*
X145175049Y-75225123D01*
X144008323Y-76391849D01*
X142629465Y-75012991D01*
X142629465Y-75012991D01*
G37*
G36*
X118674500Y-92103133D02*
G01*
X118754397Y-92161181D01*
X118803776Y-92246708D01*
X118815400Y-92320100D01*
X118815400Y-92795100D01*
X118794867Y-92891700D01*
X118736819Y-92971597D01*
X118651292Y-93020976D01*
X118577900Y-93032600D01*
X118002900Y-93032600D01*
X117906300Y-93012067D01*
X117826403Y-92954019D01*
X117777024Y-92868492D01*
X117765400Y-92795100D01*
X117765400Y-92320100D01*
X117785933Y-92223500D01*
X117843981Y-92143603D01*
X117929508Y-92094224D01*
X118002900Y-92082600D01*
X118577900Y-92082600D01*
X118674500Y-92103133D01*
X118674500Y-92103133D01*
G37*
D14*
X118290400Y-92557600D03*
D13*
G36*
X120424500Y-92103133D02*
G01*
X120504397Y-92161181D01*
X120553776Y-92246708D01*
X120565400Y-92320100D01*
X120565400Y-92795100D01*
X120544867Y-92891700D01*
X120486819Y-92971597D01*
X120401292Y-93020976D01*
X120327900Y-93032600D01*
X119752900Y-93032600D01*
X119656300Y-93012067D01*
X119576403Y-92954019D01*
X119527024Y-92868492D01*
X119515400Y-92795100D01*
X119515400Y-92320100D01*
X119535933Y-92223500D01*
X119593981Y-92143603D01*
X119679508Y-92094224D01*
X119752900Y-92082600D01*
X120327900Y-92082600D01*
X120424500Y-92103133D01*
X120424500Y-92103133D01*
G37*
D14*
X120040400Y-92557600D03*
D13*
G36*
X85384100Y-102045533D02*
G01*
X85463997Y-102103581D01*
X85513376Y-102189108D01*
X85525000Y-102262500D01*
X85525000Y-102737500D01*
X85504467Y-102834100D01*
X85446419Y-102913997D01*
X85360892Y-102963376D01*
X85287500Y-102975000D01*
X84712500Y-102975000D01*
X84615900Y-102954467D01*
X84536003Y-102896419D01*
X84486624Y-102810892D01*
X84475000Y-102737500D01*
X84475000Y-102262500D01*
X84495533Y-102165900D01*
X84553581Y-102086003D01*
X84639108Y-102036624D01*
X84712500Y-102025000D01*
X85287500Y-102025000D01*
X85384100Y-102045533D01*
X85384100Y-102045533D01*
G37*
D14*
X85000000Y-102500000D03*
D13*
G36*
X87134100Y-102045533D02*
G01*
X87213997Y-102103581D01*
X87263376Y-102189108D01*
X87275000Y-102262500D01*
X87275000Y-102737500D01*
X87254467Y-102834100D01*
X87196419Y-102913997D01*
X87110892Y-102963376D01*
X87037500Y-102975000D01*
X86462500Y-102975000D01*
X86365900Y-102954467D01*
X86286003Y-102896419D01*
X86236624Y-102810892D01*
X86225000Y-102737500D01*
X86225000Y-102262500D01*
X86245533Y-102165900D01*
X86303581Y-102086003D01*
X86389108Y-102036624D01*
X86462500Y-102025000D01*
X87037500Y-102025000D01*
X87134100Y-102045533D01*
X87134100Y-102045533D01*
G37*
D14*
X86750000Y-102500000D03*
D13*
G36*
X95584100Y-105995533D02*
G01*
X95663997Y-106053581D01*
X95713376Y-106139108D01*
X95725000Y-106212500D01*
X95725000Y-106787500D01*
X95704467Y-106884100D01*
X95646419Y-106963997D01*
X95560892Y-107013376D01*
X95487500Y-107025000D01*
X95012500Y-107025000D01*
X94915900Y-107004467D01*
X94836003Y-106946419D01*
X94786624Y-106860892D01*
X94775000Y-106787500D01*
X94775000Y-106212500D01*
X94795533Y-106115900D01*
X94853581Y-106036003D01*
X94939108Y-105986624D01*
X95012500Y-105975000D01*
X95487500Y-105975000D01*
X95584100Y-105995533D01*
X95584100Y-105995533D01*
G37*
D14*
X95250000Y-106500000D03*
D13*
G36*
X95584100Y-107745533D02*
G01*
X95663997Y-107803581D01*
X95713376Y-107889108D01*
X95725000Y-107962500D01*
X95725000Y-108537500D01*
X95704467Y-108634100D01*
X95646419Y-108713997D01*
X95560892Y-108763376D01*
X95487500Y-108775000D01*
X95012500Y-108775000D01*
X94915900Y-108754467D01*
X94836003Y-108696419D01*
X94786624Y-108610892D01*
X94775000Y-108537500D01*
X94775000Y-107962500D01*
X94795533Y-107865900D01*
X94853581Y-107786003D01*
X94939108Y-107736624D01*
X95012500Y-107725000D01*
X95487500Y-107725000D01*
X95584100Y-107745533D01*
X95584100Y-107745533D01*
G37*
D14*
X95250000Y-108250000D03*
D13*
G36*
X85334100Y-105995533D02*
G01*
X85413997Y-106053581D01*
X85463376Y-106139108D01*
X85475000Y-106212500D01*
X85475000Y-106787500D01*
X85454467Y-106884100D01*
X85396419Y-106963997D01*
X85310892Y-107013376D01*
X85237500Y-107025000D01*
X84762500Y-107025000D01*
X84665900Y-107004467D01*
X84586003Y-106946419D01*
X84536624Y-106860892D01*
X84525000Y-106787500D01*
X84525000Y-106212500D01*
X84545533Y-106115900D01*
X84603581Y-106036003D01*
X84689108Y-105986624D01*
X84762500Y-105975000D01*
X85237500Y-105975000D01*
X85334100Y-105995533D01*
X85334100Y-105995533D01*
G37*
D14*
X85000000Y-106500000D03*
D13*
G36*
X85334100Y-107745533D02*
G01*
X85413997Y-107803581D01*
X85463376Y-107889108D01*
X85475000Y-107962500D01*
X85475000Y-108537500D01*
X85454467Y-108634100D01*
X85396419Y-108713997D01*
X85310892Y-108763376D01*
X85237500Y-108775000D01*
X84762500Y-108775000D01*
X84665900Y-108754467D01*
X84586003Y-108696419D01*
X84536624Y-108610892D01*
X84525000Y-108537500D01*
X84525000Y-107962500D01*
X84545533Y-107865900D01*
X84603581Y-107786003D01*
X84689108Y-107736624D01*
X84762500Y-107725000D01*
X85237500Y-107725000D01*
X85334100Y-107745533D01*
X85334100Y-107745533D01*
G37*
D14*
X85000000Y-108250000D03*
D13*
G36*
X142085620Y-66802193D02*
G01*
X142165517Y-66860241D01*
X142214896Y-66945768D01*
X142226520Y-67019160D01*
X142226520Y-67494160D01*
X142205987Y-67590760D01*
X142147939Y-67670657D01*
X142062412Y-67720036D01*
X141989020Y-67731660D01*
X141414020Y-67731660D01*
X141317420Y-67711127D01*
X141237523Y-67653079D01*
X141188144Y-67567552D01*
X141176520Y-67494160D01*
X141176520Y-67019160D01*
X141197053Y-66922560D01*
X141255101Y-66842663D01*
X141340628Y-66793284D01*
X141414020Y-66781660D01*
X141989020Y-66781660D01*
X142085620Y-66802193D01*
X142085620Y-66802193D01*
G37*
D14*
X141701520Y-67256660D03*
D13*
G36*
X140335620Y-66802193D02*
G01*
X140415517Y-66860241D01*
X140464896Y-66945768D01*
X140476520Y-67019160D01*
X140476520Y-67494160D01*
X140455987Y-67590760D01*
X140397939Y-67670657D01*
X140312412Y-67720036D01*
X140239020Y-67731660D01*
X139664020Y-67731660D01*
X139567420Y-67711127D01*
X139487523Y-67653079D01*
X139438144Y-67567552D01*
X139426520Y-67494160D01*
X139426520Y-67019160D01*
X139447053Y-66922560D01*
X139505101Y-66842663D01*
X139590628Y-66793284D01*
X139664020Y-66781660D01*
X140239020Y-66781660D01*
X140335620Y-66802193D01*
X140335620Y-66802193D01*
G37*
D14*
X139951520Y-67256660D03*
D13*
G36*
X139431320Y-91353833D02*
G01*
X139511217Y-91411881D01*
X139560596Y-91497408D01*
X139572220Y-91570800D01*
X139572220Y-92045800D01*
X139551687Y-92142400D01*
X139493639Y-92222297D01*
X139408112Y-92271676D01*
X139334720Y-92283300D01*
X138759720Y-92283300D01*
X138663120Y-92262767D01*
X138583223Y-92204719D01*
X138533844Y-92119192D01*
X138522220Y-92045800D01*
X138522220Y-91570800D01*
X138542753Y-91474200D01*
X138600801Y-91394303D01*
X138686328Y-91344924D01*
X138759720Y-91333300D01*
X139334720Y-91333300D01*
X139431320Y-91353833D01*
X139431320Y-91353833D01*
G37*
D14*
X139047220Y-91808300D03*
D13*
G36*
X137681320Y-91353833D02*
G01*
X137761217Y-91411881D01*
X137810596Y-91497408D01*
X137822220Y-91570800D01*
X137822220Y-92045800D01*
X137801687Y-92142400D01*
X137743639Y-92222297D01*
X137658112Y-92271676D01*
X137584720Y-92283300D01*
X137009720Y-92283300D01*
X136913120Y-92262767D01*
X136833223Y-92204719D01*
X136783844Y-92119192D01*
X136772220Y-92045800D01*
X136772220Y-91570800D01*
X136792753Y-91474200D01*
X136850801Y-91394303D01*
X136936328Y-91344924D01*
X137009720Y-91333300D01*
X137584720Y-91333300D01*
X137681320Y-91353833D01*
X137681320Y-91353833D01*
G37*
D14*
X137297220Y-91808300D03*
D13*
G36*
X112792600Y-59213473D02*
G01*
X112872497Y-59271521D01*
X112921876Y-59357048D01*
X112933500Y-59430440D01*
X112933500Y-60005440D01*
X112912967Y-60102040D01*
X112854919Y-60181937D01*
X112769392Y-60231316D01*
X112696000Y-60242940D01*
X112221000Y-60242940D01*
X112124400Y-60222407D01*
X112044503Y-60164359D01*
X111995124Y-60078832D01*
X111983500Y-60005440D01*
X111983500Y-59430440D01*
X112004033Y-59333840D01*
X112062081Y-59253943D01*
X112147608Y-59204564D01*
X112221000Y-59192940D01*
X112696000Y-59192940D01*
X112792600Y-59213473D01*
X112792600Y-59213473D01*
G37*
D14*
X112458500Y-59717940D03*
D13*
G36*
X112792600Y-57463473D02*
G01*
X112872497Y-57521521D01*
X112921876Y-57607048D01*
X112933500Y-57680440D01*
X112933500Y-58255440D01*
X112912967Y-58352040D01*
X112854919Y-58431937D01*
X112769392Y-58481316D01*
X112696000Y-58492940D01*
X112221000Y-58492940D01*
X112124400Y-58472407D01*
X112044503Y-58414359D01*
X111995124Y-58328832D01*
X111983500Y-58255440D01*
X111983500Y-57680440D01*
X112004033Y-57583840D01*
X112062081Y-57503943D01*
X112147608Y-57454564D01*
X112221000Y-57442940D01*
X112696000Y-57442940D01*
X112792600Y-57463473D01*
X112792600Y-57463473D01*
G37*
D14*
X112458500Y-57967940D03*
D13*
G36*
X114369940Y-59170293D02*
G01*
X114449837Y-59228341D01*
X114499216Y-59313868D01*
X114510840Y-59387260D01*
X114510840Y-59962260D01*
X114490307Y-60058860D01*
X114432259Y-60138757D01*
X114346732Y-60188136D01*
X114273340Y-60199760D01*
X113798340Y-60199760D01*
X113701740Y-60179227D01*
X113621843Y-60121179D01*
X113572464Y-60035652D01*
X113560840Y-59962260D01*
X113560840Y-59387260D01*
X113581373Y-59290660D01*
X113639421Y-59210763D01*
X113724948Y-59161384D01*
X113798340Y-59149760D01*
X114273340Y-59149760D01*
X114369940Y-59170293D01*
X114369940Y-59170293D01*
G37*
D14*
X114035840Y-59674760D03*
D13*
G36*
X114369940Y-57420293D02*
G01*
X114449837Y-57478341D01*
X114499216Y-57563868D01*
X114510840Y-57637260D01*
X114510840Y-58212260D01*
X114490307Y-58308860D01*
X114432259Y-58388757D01*
X114346732Y-58438136D01*
X114273340Y-58449760D01*
X113798340Y-58449760D01*
X113701740Y-58429227D01*
X113621843Y-58371179D01*
X113572464Y-58285652D01*
X113560840Y-58212260D01*
X113560840Y-57637260D01*
X113581373Y-57540660D01*
X113639421Y-57460763D01*
X113724948Y-57411384D01*
X113798340Y-57399760D01*
X114273340Y-57399760D01*
X114369940Y-57420293D01*
X114369940Y-57420293D01*
G37*
D14*
X114035840Y-57924760D03*
D13*
G36*
X111291460Y-85103693D02*
G01*
X111371357Y-85161741D01*
X111420736Y-85247268D01*
X111432360Y-85320660D01*
X111432360Y-85895660D01*
X111411827Y-85992260D01*
X111353779Y-86072157D01*
X111268252Y-86121536D01*
X111194860Y-86133160D01*
X110719860Y-86133160D01*
X110623260Y-86112627D01*
X110543363Y-86054579D01*
X110493984Y-85969052D01*
X110482360Y-85895660D01*
X110482360Y-85320660D01*
X110502893Y-85224060D01*
X110560941Y-85144163D01*
X110646468Y-85094784D01*
X110719860Y-85083160D01*
X111194860Y-85083160D01*
X111291460Y-85103693D01*
X111291460Y-85103693D01*
G37*
D14*
X110957360Y-85608160D03*
D13*
G36*
X111291460Y-83353693D02*
G01*
X111371357Y-83411741D01*
X111420736Y-83497268D01*
X111432360Y-83570660D01*
X111432360Y-84145660D01*
X111411827Y-84242260D01*
X111353779Y-84322157D01*
X111268252Y-84371536D01*
X111194860Y-84383160D01*
X110719860Y-84383160D01*
X110623260Y-84362627D01*
X110543363Y-84304579D01*
X110493984Y-84219052D01*
X110482360Y-84145660D01*
X110482360Y-83570660D01*
X110502893Y-83474060D01*
X110560941Y-83394163D01*
X110646468Y-83344784D01*
X110719860Y-83333160D01*
X111194860Y-83333160D01*
X111291460Y-83353693D01*
X111291460Y-83353693D01*
G37*
D14*
X110957360Y-83858160D03*
D16*
X148521420Y-105356660D03*
X145981420Y-105356660D03*
X148521420Y-102816660D03*
X145981420Y-102816660D03*
X148521420Y-100276660D03*
X145981420Y-100276660D03*
X148521420Y-97736660D03*
X145981420Y-97736660D03*
X148521420Y-95196660D03*
X145981420Y-95196660D03*
X148521420Y-92656660D03*
X145981420Y-92656660D03*
X148521420Y-90116660D03*
X145981420Y-90116660D03*
X148521420Y-87576660D03*
X145981420Y-87576660D03*
X148521420Y-85036660D03*
X145981420Y-85036660D03*
X148521420Y-82496660D03*
D17*
X145981420Y-82496660D03*
D16*
X117167660Y-19832320D03*
X117167660Y-17292320D03*
X119707660Y-19832320D03*
X119707660Y-17292320D03*
X122247660Y-19832320D03*
X122247660Y-17292320D03*
X124787660Y-19832320D03*
X124787660Y-17292320D03*
X127327660Y-19832320D03*
X127327660Y-17292320D03*
X129867660Y-19832320D03*
D17*
X129867660Y-17292320D03*
D16*
X106413300Y-112313720D03*
X106413300Y-109773720D03*
X108953300Y-112313720D03*
X108953300Y-109773720D03*
X111493300Y-112313720D03*
X111493300Y-109773720D03*
X114033300Y-112313720D03*
X114033300Y-109773720D03*
X116573300Y-112313720D03*
X116573300Y-109773720D03*
X119113300Y-112313720D03*
X119113300Y-109773720D03*
X121653300Y-112313720D03*
X121653300Y-109773720D03*
X124193300Y-112313720D03*
X124193300Y-109773720D03*
X126733300Y-112313720D03*
X126733300Y-109773720D03*
X129273300Y-112313720D03*
D17*
X129273300Y-109773720D03*
D16*
X149352000Y-42075100D03*
X146812000Y-42075100D03*
X149352000Y-39535100D03*
X146812000Y-39535100D03*
X149352000Y-36995100D03*
X146812000Y-36995100D03*
X149352000Y-34455100D03*
X146812000Y-34455100D03*
X149352000Y-31915100D03*
X146812000Y-31915100D03*
X149352000Y-29375100D03*
D17*
X146812000Y-29375100D03*
D21*
X54484360Y-57688720D03*
X54484360Y-46288720D03*
D22*
X54484360Y-54288720D03*
X54484360Y-49688720D03*
D23*
X57099200Y-19789140D03*
X144759680Y-110754160D03*
X145237200Y-20223480D03*
X56664860Y-110302040D03*
D24*
X65296800Y-46720800D03*
X63296800Y-45770800D03*
X63296800Y-47670800D03*
D13*
G36*
X86386034Y-61963418D02*
G01*
X86465931Y-62021466D01*
X86515310Y-62106993D01*
X86526934Y-62180385D01*
X86526934Y-62655385D01*
X86506401Y-62751985D01*
X86448353Y-62831882D01*
X86362826Y-62881261D01*
X86289434Y-62892885D01*
X85714434Y-62892885D01*
X85617834Y-62872352D01*
X85537937Y-62814304D01*
X85488558Y-62728777D01*
X85476934Y-62655385D01*
X85476934Y-62180385D01*
X85497467Y-62083785D01*
X85555515Y-62003888D01*
X85641042Y-61954509D01*
X85714434Y-61942885D01*
X86289434Y-61942885D01*
X86386034Y-61963418D01*
X86386034Y-61963418D01*
G37*
D14*
X86001934Y-62417885D03*
D13*
G36*
X84636034Y-61963418D02*
G01*
X84715931Y-62021466D01*
X84765310Y-62106993D01*
X84776934Y-62180385D01*
X84776934Y-62655385D01*
X84756401Y-62751985D01*
X84698353Y-62831882D01*
X84612826Y-62881261D01*
X84539434Y-62892885D01*
X83964434Y-62892885D01*
X83867834Y-62872352D01*
X83787937Y-62814304D01*
X83738558Y-62728777D01*
X83726934Y-62655385D01*
X83726934Y-62180385D01*
X83747467Y-62083785D01*
X83805515Y-62003888D01*
X83891042Y-61954509D01*
X83964434Y-61942885D01*
X84539434Y-61942885D01*
X84636034Y-61963418D01*
X84636034Y-61963418D01*
G37*
D14*
X84251934Y-62417885D03*
D13*
G36*
X103453020Y-55374293D02*
G01*
X103532917Y-55432341D01*
X103582296Y-55517868D01*
X103593920Y-55591260D01*
X103593920Y-56166260D01*
X103573387Y-56262860D01*
X103515339Y-56342757D01*
X103429812Y-56392136D01*
X103356420Y-56403760D01*
X102881420Y-56403760D01*
X102784820Y-56383227D01*
X102704923Y-56325179D01*
X102655544Y-56239652D01*
X102643920Y-56166260D01*
X102643920Y-55591260D01*
X102664453Y-55494660D01*
X102722501Y-55414763D01*
X102808028Y-55365384D01*
X102881420Y-55353760D01*
X103356420Y-55353760D01*
X103453020Y-55374293D01*
X103453020Y-55374293D01*
G37*
D14*
X103118920Y-55878760D03*
D13*
G36*
X103453020Y-57124293D02*
G01*
X103532917Y-57182341D01*
X103582296Y-57267868D01*
X103593920Y-57341260D01*
X103593920Y-57916260D01*
X103573387Y-58012860D01*
X103515339Y-58092757D01*
X103429812Y-58142136D01*
X103356420Y-58153760D01*
X102881420Y-58153760D01*
X102784820Y-58133227D01*
X102704923Y-58075179D01*
X102655544Y-57989652D01*
X102643920Y-57916260D01*
X102643920Y-57341260D01*
X102664453Y-57244660D01*
X102722501Y-57164763D01*
X102808028Y-57115384D01*
X102881420Y-57103760D01*
X103356420Y-57103760D01*
X103453020Y-57124293D01*
X103453020Y-57124293D01*
G37*
D14*
X103118920Y-57628760D03*
D13*
G36*
X105021703Y-55348453D02*
G01*
X105101600Y-55406501D01*
X105150979Y-55492028D01*
X105162603Y-55565420D01*
X105162603Y-56140420D01*
X105142070Y-56237020D01*
X105084022Y-56316917D01*
X104998495Y-56366296D01*
X104925103Y-56377920D01*
X104450103Y-56377920D01*
X104353503Y-56357387D01*
X104273606Y-56299339D01*
X104224227Y-56213812D01*
X104212603Y-56140420D01*
X104212603Y-55565420D01*
X104233136Y-55468820D01*
X104291184Y-55388923D01*
X104376711Y-55339544D01*
X104450103Y-55327920D01*
X104925103Y-55327920D01*
X105021703Y-55348453D01*
X105021703Y-55348453D01*
G37*
D14*
X104687603Y-55852920D03*
D13*
G36*
X105021703Y-57098453D02*
G01*
X105101600Y-57156501D01*
X105150979Y-57242028D01*
X105162603Y-57315420D01*
X105162603Y-57890420D01*
X105142070Y-57987020D01*
X105084022Y-58066917D01*
X104998495Y-58116296D01*
X104925103Y-58127920D01*
X104450103Y-58127920D01*
X104353503Y-58107387D01*
X104273606Y-58049339D01*
X104224227Y-57963812D01*
X104212603Y-57890420D01*
X104212603Y-57315420D01*
X104233136Y-57218820D01*
X104291184Y-57138923D01*
X104376711Y-57089544D01*
X104450103Y-57077920D01*
X104925103Y-57077920D01*
X105021703Y-57098453D01*
X105021703Y-57098453D01*
G37*
D14*
X104687603Y-57602920D03*
D13*
G36*
X106569899Y-55305348D02*
G01*
X106649796Y-55363396D01*
X106699175Y-55448923D01*
X106710799Y-55522315D01*
X106710799Y-56097315D01*
X106690266Y-56193915D01*
X106632218Y-56273812D01*
X106546691Y-56323191D01*
X106473299Y-56334815D01*
X105998299Y-56334815D01*
X105901699Y-56314282D01*
X105821802Y-56256234D01*
X105772423Y-56170707D01*
X105760799Y-56097315D01*
X105760799Y-55522315D01*
X105781332Y-55425715D01*
X105839380Y-55345818D01*
X105924907Y-55296439D01*
X105998299Y-55284815D01*
X106473299Y-55284815D01*
X106569899Y-55305348D01*
X106569899Y-55305348D01*
G37*
D14*
X106235799Y-55809815D03*
D13*
G36*
X106569899Y-57055348D02*
G01*
X106649796Y-57113396D01*
X106699175Y-57198923D01*
X106710799Y-57272315D01*
X106710799Y-57847315D01*
X106690266Y-57943915D01*
X106632218Y-58023812D01*
X106546691Y-58073191D01*
X106473299Y-58084815D01*
X105998299Y-58084815D01*
X105901699Y-58064282D01*
X105821802Y-58006234D01*
X105772423Y-57920707D01*
X105760799Y-57847315D01*
X105760799Y-57272315D01*
X105781332Y-57175715D01*
X105839380Y-57095818D01*
X105924907Y-57046439D01*
X105998299Y-57034815D01*
X106473299Y-57034815D01*
X106569899Y-57055348D01*
X106569899Y-57055348D01*
G37*
D14*
X106235799Y-57559815D03*
D13*
G36*
X86366277Y-63782818D02*
G01*
X86446174Y-63840866D01*
X86495553Y-63926393D01*
X86507177Y-63999785D01*
X86507177Y-64474785D01*
X86486644Y-64571385D01*
X86428596Y-64651282D01*
X86343069Y-64700661D01*
X86269677Y-64712285D01*
X85694677Y-64712285D01*
X85598077Y-64691752D01*
X85518180Y-64633704D01*
X85468801Y-64548177D01*
X85457177Y-64474785D01*
X85457177Y-63999785D01*
X85477710Y-63903185D01*
X85535758Y-63823288D01*
X85621285Y-63773909D01*
X85694677Y-63762285D01*
X86269677Y-63762285D01*
X86366277Y-63782818D01*
X86366277Y-63782818D01*
G37*
D14*
X85982177Y-64237285D03*
D13*
G36*
X84616277Y-63782818D02*
G01*
X84696174Y-63840866D01*
X84745553Y-63926393D01*
X84757177Y-63999785D01*
X84757177Y-64474785D01*
X84736644Y-64571385D01*
X84678596Y-64651282D01*
X84593069Y-64700661D01*
X84519677Y-64712285D01*
X83944677Y-64712285D01*
X83848077Y-64691752D01*
X83768180Y-64633704D01*
X83718801Y-64548177D01*
X83707177Y-64474785D01*
X83707177Y-63999785D01*
X83727710Y-63903185D01*
X83785758Y-63823288D01*
X83871285Y-63773909D01*
X83944677Y-63762285D01*
X84519677Y-63762285D01*
X84616277Y-63782818D01*
X84616277Y-63782818D01*
G37*
D14*
X84232177Y-64237285D03*
D13*
G36*
X86373784Y-65505231D02*
G01*
X86453681Y-65563279D01*
X86503060Y-65648806D01*
X86514684Y-65722198D01*
X86514684Y-66197198D01*
X86494151Y-66293798D01*
X86436103Y-66373695D01*
X86350576Y-66423074D01*
X86277184Y-66434698D01*
X85702184Y-66434698D01*
X85605584Y-66414165D01*
X85525687Y-66356117D01*
X85476308Y-66270590D01*
X85464684Y-66197198D01*
X85464684Y-65722198D01*
X85485217Y-65625598D01*
X85543265Y-65545701D01*
X85628792Y-65496322D01*
X85702184Y-65484698D01*
X86277184Y-65484698D01*
X86373784Y-65505231D01*
X86373784Y-65505231D01*
G37*
D14*
X85989684Y-65959698D03*
D13*
G36*
X84623784Y-65505231D02*
G01*
X84703681Y-65563279D01*
X84753060Y-65648806D01*
X84764684Y-65722198D01*
X84764684Y-66197198D01*
X84744151Y-66293798D01*
X84686103Y-66373695D01*
X84600576Y-66423074D01*
X84527184Y-66434698D01*
X83952184Y-66434698D01*
X83855584Y-66414165D01*
X83775687Y-66356117D01*
X83726308Y-66270590D01*
X83714684Y-66197198D01*
X83714684Y-65722198D01*
X83735217Y-65625598D01*
X83793265Y-65545701D01*
X83878792Y-65496322D01*
X83952184Y-65484698D01*
X84527184Y-65484698D01*
X84623784Y-65505231D01*
X84623784Y-65505231D01*
G37*
D14*
X84239684Y-65959698D03*
D13*
G36*
X69738860Y-67571813D02*
G01*
X69818757Y-67629861D01*
X69868136Y-67715388D01*
X69879760Y-67788780D01*
X69879760Y-68263780D01*
X69859227Y-68360380D01*
X69801179Y-68440277D01*
X69715652Y-68489656D01*
X69642260Y-68501280D01*
X69067260Y-68501280D01*
X68970660Y-68480747D01*
X68890763Y-68422699D01*
X68841384Y-68337172D01*
X68829760Y-68263780D01*
X68829760Y-67788780D01*
X68850293Y-67692180D01*
X68908341Y-67612283D01*
X68993868Y-67562904D01*
X69067260Y-67551280D01*
X69642260Y-67551280D01*
X69738860Y-67571813D01*
X69738860Y-67571813D01*
G37*
D14*
X69354760Y-68026280D03*
D13*
G36*
X71488860Y-67571813D02*
G01*
X71568757Y-67629861D01*
X71618136Y-67715388D01*
X71629760Y-67788780D01*
X71629760Y-68263780D01*
X71609227Y-68360380D01*
X71551179Y-68440277D01*
X71465652Y-68489656D01*
X71392260Y-68501280D01*
X70817260Y-68501280D01*
X70720660Y-68480747D01*
X70640763Y-68422699D01*
X70591384Y-68337172D01*
X70579760Y-68263780D01*
X70579760Y-67788780D01*
X70600293Y-67692180D01*
X70658341Y-67612283D01*
X70743868Y-67562904D01*
X70817260Y-67551280D01*
X71392260Y-67551280D01*
X71488860Y-67571813D01*
X71488860Y-67571813D01*
G37*
D14*
X71104760Y-68026280D03*
D13*
G36*
X94704050Y-80063438D02*
G01*
X94783947Y-80121486D01*
X94833326Y-80207013D01*
X94844950Y-80280405D01*
X94844950Y-80755405D01*
X94824417Y-80852005D01*
X94766369Y-80931902D01*
X94680842Y-80981281D01*
X94607450Y-80992905D01*
X94032450Y-80992905D01*
X93935850Y-80972372D01*
X93855953Y-80914324D01*
X93806574Y-80828797D01*
X93794950Y-80755405D01*
X93794950Y-80280405D01*
X93815483Y-80183805D01*
X93873531Y-80103908D01*
X93959058Y-80054529D01*
X94032450Y-80042905D01*
X94607450Y-80042905D01*
X94704050Y-80063438D01*
X94704050Y-80063438D01*
G37*
D14*
X94319950Y-80517905D03*
D13*
G36*
X96454050Y-80063438D02*
G01*
X96533947Y-80121486D01*
X96583326Y-80207013D01*
X96594950Y-80280405D01*
X96594950Y-80755405D01*
X96574417Y-80852005D01*
X96516369Y-80931902D01*
X96430842Y-80981281D01*
X96357450Y-80992905D01*
X95782450Y-80992905D01*
X95685850Y-80972372D01*
X95605953Y-80914324D01*
X95556574Y-80828797D01*
X95544950Y-80755405D01*
X95544950Y-80280405D01*
X95565483Y-80183805D01*
X95623531Y-80103908D01*
X95709058Y-80054529D01*
X95782450Y-80042905D01*
X96357450Y-80042905D01*
X96454050Y-80063438D01*
X96454050Y-80063438D01*
G37*
D14*
X96069950Y-80517905D03*
D13*
G36*
X94679120Y-82529873D02*
G01*
X94759017Y-82587921D01*
X94808396Y-82673448D01*
X94820020Y-82746840D01*
X94820020Y-83221840D01*
X94799487Y-83318440D01*
X94741439Y-83398337D01*
X94655912Y-83447716D01*
X94582520Y-83459340D01*
X94007520Y-83459340D01*
X93910920Y-83438807D01*
X93831023Y-83380759D01*
X93781644Y-83295232D01*
X93770020Y-83221840D01*
X93770020Y-82746840D01*
X93790553Y-82650240D01*
X93848601Y-82570343D01*
X93934128Y-82520964D01*
X94007520Y-82509340D01*
X94582520Y-82509340D01*
X94679120Y-82529873D01*
X94679120Y-82529873D01*
G37*
D14*
X94295020Y-82984340D03*
D13*
G36*
X96429120Y-82529873D02*
G01*
X96509017Y-82587921D01*
X96558396Y-82673448D01*
X96570020Y-82746840D01*
X96570020Y-83221840D01*
X96549487Y-83318440D01*
X96491439Y-83398337D01*
X96405912Y-83447716D01*
X96332520Y-83459340D01*
X95757520Y-83459340D01*
X95660920Y-83438807D01*
X95581023Y-83380759D01*
X95531644Y-83295232D01*
X95520020Y-83221840D01*
X95520020Y-82746840D01*
X95540553Y-82650240D01*
X95598601Y-82570343D01*
X95684128Y-82520964D01*
X95757520Y-82509340D01*
X96332520Y-82509340D01*
X96429120Y-82529873D01*
X96429120Y-82529873D01*
G37*
D14*
X96045020Y-82984340D03*
D13*
G36*
X100163720Y-55357813D02*
G01*
X100243617Y-55415861D01*
X100292996Y-55501388D01*
X100304620Y-55574780D01*
X100304620Y-56149780D01*
X100284087Y-56246380D01*
X100226039Y-56326277D01*
X100140512Y-56375656D01*
X100067120Y-56387280D01*
X99592120Y-56387280D01*
X99495520Y-56366747D01*
X99415623Y-56308699D01*
X99366244Y-56223172D01*
X99354620Y-56149780D01*
X99354620Y-55574780D01*
X99375153Y-55478180D01*
X99433201Y-55398283D01*
X99518728Y-55348904D01*
X99592120Y-55337280D01*
X100067120Y-55337280D01*
X100163720Y-55357813D01*
X100163720Y-55357813D01*
G37*
D14*
X99829620Y-55862280D03*
D13*
G36*
X100163720Y-57107813D02*
G01*
X100243617Y-57165861D01*
X100292996Y-57251388D01*
X100304620Y-57324780D01*
X100304620Y-57899780D01*
X100284087Y-57996380D01*
X100226039Y-58076277D01*
X100140512Y-58125656D01*
X100067120Y-58137280D01*
X99592120Y-58137280D01*
X99495520Y-58116747D01*
X99415623Y-58058699D01*
X99366244Y-57973172D01*
X99354620Y-57899780D01*
X99354620Y-57324780D01*
X99375153Y-57228180D01*
X99433201Y-57148283D01*
X99518728Y-57098904D01*
X99592120Y-57087280D01*
X100067120Y-57087280D01*
X100163720Y-57107813D01*
X100163720Y-57107813D01*
G37*
D14*
X99829620Y-57612280D03*
D13*
G36*
X101890920Y-55380613D02*
G01*
X101970817Y-55438661D01*
X102020196Y-55524188D01*
X102031820Y-55597580D01*
X102031820Y-56172580D01*
X102011287Y-56269180D01*
X101953239Y-56349077D01*
X101867712Y-56398456D01*
X101794320Y-56410080D01*
X101319320Y-56410080D01*
X101222720Y-56389547D01*
X101142823Y-56331499D01*
X101093444Y-56245972D01*
X101081820Y-56172580D01*
X101081820Y-55597580D01*
X101102353Y-55500980D01*
X101160401Y-55421083D01*
X101245928Y-55371704D01*
X101319320Y-55360080D01*
X101794320Y-55360080D01*
X101890920Y-55380613D01*
X101890920Y-55380613D01*
G37*
D14*
X101556820Y-55885080D03*
D13*
G36*
X101890920Y-57130613D02*
G01*
X101970817Y-57188661D01*
X102020196Y-57274188D01*
X102031820Y-57347580D01*
X102031820Y-57922580D01*
X102011287Y-58019180D01*
X101953239Y-58099077D01*
X101867712Y-58148456D01*
X101794320Y-58160080D01*
X101319320Y-58160080D01*
X101222720Y-58139547D01*
X101142823Y-58081499D01*
X101093444Y-57995972D01*
X101081820Y-57922580D01*
X101081820Y-57347580D01*
X101102353Y-57250980D01*
X101160401Y-57171083D01*
X101245928Y-57121704D01*
X101319320Y-57110080D01*
X101794320Y-57110080D01*
X101890920Y-57130613D01*
X101890920Y-57130613D01*
G37*
D14*
X101556820Y-57635080D03*
D13*
G36*
X92840900Y-84179133D02*
G01*
X92920797Y-84237181D01*
X92970176Y-84322708D01*
X92981800Y-84396100D01*
X92981800Y-84971100D01*
X92961267Y-85067700D01*
X92903219Y-85147597D01*
X92817692Y-85196976D01*
X92744300Y-85208600D01*
X92269300Y-85208600D01*
X92172700Y-85188067D01*
X92092803Y-85130019D01*
X92043424Y-85044492D01*
X92031800Y-84971100D01*
X92031800Y-84396100D01*
X92052333Y-84299500D01*
X92110381Y-84219603D01*
X92195908Y-84170224D01*
X92269300Y-84158600D01*
X92744300Y-84158600D01*
X92840900Y-84179133D01*
X92840900Y-84179133D01*
G37*
D14*
X92506800Y-84683600D03*
D13*
G36*
X92840900Y-85929133D02*
G01*
X92920797Y-85987181D01*
X92970176Y-86072708D01*
X92981800Y-86146100D01*
X92981800Y-86721100D01*
X92961267Y-86817700D01*
X92903219Y-86897597D01*
X92817692Y-86946976D01*
X92744300Y-86958600D01*
X92269300Y-86958600D01*
X92172700Y-86938067D01*
X92092803Y-86880019D01*
X92043424Y-86794492D01*
X92031800Y-86721100D01*
X92031800Y-86146100D01*
X92052333Y-86049500D01*
X92110381Y-85969603D01*
X92195908Y-85920224D01*
X92269300Y-85908600D01*
X92744300Y-85908600D01*
X92840900Y-85929133D01*
X92840900Y-85929133D01*
G37*
D14*
X92506800Y-86433600D03*
D13*
G36*
X86349100Y-70462333D02*
G01*
X86428997Y-70520381D01*
X86478376Y-70605908D01*
X86490000Y-70679300D01*
X86490000Y-71154300D01*
X86469467Y-71250900D01*
X86411419Y-71330797D01*
X86325892Y-71380176D01*
X86252500Y-71391800D01*
X85677500Y-71391800D01*
X85580900Y-71371267D01*
X85501003Y-71313219D01*
X85451624Y-71227692D01*
X85440000Y-71154300D01*
X85440000Y-70679300D01*
X85460533Y-70582700D01*
X85518581Y-70502803D01*
X85604108Y-70453424D01*
X85677500Y-70441800D01*
X86252500Y-70441800D01*
X86349100Y-70462333D01*
X86349100Y-70462333D01*
G37*
D14*
X85965000Y-70916800D03*
D13*
G36*
X84599100Y-70462333D02*
G01*
X84678997Y-70520381D01*
X84728376Y-70605908D01*
X84740000Y-70679300D01*
X84740000Y-71154300D01*
X84719467Y-71250900D01*
X84661419Y-71330797D01*
X84575892Y-71380176D01*
X84502500Y-71391800D01*
X83927500Y-71391800D01*
X83830900Y-71371267D01*
X83751003Y-71313219D01*
X83701624Y-71227692D01*
X83690000Y-71154300D01*
X83690000Y-70679300D01*
X83710533Y-70582700D01*
X83768581Y-70502803D01*
X83854108Y-70453424D01*
X83927500Y-70441800D01*
X84502500Y-70441800D01*
X84599100Y-70462333D01*
X84599100Y-70462333D01*
G37*
D14*
X84215000Y-70916800D03*
D13*
G36*
X98352700Y-55343813D02*
G01*
X98432597Y-55401861D01*
X98481976Y-55487388D01*
X98493600Y-55560780D01*
X98493600Y-56135780D01*
X98473067Y-56232380D01*
X98415019Y-56312277D01*
X98329492Y-56361656D01*
X98256100Y-56373280D01*
X97781100Y-56373280D01*
X97684500Y-56352747D01*
X97604603Y-56294699D01*
X97555224Y-56209172D01*
X97543600Y-56135780D01*
X97543600Y-55560780D01*
X97564133Y-55464180D01*
X97622181Y-55384283D01*
X97707708Y-55334904D01*
X97781100Y-55323280D01*
X98256100Y-55323280D01*
X98352700Y-55343813D01*
X98352700Y-55343813D01*
G37*
D14*
X98018600Y-55848280D03*
D13*
G36*
X98352700Y-57093813D02*
G01*
X98432597Y-57151861D01*
X98481976Y-57237388D01*
X98493600Y-57310780D01*
X98493600Y-57885780D01*
X98473067Y-57982380D01*
X98415019Y-58062277D01*
X98329492Y-58111656D01*
X98256100Y-58123280D01*
X97781100Y-58123280D01*
X97684500Y-58102747D01*
X97604603Y-58044699D01*
X97555224Y-57959172D01*
X97543600Y-57885780D01*
X97543600Y-57310780D01*
X97564133Y-57214180D01*
X97622181Y-57134283D01*
X97707708Y-57084904D01*
X97781100Y-57073280D01*
X98256100Y-57073280D01*
X98352700Y-57093813D01*
X98352700Y-57093813D01*
G37*
D14*
X98018600Y-57598280D03*
D13*
G36*
X86349100Y-68684333D02*
G01*
X86428997Y-68742381D01*
X86478376Y-68827908D01*
X86490000Y-68901300D01*
X86490000Y-69376300D01*
X86469467Y-69472900D01*
X86411419Y-69552797D01*
X86325892Y-69602176D01*
X86252500Y-69613800D01*
X85677500Y-69613800D01*
X85580900Y-69593267D01*
X85501003Y-69535219D01*
X85451624Y-69449692D01*
X85440000Y-69376300D01*
X85440000Y-68901300D01*
X85460533Y-68804700D01*
X85518581Y-68724803D01*
X85604108Y-68675424D01*
X85677500Y-68663800D01*
X86252500Y-68663800D01*
X86349100Y-68684333D01*
X86349100Y-68684333D01*
G37*
D14*
X85965000Y-69138800D03*
D13*
G36*
X84599100Y-68684333D02*
G01*
X84678997Y-68742381D01*
X84728376Y-68827908D01*
X84740000Y-68901300D01*
X84740000Y-69376300D01*
X84719467Y-69472900D01*
X84661419Y-69552797D01*
X84575892Y-69602176D01*
X84502500Y-69613800D01*
X83927500Y-69613800D01*
X83830900Y-69593267D01*
X83751003Y-69535219D01*
X83701624Y-69449692D01*
X83690000Y-69376300D01*
X83690000Y-68901300D01*
X83710533Y-68804700D01*
X83768581Y-68724803D01*
X83854108Y-68675424D01*
X83927500Y-68663800D01*
X84502500Y-68663800D01*
X84599100Y-68684333D01*
X84599100Y-68684333D01*
G37*
D14*
X84215000Y-69138800D03*
D13*
G36*
X77720280Y-74894133D02*
G01*
X77800177Y-74952181D01*
X77849556Y-75037708D01*
X77861180Y-75111100D01*
X77861180Y-75686100D01*
X77840647Y-75782700D01*
X77782599Y-75862597D01*
X77697072Y-75911976D01*
X77623680Y-75923600D01*
X77148680Y-75923600D01*
X77052080Y-75903067D01*
X76972183Y-75845019D01*
X76922804Y-75759492D01*
X76911180Y-75686100D01*
X76911180Y-75111100D01*
X76931713Y-75014500D01*
X76989761Y-74934603D01*
X77075288Y-74885224D01*
X77148680Y-74873600D01*
X77623680Y-74873600D01*
X77720280Y-74894133D01*
X77720280Y-74894133D01*
G37*
D14*
X77386180Y-75398600D03*
D13*
G36*
X77720280Y-73144133D02*
G01*
X77800177Y-73202181D01*
X77849556Y-73287708D01*
X77861180Y-73361100D01*
X77861180Y-73936100D01*
X77840647Y-74032700D01*
X77782599Y-74112597D01*
X77697072Y-74161976D01*
X77623680Y-74173600D01*
X77148680Y-74173600D01*
X77052080Y-74153067D01*
X76972183Y-74095019D01*
X76922804Y-74009492D01*
X76911180Y-73936100D01*
X76911180Y-73361100D01*
X76931713Y-73264500D01*
X76989761Y-73184603D01*
X77075288Y-73135224D01*
X77148680Y-73123600D01*
X77623680Y-73123600D01*
X77720280Y-73144133D01*
X77720280Y-73144133D01*
G37*
D14*
X77386180Y-73648600D03*
D13*
G36*
X77865060Y-57869873D02*
G01*
X77944957Y-57927921D01*
X77994336Y-58013448D01*
X78005960Y-58086840D01*
X78005960Y-58661840D01*
X77985427Y-58758440D01*
X77927379Y-58838337D01*
X77841852Y-58887716D01*
X77768460Y-58899340D01*
X77293460Y-58899340D01*
X77196860Y-58878807D01*
X77116963Y-58820759D01*
X77067584Y-58735232D01*
X77055960Y-58661840D01*
X77055960Y-58086840D01*
X77076493Y-57990240D01*
X77134541Y-57910343D01*
X77220068Y-57860964D01*
X77293460Y-57849340D01*
X77768460Y-57849340D01*
X77865060Y-57869873D01*
X77865060Y-57869873D01*
G37*
D14*
X77530960Y-58374340D03*
D13*
G36*
X77865060Y-59619873D02*
G01*
X77944957Y-59677921D01*
X77994336Y-59763448D01*
X78005960Y-59836840D01*
X78005960Y-60411840D01*
X77985427Y-60508440D01*
X77927379Y-60588337D01*
X77841852Y-60637716D01*
X77768460Y-60649340D01*
X77293460Y-60649340D01*
X77196860Y-60628807D01*
X77116963Y-60570759D01*
X77067584Y-60485232D01*
X77055960Y-60411840D01*
X77055960Y-59836840D01*
X77076493Y-59740240D01*
X77134541Y-59660343D01*
X77220068Y-59610964D01*
X77293460Y-59599340D01*
X77768460Y-59599340D01*
X77865060Y-59619873D01*
X77865060Y-59619873D01*
G37*
D14*
X77530960Y-60124340D03*
D13*
G36*
X79658300Y-57864733D02*
G01*
X79738197Y-57922781D01*
X79787576Y-58008308D01*
X79799200Y-58081700D01*
X79799200Y-58656700D01*
X79778667Y-58753300D01*
X79720619Y-58833197D01*
X79635092Y-58882576D01*
X79561700Y-58894200D01*
X79086700Y-58894200D01*
X78990100Y-58873667D01*
X78910203Y-58815619D01*
X78860824Y-58730092D01*
X78849200Y-58656700D01*
X78849200Y-58081700D01*
X78869733Y-57985100D01*
X78927781Y-57905203D01*
X79013308Y-57855824D01*
X79086700Y-57844200D01*
X79561700Y-57844200D01*
X79658300Y-57864733D01*
X79658300Y-57864733D01*
G37*
D14*
X79324200Y-58369200D03*
D13*
G36*
X79658300Y-59614733D02*
G01*
X79738197Y-59672781D01*
X79787576Y-59758308D01*
X79799200Y-59831700D01*
X79799200Y-60406700D01*
X79778667Y-60503300D01*
X79720619Y-60583197D01*
X79635092Y-60632576D01*
X79561700Y-60644200D01*
X79086700Y-60644200D01*
X78990100Y-60623667D01*
X78910203Y-60565619D01*
X78860824Y-60480092D01*
X78849200Y-60406700D01*
X78849200Y-59831700D01*
X78869733Y-59735100D01*
X78927781Y-59655203D01*
X79013308Y-59605824D01*
X79086700Y-59594200D01*
X79561700Y-59594200D01*
X79658300Y-59614733D01*
X79658300Y-59614733D01*
G37*
D14*
X79324200Y-60119200D03*
D13*
G36*
X86357960Y-67190813D02*
G01*
X86437857Y-67248861D01*
X86487236Y-67334388D01*
X86498860Y-67407780D01*
X86498860Y-67882780D01*
X86478327Y-67979380D01*
X86420279Y-68059277D01*
X86334752Y-68108656D01*
X86261360Y-68120280D01*
X85686360Y-68120280D01*
X85589760Y-68099747D01*
X85509863Y-68041699D01*
X85460484Y-67956172D01*
X85448860Y-67882780D01*
X85448860Y-67407780D01*
X85469393Y-67311180D01*
X85527441Y-67231283D01*
X85612968Y-67181904D01*
X85686360Y-67170280D01*
X86261360Y-67170280D01*
X86357960Y-67190813D01*
X86357960Y-67190813D01*
G37*
D14*
X85973860Y-67645280D03*
D13*
G36*
X84607960Y-67190813D02*
G01*
X84687857Y-67248861D01*
X84737236Y-67334388D01*
X84748860Y-67407780D01*
X84748860Y-67882780D01*
X84728327Y-67979380D01*
X84670279Y-68059277D01*
X84584752Y-68108656D01*
X84511360Y-68120280D01*
X83936360Y-68120280D01*
X83839760Y-68099747D01*
X83759863Y-68041699D01*
X83710484Y-67956172D01*
X83698860Y-67882780D01*
X83698860Y-67407780D01*
X83719393Y-67311180D01*
X83777441Y-67231283D01*
X83862968Y-67181904D01*
X83936360Y-67170280D01*
X84511360Y-67170280D01*
X84607960Y-67190813D01*
X84607960Y-67190813D01*
G37*
D14*
X84223860Y-67645280D03*
D13*
G36*
X71024460Y-71785873D02*
G01*
X71084575Y-71829549D01*
X71420451Y-72165425D01*
X71474238Y-72248251D01*
X71489688Y-72345793D01*
X71464127Y-72441186D01*
X71420451Y-72501301D01*
X71013865Y-72907887D01*
X70931039Y-72961674D01*
X70833497Y-72977124D01*
X70738104Y-72951563D01*
X70677989Y-72907887D01*
X70342113Y-72572011D01*
X70288326Y-72489185D01*
X70272876Y-72391643D01*
X70298437Y-72296250D01*
X70342113Y-72236135D01*
X70748699Y-71829549D01*
X70831525Y-71775762D01*
X70929067Y-71760312D01*
X71024460Y-71785873D01*
X71024460Y-71785873D01*
G37*
D14*
X70881282Y-72368718D03*
D13*
G36*
X72261896Y-70548437D02*
G01*
X72322011Y-70592113D01*
X72657887Y-70927989D01*
X72711674Y-71010815D01*
X72727124Y-71108357D01*
X72701563Y-71203750D01*
X72657887Y-71263865D01*
X72251301Y-71670451D01*
X72168475Y-71724238D01*
X72070933Y-71739688D01*
X71975540Y-71714127D01*
X71915425Y-71670451D01*
X71579549Y-71334575D01*
X71525762Y-71251749D01*
X71510312Y-71154207D01*
X71535873Y-71058814D01*
X71579549Y-70998699D01*
X71986135Y-70592113D01*
X72068961Y-70538326D01*
X72166503Y-70522876D01*
X72261896Y-70548437D01*
X72261896Y-70548437D01*
G37*
D14*
X72118718Y-71131282D03*
D13*
G36*
X146418150Y-72814037D02*
G01*
X146478265Y-72857713D01*
X146884851Y-73264299D01*
X146938638Y-73347125D01*
X146954088Y-73444667D01*
X146928527Y-73540060D01*
X146884851Y-73600175D01*
X146548975Y-73936051D01*
X146466149Y-73989838D01*
X146368607Y-74005288D01*
X146273214Y-73979727D01*
X146213099Y-73936051D01*
X145806513Y-73529465D01*
X145752726Y-73446639D01*
X145737276Y-73349097D01*
X145762837Y-73253704D01*
X145806513Y-73193589D01*
X146142389Y-72857713D01*
X146225215Y-72803926D01*
X146322757Y-72788476D01*
X146418150Y-72814037D01*
X146418150Y-72814037D01*
G37*
D14*
X146345682Y-73396882D03*
D13*
G36*
X147655586Y-74051473D02*
G01*
X147715701Y-74095149D01*
X148122287Y-74501735D01*
X148176074Y-74584561D01*
X148191524Y-74682103D01*
X148165963Y-74777496D01*
X148122287Y-74837611D01*
X147786411Y-75173487D01*
X147703585Y-75227274D01*
X147606043Y-75242724D01*
X147510650Y-75217163D01*
X147450535Y-75173487D01*
X147043949Y-74766901D01*
X146990162Y-74684075D01*
X146974712Y-74586533D01*
X147000273Y-74491140D01*
X147043949Y-74431025D01*
X147379825Y-74095149D01*
X147462651Y-74041362D01*
X147560193Y-74025912D01*
X147655586Y-74051473D01*
X147655586Y-74051473D01*
G37*
D14*
X147583118Y-74634318D03*
D13*
G36*
X104411354Y-87488711D02*
G01*
X104491251Y-87546759D01*
X104540630Y-87632286D01*
X104552254Y-87705678D01*
X104552254Y-88180678D01*
X104531721Y-88277278D01*
X104473673Y-88357175D01*
X104388146Y-88406554D01*
X104314754Y-88418178D01*
X103739754Y-88418178D01*
X103643154Y-88397645D01*
X103563257Y-88339597D01*
X103513878Y-88254070D01*
X103502254Y-88180678D01*
X103502254Y-87705678D01*
X103522787Y-87609078D01*
X103580835Y-87529181D01*
X103666362Y-87479802D01*
X103739754Y-87468178D01*
X104314754Y-87468178D01*
X104411354Y-87488711D01*
X104411354Y-87488711D01*
G37*
D14*
X104027254Y-87943178D03*
D13*
G36*
X106161354Y-87488711D02*
G01*
X106241251Y-87546759D01*
X106290630Y-87632286D01*
X106302254Y-87705678D01*
X106302254Y-88180678D01*
X106281721Y-88277278D01*
X106223673Y-88357175D01*
X106138146Y-88406554D01*
X106064754Y-88418178D01*
X105489754Y-88418178D01*
X105393154Y-88397645D01*
X105313257Y-88339597D01*
X105263878Y-88254070D01*
X105252254Y-88180678D01*
X105252254Y-87705678D01*
X105272787Y-87609078D01*
X105330835Y-87529181D01*
X105416362Y-87479802D01*
X105489754Y-87468178D01*
X106064754Y-87468178D01*
X106161354Y-87488711D01*
X106161354Y-87488711D01*
G37*
D14*
X105777254Y-87943178D03*
D13*
G36*
X104411354Y-85929738D02*
G01*
X104491251Y-85987786D01*
X104540630Y-86073313D01*
X104552254Y-86146705D01*
X104552254Y-86621705D01*
X104531721Y-86718305D01*
X104473673Y-86798202D01*
X104388146Y-86847581D01*
X104314754Y-86859205D01*
X103739754Y-86859205D01*
X103643154Y-86838672D01*
X103563257Y-86780624D01*
X103513878Y-86695097D01*
X103502254Y-86621705D01*
X103502254Y-86146705D01*
X103522787Y-86050105D01*
X103580835Y-85970208D01*
X103666362Y-85920829D01*
X103739754Y-85909205D01*
X104314754Y-85909205D01*
X104411354Y-85929738D01*
X104411354Y-85929738D01*
G37*
D14*
X104027254Y-86384205D03*
D13*
G36*
X106161354Y-85929738D02*
G01*
X106241251Y-85987786D01*
X106290630Y-86073313D01*
X106302254Y-86146705D01*
X106302254Y-86621705D01*
X106281721Y-86718305D01*
X106223673Y-86798202D01*
X106138146Y-86847581D01*
X106064754Y-86859205D01*
X105489754Y-86859205D01*
X105393154Y-86838672D01*
X105313257Y-86780624D01*
X105263878Y-86695097D01*
X105252254Y-86621705D01*
X105252254Y-86146705D01*
X105272787Y-86050105D01*
X105330835Y-85970208D01*
X105416362Y-85920829D01*
X105489754Y-85909205D01*
X106064754Y-85909205D01*
X106161354Y-85929738D01*
X106161354Y-85929738D01*
G37*
D14*
X105777254Y-86384205D03*
D13*
G36*
X142022120Y-73459533D02*
G01*
X142102017Y-73517581D01*
X142151396Y-73603108D01*
X142163020Y-73676500D01*
X142163020Y-74151500D01*
X142142487Y-74248100D01*
X142084439Y-74327997D01*
X141998912Y-74377376D01*
X141925520Y-74389000D01*
X141350520Y-74389000D01*
X141253920Y-74368467D01*
X141174023Y-74310419D01*
X141124644Y-74224892D01*
X141113020Y-74151500D01*
X141113020Y-73676500D01*
X141133553Y-73579900D01*
X141191601Y-73500003D01*
X141277128Y-73450624D01*
X141350520Y-73439000D01*
X141925520Y-73439000D01*
X142022120Y-73459533D01*
X142022120Y-73459533D01*
G37*
D14*
X141638020Y-73914000D03*
D13*
G36*
X140272120Y-73459533D02*
G01*
X140352017Y-73517581D01*
X140401396Y-73603108D01*
X140413020Y-73676500D01*
X140413020Y-74151500D01*
X140392487Y-74248100D01*
X140334439Y-74327997D01*
X140248912Y-74377376D01*
X140175520Y-74389000D01*
X139600520Y-74389000D01*
X139503920Y-74368467D01*
X139424023Y-74310419D01*
X139374644Y-74224892D01*
X139363020Y-74151500D01*
X139363020Y-73676500D01*
X139383553Y-73579900D01*
X139441601Y-73500003D01*
X139527128Y-73450624D01*
X139600520Y-73439000D01*
X140175520Y-73439000D01*
X140272120Y-73459533D01*
X140272120Y-73459533D01*
G37*
D14*
X139888020Y-73914000D03*
D13*
G36*
X102759100Y-80545533D02*
G01*
X102838997Y-80603581D01*
X102888376Y-80689108D01*
X102900000Y-80762500D01*
X102900000Y-81237500D01*
X102879467Y-81334100D01*
X102821419Y-81413997D01*
X102735892Y-81463376D01*
X102662500Y-81475000D01*
X102087500Y-81475000D01*
X101990900Y-81454467D01*
X101911003Y-81396419D01*
X101861624Y-81310892D01*
X101850000Y-81237500D01*
X101850000Y-80762500D01*
X101870533Y-80665900D01*
X101928581Y-80586003D01*
X102014108Y-80536624D01*
X102087500Y-80525000D01*
X102662500Y-80525000D01*
X102759100Y-80545533D01*
X102759100Y-80545533D01*
G37*
D14*
X102375000Y-81000000D03*
D13*
G36*
X104509100Y-80545533D02*
G01*
X104588997Y-80603581D01*
X104638376Y-80689108D01*
X104650000Y-80762500D01*
X104650000Y-81237500D01*
X104629467Y-81334100D01*
X104571419Y-81413997D01*
X104485892Y-81463376D01*
X104412500Y-81475000D01*
X103837500Y-81475000D01*
X103740900Y-81454467D01*
X103661003Y-81396419D01*
X103611624Y-81310892D01*
X103600000Y-81237500D01*
X103600000Y-80762500D01*
X103620533Y-80665900D01*
X103678581Y-80586003D01*
X103764108Y-80536624D01*
X103837500Y-80525000D01*
X104412500Y-80525000D01*
X104509100Y-80545533D01*
X104509100Y-80545533D01*
G37*
D14*
X104125000Y-81000000D03*
D13*
G36*
X104193900Y-84381533D02*
G01*
X104273797Y-84439581D01*
X104323176Y-84525108D01*
X104334800Y-84598500D01*
X104334800Y-85073500D01*
X104314267Y-85170100D01*
X104256219Y-85249997D01*
X104170692Y-85299376D01*
X104097300Y-85311000D01*
X103522300Y-85311000D01*
X103425700Y-85290467D01*
X103345803Y-85232419D01*
X103296424Y-85146892D01*
X103284800Y-85073500D01*
X103284800Y-84598500D01*
X103305333Y-84501900D01*
X103363381Y-84422003D01*
X103448908Y-84372624D01*
X103522300Y-84361000D01*
X104097300Y-84361000D01*
X104193900Y-84381533D01*
X104193900Y-84381533D01*
G37*
D14*
X103809800Y-84836000D03*
D13*
G36*
X105943900Y-84381533D02*
G01*
X106023797Y-84439581D01*
X106073176Y-84525108D01*
X106084800Y-84598500D01*
X106084800Y-85073500D01*
X106064267Y-85170100D01*
X106006219Y-85249997D01*
X105920692Y-85299376D01*
X105847300Y-85311000D01*
X105272300Y-85311000D01*
X105175700Y-85290467D01*
X105095803Y-85232419D01*
X105046424Y-85146892D01*
X105034800Y-85073500D01*
X105034800Y-84598500D01*
X105055333Y-84501900D01*
X105113381Y-84422003D01*
X105198908Y-84372624D01*
X105272300Y-84361000D01*
X105847300Y-84361000D01*
X105943900Y-84381533D01*
X105943900Y-84381533D01*
G37*
D14*
X105559800Y-84836000D03*
D13*
G36*
X127011520Y-95593893D02*
G01*
X127091417Y-95651941D01*
X127140796Y-95737468D01*
X127152420Y-95810860D01*
X127152420Y-96385860D01*
X127131887Y-96482460D01*
X127073839Y-96562357D01*
X126988312Y-96611736D01*
X126914920Y-96623360D01*
X126439920Y-96623360D01*
X126343320Y-96602827D01*
X126263423Y-96544779D01*
X126214044Y-96459252D01*
X126202420Y-96385860D01*
X126202420Y-95810860D01*
X126222953Y-95714260D01*
X126281001Y-95634363D01*
X126366528Y-95584984D01*
X126439920Y-95573360D01*
X126914920Y-95573360D01*
X127011520Y-95593893D01*
X127011520Y-95593893D01*
G37*
D14*
X126677420Y-96098360D03*
D13*
G36*
X127011520Y-93843893D02*
G01*
X127091417Y-93901941D01*
X127140796Y-93987468D01*
X127152420Y-94060860D01*
X127152420Y-94635860D01*
X127131887Y-94732460D01*
X127073839Y-94812357D01*
X126988312Y-94861736D01*
X126914920Y-94873360D01*
X126439920Y-94873360D01*
X126343320Y-94852827D01*
X126263423Y-94794779D01*
X126214044Y-94709252D01*
X126202420Y-94635860D01*
X126202420Y-94060860D01*
X126222953Y-93964260D01*
X126281001Y-93884363D01*
X126366528Y-93834984D01*
X126439920Y-93823360D01*
X126914920Y-93823360D01*
X127011520Y-93843893D01*
X127011520Y-93843893D01*
G37*
D14*
X126677420Y-94348360D03*
D13*
G36*
X125299560Y-95550653D02*
G01*
X125379457Y-95608701D01*
X125428836Y-95694228D01*
X125440460Y-95767620D01*
X125440460Y-96342620D01*
X125419927Y-96439220D01*
X125361879Y-96519117D01*
X125276352Y-96568496D01*
X125202960Y-96580120D01*
X124727960Y-96580120D01*
X124631360Y-96559587D01*
X124551463Y-96501539D01*
X124502084Y-96416012D01*
X124490460Y-96342620D01*
X124490460Y-95767620D01*
X124510993Y-95671020D01*
X124569041Y-95591123D01*
X124654568Y-95541744D01*
X124727960Y-95530120D01*
X125202960Y-95530120D01*
X125299560Y-95550653D01*
X125299560Y-95550653D01*
G37*
D14*
X124965460Y-96055120D03*
D13*
G36*
X125299560Y-93800653D02*
G01*
X125379457Y-93858701D01*
X125428836Y-93944228D01*
X125440460Y-94017620D01*
X125440460Y-94592620D01*
X125419927Y-94689220D01*
X125361879Y-94769117D01*
X125276352Y-94818496D01*
X125202960Y-94830120D01*
X124727960Y-94830120D01*
X124631360Y-94809587D01*
X124551463Y-94751539D01*
X124502084Y-94666012D01*
X124490460Y-94592620D01*
X124490460Y-94017620D01*
X124510993Y-93921020D01*
X124569041Y-93841123D01*
X124654568Y-93791744D01*
X124727960Y-93780120D01*
X125202960Y-93780120D01*
X125299560Y-93800653D01*
X125299560Y-93800653D01*
G37*
D14*
X124965460Y-94305120D03*
D13*
G36*
X118631320Y-94345953D02*
G01*
X118711217Y-94404001D01*
X118760596Y-94489528D01*
X118772220Y-94562920D01*
X118772220Y-95037920D01*
X118751687Y-95134520D01*
X118693639Y-95214417D01*
X118608112Y-95263796D01*
X118534720Y-95275420D01*
X117959720Y-95275420D01*
X117863120Y-95254887D01*
X117783223Y-95196839D01*
X117733844Y-95111312D01*
X117722220Y-95037920D01*
X117722220Y-94562920D01*
X117742753Y-94466320D01*
X117800801Y-94386423D01*
X117886328Y-94337044D01*
X117959720Y-94325420D01*
X118534720Y-94325420D01*
X118631320Y-94345953D01*
X118631320Y-94345953D01*
G37*
D14*
X118247220Y-94800420D03*
D13*
G36*
X120381320Y-94345953D02*
G01*
X120461217Y-94404001D01*
X120510596Y-94489528D01*
X120522220Y-94562920D01*
X120522220Y-95037920D01*
X120501687Y-95134520D01*
X120443639Y-95214417D01*
X120358112Y-95263796D01*
X120284720Y-95275420D01*
X119709720Y-95275420D01*
X119613120Y-95254887D01*
X119533223Y-95196839D01*
X119483844Y-95111312D01*
X119472220Y-95037920D01*
X119472220Y-94562920D01*
X119492753Y-94466320D01*
X119550801Y-94386423D01*
X119636328Y-94337044D01*
X119709720Y-94325420D01*
X120284720Y-94325420D01*
X120381320Y-94345953D01*
X120381320Y-94345953D01*
G37*
D14*
X119997220Y-94800420D03*
D13*
G36*
X130435380Y-95601453D02*
G01*
X130515277Y-95659501D01*
X130564656Y-95745028D01*
X130576280Y-95818420D01*
X130576280Y-96393420D01*
X130555747Y-96490020D01*
X130497699Y-96569917D01*
X130412172Y-96619296D01*
X130338780Y-96630920D01*
X129863780Y-96630920D01*
X129767180Y-96610387D01*
X129687283Y-96552339D01*
X129637904Y-96466812D01*
X129626280Y-96393420D01*
X129626280Y-95818420D01*
X129646813Y-95721820D01*
X129704861Y-95641923D01*
X129790388Y-95592544D01*
X129863780Y-95580920D01*
X130338780Y-95580920D01*
X130435380Y-95601453D01*
X130435380Y-95601453D01*
G37*
D14*
X130101280Y-96105920D03*
D13*
G36*
X130435380Y-93851453D02*
G01*
X130515277Y-93909501D01*
X130564656Y-93995028D01*
X130576280Y-94068420D01*
X130576280Y-94643420D01*
X130555747Y-94740020D01*
X130497699Y-94819917D01*
X130412172Y-94869296D01*
X130338780Y-94880920D01*
X129863780Y-94880920D01*
X129767180Y-94860387D01*
X129687283Y-94802339D01*
X129637904Y-94716812D01*
X129626280Y-94643420D01*
X129626280Y-94068420D01*
X129646813Y-93971820D01*
X129704861Y-93891923D01*
X129790388Y-93842544D01*
X129863780Y-93830920D01*
X130338780Y-93830920D01*
X130435380Y-93851453D01*
X130435380Y-93851453D01*
G37*
D14*
X130101280Y-94355920D03*
D13*
G36*
X133719660Y-96111993D02*
G01*
X133799557Y-96170041D01*
X133848936Y-96255568D01*
X133860560Y-96328960D01*
X133860560Y-96903960D01*
X133840027Y-97000560D01*
X133781979Y-97080457D01*
X133696452Y-97129836D01*
X133623060Y-97141460D01*
X133148060Y-97141460D01*
X133051460Y-97120927D01*
X132971563Y-97062879D01*
X132922184Y-96977352D01*
X132910560Y-96903960D01*
X132910560Y-96328960D01*
X132931093Y-96232360D01*
X132989141Y-96152463D01*
X133074668Y-96103084D01*
X133148060Y-96091460D01*
X133623060Y-96091460D01*
X133719660Y-96111993D01*
X133719660Y-96111993D01*
G37*
D14*
X133385560Y-96616460D03*
D13*
G36*
X133719660Y-94361993D02*
G01*
X133799557Y-94420041D01*
X133848936Y-94505568D01*
X133860560Y-94578960D01*
X133860560Y-95153960D01*
X133840027Y-95250560D01*
X133781979Y-95330457D01*
X133696452Y-95379836D01*
X133623060Y-95391460D01*
X133148060Y-95391460D01*
X133051460Y-95370927D01*
X132971563Y-95312879D01*
X132922184Y-95227352D01*
X132910560Y-95153960D01*
X132910560Y-94578960D01*
X132931093Y-94482360D01*
X132989141Y-94402463D01*
X133074668Y-94353084D01*
X133148060Y-94341460D01*
X133623060Y-94341460D01*
X133719660Y-94361993D01*
X133719660Y-94361993D01*
G37*
D14*
X133385560Y-94866460D03*
D13*
G36*
X120160091Y-41485127D02*
G01*
X120239988Y-41543175D01*
X120289367Y-41628702D01*
X120300991Y-41702094D01*
X120300991Y-42177094D01*
X120280458Y-42273694D01*
X120222410Y-42353591D01*
X120136883Y-42402970D01*
X120063491Y-42414594D01*
X119488491Y-42414594D01*
X119391891Y-42394061D01*
X119311994Y-42336013D01*
X119262615Y-42250486D01*
X119250991Y-42177094D01*
X119250991Y-41702094D01*
X119271524Y-41605494D01*
X119329572Y-41525597D01*
X119415099Y-41476218D01*
X119488491Y-41464594D01*
X120063491Y-41464594D01*
X120160091Y-41485127D01*
X120160091Y-41485127D01*
G37*
D14*
X119775991Y-41939594D03*
D13*
G36*
X121910091Y-41485127D02*
G01*
X121989988Y-41543175D01*
X122039367Y-41628702D01*
X122050991Y-41702094D01*
X122050991Y-42177094D01*
X122030458Y-42273694D01*
X121972410Y-42353591D01*
X121886883Y-42402970D01*
X121813491Y-42414594D01*
X121238491Y-42414594D01*
X121141891Y-42394061D01*
X121061994Y-42336013D01*
X121012615Y-42250486D01*
X121000991Y-42177094D01*
X121000991Y-41702094D01*
X121021524Y-41605494D01*
X121079572Y-41525597D01*
X121165099Y-41476218D01*
X121238491Y-41464594D01*
X121813491Y-41464594D01*
X121910091Y-41485127D01*
X121910091Y-41485127D01*
G37*
D14*
X121525991Y-41939594D03*
D13*
G36*
X120135268Y-43286566D02*
G01*
X120215165Y-43344614D01*
X120264544Y-43430141D01*
X120276168Y-43503533D01*
X120276168Y-43978533D01*
X120255635Y-44075133D01*
X120197587Y-44155030D01*
X120112060Y-44204409D01*
X120038668Y-44216033D01*
X119463668Y-44216033D01*
X119367068Y-44195500D01*
X119287171Y-44137452D01*
X119237792Y-44051925D01*
X119226168Y-43978533D01*
X119226168Y-43503533D01*
X119246701Y-43406933D01*
X119304749Y-43327036D01*
X119390276Y-43277657D01*
X119463668Y-43266033D01*
X120038668Y-43266033D01*
X120135268Y-43286566D01*
X120135268Y-43286566D01*
G37*
D14*
X119751168Y-43741033D03*
D13*
G36*
X121885268Y-43286566D02*
G01*
X121965165Y-43344614D01*
X122014544Y-43430141D01*
X122026168Y-43503533D01*
X122026168Y-43978533D01*
X122005635Y-44075133D01*
X121947587Y-44155030D01*
X121862060Y-44204409D01*
X121788668Y-44216033D01*
X121213668Y-44216033D01*
X121117068Y-44195500D01*
X121037171Y-44137452D01*
X120987792Y-44051925D01*
X120976168Y-43978533D01*
X120976168Y-43503533D01*
X120996701Y-43406933D01*
X121054749Y-43327036D01*
X121140276Y-43277657D01*
X121213668Y-43266033D01*
X121788668Y-43266033D01*
X121885268Y-43286566D01*
X121885268Y-43286566D01*
G37*
D14*
X121501168Y-43741033D03*
D13*
G36*
X102561480Y-85398393D02*
G01*
X102641377Y-85456441D01*
X102690756Y-85541968D01*
X102702380Y-85615360D01*
X102702380Y-86190360D01*
X102681847Y-86286960D01*
X102623799Y-86366857D01*
X102538272Y-86416236D01*
X102464880Y-86427860D01*
X101989880Y-86427860D01*
X101893280Y-86407327D01*
X101813383Y-86349279D01*
X101764004Y-86263752D01*
X101752380Y-86190360D01*
X101752380Y-85615360D01*
X101772913Y-85518760D01*
X101830961Y-85438863D01*
X101916488Y-85389484D01*
X101989880Y-85377860D01*
X102464880Y-85377860D01*
X102561480Y-85398393D01*
X102561480Y-85398393D01*
G37*
D14*
X102227380Y-85902860D03*
D13*
G36*
X102561480Y-87148393D02*
G01*
X102641377Y-87206441D01*
X102690756Y-87291968D01*
X102702380Y-87365360D01*
X102702380Y-87940360D01*
X102681847Y-88036960D01*
X102623799Y-88116857D01*
X102538272Y-88166236D01*
X102464880Y-88177860D01*
X101989880Y-88177860D01*
X101893280Y-88157327D01*
X101813383Y-88099279D01*
X101764004Y-88013752D01*
X101752380Y-87940360D01*
X101752380Y-87365360D01*
X101772913Y-87268760D01*
X101830961Y-87188863D01*
X101916488Y-87139484D01*
X101989880Y-87127860D01*
X102464880Y-87127860D01*
X102561480Y-87148393D01*
X102561480Y-87148393D01*
G37*
D14*
X102227380Y-87652860D03*
D13*
G36*
X107749960Y-82494313D02*
G01*
X107829857Y-82552361D01*
X107879236Y-82637888D01*
X107890860Y-82711280D01*
X107890860Y-83186280D01*
X107870327Y-83282880D01*
X107812279Y-83362777D01*
X107726752Y-83412156D01*
X107653360Y-83423780D01*
X107078360Y-83423780D01*
X106981760Y-83403247D01*
X106901863Y-83345199D01*
X106852484Y-83259672D01*
X106840860Y-83186280D01*
X106840860Y-82711280D01*
X106861393Y-82614680D01*
X106919441Y-82534783D01*
X107004968Y-82485404D01*
X107078360Y-82473780D01*
X107653360Y-82473780D01*
X107749960Y-82494313D01*
X107749960Y-82494313D01*
G37*
D14*
X107365860Y-82948780D03*
D13*
G36*
X109499960Y-82494313D02*
G01*
X109579857Y-82552361D01*
X109629236Y-82637888D01*
X109640860Y-82711280D01*
X109640860Y-83186280D01*
X109620327Y-83282880D01*
X109562279Y-83362777D01*
X109476752Y-83412156D01*
X109403360Y-83423780D01*
X108828360Y-83423780D01*
X108731760Y-83403247D01*
X108651863Y-83345199D01*
X108602484Y-83259672D01*
X108590860Y-83186280D01*
X108590860Y-82711280D01*
X108611393Y-82614680D01*
X108669441Y-82534783D01*
X108754968Y-82485404D01*
X108828360Y-82473780D01*
X109403360Y-82473780D01*
X109499960Y-82494313D01*
X109499960Y-82494313D01*
G37*
D14*
X109115860Y-82948780D03*
D13*
G36*
X142142740Y-68435413D02*
G01*
X142222637Y-68493461D01*
X142272016Y-68578988D01*
X142283640Y-68652380D01*
X142283640Y-69127380D01*
X142263107Y-69223980D01*
X142205059Y-69303877D01*
X142119532Y-69353256D01*
X142046140Y-69364880D01*
X141471140Y-69364880D01*
X141374540Y-69344347D01*
X141294643Y-69286299D01*
X141245264Y-69200772D01*
X141233640Y-69127380D01*
X141233640Y-68652380D01*
X141254173Y-68555780D01*
X141312221Y-68475883D01*
X141397748Y-68426504D01*
X141471140Y-68414880D01*
X142046140Y-68414880D01*
X142142740Y-68435413D01*
X142142740Y-68435413D01*
G37*
D14*
X141758640Y-68889880D03*
D13*
G36*
X140392740Y-68435413D02*
G01*
X140472637Y-68493461D01*
X140522016Y-68578988D01*
X140533640Y-68652380D01*
X140533640Y-69127380D01*
X140513107Y-69223980D01*
X140455059Y-69303877D01*
X140369532Y-69353256D01*
X140296140Y-69364880D01*
X139721140Y-69364880D01*
X139624540Y-69344347D01*
X139544643Y-69286299D01*
X139495264Y-69200772D01*
X139483640Y-69127380D01*
X139483640Y-68652380D01*
X139504173Y-68555780D01*
X139562221Y-68475883D01*
X139647748Y-68426504D01*
X139721140Y-68414880D01*
X140296140Y-68414880D01*
X140392740Y-68435413D01*
X140392740Y-68435413D01*
G37*
D14*
X140008640Y-68889880D03*
D13*
G36*
X135490040Y-96045953D02*
G01*
X135569937Y-96104001D01*
X135619316Y-96189528D01*
X135630940Y-96262920D01*
X135630940Y-96837920D01*
X135610407Y-96934520D01*
X135552359Y-97014417D01*
X135466832Y-97063796D01*
X135393440Y-97075420D01*
X134918440Y-97075420D01*
X134821840Y-97054887D01*
X134741943Y-96996839D01*
X134692564Y-96911312D01*
X134680940Y-96837920D01*
X134680940Y-96262920D01*
X134701473Y-96166320D01*
X134759521Y-96086423D01*
X134845048Y-96037044D01*
X134918440Y-96025420D01*
X135393440Y-96025420D01*
X135490040Y-96045953D01*
X135490040Y-96045953D01*
G37*
D14*
X135155940Y-96550420D03*
D13*
G36*
X135490040Y-94295953D02*
G01*
X135569937Y-94354001D01*
X135619316Y-94439528D01*
X135630940Y-94512920D01*
X135630940Y-95087920D01*
X135610407Y-95184520D01*
X135552359Y-95264417D01*
X135466832Y-95313796D01*
X135393440Y-95325420D01*
X134918440Y-95325420D01*
X134821840Y-95304887D01*
X134741943Y-95246839D01*
X134692564Y-95161312D01*
X134680940Y-95087920D01*
X134680940Y-94512920D01*
X134701473Y-94416320D01*
X134759521Y-94336423D01*
X134845048Y-94287044D01*
X134918440Y-94275420D01*
X135393440Y-94275420D01*
X135490040Y-94295953D01*
X135490040Y-94295953D01*
G37*
D14*
X135155940Y-94800420D03*
D13*
G36*
X128738720Y-95593893D02*
G01*
X128818617Y-95651941D01*
X128867996Y-95737468D01*
X128879620Y-95810860D01*
X128879620Y-96385860D01*
X128859087Y-96482460D01*
X128801039Y-96562357D01*
X128715512Y-96611736D01*
X128642120Y-96623360D01*
X128167120Y-96623360D01*
X128070520Y-96602827D01*
X127990623Y-96544779D01*
X127941244Y-96459252D01*
X127929620Y-96385860D01*
X127929620Y-95810860D01*
X127950153Y-95714260D01*
X128008201Y-95634363D01*
X128093728Y-95584984D01*
X128167120Y-95573360D01*
X128642120Y-95573360D01*
X128738720Y-95593893D01*
X128738720Y-95593893D01*
G37*
D14*
X128404620Y-96098360D03*
D13*
G36*
X128738720Y-93843893D02*
G01*
X128818617Y-93901941D01*
X128867996Y-93987468D01*
X128879620Y-94060860D01*
X128879620Y-94635860D01*
X128859087Y-94732460D01*
X128801039Y-94812357D01*
X128715512Y-94861736D01*
X128642120Y-94873360D01*
X128167120Y-94873360D01*
X128070520Y-94852827D01*
X127990623Y-94794779D01*
X127941244Y-94709252D01*
X127929620Y-94635860D01*
X127929620Y-94060860D01*
X127950153Y-93964260D01*
X128008201Y-93884363D01*
X128093728Y-93834984D01*
X128167120Y-93823360D01*
X128642120Y-93823360D01*
X128738720Y-93843893D01*
X128738720Y-93843893D01*
G37*
D14*
X128404620Y-94348360D03*
D13*
G36*
X121967080Y-95565893D02*
G01*
X122046977Y-95623941D01*
X122096356Y-95709468D01*
X122107980Y-95782860D01*
X122107980Y-96357860D01*
X122087447Y-96454460D01*
X122029399Y-96534357D01*
X121943872Y-96583736D01*
X121870480Y-96595360D01*
X121395480Y-96595360D01*
X121298880Y-96574827D01*
X121218983Y-96516779D01*
X121169604Y-96431252D01*
X121157980Y-96357860D01*
X121157980Y-95782860D01*
X121178513Y-95686260D01*
X121236561Y-95606363D01*
X121322088Y-95556984D01*
X121395480Y-95545360D01*
X121870480Y-95545360D01*
X121967080Y-95565893D01*
X121967080Y-95565893D01*
G37*
D14*
X121632980Y-96070360D03*
D13*
G36*
X121967080Y-93815893D02*
G01*
X122046977Y-93873941D01*
X122096356Y-93959468D01*
X122107980Y-94032860D01*
X122107980Y-94607860D01*
X122087447Y-94704460D01*
X122029399Y-94784357D01*
X121943872Y-94833736D01*
X121870480Y-94845360D01*
X121395480Y-94845360D01*
X121298880Y-94824827D01*
X121218983Y-94766779D01*
X121169604Y-94681252D01*
X121157980Y-94607860D01*
X121157980Y-94032860D01*
X121178513Y-93936260D01*
X121236561Y-93856363D01*
X121322088Y-93806984D01*
X121395480Y-93795360D01*
X121870480Y-93795360D01*
X121967080Y-93815893D01*
X121967080Y-93815893D01*
G37*
D14*
X121632980Y-94320360D03*
D13*
G36*
X116666100Y-93650733D02*
G01*
X116745997Y-93708781D01*
X116795376Y-93794308D01*
X116807000Y-93867700D01*
X116807000Y-94442700D01*
X116786467Y-94539300D01*
X116728419Y-94619197D01*
X116642892Y-94668576D01*
X116569500Y-94680200D01*
X116094500Y-94680200D01*
X115997900Y-94659667D01*
X115918003Y-94601619D01*
X115868624Y-94516092D01*
X115857000Y-94442700D01*
X115857000Y-93867700D01*
X115877533Y-93771100D01*
X115935581Y-93691203D01*
X116021108Y-93641824D01*
X116094500Y-93630200D01*
X116569500Y-93630200D01*
X116666100Y-93650733D01*
X116666100Y-93650733D01*
G37*
D14*
X116332000Y-94155200D03*
D13*
G36*
X116666100Y-91900733D02*
G01*
X116745997Y-91958781D01*
X116795376Y-92044308D01*
X116807000Y-92117700D01*
X116807000Y-92692700D01*
X116786467Y-92789300D01*
X116728419Y-92869197D01*
X116642892Y-92918576D01*
X116569500Y-92930200D01*
X116094500Y-92930200D01*
X115997900Y-92909667D01*
X115918003Y-92851619D01*
X115868624Y-92766092D01*
X115857000Y-92692700D01*
X115857000Y-92117700D01*
X115877533Y-92021100D01*
X115935581Y-91941203D01*
X116021108Y-91891824D01*
X116094500Y-91880200D01*
X116569500Y-91880200D01*
X116666100Y-91900733D01*
X116666100Y-91900733D01*
G37*
D14*
X116332000Y-92405200D03*
D13*
G36*
X102634100Y-78795533D02*
G01*
X102713997Y-78853581D01*
X102763376Y-78939108D01*
X102775000Y-79012500D01*
X102775000Y-79487500D01*
X102754467Y-79584100D01*
X102696419Y-79663997D01*
X102610892Y-79713376D01*
X102537500Y-79725000D01*
X101962500Y-79725000D01*
X101865900Y-79704467D01*
X101786003Y-79646419D01*
X101736624Y-79560892D01*
X101725000Y-79487500D01*
X101725000Y-79012500D01*
X101745533Y-78915900D01*
X101803581Y-78836003D01*
X101889108Y-78786624D01*
X101962500Y-78775000D01*
X102537500Y-78775000D01*
X102634100Y-78795533D01*
X102634100Y-78795533D01*
G37*
D14*
X102250000Y-79250000D03*
D13*
G36*
X104384100Y-78795533D02*
G01*
X104463997Y-78853581D01*
X104513376Y-78939108D01*
X104525000Y-79012500D01*
X104525000Y-79487500D01*
X104504467Y-79584100D01*
X104446419Y-79663997D01*
X104360892Y-79713376D01*
X104287500Y-79725000D01*
X103712500Y-79725000D01*
X103615900Y-79704467D01*
X103536003Y-79646419D01*
X103486624Y-79560892D01*
X103475000Y-79487500D01*
X103475000Y-79012500D01*
X103495533Y-78915900D01*
X103553581Y-78836003D01*
X103639108Y-78786624D01*
X103712500Y-78775000D01*
X104287500Y-78775000D01*
X104384100Y-78795533D01*
X104384100Y-78795533D01*
G37*
D14*
X104000000Y-79250000D03*
D13*
G36*
X107775360Y-87112033D02*
G01*
X107855257Y-87170081D01*
X107904636Y-87255608D01*
X107916260Y-87329000D01*
X107916260Y-87804000D01*
X107895727Y-87900600D01*
X107837679Y-87980497D01*
X107752152Y-88029876D01*
X107678760Y-88041500D01*
X107103760Y-88041500D01*
X107007160Y-88020967D01*
X106927263Y-87962919D01*
X106877884Y-87877392D01*
X106866260Y-87804000D01*
X106866260Y-87329000D01*
X106886793Y-87232400D01*
X106944841Y-87152503D01*
X107030368Y-87103124D01*
X107103760Y-87091500D01*
X107678760Y-87091500D01*
X107775360Y-87112033D01*
X107775360Y-87112033D01*
G37*
D14*
X107391260Y-87566500D03*
D13*
G36*
X109525360Y-87112033D02*
G01*
X109605257Y-87170081D01*
X109654636Y-87255608D01*
X109666260Y-87329000D01*
X109666260Y-87804000D01*
X109645727Y-87900600D01*
X109587679Y-87980497D01*
X109502152Y-88029876D01*
X109428760Y-88041500D01*
X108853760Y-88041500D01*
X108757160Y-88020967D01*
X108677263Y-87962919D01*
X108627884Y-87877392D01*
X108616260Y-87804000D01*
X108616260Y-87329000D01*
X108636793Y-87232400D01*
X108694841Y-87152503D01*
X108780368Y-87103124D01*
X108853760Y-87091500D01*
X109428760Y-87091500D01*
X109525360Y-87112033D01*
X109525360Y-87112033D01*
G37*
D14*
X109141260Y-87566500D03*
D13*
G36*
X107782980Y-84046253D02*
G01*
X107862877Y-84104301D01*
X107912256Y-84189828D01*
X107923880Y-84263220D01*
X107923880Y-84738220D01*
X107903347Y-84834820D01*
X107845299Y-84914717D01*
X107759772Y-84964096D01*
X107686380Y-84975720D01*
X107111380Y-84975720D01*
X107014780Y-84955187D01*
X106934883Y-84897139D01*
X106885504Y-84811612D01*
X106873880Y-84738220D01*
X106873880Y-84263220D01*
X106894413Y-84166620D01*
X106952461Y-84086723D01*
X107037988Y-84037344D01*
X107111380Y-84025720D01*
X107686380Y-84025720D01*
X107782980Y-84046253D01*
X107782980Y-84046253D01*
G37*
D14*
X107398880Y-84500720D03*
D13*
G36*
X109532980Y-84046253D02*
G01*
X109612877Y-84104301D01*
X109662256Y-84189828D01*
X109673880Y-84263220D01*
X109673880Y-84738220D01*
X109653347Y-84834820D01*
X109595299Y-84914717D01*
X109509772Y-84964096D01*
X109436380Y-84975720D01*
X108861380Y-84975720D01*
X108764780Y-84955187D01*
X108684883Y-84897139D01*
X108635504Y-84811612D01*
X108623880Y-84738220D01*
X108623880Y-84263220D01*
X108644413Y-84166620D01*
X108702461Y-84086723D01*
X108787988Y-84037344D01*
X108861380Y-84025720D01*
X109436380Y-84025720D01*
X109532980Y-84046253D01*
X109532980Y-84046253D01*
G37*
D14*
X109148880Y-84500720D03*
D13*
G36*
X138256100Y-65822553D02*
G01*
X138335997Y-65880601D01*
X138385376Y-65966128D01*
X138397000Y-66039520D01*
X138397000Y-66614520D01*
X138376467Y-66711120D01*
X138318419Y-66791017D01*
X138232892Y-66840396D01*
X138159500Y-66852020D01*
X137684500Y-66852020D01*
X137587900Y-66831487D01*
X137508003Y-66773439D01*
X137458624Y-66687912D01*
X137447000Y-66614520D01*
X137447000Y-66039520D01*
X137467533Y-65942920D01*
X137525581Y-65863023D01*
X137611108Y-65813644D01*
X137684500Y-65802020D01*
X138159500Y-65802020D01*
X138256100Y-65822553D01*
X138256100Y-65822553D01*
G37*
D14*
X137922000Y-66327020D03*
D13*
G36*
X138256100Y-67572553D02*
G01*
X138335997Y-67630601D01*
X138385376Y-67716128D01*
X138397000Y-67789520D01*
X138397000Y-68364520D01*
X138376467Y-68461120D01*
X138318419Y-68541017D01*
X138232892Y-68590396D01*
X138159500Y-68602020D01*
X137684500Y-68602020D01*
X137587900Y-68581487D01*
X137508003Y-68523439D01*
X137458624Y-68437912D01*
X137447000Y-68364520D01*
X137447000Y-67789520D01*
X137467533Y-67692920D01*
X137525581Y-67613023D01*
X137611108Y-67563644D01*
X137684500Y-67552020D01*
X138159500Y-67552020D01*
X138256100Y-67572553D01*
X138256100Y-67572553D01*
G37*
D14*
X137922000Y-68077020D03*
D13*
G36*
X143285300Y-101981933D02*
G01*
X143365197Y-102039981D01*
X143414576Y-102125508D01*
X143426200Y-102198900D01*
X143426200Y-102773900D01*
X143405667Y-102870500D01*
X143347619Y-102950397D01*
X143262092Y-102999776D01*
X143188700Y-103011400D01*
X142713700Y-103011400D01*
X142617100Y-102990867D01*
X142537203Y-102932819D01*
X142487824Y-102847292D01*
X142476200Y-102773900D01*
X142476200Y-102198900D01*
X142496733Y-102102300D01*
X142554781Y-102022403D01*
X142640308Y-101973024D01*
X142713700Y-101961400D01*
X143188700Y-101961400D01*
X143285300Y-101981933D01*
X143285300Y-101981933D01*
G37*
D14*
X142951200Y-102486400D03*
D13*
G36*
X143285300Y-100231933D02*
G01*
X143365197Y-100289981D01*
X143414576Y-100375508D01*
X143426200Y-100448900D01*
X143426200Y-101023900D01*
X143405667Y-101120500D01*
X143347619Y-101200397D01*
X143262092Y-101249776D01*
X143188700Y-101261400D01*
X142713700Y-101261400D01*
X142617100Y-101240867D01*
X142537203Y-101182819D01*
X142487824Y-101097292D01*
X142476200Y-101023900D01*
X142476200Y-100448900D01*
X142496733Y-100352300D01*
X142554781Y-100272403D01*
X142640308Y-100223024D01*
X142713700Y-100211400D01*
X143188700Y-100211400D01*
X143285300Y-100231933D01*
X143285300Y-100231933D01*
G37*
D14*
X142951200Y-100736400D03*
D13*
G36*
X141050100Y-101451133D02*
G01*
X141129997Y-101509181D01*
X141179376Y-101594708D01*
X141191000Y-101668100D01*
X141191000Y-102243100D01*
X141170467Y-102339700D01*
X141112419Y-102419597D01*
X141026892Y-102468976D01*
X140953500Y-102480600D01*
X140478500Y-102480600D01*
X140381900Y-102460067D01*
X140302003Y-102402019D01*
X140252624Y-102316492D01*
X140241000Y-102243100D01*
X140241000Y-101668100D01*
X140261533Y-101571500D01*
X140319581Y-101491603D01*
X140405108Y-101442224D01*
X140478500Y-101430600D01*
X140953500Y-101430600D01*
X141050100Y-101451133D01*
X141050100Y-101451133D01*
G37*
D14*
X140716000Y-101955600D03*
D13*
G36*
X141050100Y-103201133D02*
G01*
X141129997Y-103259181D01*
X141179376Y-103344708D01*
X141191000Y-103418100D01*
X141191000Y-103993100D01*
X141170467Y-104089700D01*
X141112419Y-104169597D01*
X141026892Y-104218976D01*
X140953500Y-104230600D01*
X140478500Y-104230600D01*
X140381900Y-104210067D01*
X140302003Y-104152019D01*
X140252624Y-104066492D01*
X140241000Y-103993100D01*
X140241000Y-103418100D01*
X140261533Y-103321500D01*
X140319581Y-103241603D01*
X140405108Y-103192224D01*
X140478500Y-103180600D01*
X140953500Y-103180600D01*
X141050100Y-103201133D01*
X141050100Y-103201133D01*
G37*
D14*
X140716000Y-103705600D03*
M02*
