%FSLAX45Y45*%
G04 Gerber Fmt 4.5, Leading zero omitted, Abs format (unit mm)*
G04 Created by KiCad (PCBNEW 6.0.0-unknown-cbea514~86~ubuntu18.04.1) date 2019-06-13 15:54:09*
%MOMM*%
%LPD*%
G04 APERTURE LIST*
%ADD10C,0.150000*%
%ADD11C,0.200000*%
%ADD12C,0.300000*%
G04 APERTURE END LIST*
D10*
X5127244Y-11481054D02*
X5127244Y-1524000D01*
X15087600Y-11481054D02*
X5127244Y-11481054D01*
X15087600Y-1524000D02*
X15087600Y-11480800D01*
X5127244Y-1524000D02*
X15087600Y-1524000D01*
D11*
X5529058Y-6593826D02*
X5559058Y-6623826D01*
X5559058Y-6593826D02*
X5529058Y-6623826D01*
X5969748Y-7805406D02*
X5999748Y-7835406D01*
X5999748Y-7805406D02*
X5969748Y-7835406D01*
X5984480Y-6504926D02*
X6014480Y-6534926D01*
X6014480Y-6504926D02*
X5984480Y-6534926D01*
X5992608Y-6733780D02*
X6022608Y-6763780D01*
X6022608Y-6733780D02*
X5992608Y-6763780D01*
X6132562Y-7556740D02*
X6162562Y-7586740D01*
X6162562Y-7556740D02*
X6132562Y-7586740D01*
X6195300Y-8764764D02*
X6225300Y-8794764D01*
X6225300Y-8764764D02*
X6195300Y-8794764D01*
X6214096Y-6504164D02*
X6244096Y-6534164D01*
X6244096Y-6504164D02*
X6214096Y-6534164D01*
X6214604Y-6733780D02*
X6244604Y-6763780D01*
X6244604Y-6733780D02*
X6214604Y-6763780D01*
X6339318Y-7507210D02*
X6369318Y-7537210D01*
X6369318Y-7507210D02*
X6339318Y-7537210D01*
X6513816Y-7502384D02*
X6543816Y-7532384D01*
X6543816Y-7502384D02*
X6513816Y-7532384D01*
X6781786Y-8327122D02*
X6811786Y-8357122D01*
X6811786Y-8327122D02*
X6781786Y-8357122D01*
X6786975Y-8224252D02*
X6816975Y-8254252D01*
X6816975Y-8224252D02*
X6786975Y-8254252D01*
X7066520Y-6446760D02*
X7096520Y-6476760D01*
X7096520Y-6446760D02*
X7066520Y-6476760D01*
X7101064Y-6659358D02*
X7131064Y-6689358D01*
X7131064Y-6659358D02*
X7101064Y-6689358D01*
X7268450Y-6679424D02*
X7298450Y-6709424D01*
X7298450Y-6679424D02*
X7268450Y-6709424D01*
X7276832Y-6229844D02*
X7306832Y-6259844D01*
X7306832Y-6229844D02*
X7276832Y-6259844D01*
X7381946Y-8362936D02*
X7411946Y-8392936D01*
X7411946Y-8362936D02*
X7381946Y-8392936D01*
X7381946Y-8447010D02*
X7411946Y-8477010D01*
X7411946Y-8447010D02*
X7381946Y-8477010D01*
X7434946Y-9306674D02*
X7464946Y-9336674D01*
X7464946Y-9306674D02*
X7434946Y-9336674D01*
X7472920Y-6157200D02*
X7502920Y-6187200D01*
X7502920Y-6157200D02*
X7472920Y-6187200D01*
X7525691Y-7131737D02*
X7555691Y-7161737D01*
X7555691Y-7131737D02*
X7525691Y-7161737D01*
X7525752Y-2561068D02*
X7555752Y-2591068D01*
X7555752Y-2561068D02*
X7525752Y-2591068D01*
X7538177Y-6131870D02*
X7568177Y-6161870D01*
X7568177Y-6131870D02*
X7538177Y-6161870D01*
X7547979Y-7368909D02*
X7577979Y-7398909D01*
X7577979Y-7368909D02*
X7547979Y-7398909D01*
X7548600Y-9266934D02*
X7578600Y-9296934D01*
X7578600Y-9266934D02*
X7548600Y-9296934D01*
X7623155Y-5720695D02*
X7653155Y-5750695D01*
X7653155Y-5720695D02*
X7623155Y-5750695D01*
X7677164Y-7147800D02*
X7707164Y-7177800D01*
X7707164Y-7147800D02*
X7677164Y-7177800D01*
X7723618Y-7236700D02*
X7753618Y-7266700D01*
X7753618Y-7236700D02*
X7723618Y-7266700D01*
X7804019Y-7164631D02*
X7834019Y-7194631D01*
X7834019Y-7164631D02*
X7804019Y-7194631D01*
X7830806Y-7349222D02*
X7860806Y-7379222D01*
X7860806Y-7349222D02*
X7830806Y-7379222D01*
X7873304Y-7154647D02*
X7903304Y-7184647D01*
X7903304Y-7154647D02*
X7873304Y-7184647D01*
X7885924Y-6118846D02*
X7915924Y-6148846D01*
X7915924Y-6118846D02*
X7885924Y-6148846D01*
X7953383Y-7156944D02*
X7983383Y-7186944D01*
X7983383Y-7156944D02*
X7953383Y-7186944D01*
X8012959Y-6077228D02*
X8042959Y-6107228D01*
X8042959Y-6077228D02*
X8012959Y-6107228D01*
X8042743Y-6002979D02*
X8072743Y-6032979D01*
X8072743Y-6002979D02*
X8042743Y-6032979D01*
X8227300Y-9555720D02*
X8257300Y-9585720D01*
X8257300Y-9555720D02*
X8227300Y-9585720D01*
X8239753Y-6718998D02*
X8269753Y-6748998D01*
X8269753Y-6718998D02*
X8239753Y-6748998D01*
X8248382Y-6488596D02*
X8278382Y-6518596D01*
X8278382Y-6488596D02*
X8248382Y-6518596D01*
X8286199Y-6933011D02*
X8316199Y-6963011D01*
X8316199Y-6933011D02*
X8286199Y-6963011D01*
X8305786Y-6855446D02*
X8335786Y-6885446D01*
X8335786Y-6855446D02*
X8305786Y-6885446D01*
X8392400Y-9662400D02*
X8422400Y-9692400D01*
X8422400Y-9662400D02*
X8392400Y-9692400D01*
X8524480Y-9037560D02*
X8554480Y-9067560D01*
X8554480Y-9037560D02*
X8524480Y-9067560D01*
X8566644Y-8253716D02*
X8596644Y-8283716D01*
X8596644Y-8253716D02*
X8566644Y-8283716D01*
X8877286Y-8394432D02*
X8907286Y-8424432D01*
X8907286Y-8394432D02*
X8877286Y-8424432D01*
X8924276Y-9129508D02*
X8954276Y-9159508D01*
X8954276Y-9129508D02*
X8924276Y-9159508D01*
X8983712Y-8064994D02*
X9013712Y-8094994D01*
X9013712Y-8064994D02*
X8983712Y-8094994D01*
X8984728Y-8132304D02*
X9014728Y-8162304D01*
X9014728Y-8132304D02*
X8984728Y-8162304D01*
X8985744Y-8190724D02*
X9015744Y-8220724D01*
X9015744Y-8190724D02*
X8985744Y-8220724D01*
X9027400Y-8538450D02*
X9057400Y-8568450D01*
X9057400Y-8538450D02*
X9027400Y-8568450D01*
X9050514Y-8131034D02*
X9080514Y-8161034D01*
X9080514Y-8131034D02*
X9050514Y-8161034D01*
X9052800Y-8067534D02*
X9082800Y-8097534D01*
X9082800Y-8067534D02*
X9052800Y-8097534D01*
X9054070Y-8193264D02*
X9084070Y-8223264D01*
X9084070Y-8193264D02*
X9054070Y-8223264D01*
X9098520Y-7808200D02*
X9128520Y-7838200D01*
X9128520Y-7808200D02*
X9098520Y-7838200D01*
X9102330Y-9133064D02*
X9132330Y-9163064D01*
X9132330Y-9133064D02*
X9102330Y-9163064D01*
X9115030Y-8065248D02*
X9145030Y-8095248D01*
X9145030Y-8065248D02*
X9115030Y-8095248D01*
X9115030Y-8133574D02*
X9145030Y-8163574D01*
X9145030Y-8133574D02*
X9115030Y-8163574D01*
X9117570Y-8191994D02*
X9147570Y-8221994D01*
X9147570Y-8191994D02*
X9117570Y-8221994D01*
X9225520Y-8834360D02*
X9255520Y-8864360D01*
X9255520Y-8834360D02*
X9225520Y-8864360D01*
X9289020Y-7869160D02*
X9319020Y-7899160D01*
X9319020Y-7869160D02*
X9289020Y-7899160D01*
X9349980Y-6066522D02*
X9379980Y-6096522D01*
X9379980Y-6066522D02*
X9349980Y-6096522D01*
X9350488Y-5900574D02*
X9380488Y-5930574D01*
X9380488Y-5900574D02*
X9350488Y-5930574D01*
X9365728Y-7731492D02*
X9395728Y-7761492D01*
X9395728Y-7731492D02*
X9365728Y-7761492D01*
X9489172Y-5393676D02*
X9519172Y-5423676D01*
X9519172Y-5393676D02*
X9489172Y-5423676D01*
X9500602Y-8204948D02*
X9530602Y-8234948D01*
X9530602Y-8204948D02*
X9500602Y-8234948D01*
X9610838Y-5511024D02*
X9640838Y-5541024D01*
X9640838Y-5511024D02*
X9610838Y-5541024D01*
X9758666Y-5263628D02*
X9788666Y-5293628D01*
X9788666Y-5263628D02*
X9758666Y-5293628D01*
X9759682Y-5087606D02*
X9789682Y-5117606D01*
X9789682Y-5087606D02*
X9759682Y-5117606D01*
X9801760Y-8244318D02*
X9831760Y-8274318D01*
X9831760Y-8244318D02*
X9801760Y-8274318D01*
X9825092Y-7089367D02*
X9855092Y-7119367D01*
X9855092Y-7089367D02*
X9825092Y-7119367D01*
X9832826Y-6004292D02*
X9862826Y-6034292D01*
X9862826Y-6004292D02*
X9832826Y-6034292D01*
X9834866Y-6913612D02*
X9864866Y-6943612D01*
X9864866Y-6913612D02*
X9834866Y-6943612D01*
X9835120Y-6524484D02*
X9865120Y-6554484D01*
X9865120Y-6524484D02*
X9835120Y-6554484D01*
X9895826Y-5905574D02*
X9925826Y-5935574D01*
X9925826Y-5905574D02*
X9895826Y-5935574D01*
X9900907Y-7090228D02*
X9930907Y-7120228D01*
X9930907Y-7090228D02*
X9900907Y-7120228D01*
X9979404Y-7093772D02*
X10009404Y-7123772D01*
X10009404Y-7093772D02*
X9979404Y-7123772D01*
X9998442Y-7361922D02*
X10028442Y-7391922D01*
X10028442Y-7361922D02*
X9998442Y-7391922D01*
X10009627Y-5913859D02*
X10039627Y-5943859D01*
X10039627Y-5913859D02*
X10009627Y-5943859D01*
X10029684Y-7892274D02*
X10059684Y-7922274D01*
X10059684Y-7892274D02*
X10029684Y-7922274D01*
X10047210Y-8233142D02*
X10077210Y-8263142D01*
X10077210Y-8233142D02*
X10047210Y-8263142D01*
X10064228Y-10136110D02*
X10094228Y-10166110D01*
X10094228Y-10136110D02*
X10064228Y-10166110D01*
X10089616Y-5986778D02*
X10119616Y-6016778D01*
X10119616Y-5986778D02*
X10089616Y-6016778D01*
X10093949Y-7094520D02*
X10123949Y-7124520D01*
X10123949Y-7094520D02*
X10093949Y-7124520D01*
X10151465Y-6048627D02*
X10181465Y-6078627D01*
X10181465Y-6048627D02*
X10151465Y-6078627D01*
X10205198Y-7635734D02*
X10235198Y-7665734D01*
X10235198Y-7635734D02*
X10205198Y-7665734D01*
X10229949Y-7090650D02*
X10259949Y-7120650D01*
X10259949Y-7090650D02*
X10229949Y-7120650D01*
X10289901Y-7586845D02*
X10319901Y-7616845D01*
X10319901Y-7586845D02*
X10289901Y-7616845D01*
X10299950Y-7090650D02*
X10329950Y-7120650D01*
X10329950Y-7090650D02*
X10299950Y-7120650D01*
X10319880Y-6117068D02*
X10349880Y-6147068D01*
X10349880Y-6117068D02*
X10319880Y-6147068D01*
X10379950Y-7090650D02*
X10409950Y-7120650D01*
X10409950Y-7090650D02*
X10379950Y-7120650D01*
X10426940Y-9083534D02*
X10456940Y-9113534D01*
X10456940Y-9083534D02*
X10426940Y-9113534D01*
X10461249Y-7090650D02*
X10491249Y-7120650D01*
X10491249Y-7090650D02*
X10461249Y-7120650D01*
X10517110Y-6036550D02*
X10547110Y-6066550D01*
X10547110Y-6036550D02*
X10517110Y-6066550D01*
X10560036Y-8874746D02*
X10590036Y-8904746D01*
X10590036Y-8874746D02*
X10560036Y-8904746D01*
X10572736Y-10001744D02*
X10602736Y-10031744D01*
X10602736Y-10001744D02*
X10572736Y-10031744D01*
X10574514Y-10114774D02*
X10604514Y-10144774D01*
X10604514Y-10114774D02*
X10574514Y-10144774D01*
X10671741Y-7090650D02*
X10701741Y-7120650D01*
X10701741Y-7090650D02*
X10671741Y-7120650D01*
X10688046Y-7984990D02*
X10718046Y-8014990D01*
X10718046Y-7984990D02*
X10688046Y-8014990D01*
X10695105Y-6932000D02*
X10725105Y-6962000D01*
X10725105Y-6932000D02*
X10695105Y-6962000D01*
X10706848Y-6060172D02*
X10736848Y-6090172D01*
X10736848Y-6060172D02*
X10706848Y-6090172D01*
X10740884Y-7079728D02*
X10770884Y-7109728D01*
X10770884Y-7079728D02*
X10740884Y-7109728D01*
X10767808Y-8239492D02*
X10797808Y-8269492D01*
X10797808Y-8239492D02*
X10767808Y-8269492D01*
X10769840Y-6197840D02*
X10799840Y-6227840D01*
X10799840Y-6197840D02*
X10769840Y-6227840D01*
X10775936Y-8871003D02*
X10805936Y-8901003D01*
X10805936Y-8871003D02*
X10775936Y-8901003D01*
X10794784Y-8495472D02*
X10824784Y-8525472D01*
X10824784Y-8495472D02*
X10794784Y-8525472D01*
X10804130Y-6896340D02*
X10834130Y-6926340D01*
X10834130Y-6896340D02*
X10804130Y-6926340D01*
X10809366Y-8114876D02*
X10839366Y-8144876D01*
X10839366Y-8114876D02*
X10809366Y-8144876D01*
X10811750Y-7189710D02*
X10841750Y-7219710D01*
X10841750Y-7189710D02*
X10811750Y-7219710D01*
X10835000Y-6383440D02*
X10865000Y-6413440D01*
X10865000Y-6383440D02*
X10835000Y-6413440D01*
X10837404Y-8962884D02*
X10867404Y-8992884D01*
X10867404Y-8962884D02*
X10837404Y-8992884D01*
X10856200Y-9083534D02*
X10886200Y-9113534D01*
X10886200Y-9083534D02*
X10856200Y-9113534D01*
X10862550Y-7030198D02*
X10892550Y-7060198D01*
X10892550Y-7030198D02*
X10862550Y-7060198D01*
X10891760Y-6131800D02*
X10921760Y-6161800D01*
X10921760Y-6131800D02*
X10891760Y-6161800D01*
X10916381Y-6462083D02*
X10946381Y-6492083D01*
X10946381Y-6462083D02*
X10916381Y-6492083D01*
X10929426Y-6868320D02*
X10959426Y-6898320D01*
X10959426Y-6868320D02*
X10929426Y-6898320D01*
X10931154Y-6269594D02*
X10961154Y-6299594D01*
X10961154Y-6269594D02*
X10931154Y-6299594D01*
X10938713Y-6708866D02*
X10968713Y-6738866D01*
X10968713Y-6708866D02*
X10938713Y-6738866D01*
X10938759Y-6788866D02*
X10968759Y-6818866D01*
X10968759Y-6788866D02*
X10938759Y-6818866D01*
X10938877Y-6628866D02*
X10968877Y-6658866D01*
X10968877Y-6628866D02*
X10938877Y-6658866D01*
X10969998Y-7222092D02*
X10999998Y-7252092D01*
X10999998Y-7222092D02*
X10969998Y-7252092D01*
X10983200Y-6378688D02*
X11013200Y-6408688D01*
X11013200Y-6378688D02*
X10983200Y-6408688D01*
X10986321Y-6512886D02*
X11016321Y-6542886D01*
X11016321Y-6512886D02*
X10986321Y-6542886D01*
X11027904Y-6575866D02*
X11057904Y-6605866D01*
X11057904Y-6575866D02*
X11027904Y-6605866D01*
X11060670Y-7212062D02*
X11090670Y-7242062D01*
X11090670Y-7212062D02*
X11060670Y-7242062D01*
X11176748Y-7585442D02*
X11206748Y-7615442D01*
X11206748Y-7585442D02*
X11176748Y-7615442D01*
X11224870Y-7701382D02*
X11254870Y-7731382D01*
X11254870Y-7701382D02*
X11224870Y-7731382D01*
X11251285Y-7367903D02*
X11281285Y-7397903D01*
X11281285Y-7367903D02*
X11251285Y-7397903D01*
X11267680Y-6245399D02*
X11297680Y-6275399D01*
X11297680Y-6245399D02*
X11267680Y-6275399D01*
X11284935Y-6313239D02*
X11314935Y-6343239D01*
X11314935Y-6313239D02*
X11284935Y-6343239D01*
X11286000Y-8586710D02*
X11316000Y-8616710D01*
X11316000Y-8586710D02*
X11286000Y-8616710D01*
X11286000Y-8881772D02*
X11316000Y-8911772D01*
X11316000Y-8881772D02*
X11286000Y-8911772D01*
X11286000Y-8954502D02*
X11316000Y-8984502D01*
X11316000Y-8954502D02*
X11286000Y-8984502D01*
X11286000Y-9207740D02*
X11316000Y-9237740D01*
X11316000Y-9207740D02*
X11286000Y-9237740D01*
X11289246Y-7728871D02*
X11319246Y-7758871D01*
X11319246Y-7728871D02*
X11289246Y-7758871D01*
X11290000Y-9560038D02*
X11320000Y-9590038D01*
X11320000Y-9560038D02*
X11290000Y-9590038D01*
X11290540Y-9725900D02*
X11320540Y-9755900D01*
X11320540Y-9725900D02*
X11290540Y-9755900D01*
X11291555Y-9420055D02*
X11321555Y-9450055D01*
X11321555Y-9420055D02*
X11291555Y-9450055D01*
X11291556Y-8463012D02*
X11321556Y-8493012D01*
X11321556Y-8463012D02*
X11291556Y-8493012D01*
X11291570Y-9490055D02*
X11321570Y-9520055D01*
X11321570Y-9490055D02*
X11291570Y-9520055D01*
X11293140Y-9350073D02*
X11323140Y-9380073D01*
X11323140Y-9350073D02*
X11293140Y-9380073D01*
X11296914Y-9280175D02*
X11326914Y-9310175D01*
X11326914Y-9280175D02*
X11296914Y-9310175D01*
X11336514Y-9992600D02*
X11366514Y-10022600D01*
X11366514Y-9992600D02*
X11336514Y-10022600D01*
X11346166Y-5773406D02*
X11376166Y-5803406D01*
X11376166Y-5773406D02*
X11346166Y-5803406D01*
X11346359Y-8989954D02*
X11376359Y-9019954D01*
X11376359Y-8989954D02*
X11346359Y-9019954D01*
X11361568Y-5563856D02*
X11391568Y-5593856D01*
X11391568Y-5563856D02*
X11361568Y-5593856D01*
X11365978Y-9105632D02*
X11395978Y-9135632D01*
X11395978Y-9105632D02*
X11365978Y-9135632D01*
X11407634Y-8828772D02*
X11437634Y-8858772D01*
X11437634Y-8828772D02*
X11407634Y-8858772D01*
X11429986Y-10121124D02*
X11459986Y-10151124D01*
X11459986Y-10121124D02*
X11429986Y-10151124D01*
X11476214Y-1843518D02*
X11506214Y-1873518D01*
X11506214Y-1843518D02*
X11476214Y-1873518D01*
X11481905Y-9202567D02*
X11511905Y-9232567D01*
X11511905Y-9202567D02*
X11481905Y-9232567D01*
X11483580Y-9637000D02*
X11513580Y-9667000D01*
X11513580Y-9637000D02*
X11483580Y-9667000D01*
X11496769Y-9134163D02*
X11526769Y-9164163D01*
X11526769Y-9134163D02*
X11496769Y-9164163D01*
X11497636Y-9032226D02*
X11527636Y-9062226D01*
X11527636Y-9032226D02*
X11497636Y-9062226D01*
X11512536Y-8826486D02*
X11542536Y-8856486D01*
X11542536Y-8826486D02*
X11512536Y-8856486D01*
X11529046Y-8190216D02*
X11559046Y-8220216D01*
X11559046Y-8190216D02*
X11529046Y-8220216D01*
X11540730Y-8547870D02*
X11570730Y-8577870D01*
X11570730Y-8547870D02*
X11540730Y-8577870D01*
X11541238Y-4340592D02*
X11571238Y-4370592D01*
X11571238Y-4340592D02*
X11541238Y-4370592D01*
X11562066Y-7241272D02*
X11592066Y-7271272D01*
X11592066Y-7241272D02*
X11562066Y-7271272D01*
X11562320Y-9624300D02*
X11592320Y-9654300D01*
X11592320Y-9624300D02*
X11562320Y-9654300D01*
X11566828Y-7147292D02*
X11596828Y-7177292D01*
X11596828Y-7147292D02*
X11566828Y-7177292D01*
X11575437Y-8280505D02*
X11605437Y-8310505D01*
X11605437Y-8280505D02*
X11575437Y-8310505D01*
X11585688Y-7348714D02*
X11615688Y-7378714D01*
X11615688Y-7348714D02*
X11585688Y-7378714D01*
X11589328Y-8349113D02*
X11619328Y-8379113D01*
X11619328Y-8349113D02*
X11589328Y-8379113D01*
X11652327Y-6547572D02*
X11682327Y-6577572D01*
X11682327Y-6547572D02*
X11652327Y-6577572D01*
X11666308Y-8345824D02*
X11696308Y-8375824D01*
X11696308Y-8345824D02*
X11666308Y-8375824D01*
X11667222Y-8635224D02*
X11697222Y-8665224D01*
X11697222Y-8635224D02*
X11667222Y-8665224D01*
X11676112Y-6209270D02*
X11706112Y-6239270D01*
X11706112Y-6209270D02*
X11676112Y-6239270D01*
X11676366Y-4202416D02*
X11706366Y-4232416D01*
X11706366Y-4202416D02*
X11676366Y-4232416D01*
X11677328Y-7136424D02*
X11707328Y-7166424D01*
X11707328Y-7136424D02*
X11677328Y-7166424D01*
X11685377Y-6052431D02*
X11715377Y-6082431D01*
X11715377Y-6052431D02*
X11685377Y-6082431D01*
X11692368Y-10213326D02*
X11722368Y-10243326D01*
X11722368Y-10213326D02*
X11692368Y-10243326D01*
X11700750Y-5966700D02*
X11730750Y-5996700D01*
X11730750Y-5966700D02*
X11700750Y-5996700D01*
X11702020Y-6441680D02*
X11732020Y-6471680D01*
X11732020Y-6441680D02*
X11702020Y-6471680D01*
X11718925Y-6569129D02*
X11748925Y-6599129D01*
X11748925Y-6569129D02*
X11718925Y-6599129D01*
X11734821Y-8360177D02*
X11764821Y-8390177D01*
X11764821Y-8360177D02*
X11734821Y-8390177D01*
X11785191Y-6950836D02*
X11815191Y-6980836D01*
X11815191Y-6950836D02*
X11785191Y-6980836D01*
X11789080Y-8290343D02*
X11819080Y-8320343D01*
X11819080Y-8290343D02*
X11789080Y-8320343D01*
X11806160Y-9159480D02*
X11836160Y-9189480D01*
X11836160Y-9159480D02*
X11806160Y-9189480D01*
X11806922Y-5737338D02*
X11836922Y-5767338D01*
X11836922Y-5737338D02*
X11806922Y-5767338D01*
X11812755Y-4970181D02*
X11842755Y-5000181D01*
X11842755Y-4970181D02*
X11812755Y-5000181D01*
X11816034Y-7062996D02*
X11846034Y-7092996D01*
X11846034Y-7062996D02*
X11816034Y-7092996D01*
X11820899Y-9565369D02*
X11850899Y-9595369D01*
X11850899Y-9565369D02*
X11820899Y-9595369D01*
X11841974Y-7522704D02*
X11871974Y-7552704D01*
X11871974Y-7522704D02*
X11841974Y-7552704D01*
X11842639Y-7678757D02*
X11872639Y-7708757D01*
X11872639Y-7678757D02*
X11842639Y-7708757D01*
X11848070Y-6083540D02*
X11878070Y-6113540D01*
X11878070Y-6083540D02*
X11848070Y-6113540D01*
X11860000Y-7342110D02*
X11890000Y-7372110D01*
X11890000Y-7342110D02*
X11860000Y-7372110D01*
X11860000Y-7449298D02*
X11890000Y-7479298D01*
X11890000Y-7449298D02*
X11860000Y-7479298D01*
X11860751Y-8092765D02*
X11890751Y-8122765D01*
X11890751Y-8092765D02*
X11860751Y-8122765D01*
X11865850Y-5928600D02*
X11895850Y-5958600D01*
X11895850Y-5928600D02*
X11865850Y-5958600D01*
X11872454Y-4020044D02*
X11902454Y-4050044D01*
X11902454Y-4020044D02*
X11872454Y-4050044D01*
X11884478Y-7122146D02*
X11914478Y-7152146D01*
X11914478Y-7122146D02*
X11884478Y-7152146D01*
X11897715Y-6600799D02*
X11927715Y-6630799D01*
X11927715Y-6600799D02*
X11897715Y-6630799D01*
X11918843Y-8689419D02*
X11948843Y-8719419D01*
X11948843Y-8689419D02*
X11918843Y-8719419D01*
X11930112Y-6445744D02*
X11960112Y-6475744D01*
X11960112Y-6445744D02*
X11930112Y-6475744D01*
X11935126Y-8222696D02*
X11965126Y-8252696D01*
X11965126Y-8222696D02*
X11935126Y-8252696D01*
X11950736Y-9712158D02*
X11980736Y-9742158D01*
X11980736Y-9712158D02*
X11950736Y-9742158D01*
X11970762Y-6677660D02*
X12000762Y-6707660D01*
X12000762Y-6677660D02*
X11970762Y-6707660D01*
X11983800Y-6043063D02*
X12013800Y-6073063D01*
X12013800Y-6043063D02*
X11983800Y-6073063D01*
X11989040Y-9149320D02*
X12019040Y-9179320D01*
X12019040Y-9149320D02*
X11989040Y-9179320D01*
X12004534Y-9358616D02*
X12034534Y-9388616D01*
X12034534Y-9358616D02*
X12004534Y-9388616D01*
X12018452Y-8206755D02*
X12048452Y-8236755D01*
X12048452Y-8206755D02*
X12018452Y-8236755D01*
X12022770Y-8590352D02*
X12052770Y-8620352D01*
X12052770Y-8590352D02*
X12022770Y-8620352D01*
X12024346Y-7883130D02*
X12054346Y-7913130D01*
X12054346Y-7883130D02*
X12024346Y-7913130D01*
X12024696Y-9630554D02*
X12054696Y-9660554D01*
X12054696Y-9630554D02*
X12024696Y-9660554D01*
X12025362Y-6200380D02*
X12055362Y-6230380D01*
X12055362Y-6200380D02*
X12025362Y-6230380D01*
X12032052Y-7629892D02*
X12062052Y-7659892D01*
X12062052Y-7629892D02*
X12032052Y-7659892D01*
X12050153Y-8716504D02*
X12080153Y-8746504D01*
X12080153Y-8716504D02*
X12050153Y-8746504D01*
X12104356Y-6606272D02*
X12134356Y-6636272D01*
X12134356Y-6606272D02*
X12104356Y-6636272D01*
X12115786Y-9708882D02*
X12145786Y-9738882D01*
X12145786Y-9708882D02*
X12115786Y-9738882D01*
X12119596Y-9975836D02*
X12149596Y-10005836D01*
X12149596Y-9975836D02*
X12119596Y-10005836D01*
X12140678Y-5834366D02*
X12170678Y-5864366D01*
X12170678Y-5834366D02*
X12140678Y-5864366D01*
X12141440Y-7723618D02*
X12171440Y-7753618D01*
X12171440Y-7723618D02*
X12141440Y-7753618D01*
X12141980Y-7464506D02*
X12171980Y-7494506D01*
X12171980Y-7464506D02*
X12141980Y-7494506D01*
X12150330Y-7793214D02*
X12180330Y-7823214D01*
X12180330Y-7793214D02*
X12150330Y-7823214D01*
X12154070Y-5751145D02*
X12184070Y-5781145D01*
X12184070Y-5751145D02*
X12154070Y-5781145D01*
X12165062Y-7864080D02*
X12195062Y-7894080D01*
X12195062Y-7864080D02*
X12165062Y-7894080D01*
X12168872Y-5682728D02*
X12198872Y-5712728D01*
X12198872Y-5682728D02*
X12168872Y-5712728D01*
X12172936Y-6198348D02*
X12202936Y-6228348D01*
X12202936Y-6198348D02*
X12172936Y-6228348D01*
X12172936Y-6554456D02*
X12202936Y-6584456D01*
X12202936Y-6554456D02*
X12172936Y-6584456D01*
X12176377Y-8800971D02*
X12206377Y-8830971D01*
X12206377Y-8800971D02*
X12176377Y-8830971D01*
X12182842Y-6033248D02*
X12212842Y-6063248D01*
X12212842Y-6033248D02*
X12182842Y-6063248D01*
X12185751Y-5362295D02*
X12215751Y-5392295D01*
X12215751Y-5362295D02*
X12185751Y-5392295D01*
X12188938Y-5556998D02*
X12218938Y-5586998D01*
X12218938Y-5556998D02*
X12188938Y-5586998D01*
X12193482Y-9937228D02*
X12223482Y-9967228D01*
X12223482Y-9937228D02*
X12193482Y-9967228D01*
X12204178Y-9457676D02*
X12234178Y-9487676D01*
X12234178Y-9457676D02*
X12204178Y-9487676D01*
X12204178Y-9457676D02*
X12234178Y-9487676D01*
X12234178Y-9457676D02*
X12204178Y-9487676D01*
X12204432Y-9154654D02*
X12234432Y-9184654D01*
X12234432Y-9154654D02*
X12204432Y-9184654D01*
X12208242Y-9807180D02*
X12238242Y-9837180D01*
X12238242Y-9807180D02*
X12208242Y-9837180D01*
X12218148Y-10146270D02*
X12248148Y-10176270D01*
X12248148Y-10146270D02*
X12218148Y-10176270D01*
X12228054Y-7989556D02*
X12258054Y-8019556D01*
X12258054Y-7989556D02*
X12228054Y-8019556D01*
X12265138Y-9595344D02*
X12295138Y-9625344D01*
X12295138Y-9595344D02*
X12265138Y-9625344D01*
X12265618Y-9120650D02*
X12295618Y-9150650D01*
X12295618Y-9120650D02*
X12265618Y-9150650D01*
X12285805Y-9049550D02*
X12315805Y-9079550D01*
X12315805Y-9049550D02*
X12285805Y-9079550D01*
X12290076Y-8537242D02*
X12320076Y-8567242D01*
X12320076Y-8537242D02*
X12290076Y-8567242D01*
X12298265Y-8427051D02*
X12328265Y-8457051D01*
X12328265Y-8427051D02*
X12298265Y-8457051D01*
X12317612Y-7640138D02*
X12347612Y-7670138D01*
X12347612Y-7640138D02*
X12317612Y-7670138D01*
X12329158Y-9761218D02*
X12359158Y-9791218D01*
X12359158Y-9761218D02*
X12329158Y-9791218D01*
X12354546Y-6965936D02*
X12384546Y-6995936D01*
X12384546Y-6965936D02*
X12354546Y-6995936D01*
X12359307Y-8547594D02*
X12389307Y-8577594D01*
X12389307Y-8547594D02*
X12359307Y-8577594D01*
X12365468Y-5304100D02*
X12395468Y-5334100D01*
X12395468Y-5304100D02*
X12365468Y-5334100D01*
X12372240Y-7811080D02*
X12402240Y-7841080D01*
X12402240Y-7811080D02*
X12372240Y-7841080D01*
X12375667Y-7152699D02*
X12405667Y-7182699D01*
X12405667Y-7152699D02*
X12375667Y-7182699D01*
X12378702Y-7042699D02*
X12408702Y-7072699D01*
X12408702Y-7042699D02*
X12378702Y-7072699D01*
X12384956Y-7262699D02*
X12414956Y-7292699D01*
X12414956Y-7262699D02*
X12384956Y-7292699D01*
X12407632Y-8654274D02*
X12437632Y-8684274D01*
X12437632Y-8654274D02*
X12407632Y-8684274D01*
X12429476Y-7955081D02*
X12459476Y-7985081D01*
X12459476Y-7955081D02*
X12429476Y-7985081D01*
X12432035Y-7207699D02*
X12462035Y-7237699D01*
X12462035Y-7207699D02*
X12432035Y-7237699D01*
X12434300Y-7097699D02*
X12464300Y-7127699D01*
X12464300Y-7097699D02*
X12434300Y-7127699D01*
X12439327Y-6633704D02*
X12469327Y-6663704D01*
X12469327Y-6633704D02*
X12439327Y-6663704D01*
X12443446Y-5304100D02*
X12473446Y-5334100D01*
X12473446Y-5304100D02*
X12443446Y-5334100D01*
X12448018Y-6507466D02*
X12478018Y-6537466D01*
X12478018Y-6507466D02*
X12448018Y-6537466D01*
X12453606Y-6098018D02*
X12483606Y-6128018D01*
X12483606Y-6098018D02*
X12453606Y-6128018D01*
X12454900Y-8711678D02*
X12484900Y-8741678D01*
X12484900Y-8711678D02*
X12454900Y-8741678D01*
X12463258Y-9591280D02*
X12493258Y-9621280D01*
X12493258Y-9591280D02*
X12463258Y-9621280D01*
X12464330Y-10342104D02*
X12494330Y-10372104D01*
X12494330Y-10342104D02*
X12464330Y-10372104D01*
X12518122Y-5301728D02*
X12548122Y-5331728D01*
X12548122Y-5301728D02*
X12518122Y-5331728D01*
X12521424Y-6212318D02*
X12551424Y-6242318D01*
X12551424Y-6212318D02*
X12521424Y-6242318D01*
X12523991Y-7981790D02*
X12553991Y-8011790D01*
X12553991Y-7981790D02*
X12523991Y-8011790D01*
X12539204Y-4025378D02*
X12569204Y-4055378D01*
X12569204Y-4025378D02*
X12539204Y-4055378D01*
X12559327Y-6641324D02*
X12589327Y-6671324D01*
X12589327Y-6641324D02*
X12559327Y-6671324D01*
X12564350Y-5769850D02*
X12594350Y-5799850D01*
X12594350Y-5769850D02*
X12564350Y-5799850D01*
X12602704Y-8057359D02*
X12632704Y-8087359D01*
X12632704Y-8057359D02*
X12602704Y-8087359D01*
X12605256Y-8199360D02*
X12635256Y-8229360D01*
X12635256Y-8199360D02*
X12605256Y-8229360D01*
X12612864Y-9057372D02*
X12642864Y-9087372D01*
X12642864Y-9057372D02*
X12612864Y-9087372D01*
X12619250Y-3885484D02*
X12649250Y-3915484D01*
X12649250Y-3885484D02*
X12619250Y-3915484D01*
X12638518Y-5267946D02*
X12668518Y-5297946D01*
X12668518Y-5267946D02*
X12638518Y-5297946D01*
X12644350Y-5769850D02*
X12674350Y-5799850D01*
X12674350Y-5769850D02*
X12644350Y-5799850D01*
X12652056Y-8497767D02*
X12682056Y-8527767D01*
X12682056Y-8497767D02*
X12652056Y-8527767D01*
X12662394Y-7922500D02*
X12692394Y-7952500D01*
X12692394Y-7922500D02*
X12662394Y-7952500D01*
X12675135Y-3781288D02*
X12705135Y-3811288D01*
X12705135Y-3781288D02*
X12675135Y-3811288D01*
X12697565Y-9177665D02*
X12727565Y-9207665D01*
X12727565Y-9177665D02*
X12697565Y-9207665D01*
X12714210Y-5291568D02*
X12744210Y-5321568D01*
X12744210Y-5291568D02*
X12714210Y-5321568D01*
X12723902Y-5778311D02*
X12753902Y-5808311D01*
X12753902Y-5778311D02*
X12723902Y-5808311D01*
X12731736Y-8504922D02*
X12761736Y-8534922D01*
X12761736Y-8504922D02*
X12731736Y-8534922D01*
X12733600Y-4465560D02*
X12763600Y-4495560D01*
X12763600Y-4465560D02*
X12733600Y-4495560D01*
X12750162Y-8676172D02*
X12780162Y-8706172D01*
X12780162Y-8676172D02*
X12750162Y-8706172D01*
X12752818Y-8756128D02*
X12782818Y-8786128D01*
X12782818Y-8756128D02*
X12752818Y-8786128D01*
X12753619Y-7674381D02*
X12783619Y-7704381D01*
X12783619Y-7674381D02*
X12753619Y-7704381D01*
X12772445Y-8609247D02*
X12802445Y-8639247D01*
X12802445Y-8609247D02*
X12772445Y-8639247D01*
X12796327Y-6583920D02*
X12826327Y-6613920D01*
X12826327Y-6583920D02*
X12796327Y-6613920D01*
X12796704Y-9064738D02*
X12826704Y-9094738D01*
X12826704Y-9064738D02*
X12796704Y-9094738D01*
X12803752Y-5783213D02*
X12833752Y-5813213D01*
X12833752Y-5783213D02*
X12803752Y-5813213D01*
X12812000Y-7772640D02*
X12842000Y-7802640D01*
X12842000Y-7772640D02*
X12812000Y-7802640D01*
X12812000Y-8204918D02*
X12842000Y-8234918D01*
X12842000Y-8204918D02*
X12812000Y-8234918D01*
X12830796Y-4042768D02*
X12860796Y-4072768D01*
X12860796Y-4042768D02*
X12830796Y-4072768D01*
X12841464Y-10423384D02*
X12871464Y-10453384D01*
X12871464Y-10423384D02*
X12841464Y-10453384D01*
X12883502Y-5789534D02*
X12913502Y-5819534D01*
X12913502Y-5789534D02*
X12883502Y-5819534D01*
X12888200Y-7711680D02*
X12918200Y-7741680D01*
X12918200Y-7711680D02*
X12888200Y-7741680D01*
X12888200Y-8199360D02*
X12918200Y-8229360D01*
X12918200Y-8199360D02*
X12888200Y-8229360D01*
X12916704Y-9132556D02*
X12946704Y-9162556D01*
X12946704Y-9132556D02*
X12916704Y-9162556D01*
X12916704Y-9056443D02*
X12946704Y-9086443D01*
X12946704Y-9056443D02*
X12916704Y-9086443D01*
X12926554Y-4025378D02*
X12956554Y-4055378D01*
X12956554Y-4025378D02*
X12926554Y-4055378D01*
X12947890Y-6542518D02*
X12977890Y-6572518D01*
X12977890Y-6542518D02*
X12947890Y-6572518D01*
X12948398Y-7883140D02*
X12978398Y-7913140D01*
X12978398Y-7883140D02*
X12948398Y-7913140D01*
X12963495Y-5788502D02*
X12993495Y-5818502D01*
X12993495Y-5788502D02*
X12963495Y-5818502D01*
X13004900Y-6921232D02*
X13034900Y-6951232D01*
X13034900Y-6921232D02*
X13004900Y-6951232D01*
X13007198Y-6993888D02*
X13037198Y-7023888D01*
X13037198Y-6993888D02*
X13007198Y-7023888D01*
X13032466Y-9227832D02*
X13062466Y-9257832D01*
X13062466Y-9227832D02*
X13032466Y-9257832D01*
X13044594Y-5788071D02*
X13074594Y-5818071D01*
X13074594Y-5788071D02*
X13044594Y-5818071D01*
X13045365Y-7863826D02*
X13075365Y-7893826D01*
X13075365Y-7863826D02*
X13045365Y-7893826D01*
X13064483Y-9097765D02*
X13094483Y-9127765D01*
X13094483Y-9097765D02*
X13064483Y-9127765D01*
X13124581Y-5789487D02*
X13154581Y-5819487D01*
X13154581Y-5789487D02*
X13124581Y-5819487D01*
X13135088Y-9936720D02*
X13165088Y-9966720D01*
X13165088Y-9936720D02*
X13135088Y-9966720D01*
X13151365Y-7022746D02*
X13181365Y-7052746D01*
X13181365Y-7022746D02*
X13151365Y-7052746D01*
X13151365Y-7757332D02*
X13181365Y-7787332D01*
X13181365Y-7757332D02*
X13151365Y-7787332D01*
X13173442Y-9658082D02*
X13203442Y-9688082D01*
X13203442Y-9658082D02*
X13173442Y-9688082D01*
X13203414Y-6916746D02*
X13233414Y-6946746D01*
X13233414Y-6916746D02*
X13203414Y-6946746D01*
X13204574Y-5788395D02*
X13234574Y-5818395D01*
X13234574Y-5788395D02*
X13204574Y-5818395D01*
X13229830Y-8768828D02*
X13259830Y-8798828D01*
X13259830Y-8768828D02*
X13229830Y-8798828D01*
X13234148Y-7753844D02*
X13264148Y-7783844D01*
X13264148Y-7753844D02*
X13234148Y-7783844D01*
X13244327Y-8613839D02*
X13274327Y-8643839D01*
X13274327Y-8613839D02*
X13244327Y-8643839D01*
X13247102Y-10348200D02*
X13277102Y-10378200D01*
X13277102Y-10348200D02*
X13247102Y-10378200D01*
X13259845Y-9124979D02*
X13289845Y-9154979D01*
X13289845Y-9124979D02*
X13259845Y-9154979D01*
X13274541Y-5790558D02*
X13304541Y-5820558D01*
X13304541Y-5790558D02*
X13274541Y-5820558D01*
X13286170Y-8282810D02*
X13316170Y-8312810D01*
X13316170Y-8282810D02*
X13286170Y-8312810D01*
X13296472Y-8190773D02*
X13326472Y-8220773D01*
X13326472Y-8190773D02*
X13296472Y-8220773D01*
X13303989Y-7625836D02*
X13333989Y-7655836D01*
X13333989Y-7625836D02*
X13303989Y-7655836D01*
X13304760Y-7968220D02*
X13334760Y-7998220D01*
X13334760Y-7968220D02*
X13304760Y-7998220D01*
X13340579Y-7088752D02*
X13370579Y-7118752D01*
X13370579Y-7088752D02*
X13340579Y-7118752D01*
X13343148Y-5804451D02*
X13373148Y-5834451D01*
X13373148Y-5804451D02*
X13343148Y-5834451D01*
X13343798Y-8349430D02*
X13373798Y-8379430D01*
X13373798Y-8349430D02*
X13343798Y-8379430D01*
X13352327Y-6477240D02*
X13382327Y-6507240D01*
X13382327Y-6477240D02*
X13352327Y-6507240D01*
X13372578Y-6093446D02*
X13402578Y-6123446D01*
X13402578Y-6093446D02*
X13372578Y-6123446D01*
X13373848Y-9810736D02*
X13403848Y-9840736D01*
X13403848Y-9810736D02*
X13373848Y-9840736D01*
X13405090Y-8404084D02*
X13435090Y-8434084D01*
X13435090Y-8404084D02*
X13405090Y-8434084D01*
X13415250Y-8779496D02*
X13445250Y-8809496D01*
X13445250Y-8779496D02*
X13415250Y-8809496D01*
X13419355Y-8858555D02*
X13449355Y-8888555D01*
X13449355Y-8858555D02*
X13419355Y-8888555D01*
X13421600Y-8621000D02*
X13451600Y-8651000D01*
X13451600Y-8621000D02*
X13421600Y-8651000D01*
X13427982Y-8945305D02*
X13457982Y-8975305D01*
X13457982Y-8945305D02*
X13427982Y-8975305D01*
X13456398Y-6754862D02*
X13486398Y-6784862D01*
X13486398Y-6754862D02*
X13456398Y-6784862D01*
X13461720Y-6573240D02*
X13491720Y-6603240D01*
X13491720Y-6573240D02*
X13461720Y-6603240D01*
X13512786Y-4149076D02*
X13542786Y-4179076D01*
X13542786Y-4149076D02*
X13512786Y-4179076D01*
X13512786Y-4339322D02*
X13542786Y-4369322D01*
X13542786Y-4339322D02*
X13512786Y-4369322D01*
X13518049Y-6225987D02*
X13548049Y-6255987D01*
X13548049Y-6225987D02*
X13518049Y-6255987D01*
X13523962Y-6445236D02*
X13553962Y-6475236D01*
X13553962Y-6445236D02*
X13523962Y-6475236D01*
X13570444Y-8837748D02*
X13600444Y-8867748D01*
X13600444Y-8837748D02*
X13570444Y-8867748D01*
X13572730Y-9536924D02*
X13602730Y-9566924D01*
X13602730Y-9536924D02*
X13572730Y-9566924D01*
X13574762Y-9369284D02*
X13604762Y-9399284D01*
X13604762Y-9369284D02*
X13574762Y-9399284D01*
X13575778Y-9244570D02*
X13605778Y-9274570D01*
X13605778Y-9244570D02*
X13575778Y-9274570D01*
X13579774Y-6354490D02*
X13609774Y-6384490D01*
X13609774Y-6354490D02*
X13579774Y-6384490D01*
X13581759Y-6603109D02*
X13611759Y-6633109D01*
X13611759Y-6603109D02*
X13581759Y-6633109D01*
X13617434Y-10093692D02*
X13647434Y-10123692D01*
X13647434Y-10093692D02*
X13617434Y-10123692D01*
X13621498Y-9950436D02*
X13651498Y-9980436D01*
X13651498Y-9950436D02*
X13621498Y-9980436D01*
X13643310Y-6658248D02*
X13673310Y-6688248D01*
X13673310Y-6658248D02*
X13643310Y-6688248D01*
X13656348Y-6822680D02*
X13686348Y-6852680D01*
X13686348Y-6822680D02*
X13656348Y-6852680D01*
X13656804Y-4152124D02*
X13686804Y-4182124D01*
X13686804Y-4152124D02*
X13656804Y-4182124D01*
X13689789Y-6495078D02*
X13719789Y-6525078D01*
X13719789Y-6495078D02*
X13689789Y-6525078D01*
X13714189Y-6425024D02*
X13744189Y-6455024D01*
X13744189Y-6425024D02*
X13714189Y-6455024D01*
X13725384Y-5927838D02*
X13755384Y-5957838D01*
X13755384Y-5927838D02*
X13725384Y-5957838D01*
X13730464Y-7577872D02*
X13760464Y-7607872D01*
X13760464Y-7577872D02*
X13730464Y-7607872D01*
X13742898Y-6248882D02*
X13772898Y-6278882D01*
X13772898Y-6248882D02*
X13742898Y-6278882D01*
X13762199Y-5159742D02*
X13792199Y-5189742D01*
X13792199Y-5159742D02*
X13762199Y-5189742D01*
X13763706Y-8633791D02*
X13793706Y-8663791D01*
X13793706Y-8633791D02*
X13763706Y-8663791D01*
X13767548Y-7299692D02*
X13797548Y-7329692D01*
X13797548Y-7299692D02*
X13767548Y-7329692D01*
X13787868Y-9627856D02*
X13817868Y-9657856D01*
X13817868Y-9627856D02*
X13787868Y-9657856D01*
X13788892Y-8814540D02*
X13818892Y-8844540D01*
X13818892Y-8814540D02*
X13788892Y-8844540D01*
X13826571Y-8429389D02*
X13856571Y-8459389D01*
X13856571Y-8429389D02*
X13826571Y-8459389D01*
X13834350Y-7046200D02*
X13864350Y-7076200D01*
X13864350Y-7046200D02*
X13834350Y-7076200D01*
X13847050Y-7135100D02*
X13877050Y-7165100D01*
X13877050Y-7135100D02*
X13847050Y-7165100D01*
X13860848Y-7294503D02*
X13890848Y-7324503D01*
X13890848Y-7294503D02*
X13860848Y-7324503D01*
X13862685Y-7374690D02*
X13892685Y-7404690D01*
X13892685Y-7374690D02*
X13862685Y-7404690D01*
X13872634Y-7454069D02*
X13902634Y-7484069D01*
X13902634Y-7454069D02*
X13872634Y-7484069D01*
X13878800Y-7535150D02*
X13908800Y-7565150D01*
X13908800Y-7535150D02*
X13878800Y-7565150D01*
X13886674Y-9036798D02*
X13916674Y-9066798D01*
X13916674Y-9036798D02*
X13886674Y-9066798D01*
X13897088Y-10152112D02*
X13927088Y-10182112D01*
X13927088Y-10152112D02*
X13897088Y-10182112D01*
X13904200Y-4744960D02*
X13934200Y-4774960D01*
X13934200Y-4744960D02*
X13904200Y-4774960D01*
X13999958Y-8599410D02*
X14029958Y-8629410D01*
X14029958Y-8599410D02*
X13999958Y-8629410D01*
X14090128Y-5238228D02*
X14120128Y-5268228D01*
X14120128Y-5238228D02*
X14090128Y-5268228D01*
X14139150Y-8398496D02*
X14169150Y-8428496D01*
X14169150Y-8398496D02*
X14139150Y-8428496D01*
X14157680Y-6494246D02*
X14187680Y-6524246D01*
X14187680Y-6494246D02*
X14157680Y-6524246D01*
X14173694Y-9329152D02*
X14203694Y-9359152D01*
X14203694Y-9329152D02*
X14173694Y-9359152D01*
X14181822Y-10180052D02*
X14211822Y-10210052D01*
X14211822Y-10180052D02*
X14181822Y-10210052D01*
X14185124Y-7978634D02*
X14215124Y-8008634D01*
X14215124Y-7978634D02*
X14185124Y-8008634D01*
X14195030Y-7831568D02*
X14225030Y-7861568D01*
X14225030Y-7831568D02*
X14195030Y-7861568D01*
X14244306Y-7286738D02*
X14274306Y-7316738D01*
X14274306Y-7286738D02*
X14244306Y-7316738D01*
X14247862Y-6875512D02*
X14277862Y-6905512D01*
X14277862Y-6875512D02*
X14247862Y-6905512D01*
X14271132Y-6399946D02*
X14301132Y-6429946D01*
X14301132Y-6399946D02*
X14271132Y-6429946D01*
X14281390Y-6561314D02*
X14311390Y-6591314D01*
X14311390Y-6561314D02*
X14281390Y-6591314D01*
X14315680Y-8875000D02*
X14345680Y-8905000D01*
X14345680Y-8875000D02*
X14315680Y-8905000D01*
X14353526Y-6505730D02*
X14383526Y-6535730D01*
X14383526Y-6505730D02*
X14353526Y-6535730D01*
X14381687Y-7232349D02*
X14411687Y-7262349D01*
X14411687Y-7232349D02*
X14381687Y-7262349D01*
X14386800Y-9334666D02*
X14416800Y-9364666D01*
X14416800Y-9334666D02*
X14386800Y-9364666D01*
X5953440Y-5054600D02*
G75*
G03X5953440Y-5054600I-20000J0D01*
G01*
X6243000Y-4780280D02*
G75*
G03X6243000Y-4780280I-20000J0D01*
G01*
X6674292Y-10089388D02*
G75*
G03X6674292Y-10089388I-20000J0D01*
G01*
X6684706Y-6445250D02*
G75*
G03X6684706Y-6445250I-20000J0D01*
G01*
X6781480Y-4577080D02*
G75*
G03X6781480Y-4577080I-20000J0D01*
G01*
X6913560Y-4770120D02*
G75*
G03X6913560Y-4770120I-20000J0D01*
G01*
X7113712Y-9013444D02*
G75*
G03X7113712Y-9013444I-20000J0D01*
G01*
X7377872Y-8682228D02*
G75*
G03X7377872Y-8682228I-20000J0D01*
G01*
X7638984Y-10426954D02*
G75*
G03X7638984Y-10426954I-20000J0D01*
G01*
X7980614Y-9219184D02*
G75*
G03X7980614Y-9219184I-20000J0D01*
G01*
X8522904Y-5866638D02*
G75*
G03X8522904Y-5866638I-20000J0D01*
G01*
X8586404Y-8631682D02*
G75*
G03X8586404Y-8631682I-20000J0D01*
G01*
X8966388Y-5451094D02*
G75*
G03X8966388Y-5451094I-20000J0D01*
G01*
X9023792Y-7847076D02*
G75*
G03X9023792Y-7847076I-20000J0D01*
G01*
X9178986Y-7098030D02*
G75*
G03X9178986Y-7098030I-20000J0D01*
G01*
X9198798Y-8397748D02*
G75*
G03X9198798Y-8397748I-20000J0D01*
G01*
X9323512Y-7374382D02*
G75*
G03X9323512Y-7374382I-20000J0D01*
G01*
X9343578Y-8086646D02*
G75*
G03X9343578Y-8086646I-20000J0D01*
G01*
X9429430Y-8464550D02*
G75*
G03X9429430Y-8464550I-20000J0D01*
G01*
X9473118Y-6282690D02*
G75*
G03X9473118Y-6282690I-20000J0D01*
G01*
X9481500Y-6025134D02*
G75*
G03X9481500Y-6025134I-20000J0D01*
G01*
X9505884Y-9652762D02*
G75*
G03X9505884Y-9652762I-20000J0D01*
G01*
X9507408Y-8939276D02*
G75*
G03X9507408Y-8939276I-20000J0D01*
G01*
X9528744Y-7161784D02*
G75*
G03X9528744Y-7161784I-20000J0D01*
G01*
X9571100Y-8719504D02*
G75*
G03X9571100Y-8719504I-20000J0D01*
G01*
X9602150Y-5040630D02*
G75*
G03X9602150Y-5040630I-20000J0D01*
G01*
X9627804Y-7078980D02*
G75*
G03X9627804Y-7078980I-20000J0D01*
G01*
X9663110Y-5272024D02*
G75*
G03X9663110Y-5272024I-20000J0D01*
G01*
X9723760Y-8184896D02*
G75*
G03X9723760Y-8184896I-20000J0D01*
G01*
X9764202Y-9103534D02*
G75*
G03X9764202Y-9103534I-20000J0D01*
G01*
X9781474Y-9662414D02*
G75*
G03X9781474Y-9662414I-20000J0D01*
G01*
X9784239Y-6932215D02*
G75*
G03X9784239Y-6932215I-20000J0D01*
G01*
X9838878Y-8930132D02*
G75*
G03X9838878Y-8930132I-20000J0D01*
G01*
X9847514Y-7623302D02*
G75*
G03X9847514Y-7623302I-20000J0D01*
G01*
X9849038Y-7178548D02*
G75*
G03X9849038Y-7178548I-20000J0D01*
G01*
X9852340Y-5397246D02*
G75*
G03X9852340Y-5397246I-20000J0D01*
G01*
X9889424Y-8196072D02*
G75*
G03X9889424Y-8196072I-20000J0D01*
G01*
X9929556Y-9800900D02*
G75*
G03X9929556Y-9800900I-20000J0D01*
G01*
X9934382Y-8714232D02*
G75*
G03X9934382Y-8714232I-20000J0D01*
G01*
X9946828Y-8909360D02*
G75*
G03X9946828Y-8909360I-20000J0D01*
G01*
X10017948Y-8625840D02*
G75*
G03X10017948Y-8625840I-20000J0D01*
G01*
X10048428Y-8983534D02*
G75*
G03X10048428Y-8983534I-20000J0D01*
G01*
X10049190Y-8460486D02*
G75*
G03X10049190Y-8460486I-20000J0D01*
G01*
X10095672Y-8714232D02*
G75*
G03X10095672Y-8714232I-20000J0D01*
G01*
X10114976Y-8136382D02*
G75*
G03X10114976Y-8136382I-20000J0D01*
G01*
X10117516Y-7551928D02*
G75*
G03X10117516Y-7551928I-20000J0D01*
G01*
X10128438Y-8625078D02*
G75*
G03X10128438Y-8625078I-20000J0D01*
G01*
X10224704Y-9186164D02*
G75*
G03X10224704Y-9186164I-20000J0D01*
G01*
X10369738Y-8793480D02*
G75*
G03X10369738Y-8793480I-20000J0D01*
G01*
X10427142Y-9679432D02*
G75*
G03X10427142Y-9679432I-20000J0D01*
G01*
X10446700Y-8379968D02*
G75*
G03X10446700Y-8379968I-20000J0D01*
G01*
X10515026Y-9299702D02*
G75*
G03X10515026Y-9299702I-20000J0D01*
G01*
X10723814Y-8983534D02*
G75*
G03X10723814Y-8983534I-20000J0D01*
G01*
X10757088Y-9648698D02*
G75*
G03X10757088Y-9648698I-20000J0D01*
G01*
X10822874Y-9895840D02*
G75*
G03X10822874Y-9895840I-20000J0D01*
G01*
X11244260Y-5654294D02*
G75*
G03X11244260Y-5654294I-20000J0D01*
G01*
X11324016Y-5129276D02*
G75*
G03X11324016Y-5129276I-20000J0D01*
G01*
X11328336Y-9815848D02*
G75*
G03X11328336Y-9815848I-20000J0D01*
G01*
X11358814Y-9896856D02*
G75*
G03X11358814Y-9896856I-20000J0D01*
G01*
X11661582Y-9104872D02*
G75*
G03X11661582Y-9104872I-20000J0D01*
G01*
X11729790Y-9893436D02*
G75*
G03X11729790Y-9893436I-20000J0D01*
G01*
X11759372Y-5142992D02*
G75*
G03X11759372Y-5142992I-20000J0D01*
G01*
X11902238Y-10054454D02*
G75*
G03X11902238Y-10054454I-20000J0D01*
G01*
X12231812Y-3148838D02*
G75*
G03X12231812Y-3148838I-20000J0D01*
G01*
X12315378Y-7378446D02*
G75*
G03X12315378Y-7378446I-20000J0D01*
G01*
X12333412Y-3144520D02*
G75*
G03X12333412Y-3144520I-20000J0D01*
G01*
X12368210Y-3904996D02*
G75*
G03X12368210Y-3904996I-20000J0D01*
G01*
X12371766Y-3495294D02*
G75*
G03X12371766Y-3495294I-20000J0D01*
G01*
X12457110Y-4111244D02*
G75*
G03X12457110Y-4111244I-20000J0D01*
G01*
X12467999Y-9244043D02*
G75*
G03X12467999Y-9244043I-20000J0D01*
G01*
X12525690Y-5610352D02*
G75*
G03X12525690Y-5610352I-20000J0D01*
G01*
X12532548Y-3493008D02*
G75*
G03X12532548Y-3493008I-20000J0D01*
G01*
X12561504Y-6551676D02*
G75*
G03X12561504Y-6551676I-20000J0D01*
G01*
X12602144Y-7490460D02*
G75*
G03X12602144Y-7490460I-20000J0D01*
G01*
X12606970Y-7627874D02*
G75*
G03X12606970Y-7627874I-20000J0D01*
G01*
X12797470Y-7041642D02*
G75*
G03X12797470Y-7041642I-20000J0D01*
G01*
X12956465Y-9222732D02*
G75*
G03X12956465Y-9222732I-20000J0D01*
G01*
X13038516Y-7633716D02*
G75*
G03X13038516Y-7633716I-20000J0D01*
G01*
X13043088Y-7177786D02*
G75*
G03X13043088Y-7177786I-20000J0D01*
G01*
X13378114Y-7290562D02*
G75*
G03X13378114Y-7290562I-20000J0D01*
G01*
X13385734Y-7742936D02*
G75*
G03X13385734Y-7742936I-20000J0D01*
G01*
X13573948Y-10181082D02*
G75*
G03X13573948Y-10181082I-20000J0D01*
G01*
X13616366Y-6892544D02*
G75*
G03X13616366Y-6892544I-20000J0D01*
G01*
X13618652Y-3707892D02*
G75*
G03X13618652Y-3707892I-20000J0D01*
G01*
X13728715Y-8315117D02*
G75*
G03X13728715Y-8315117I-20000J0D01*
G01*
X13798230Y-9053830D02*
G75*
G03X13798230Y-9053830I-20000J0D01*
G01*
X13804072Y-9376800D02*
G75*
G03X13804072Y-9376800I-20000J0D01*
G01*
X14011336Y-7763871D02*
G75*
G03X14011336Y-7763871I-20000J0D01*
G01*
X14037752Y-9414510D02*
G75*
G03X14037752Y-9414510I-20000J0D01*
G01*
X14081186Y-7806182D02*
G75*
G03X14081186Y-7806182I-20000J0D01*
G01*
X14138082Y-3689350D02*
G75*
G03X14138082Y-3689350I-20000J0D01*
G01*
X14150694Y-9259062D02*
G75*
G03X14150694Y-9259062I-20000J0D01*
G01*
X14340774Y-6719824D02*
G75*
G03X14340774Y-6719824I-20000J0D01*
G01*
X14485300Y-7147600D02*
G75*
G03X14485300Y-7147600I-20000J0D01*
G01*
X14507398Y-7349998D02*
G75*
G03X14507398Y-7349998I-20000J0D01*
G01*
X14712376Y-7072884D02*
G75*
G03X14712376Y-7072884I-20000J0D01*
G01*
X14867062Y-7064502D02*
G75*
G03X14867062Y-7064502I-20000J0D01*
G01*
X5376672Y-2717438D02*
X5376672Y-2767438D01*
X5351672Y-2742438D02*
X5401672Y-2742438D01*
X5382006Y-4136536D02*
X5382006Y-4186536D01*
X5357006Y-4161536D02*
X5407006Y-4161536D01*
X5628386Y-7240670D02*
X5628386Y-7290670D01*
X5603386Y-7265670D02*
X5653386Y-7265670D01*
X5641340Y-10106552D02*
X5641340Y-10156552D01*
X5616340Y-10131552D02*
X5666340Y-10131552D01*
X5642356Y-10314832D02*
X5642356Y-10364832D01*
X5617356Y-10339832D02*
X5667356Y-10339832D01*
X5643118Y-9891160D02*
X5643118Y-9941160D01*
X5618118Y-9916160D02*
X5668118Y-9916160D01*
X5648706Y-10574674D02*
X5648706Y-10624674D01*
X5623706Y-10599674D02*
X5673706Y-10599674D01*
X5689600Y-8306200D02*
X5689600Y-8356200D01*
X5664600Y-8331200D02*
X5714600Y-8331200D01*
X5694680Y-4633360D02*
X5694680Y-4683360D01*
X5669680Y-4658360D02*
X5719680Y-4658360D01*
X5789676Y-3805320D02*
X5789676Y-3855320D01*
X5764676Y-3830320D02*
X5814676Y-3830320D01*
X5850382Y-10678560D02*
X5850382Y-10728560D01*
X5825382Y-10703560D02*
X5875382Y-10703560D01*
X5963920Y-2713374D02*
X5963920Y-2763374D01*
X5938920Y-2738374D02*
X5988920Y-2738374D01*
X6178804Y-10687958D02*
X6178804Y-10737958D01*
X6153804Y-10712958D02*
X6203804Y-10712958D01*
X6200000Y-7775000D02*
X6200000Y-7825000D01*
X6175000Y-7800000D02*
X6225000Y-7800000D01*
X6200000Y-8075000D02*
X6200000Y-8125000D01*
X6175000Y-8100000D02*
X6225000Y-8100000D01*
X6212332Y-8961012D02*
X6212332Y-9011012D01*
X6187332Y-8986012D02*
X6237332Y-8986012D01*
X6216142Y-9124334D02*
X6216142Y-9174334D01*
X6191142Y-9149334D02*
X6241142Y-9149334D01*
X6218174Y-9289688D02*
X6218174Y-9339688D01*
X6193174Y-9314688D02*
X6243174Y-9314688D01*
X6328918Y-1853838D02*
X6328918Y-1903838D01*
X6303918Y-1878838D02*
X6353918Y-1878838D01*
X6497828Y-10701928D02*
X6497828Y-10751928D01*
X6472828Y-10726928D02*
X6522828Y-10726928D01*
X6500000Y-7775000D02*
X6500000Y-7825000D01*
X6475000Y-7800000D02*
X6525000Y-7800000D01*
X6500000Y-8075000D02*
X6500000Y-8125000D01*
X6475000Y-8100000D02*
X6525000Y-8100000D01*
X6547612Y-6804298D02*
X6547612Y-6854298D01*
X6522612Y-6829298D02*
X6572612Y-6829298D01*
X6565900Y-3832244D02*
X6565900Y-3882244D01*
X6540900Y-3857244D02*
X6590900Y-3857244D01*
X6700000Y-9375000D02*
X6700000Y-9425000D01*
X6675000Y-9400000D02*
X6725000Y-9400000D01*
X6700000Y-9575000D02*
X6700000Y-9625000D01*
X6675000Y-9600000D02*
X6725000Y-9600000D01*
X6865620Y-3903364D02*
X6865620Y-3953364D01*
X6840620Y-3928364D02*
X6890620Y-3928364D01*
X6877812Y-10697356D02*
X6877812Y-10747356D01*
X6852812Y-10722356D02*
X6902812Y-10722356D01*
X6900000Y-9375000D02*
X6900000Y-9425000D01*
X6875000Y-9400000D02*
X6925000Y-9400000D01*
X6900000Y-9575000D02*
X6900000Y-9625000D01*
X6875000Y-9600000D02*
X6925000Y-9600000D01*
X6900000Y-9775000D02*
X6900000Y-9825000D01*
X6875000Y-9800000D02*
X6925000Y-9800000D01*
X6935216Y-6379610D02*
X6935216Y-6429610D01*
X6910216Y-6404610D02*
X6960216Y-6404610D01*
X7100000Y-9375000D02*
X7100000Y-9425000D01*
X7075000Y-9400000D02*
X7125000Y-9400000D01*
X7100000Y-9575000D02*
X7100000Y-9625000D01*
X7075000Y-9600000D02*
X7125000Y-9600000D01*
X7100000Y-9775000D02*
X7100000Y-9825000D01*
X7075000Y-9800000D02*
X7125000Y-9800000D01*
X7196328Y-7337952D02*
X7196328Y-7387952D01*
X7171328Y-7362952D02*
X7221328Y-7362952D01*
X7220204Y-10683132D02*
X7220204Y-10733132D01*
X7195204Y-10708132D02*
X7245204Y-10708132D01*
X7300000Y-9375000D02*
X7300000Y-9425000D01*
X7275000Y-9400000D02*
X7325000Y-9400000D01*
X7300000Y-9575000D02*
X7300000Y-9625000D01*
X7275000Y-9600000D02*
X7325000Y-9600000D01*
X7300000Y-9775000D02*
X7300000Y-9825000D01*
X7275000Y-9800000D02*
X7325000Y-9800000D01*
X7354316Y-3286144D02*
X7354316Y-3336144D01*
X7329316Y-3311144D02*
X7379316Y-3311144D01*
X7403846Y-10536066D02*
X7403846Y-10586066D01*
X7378846Y-10561066D02*
X7428846Y-10561066D01*
X7425602Y-5951532D02*
X7425602Y-6001532D01*
X7400602Y-5976532D02*
X7450602Y-5976532D01*
X7524496Y-10153288D02*
X7524496Y-10203288D01*
X7499496Y-10178288D02*
X7549496Y-10178288D01*
X7606538Y-6424314D02*
X7606538Y-6474314D01*
X7581538Y-6449314D02*
X7631538Y-6449314D01*
X7608570Y-6538868D02*
X7608570Y-6588868D01*
X7583570Y-6563868D02*
X7633570Y-6563868D01*
X7611618Y-6651644D02*
X7611618Y-6701644D01*
X7586618Y-6676644D02*
X7636618Y-6676644D01*
X7613650Y-6759848D02*
X7613650Y-6809848D01*
X7588650Y-6784848D02*
X7638650Y-6784848D01*
X7613650Y-6862464D02*
X7613650Y-6912464D01*
X7588650Y-6887464D02*
X7638650Y-6887464D01*
X7701788Y-3588150D02*
X7701788Y-3638150D01*
X7676788Y-3613150D02*
X7726788Y-3613150D01*
X7713218Y-6427362D02*
X7713218Y-6477362D01*
X7688218Y-6452362D02*
X7738218Y-6452362D01*
X7715250Y-6537852D02*
X7715250Y-6587852D01*
X7690250Y-6562852D02*
X7740250Y-6562852D01*
X7719314Y-6653676D02*
X7719314Y-6703676D01*
X7694314Y-6678676D02*
X7744314Y-6678676D01*
X7722108Y-6761626D02*
X7722108Y-6811626D01*
X7697108Y-6786626D02*
X7747108Y-6786626D01*
X7723886Y-6859924D02*
X7723886Y-6909924D01*
X7698886Y-6884924D02*
X7748886Y-6884924D01*
X7791450Y-7515752D02*
X7791450Y-7565752D01*
X7766450Y-7540752D02*
X7816450Y-7540752D01*
X7815580Y-2672480D02*
X7815580Y-2722480D01*
X7790580Y-2697480D02*
X7840580Y-2697480D01*
X7816850Y-6426092D02*
X7816850Y-6476092D01*
X7791850Y-6451092D02*
X7841850Y-6451092D01*
X7819898Y-6539884D02*
X7819898Y-6589884D01*
X7794898Y-6564884D02*
X7844898Y-6564884D01*
X7821930Y-6762388D02*
X7821930Y-6812388D01*
X7796930Y-6787388D02*
X7846930Y-6787388D01*
X7822946Y-6654692D02*
X7822946Y-6704692D01*
X7797946Y-6679692D02*
X7847946Y-6679692D01*
X7826248Y-6860686D02*
X7826248Y-6910686D01*
X7801248Y-6885686D02*
X7851248Y-6885686D01*
X7832090Y-1880254D02*
X7832090Y-1930254D01*
X7807090Y-1905254D02*
X7857090Y-1905254D01*
X7876794Y-8181232D02*
X7876794Y-8231232D01*
X7851794Y-8206232D02*
X7901794Y-8206232D01*
X7900000Y-10675000D02*
X7900000Y-10725000D01*
X7875000Y-10700000D02*
X7925000Y-10700000D01*
X7900000Y-10975000D02*
X7900000Y-11025000D01*
X7875000Y-11000000D02*
X7925000Y-11000000D01*
X7909560Y-8542420D02*
X7909560Y-8592420D01*
X7884560Y-8567420D02*
X7934560Y-8567420D01*
X7930642Y-6426346D02*
X7930642Y-6476346D01*
X7905642Y-6451346D02*
X7955642Y-6451346D01*
X7936230Y-6763404D02*
X7936230Y-6813404D01*
X7911230Y-6788404D02*
X7961230Y-6788404D01*
X7936738Y-6536836D02*
X7936738Y-6586836D01*
X7911738Y-6561836D02*
X7961738Y-6561836D01*
X7936992Y-6859162D02*
X7936992Y-6909162D01*
X7911992Y-6884162D02*
X7961992Y-6884162D01*
X7939786Y-6656724D02*
X7939786Y-6706724D01*
X7914786Y-6681724D02*
X7964786Y-6681724D01*
X7947152Y-8838076D02*
X7947152Y-8888076D01*
X7922152Y-8863076D02*
X7972152Y-8863076D01*
X7996428Y-7720476D02*
X7996428Y-7770476D01*
X7971428Y-7745476D02*
X8021428Y-7745476D01*
X8033258Y-6421266D02*
X8033258Y-6471266D01*
X8008258Y-6446266D02*
X8058258Y-6446266D01*
X8038338Y-6534804D02*
X8038338Y-6584804D01*
X8013338Y-6559804D02*
X8063338Y-6559804D01*
X8040370Y-6654692D02*
X8040370Y-6704692D01*
X8015370Y-6679692D02*
X8065370Y-6679692D01*
X8041132Y-6762642D02*
X8041132Y-6812642D01*
X8016132Y-6787642D02*
X8066132Y-6787642D01*
X8042910Y-6859162D02*
X8042910Y-6909162D01*
X8017910Y-6884162D02*
X8067910Y-6884162D01*
X8080248Y-10174370D02*
X8080248Y-10224370D01*
X8055248Y-10199370D02*
X8105248Y-10199370D01*
X8100000Y-10875000D02*
X8100000Y-10925000D01*
X8075000Y-10900000D02*
X8125000Y-10900000D01*
X8106410Y-10740536D02*
X8106410Y-10790536D01*
X8081410Y-10765536D02*
X8131410Y-10765536D01*
X8113522Y-1746396D02*
X8113522Y-1796396D01*
X8088522Y-1771396D02*
X8138522Y-1771396D01*
X8210042Y-7615320D02*
X8210042Y-7665320D01*
X8185042Y-7640320D02*
X8235042Y-7640320D01*
X8214106Y-4388250D02*
X8214106Y-4438250D01*
X8189106Y-4413250D02*
X8239106Y-4413250D01*
X8308797Y-6564357D02*
X8308797Y-6614357D01*
X8283797Y-6589357D02*
X8333797Y-6589357D01*
X8342630Y-10226948D02*
X8342630Y-10276948D01*
X8317630Y-10251948D02*
X8367630Y-10251948D01*
X8392668Y-11220342D02*
X8392668Y-11270342D01*
X8367668Y-11245342D02*
X8417668Y-11245342D01*
X8479282Y-10494410D02*
X8479282Y-10544410D01*
X8454282Y-10519410D02*
X8504282Y-10519410D01*
X8497570Y-1928768D02*
X8497570Y-1978768D01*
X8472570Y-1953768D02*
X8522570Y-1953768D01*
X8500000Y-4975000D02*
X8500000Y-5025000D01*
X8475000Y-5000000D02*
X8525000Y-5000000D01*
X8500000Y-5375000D02*
X8500000Y-5425000D01*
X8475000Y-5400000D02*
X8525000Y-5400000D01*
X8536178Y-10394588D02*
X8536178Y-10444588D01*
X8511178Y-10419588D02*
X8561178Y-10419588D01*
X8600000Y-10875000D02*
X8600000Y-10925000D01*
X8575000Y-10900000D02*
X8625000Y-10900000D01*
X8632952Y-7791088D02*
X8632952Y-7841088D01*
X8607952Y-7816088D02*
X8657952Y-7816088D01*
X8700000Y-10675000D02*
X8700000Y-10725000D01*
X8675000Y-10700000D02*
X8725000Y-10700000D01*
X8700000Y-11075000D02*
X8700000Y-11125000D01*
X8675000Y-11100000D02*
X8725000Y-11100000D01*
X8702294Y-1931308D02*
X8702294Y-1981308D01*
X8677294Y-1956308D02*
X8727294Y-1956308D01*
X8854694Y-7503560D02*
X8854694Y-7553560D01*
X8829694Y-7528560D02*
X8879694Y-7528560D01*
X8967470Y-1931308D02*
X8967470Y-1981308D01*
X8942470Y-1956308D02*
X8992470Y-1956308D01*
X9000000Y-10675000D02*
X9000000Y-10725000D01*
X8975000Y-10700000D02*
X9025000Y-10700000D01*
X9000000Y-10875000D02*
X9000000Y-10925000D01*
X8975000Y-10900000D02*
X9025000Y-10900000D01*
X9000000Y-11075000D02*
X9000000Y-11125000D01*
X8975000Y-11100000D02*
X9025000Y-11100000D01*
X9189720Y-6420504D02*
X9189720Y-6470504D01*
X9164720Y-6445504D02*
X9214720Y-6445504D01*
X9194546Y-6829952D02*
X9194546Y-6879952D01*
X9169546Y-6854952D02*
X9219546Y-6854952D01*
X9200000Y-10675000D02*
X9200000Y-10725000D01*
X9175000Y-10700000D02*
X9225000Y-10700000D01*
X9200000Y-10875000D02*
X9200000Y-10925000D01*
X9175000Y-10900000D02*
X9225000Y-10900000D01*
X9200000Y-11075000D02*
X9200000Y-11125000D01*
X9175000Y-11100000D02*
X9225000Y-11100000D01*
X9240012Y-1924196D02*
X9240012Y-1974196D01*
X9215012Y-1949196D02*
X9265012Y-1949196D01*
X9400000Y-10675000D02*
X9400000Y-10725000D01*
X9375000Y-10700000D02*
X9425000Y-10700000D01*
X9400000Y-10875000D02*
X9400000Y-10925000D01*
X9375000Y-10900000D02*
X9425000Y-10900000D01*
X9400000Y-11075000D02*
X9400000Y-11125000D01*
X9375000Y-11100000D02*
X9425000Y-11100000D01*
X9497822Y-1938420D02*
X9497822Y-1988420D01*
X9472822Y-1963420D02*
X9522822Y-1963420D01*
X9566402Y-9095378D02*
X9566402Y-9145378D01*
X9541402Y-9120378D02*
X9591402Y-9120378D01*
X9576308Y-7462666D02*
X9576308Y-7512666D01*
X9551308Y-7487666D02*
X9601308Y-7487666D01*
X9587992Y-6282836D02*
X9587992Y-6332836D01*
X9562992Y-6307836D02*
X9612992Y-6307836D01*
X9614154Y-6956444D02*
X9614154Y-7006444D01*
X9589154Y-6981444D02*
X9639154Y-6981444D01*
X9636252Y-8911228D02*
X9636252Y-8961228D01*
X9611252Y-8936228D02*
X9661252Y-8936228D01*
X9645650Y-10523874D02*
X9645650Y-10573874D01*
X9620650Y-10548874D02*
X9670650Y-10548874D01*
X9656064Y-8691518D02*
X9656064Y-8741518D01*
X9631064Y-8716518D02*
X9681064Y-8716518D01*
X9674860Y-8463934D02*
X9674860Y-8513934D01*
X9649860Y-8488934D02*
X9699860Y-8488934D01*
X9694164Y-7163200D02*
X9694164Y-7213200D01*
X9669164Y-7188200D02*
X9719164Y-7188200D01*
X9735312Y-7688980D02*
X9735312Y-7738980D01*
X9710312Y-7713980D02*
X9760312Y-7713980D01*
X9741662Y-1945786D02*
X9741662Y-1995786D01*
X9716662Y-1970786D02*
X9766662Y-1970786D01*
X9956546Y-1938420D02*
X9956546Y-1988420D01*
X9931546Y-1963420D02*
X9981546Y-1963420D01*
X10200386Y-1938420D02*
X10200386Y-1988420D01*
X10175386Y-1963420D02*
X10225386Y-1963420D01*
X10687812Y-2225186D02*
X10687812Y-2275186D01*
X10662812Y-2250186D02*
X10712812Y-2250186D01*
X10700000Y-4875000D02*
X10700000Y-4925000D01*
X10675000Y-4900000D02*
X10725000Y-4900000D01*
X10700000Y-5075000D02*
X10700000Y-5125000D01*
X10675000Y-5100000D02*
X10725000Y-5100000D01*
X10723626Y-1917084D02*
X10723626Y-1967084D01*
X10698626Y-1942084D02*
X10748626Y-1942084D01*
X10805922Y-3667144D02*
X10805922Y-3717144D01*
X10780922Y-3692144D02*
X10830922Y-3692144D01*
X10841736Y-3989724D02*
X10841736Y-4039724D01*
X10816736Y-4014724D02*
X10866736Y-4014724D01*
X10895584Y-2218074D02*
X10895584Y-2268074D01*
X10870584Y-2243074D02*
X10920584Y-2243074D01*
X10900000Y-4875000D02*
X10900000Y-4925000D01*
X10875000Y-4900000D02*
X10925000Y-4900000D01*
X10900000Y-5075000D02*
X10900000Y-5125000D01*
X10875000Y-5100000D02*
X10925000Y-5100000D01*
X10900000Y-5275000D02*
X10900000Y-5325000D01*
X10875000Y-5300000D02*
X10925000Y-5300000D01*
X11000000Y-5475000D02*
X11000000Y-5525000D01*
X10975000Y-5500000D02*
X11025000Y-5500000D01*
X11000000Y-5775000D02*
X11000000Y-5825000D01*
X10975000Y-5800000D02*
X11025000Y-5800000D01*
X11003026Y-1909972D02*
X11003026Y-1959972D01*
X10978026Y-1934972D02*
X11028026Y-1934972D01*
X11021060Y-3476136D02*
X11021060Y-3526136D01*
X10996060Y-3501136D02*
X11046060Y-3501136D01*
X11100000Y-4875000D02*
X11100000Y-4925000D01*
X11075000Y-4900000D02*
X11125000Y-4900000D01*
X11104626Y-4180732D02*
X11104626Y-4230732D01*
X11079626Y-4205732D02*
X11129626Y-4205732D01*
X11134598Y-3697116D02*
X11134598Y-3747116D01*
X11109598Y-3722116D02*
X11159598Y-3722116D01*
X11146536Y-2203850D02*
X11146536Y-2253850D01*
X11121536Y-2228850D02*
X11171536Y-2228850D01*
X11200000Y-5075000D02*
X11200000Y-5125000D01*
X11175000Y-5100000D02*
X11225000Y-5100000D01*
X11200000Y-5275000D02*
X11200000Y-5325000D01*
X11175000Y-5300000D02*
X11225000Y-5300000D01*
X11282680Y-1931308D02*
X11282680Y-1981308D01*
X11257680Y-1956308D02*
X11307680Y-1956308D01*
X11301730Y-3476136D02*
X11301730Y-3526136D01*
X11276730Y-3501136D02*
X11326730Y-3501136D01*
X11325606Y-4455560D02*
X11325606Y-4505560D01*
X11300606Y-4480560D02*
X11350606Y-4480560D01*
X11385296Y-3989724D02*
X11385296Y-4039724D01*
X11360296Y-4014724D02*
X11410296Y-4014724D01*
X11397234Y-2153558D02*
X11397234Y-2203558D01*
X11372234Y-2178558D02*
X11422234Y-2178558D01*
X11624310Y-4503312D02*
X11624310Y-4553312D01*
X11599310Y-4528312D02*
X11649310Y-4528312D01*
X11631930Y-5904376D02*
X11631930Y-5954376D01*
X11606930Y-5929376D02*
X11656930Y-5929376D01*
X11786108Y-3596278D02*
X11786108Y-3646278D01*
X11761108Y-3621278D02*
X11811108Y-3621278D01*
X11786108Y-3840118D02*
X11786108Y-3890118D01*
X11761108Y-3865118D02*
X11811108Y-3865118D01*
X11925300Y-3402222D02*
X11925300Y-3452222D01*
X11900300Y-3427222D02*
X11950300Y-3427222D01*
X12052554Y-10169798D02*
X12052554Y-10219798D01*
X12027554Y-10194798D02*
X12077554Y-10194798D01*
X12129516Y-3387236D02*
X12129516Y-3437236D01*
X12104516Y-3412236D02*
X12154516Y-3412236D01*
X12685014Y-3469532D02*
X12685014Y-3519532D01*
X12660014Y-3494532D02*
X12710014Y-3494532D01*
X12805918Y-3421272D02*
X12805918Y-3471272D01*
X12780918Y-3446272D02*
X12830918Y-3446272D01*
X12950952Y-3410858D02*
X12950952Y-3460858D01*
X12925952Y-3435858D02*
X12975952Y-3435858D01*
X13069824Y-5340750D02*
X13069824Y-5390750D01*
X13044824Y-5365750D02*
X13094824Y-5365750D01*
X13089382Y-3424574D02*
X13089382Y-3474574D01*
X13064382Y-3449574D02*
X13114382Y-3449574D01*
X13221970Y-5194446D02*
X13221970Y-5244446D01*
X13196970Y-5219446D02*
X13246970Y-5219446D01*
X13326110Y-4121804D02*
X13326110Y-4171804D01*
X13301110Y-4146804D02*
X13351110Y-4146804D01*
X13334492Y-5295538D02*
X13334492Y-5345538D01*
X13309492Y-5320538D02*
X13359492Y-5320538D01*
X13400000Y-10675000D02*
X13400000Y-10725000D01*
X13375000Y-10700000D02*
X13425000Y-10700000D01*
X13400000Y-11275000D02*
X13400000Y-11325000D01*
X13375000Y-11300000D02*
X13425000Y-11300000D01*
X13600000Y-10675000D02*
X13600000Y-10725000D01*
X13575000Y-10700000D02*
X13625000Y-10700000D01*
X13600000Y-11275000D02*
X13600000Y-11325000D01*
X13575000Y-11300000D02*
X13625000Y-11300000D01*
X13661390Y-5588400D02*
X13661390Y-5638400D01*
X13636390Y-5613400D02*
X13686390Y-5613400D01*
X13669264Y-5807094D02*
X13669264Y-5857094D01*
X13644264Y-5832094D02*
X13694264Y-5832094D01*
X13800000Y-10675000D02*
X13800000Y-10725000D01*
X13775000Y-10700000D02*
X13825000Y-10700000D01*
X13800000Y-11275000D02*
X13800000Y-11325000D01*
X13775000Y-11300000D02*
X13825000Y-11300000D01*
X14000000Y-10675000D02*
X14000000Y-10725000D01*
X13975000Y-10700000D02*
X14025000Y-10700000D01*
X14000000Y-11275000D02*
X14000000Y-11325000D01*
X13975000Y-11300000D02*
X14025000Y-11300000D01*
X14159738Y-2667908D02*
X14159738Y-2717908D01*
X14134738Y-2692908D02*
X14184738Y-2692908D01*
X14285468Y-4415682D02*
X14285468Y-4465682D01*
X14260468Y-4440682D02*
X14310468Y-4440682D01*
X14321536Y-4836052D02*
X14321536Y-4886052D01*
X14296536Y-4861052D02*
X14346536Y-4861052D01*
X14383258Y-8582298D02*
X14383258Y-8632298D01*
X14358258Y-8607298D02*
X14408258Y-8607298D01*
X14390624Y-5022742D02*
X14390624Y-5072742D01*
X14365624Y-5047742D02*
X14415624Y-5047742D01*
X14412722Y-9638938D02*
X14412722Y-9688938D01*
X14387722Y-9663938D02*
X14437722Y-9663938D01*
X14440662Y-8042548D02*
X14440662Y-8092548D01*
X14415662Y-8067548D02*
X14465662Y-8067548D01*
X14497812Y-4905394D02*
X14497812Y-4955394D01*
X14472812Y-4930394D02*
X14522812Y-4930394D01*
X14510766Y-4410856D02*
X14510766Y-4460856D01*
X14485766Y-4435856D02*
X14535766Y-4435856D01*
X14573758Y-5043570D02*
X14573758Y-5093570D01*
X14548758Y-5068570D02*
X14598758Y-5068570D01*
X14586966Y-7439044D02*
X14586966Y-7489044D01*
X14561966Y-7464044D02*
X14611966Y-7464044D01*
X14844268Y-2411114D02*
X14844268Y-2461114D01*
X14819268Y-2436114D02*
X14869268Y-2436114D01*
X14874240Y-6222130D02*
X14874240Y-6272130D01*
X14849240Y-6247130D02*
X14899240Y-6247130D01*
X14913102Y-6095892D02*
X14913102Y-6145892D01*
X14888102Y-6120892D02*
X14938102Y-6120892D01*
X14920976Y-5827922D02*
X14920976Y-5877922D01*
X14895976Y-5852922D02*
X14945976Y-5852922D01*
X8077395Y-1975929D02*
X8077395Y-1922047D01*
X8023513Y-1922047D01*
X8023513Y-1975929D01*
X8077395Y-1975929D01*
X8077395Y-2175929D02*
X8077395Y-2122047D01*
X8023513Y-2122047D01*
X8023513Y-2175929D01*
X8077395Y-2175929D01*
X8077395Y-2375929D02*
X8077395Y-2322047D01*
X8023513Y-2322047D01*
X8023513Y-2375929D01*
X8077395Y-2375929D01*
X8077395Y-2575929D02*
X8077395Y-2522047D01*
X8023513Y-2522047D01*
X8023513Y-2575929D01*
X8077395Y-2575929D01*
X8077395Y-2775929D02*
X8077395Y-2722047D01*
X8023513Y-2722047D01*
X8023513Y-2775929D01*
X8077395Y-2775929D01*
X8077395Y-2975929D02*
X8077395Y-2922047D01*
X8023513Y-2922047D01*
X8023513Y-2975929D01*
X8077395Y-2975929D01*
X8077395Y-3175929D02*
X8077395Y-3122047D01*
X8023513Y-3122047D01*
X8023513Y-3175929D01*
X8077395Y-3175929D01*
X8077395Y-3375929D02*
X8077395Y-3322047D01*
X8023513Y-3322047D01*
X8023513Y-3375929D01*
X8077395Y-3375929D01*
X8077395Y-3575929D02*
X8077395Y-3522047D01*
X8023513Y-3522047D01*
X8023513Y-3575929D01*
X8077395Y-3575929D01*
X8077395Y-3775929D02*
X8077395Y-3722047D01*
X8023513Y-3722047D01*
X8023513Y-3775929D01*
X8077395Y-3775929D01*
X8077395Y-3975929D02*
X8077395Y-3922047D01*
X8023513Y-3922047D01*
X8023513Y-3975929D01*
X8077395Y-3975929D01*
X8077395Y-4175929D02*
X8077395Y-4122047D01*
X8023513Y-4122047D01*
X8023513Y-4175929D01*
X8077395Y-4175929D01*
X8077395Y-4375929D02*
X8077395Y-4322047D01*
X8023513Y-4322047D01*
X8023513Y-4375929D01*
X8077395Y-4375929D01*
X8077395Y-4575929D02*
X8077395Y-4522047D01*
X8023513Y-4522047D01*
X8023513Y-4575929D01*
X8077395Y-4575929D01*
X8077395Y-4775929D02*
X8077395Y-4722047D01*
X8023513Y-4722047D01*
X8023513Y-4775929D01*
X8077395Y-4775929D01*
X8077395Y-4975929D02*
X8077395Y-4922047D01*
X8023513Y-4922047D01*
X8023513Y-4975929D01*
X8077395Y-4975929D01*
X10517395Y-1975929D02*
X10517395Y-1922047D01*
X10463513Y-1922047D01*
X10463513Y-1975929D01*
X10517395Y-1975929D01*
X10517395Y-2175929D02*
X10517395Y-2122047D01*
X10463513Y-2122047D01*
X10463513Y-2175929D01*
X10517395Y-2175929D01*
X10517395Y-2375929D02*
X10517395Y-2322047D01*
X10463513Y-2322047D01*
X10463513Y-2375929D01*
X10517395Y-2375929D01*
X10517395Y-2575929D02*
X10517395Y-2522047D01*
X10463513Y-2522047D01*
X10463513Y-2575929D01*
X10517395Y-2575929D01*
X10517395Y-2775929D02*
X10517395Y-2722047D01*
X10463513Y-2722047D01*
X10463513Y-2775929D01*
X10517395Y-2775929D01*
X10517395Y-2975929D02*
X10517395Y-2922047D01*
X10463513Y-2922047D01*
X10463513Y-2975929D01*
X10517395Y-2975929D01*
X10517395Y-3175929D02*
X10517395Y-3122047D01*
X10463513Y-3122047D01*
X10463513Y-3175929D01*
X10517395Y-3175929D01*
X10517395Y-3375929D02*
X10517395Y-3322047D01*
X10463513Y-3322047D01*
X10463513Y-3375929D01*
X10517395Y-3375929D01*
X10517395Y-3575929D02*
X10517395Y-3522047D01*
X10463513Y-3522047D01*
X10463513Y-3575929D01*
X10517395Y-3575929D01*
X10517395Y-3775929D02*
X10517395Y-3722047D01*
X10463513Y-3722047D01*
X10463513Y-3775929D01*
X10517395Y-3775929D01*
X10517395Y-3975929D02*
X10517395Y-3922047D01*
X10463513Y-3922047D01*
X10463513Y-3975929D01*
X10517395Y-3975929D01*
X10517395Y-4175929D02*
X10517395Y-4122047D01*
X10463513Y-4122047D01*
X10463513Y-4175929D01*
X10517395Y-4175929D01*
X10517395Y-4375929D02*
X10517395Y-4322047D01*
X10463513Y-4322047D01*
X10463513Y-4375929D01*
X10517395Y-4375929D01*
X10517395Y-4575929D02*
X10517395Y-4522047D01*
X10463513Y-4522047D01*
X10463513Y-4575929D01*
X10517395Y-4575929D01*
X10517395Y-4775929D02*
X10517395Y-4722047D01*
X10463513Y-4722047D01*
X10463513Y-4775929D01*
X10517395Y-4775929D01*
X10517395Y-4975929D02*
X10517395Y-4922047D01*
X10463513Y-4922047D01*
X10463513Y-4975929D01*
X10517395Y-4975929D01*
X5448436Y-4673872D02*
X5493436Y-4628872D01*
X5448436Y-4583872D01*
X5403436Y-4628872D01*
X5448436Y-4673872D01*
X5528436Y-4593872D02*
X5368436Y-4593872D01*
X5528436Y-4663872D02*
X5368436Y-4663872D01*
X5368436Y-4593872D02*
G75*
G03X5368436Y-4663872I0J-35000D01*
G01*
X5528436Y-4663872D02*
G75*
G03X5528436Y-4593872I0J35000D01*
G01*
X5448436Y-5813872D02*
X5493436Y-5768872D01*
X5448436Y-5723872D01*
X5403436Y-5768872D01*
X5448436Y-5813872D01*
X5528436Y-5733872D02*
X5368436Y-5733872D01*
X5528436Y-5803872D02*
X5368436Y-5803872D01*
X5368436Y-5733872D02*
G75*
G03X5368436Y-5803872I0J-35000D01*
G01*
X5528436Y-5803872D02*
G75*
G03X5528436Y-5733872I0J35000D01*
G01*
X14548142Y-8199666D02*
X14648142Y-8299666D01*
X14648142Y-8199666D02*
X14548142Y-8299666D01*
X14648142Y-8249666D02*
G75*
G03X14648142Y-8249666I-50000J0D01*
G01*
X14548142Y-8453666D02*
X14648142Y-8553666D01*
X14648142Y-8453666D02*
X14548142Y-8553666D01*
X14648142Y-8503666D02*
G75*
G03X14648142Y-8503666I-50000J0D01*
G01*
X13722896Y-1694980D02*
X13822896Y-1794980D01*
X13822896Y-1694980D02*
X13722896Y-1794980D01*
X13822896Y-1744980D02*
G75*
G03X13822896Y-1744980I-50000J0D01*
G01*
X13722896Y-1948980D02*
X13822896Y-2048980D01*
X13822896Y-1948980D02*
X13722896Y-2048980D01*
X13822896Y-1998980D02*
G75*
G03X13822896Y-1998980I-50000J0D01*
G01*
X11666766Y-1679232D02*
X11766766Y-1779232D01*
X11766766Y-1679232D02*
X11666766Y-1779232D01*
X11766766Y-1729232D02*
G75*
G03X11766766Y-1729232I-50000J0D01*
G01*
X11666766Y-1933232D02*
X11766766Y-2033232D01*
X11766766Y-1933232D02*
X11666766Y-2033232D01*
X11766766Y-1983232D02*
G75*
G03X11766766Y-1983232I-50000J0D01*
G01*
X11920766Y-1679232D02*
X12020766Y-1779232D01*
X12020766Y-1679232D02*
X11920766Y-1779232D01*
X12020766Y-1729232D02*
G75*
G03X12020766Y-1729232I-50000J0D01*
G01*
X5436120Y-3643060D02*
X5536120Y-3743060D01*
X5536120Y-3643060D02*
X5436120Y-3743060D01*
X5536120Y-3693060D02*
G75*
G03X5536120Y-3693060I-50000J0D01*
G01*
X5736120Y-4113060D02*
X5836120Y-4213060D01*
X5836120Y-4113060D02*
X5736120Y-4213060D01*
X5836120Y-4163060D02*
G75*
G03X5836120Y-4163060I-50000J0D01*
G01*
X11920766Y-1933232D02*
X12020766Y-2033232D01*
X12020766Y-1933232D02*
X11920766Y-2033232D01*
X12020766Y-1983232D02*
G75*
G03X12020766Y-1983232I-50000J0D01*
G01*
X12174766Y-1679232D02*
X12274766Y-1779232D01*
X12274766Y-1679232D02*
X12174766Y-1779232D01*
X12274766Y-1729232D02*
G75*
G03X12274766Y-1729232I-50000J0D01*
G01*
X12174766Y-1933232D02*
X12274766Y-2033232D01*
X12274766Y-1933232D02*
X12174766Y-2033232D01*
X12274766Y-1983232D02*
G75*
G03X12274766Y-1983232I-50000J0D01*
G01*
X12428766Y-1679232D02*
X12528766Y-1779232D01*
X12528766Y-1679232D02*
X12428766Y-1779232D01*
X12528766Y-1729232D02*
G75*
G03X12528766Y-1729232I-50000J0D01*
G01*
X12428766Y-1933232D02*
X12528766Y-2033232D01*
X12528766Y-1933232D02*
X12428766Y-2033232D01*
X12528766Y-1983232D02*
G75*
G03X12528766Y-1983232I-50000J0D01*
G01*
X12682766Y-1679232D02*
X12782766Y-1779232D01*
X12782766Y-1679232D02*
X12682766Y-1779232D01*
X12782766Y-1729232D02*
G75*
G03X12782766Y-1729232I-50000J0D01*
G01*
X12682766Y-1933232D02*
X12782766Y-2033232D01*
X12782766Y-1933232D02*
X12682766Y-2033232D01*
X12782766Y-1983232D02*
G75*
G03X12782766Y-1983232I-50000J0D01*
G01*
X12936766Y-1679232D02*
X13036766Y-1779232D01*
X13036766Y-1679232D02*
X12936766Y-1779232D01*
X13036766Y-1729232D02*
G75*
G03X13036766Y-1729232I-50000J0D01*
G01*
X12936766Y-1933232D02*
X13036766Y-2033232D01*
X13036766Y-1933232D02*
X12936766Y-2033232D01*
X13036766Y-1983232D02*
G75*
G03X13036766Y-1983232I-50000J0D01*
G01*
X6036120Y-3643060D02*
X6136120Y-3743060D01*
X6136120Y-3643060D02*
X6036120Y-3743060D01*
X6136120Y-3693060D02*
G75*
G03X6136120Y-3693060I-50000J0D01*
G01*
X14548142Y-8707666D02*
X14648142Y-8807666D01*
X14648142Y-8707666D02*
X14548142Y-8807666D01*
X14648142Y-8757666D02*
G75*
G03X14648142Y-8757666I-50000J0D01*
G01*
X14548142Y-8961666D02*
X14648142Y-9061666D01*
X14648142Y-8961666D02*
X14548142Y-9061666D01*
X14648142Y-9011666D02*
G75*
G03X14648142Y-9011666I-50000J0D01*
G01*
X14548142Y-9215666D02*
X14648142Y-9315666D01*
X14648142Y-9215666D02*
X14548142Y-9315666D01*
X14648142Y-9265666D02*
G75*
G03X14648142Y-9265666I-50000J0D01*
G01*
X14548142Y-9469666D02*
X14648142Y-9569666D01*
X14648142Y-9469666D02*
X14548142Y-9569666D01*
X14648142Y-9519666D02*
G75*
G03X14648142Y-9519666I-50000J0D01*
G01*
X14548142Y-9723666D02*
X14648142Y-9823666D01*
X14648142Y-9723666D02*
X14548142Y-9823666D01*
X14648142Y-9773666D02*
G75*
G03X14648142Y-9773666I-50000J0D01*
G01*
X14548142Y-9977666D02*
X14648142Y-10077666D01*
X14648142Y-9977666D02*
X14548142Y-10077666D01*
X14648142Y-10027666D02*
G75*
G03X14648142Y-10027666I-50000J0D01*
G01*
X14548142Y-10231666D02*
X14648142Y-10331666D01*
X14648142Y-10231666D02*
X14548142Y-10331666D01*
X14648142Y-10281666D02*
G75*
G03X14648142Y-10281666I-50000J0D01*
G01*
X14548142Y-10485666D02*
X14648142Y-10585666D01*
X14648142Y-10485666D02*
X14548142Y-10585666D01*
X14648142Y-10535666D02*
G75*
G03X14648142Y-10535666I-50000J0D01*
G01*
X14802142Y-8199666D02*
X14902142Y-8299666D01*
X14902142Y-8199666D02*
X14802142Y-8299666D01*
X14902142Y-8249666D02*
G75*
G03X14902142Y-8249666I-50000J0D01*
G01*
X14802142Y-8453666D02*
X14902142Y-8553666D01*
X14902142Y-8453666D02*
X14802142Y-8553666D01*
X14902142Y-8503666D02*
G75*
G03X14902142Y-8503666I-50000J0D01*
G01*
X14802142Y-8707666D02*
X14902142Y-8807666D01*
X14902142Y-8707666D02*
X14802142Y-8807666D01*
X14902142Y-8757666D02*
G75*
G03X14902142Y-8757666I-50000J0D01*
G01*
X14802142Y-8961666D02*
X14902142Y-9061666D01*
X14902142Y-8961666D02*
X14802142Y-9061666D01*
X14902142Y-9011666D02*
G75*
G03X14902142Y-9011666I-50000J0D01*
G01*
X14802142Y-9215666D02*
X14902142Y-9315666D01*
X14902142Y-9215666D02*
X14802142Y-9315666D01*
X14902142Y-9265666D02*
G75*
G03X14902142Y-9265666I-50000J0D01*
G01*
X14802142Y-9469666D02*
X14902142Y-9569666D01*
X14902142Y-9469666D02*
X14802142Y-9569666D01*
X14902142Y-9519666D02*
G75*
G03X14902142Y-9519666I-50000J0D01*
G01*
X14802142Y-9723666D02*
X14902142Y-9823666D01*
X14902142Y-9723666D02*
X14802142Y-9823666D01*
X14902142Y-9773666D02*
G75*
G03X14902142Y-9773666I-50000J0D01*
G01*
X14802142Y-9977666D02*
X14902142Y-10077666D01*
X14902142Y-9977666D02*
X14802142Y-10077666D01*
X14902142Y-10027666D02*
G75*
G03X14902142Y-10027666I-50000J0D01*
G01*
X14802142Y-10231666D02*
X14902142Y-10331666D01*
X14902142Y-10231666D02*
X14802142Y-10331666D01*
X14902142Y-10281666D02*
G75*
G03X14902142Y-10281666I-50000J0D01*
G01*
X14802142Y-10485666D02*
X14902142Y-10585666D01*
X14902142Y-10485666D02*
X14802142Y-10585666D01*
X14902142Y-10535666D02*
G75*
G03X14902142Y-10535666I-50000J0D01*
G01*
X10591330Y-10927372D02*
X10691330Y-11027372D01*
X10691330Y-10927372D02*
X10591330Y-11027372D01*
X10691330Y-10977372D02*
G75*
G03X10691330Y-10977372I-50000J0D01*
G01*
X10591330Y-11181372D02*
X10691330Y-11281372D01*
X10691330Y-11181372D02*
X10591330Y-11281372D01*
X10691330Y-11231372D02*
G75*
G03X10691330Y-11231372I-50000J0D01*
G01*
X10845330Y-10927372D02*
X10945330Y-11027372D01*
X10945330Y-10927372D02*
X10845330Y-11027372D01*
X10945330Y-10977372D02*
G75*
G03X10945330Y-10977372I-50000J0D01*
G01*
X10845330Y-11181372D02*
X10945330Y-11281372D01*
X10945330Y-11181372D02*
X10845330Y-11281372D01*
X10945330Y-11231372D02*
G75*
G03X10945330Y-11231372I-50000J0D01*
G01*
X11099330Y-10927372D02*
X11199330Y-11027372D01*
X11199330Y-10927372D02*
X11099330Y-11027372D01*
X11199330Y-10977372D02*
G75*
G03X11199330Y-10977372I-50000J0D01*
G01*
X11099330Y-11181372D02*
X11199330Y-11281372D01*
X11199330Y-11181372D02*
X11099330Y-11281372D01*
X11199330Y-11231372D02*
G75*
G03X11199330Y-11231372I-50000J0D01*
G01*
X11353330Y-10927372D02*
X11453330Y-11027372D01*
X11453330Y-10927372D02*
X11353330Y-11027372D01*
X11453330Y-10977372D02*
G75*
G03X11453330Y-10977372I-50000J0D01*
G01*
X11353330Y-11181372D02*
X11453330Y-11281372D01*
X11453330Y-11181372D02*
X11353330Y-11281372D01*
X11453330Y-11231372D02*
G75*
G03X11453330Y-11231372I-50000J0D01*
G01*
X11607330Y-10927372D02*
X11707330Y-11027372D01*
X11707330Y-10927372D02*
X11607330Y-11027372D01*
X11707330Y-10977372D02*
G75*
G03X11707330Y-10977372I-50000J0D01*
G01*
X11607330Y-11181372D02*
X11707330Y-11281372D01*
X11707330Y-11181372D02*
X11607330Y-11281372D01*
X11707330Y-11231372D02*
G75*
G03X11707330Y-11231372I-50000J0D01*
G01*
X11861330Y-10927372D02*
X11961330Y-11027372D01*
X11961330Y-10927372D02*
X11861330Y-11027372D01*
X11961330Y-10977372D02*
G75*
G03X11961330Y-10977372I-50000J0D01*
G01*
X11861330Y-11181372D02*
X11961330Y-11281372D01*
X11961330Y-11181372D02*
X11861330Y-11281372D01*
X11961330Y-11231372D02*
G75*
G03X11961330Y-11231372I-50000J0D01*
G01*
X12115330Y-10927372D02*
X12215330Y-11027372D01*
X12215330Y-10927372D02*
X12115330Y-11027372D01*
X12215330Y-10977372D02*
G75*
G03X12215330Y-10977372I-50000J0D01*
G01*
X12115330Y-11181372D02*
X12215330Y-11281372D01*
X12215330Y-11181372D02*
X12115330Y-11281372D01*
X12215330Y-11231372D02*
G75*
G03X12215330Y-11231372I-50000J0D01*
G01*
X12369330Y-10927372D02*
X12469330Y-11027372D01*
X12469330Y-10927372D02*
X12369330Y-11027372D01*
X12469330Y-10977372D02*
G75*
G03X12469330Y-10977372I-50000J0D01*
G01*
X12369330Y-11181372D02*
X12469330Y-11281372D01*
X12469330Y-11181372D02*
X12369330Y-11281372D01*
X12469330Y-11231372D02*
G75*
G03X12469330Y-11231372I-50000J0D01*
G01*
X12623330Y-10927372D02*
X12723330Y-11027372D01*
X12723330Y-10927372D02*
X12623330Y-11027372D01*
X12723330Y-10977372D02*
G75*
G03X12723330Y-10977372I-50000J0D01*
G01*
X12623330Y-11181372D02*
X12723330Y-11281372D01*
X12723330Y-11181372D02*
X12623330Y-11281372D01*
X12723330Y-11231372D02*
G75*
G03X12723330Y-11231372I-50000J0D01*
G01*
X12877330Y-10927372D02*
X12977330Y-11027372D01*
X12977330Y-10927372D02*
X12877330Y-11027372D01*
X12977330Y-10977372D02*
G75*
G03X12977330Y-10977372I-50000J0D01*
G01*
X12877330Y-11181372D02*
X12977330Y-11281372D01*
X12977330Y-11181372D02*
X12877330Y-11281372D01*
X12977330Y-11231372D02*
G75*
G03X12977330Y-11231372I-50000J0D01*
G01*
X14631200Y-2887510D02*
X14731200Y-2987510D01*
X14731200Y-2887510D02*
X14631200Y-2987510D01*
X14731200Y-2937510D02*
G75*
G03X14731200Y-2937510I-50000J0D01*
G01*
X14631200Y-3141510D02*
X14731200Y-3241510D01*
X14731200Y-3141510D02*
X14631200Y-3241510D01*
X14731200Y-3191510D02*
G75*
G03X14731200Y-3191510I-50000J0D01*
G01*
X14631200Y-3395510D02*
X14731200Y-3495510D01*
X14731200Y-3395510D02*
X14631200Y-3495510D01*
X14731200Y-3445510D02*
G75*
G03X14731200Y-3445510I-50000J0D01*
G01*
X14631200Y-3649510D02*
X14731200Y-3749510D01*
X14731200Y-3649510D02*
X14631200Y-3749510D01*
X14731200Y-3699510D02*
G75*
G03X14731200Y-3699510I-50000J0D01*
G01*
X14631200Y-3903510D02*
X14731200Y-4003510D01*
X14731200Y-3903510D02*
X14631200Y-4003510D01*
X14731200Y-3953510D02*
G75*
G03X14731200Y-3953510I-50000J0D01*
G01*
X14631200Y-4157510D02*
X14731200Y-4257510D01*
X14731200Y-4157510D02*
X14631200Y-4257510D01*
X14731200Y-4207510D02*
G75*
G03X14731200Y-4207510I-50000J0D01*
G01*
X14885200Y-2887510D02*
X14985200Y-2987510D01*
X14985200Y-2887510D02*
X14885200Y-2987510D01*
X14985200Y-2937510D02*
G75*
G03X14985200Y-2937510I-50000J0D01*
G01*
X14885200Y-3141510D02*
X14985200Y-3241510D01*
X14985200Y-3141510D02*
X14885200Y-3241510D01*
X14985200Y-3191510D02*
G75*
G03X14985200Y-3191510I-50000J0D01*
G01*
X14885200Y-3395510D02*
X14985200Y-3495510D01*
X14985200Y-3395510D02*
X14885200Y-3495510D01*
X14985200Y-3445510D02*
G75*
G03X14985200Y-3445510I-50000J0D01*
G01*
X14885200Y-3649510D02*
X14985200Y-3749510D01*
X14985200Y-3649510D02*
X14885200Y-3749510D01*
X14985200Y-3699510D02*
G75*
G03X14985200Y-3699510I-50000J0D01*
G01*
X14885200Y-3903510D02*
X14985200Y-4003510D01*
X14985200Y-3903510D02*
X14885200Y-4003510D01*
X14985200Y-3953510D02*
G75*
G03X14985200Y-3953510I-50000J0D01*
G01*
X14885200Y-4157510D02*
X14985200Y-4257510D01*
X14985200Y-4157510D02*
X14885200Y-4257510D01*
X14985200Y-4207510D02*
G75*
G03X14985200Y-4207510I-50000J0D01*
G01*
X5531486Y-10895204D02*
X5801486Y-11165204D01*
X5801486Y-10895204D02*
X5531486Y-11165204D01*
X5666486Y-10895204D02*
X5666486Y-11165204D01*
X5531486Y-11030204D02*
X5801486Y-11030204D01*
X14340968Y-10940416D02*
X14610968Y-11210416D01*
X14610968Y-10940416D02*
X14340968Y-11210416D01*
X14475968Y-10940416D02*
X14475968Y-11210416D01*
X14340968Y-11075416D02*
X14610968Y-11075416D01*
X5574920Y-1843914D02*
X5844920Y-2113914D01*
X5844920Y-1843914D02*
X5574920Y-2113914D01*
X5709920Y-1843914D02*
X5709920Y-2113914D01*
X5574920Y-1978914D02*
X5844920Y-1978914D01*
X14388720Y-1887348D02*
X14658720Y-2157348D01*
X14658720Y-1887348D02*
X14388720Y-2157348D01*
X14523720Y-1887348D02*
X14523720Y-2157348D01*
X14388720Y-2022348D02*
X14658720Y-2022348D01*
X5393436Y-4913872D02*
X5503436Y-5023872D01*
X5503436Y-4913872D02*
X5393436Y-5023872D01*
X5487327Y-5007763D02*
X5487327Y-4929981D01*
X5409545Y-4929981D01*
X5409545Y-5007763D01*
X5487327Y-5007763D01*
X5393436Y-5373872D02*
X5503436Y-5483872D01*
X5503436Y-5373872D02*
X5393436Y-5483872D01*
X5487327Y-5467763D02*
X5487327Y-5389981D01*
X5409545Y-5389981D01*
X5409545Y-5467763D01*
X5487327Y-5467763D01*
D12*
X5406172Y-11954268D02*
X5406172Y-11654268D01*
X5477601Y-11654268D01*
X5520458Y-11668554D01*
X5549030Y-11697125D01*
X5563315Y-11725697D01*
X5577601Y-11782840D01*
X5577601Y-11825697D01*
X5563315Y-11882840D01*
X5549030Y-11911411D01*
X5520458Y-11939983D01*
X5477601Y-11954268D01*
X5406172Y-11954268D01*
X5706172Y-11954268D02*
X5706172Y-11754268D01*
X5706172Y-11811411D02*
X5720458Y-11782840D01*
X5734744Y-11768554D01*
X5763315Y-11754268D01*
X5791887Y-11754268D01*
X5891887Y-11954268D02*
X5891887Y-11754268D01*
X5891887Y-11654268D02*
X5877601Y-11668554D01*
X5891887Y-11682840D01*
X5906172Y-11668554D01*
X5891887Y-11654268D01*
X5891887Y-11682840D01*
X6077601Y-11954268D02*
X6049030Y-11939983D01*
X6034744Y-11911411D01*
X6034744Y-11654268D01*
X6234744Y-11954268D02*
X6206172Y-11939983D01*
X6191887Y-11911411D01*
X6191887Y-11654268D01*
X6577601Y-11954268D02*
X6577601Y-11654268D01*
X6677601Y-11868554D01*
X6777601Y-11654268D01*
X6777601Y-11954268D01*
X7049030Y-11954268D02*
X7049030Y-11797125D01*
X7034744Y-11768554D01*
X7006172Y-11754268D01*
X6949030Y-11754268D01*
X6920458Y-11768554D01*
X7049030Y-11939983D02*
X7020458Y-11954268D01*
X6949030Y-11954268D01*
X6920458Y-11939983D01*
X6906172Y-11911411D01*
X6906172Y-11882840D01*
X6920458Y-11854268D01*
X6949030Y-11839983D01*
X7020458Y-11839983D01*
X7049030Y-11825697D01*
X7191887Y-11754268D02*
X7191887Y-12054268D01*
X7191887Y-11768554D02*
X7220458Y-11754268D01*
X7277601Y-11754268D01*
X7306172Y-11768554D01*
X7320458Y-11782840D01*
X7334744Y-11811411D01*
X7334744Y-11897125D01*
X7320458Y-11925697D01*
X7306172Y-11939983D01*
X7277601Y-11954268D01*
X7220458Y-11954268D01*
X7191887Y-11939983D01*
X7463315Y-11925697D02*
X7477601Y-11939983D01*
X7463315Y-11954268D01*
X7449030Y-11939983D01*
X7463315Y-11925697D01*
X7463315Y-11954268D01*
X7463315Y-11768554D02*
X7477601Y-11782840D01*
X7463315Y-11797125D01*
X7449030Y-11782840D01*
X7463315Y-11768554D01*
X7463315Y-11797125D01*
X5089744Y-12433554D02*
X5119744Y-12463554D01*
X5119744Y-12433554D02*
X5089744Y-12463554D01*
X5463315Y-12284268D02*
X5491887Y-12284268D01*
X5520458Y-12298554D01*
X5534744Y-12312840D01*
X5549030Y-12341411D01*
X5563315Y-12398554D01*
X5563315Y-12469983D01*
X5549030Y-12527125D01*
X5534744Y-12555697D01*
X5520458Y-12569983D01*
X5491887Y-12584268D01*
X5463315Y-12584268D01*
X5434744Y-12569983D01*
X5420458Y-12555697D01*
X5406172Y-12527125D01*
X5391887Y-12469983D01*
X5391887Y-12398554D01*
X5406172Y-12341411D01*
X5420458Y-12312840D01*
X5434744Y-12298554D01*
X5463315Y-12284268D01*
X5691887Y-12555697D02*
X5706172Y-12569983D01*
X5691887Y-12584268D01*
X5677601Y-12569983D01*
X5691887Y-12555697D01*
X5691887Y-12584268D01*
X5806172Y-12284268D02*
X5991887Y-12284268D01*
X5891887Y-12398554D01*
X5934744Y-12398554D01*
X5963315Y-12412840D01*
X5977601Y-12427125D01*
X5991887Y-12455697D01*
X5991887Y-12527125D01*
X5977601Y-12555697D01*
X5963315Y-12569983D01*
X5934744Y-12584268D01*
X5849030Y-12584268D01*
X5820458Y-12569983D01*
X5806172Y-12555697D01*
X6177601Y-12284268D02*
X6206172Y-12284268D01*
X6234744Y-12298554D01*
X6249030Y-12312840D01*
X6263315Y-12341411D01*
X6277601Y-12398554D01*
X6277601Y-12469983D01*
X6263315Y-12527125D01*
X6249030Y-12555697D01*
X6234744Y-12569983D01*
X6206172Y-12584268D01*
X6177601Y-12584268D01*
X6149030Y-12569983D01*
X6134744Y-12555697D01*
X6120458Y-12527125D01*
X6106172Y-12469983D01*
X6106172Y-12398554D01*
X6120458Y-12341411D01*
X6134744Y-12312840D01*
X6149030Y-12298554D01*
X6177601Y-12284268D01*
X6406172Y-12584268D02*
X6406172Y-12384268D01*
X6406172Y-12412840D02*
X6420458Y-12398554D01*
X6449030Y-12384268D01*
X6491887Y-12384268D01*
X6520458Y-12398554D01*
X6534744Y-12427125D01*
X6534744Y-12584268D01*
X6534744Y-12427125D02*
X6549030Y-12398554D01*
X6577601Y-12384268D01*
X6620458Y-12384268D01*
X6649030Y-12398554D01*
X6663315Y-12427125D01*
X6663315Y-12584268D01*
X6806172Y-12584268D02*
X6806172Y-12384268D01*
X6806172Y-12412840D02*
X6820458Y-12398554D01*
X6849030Y-12384268D01*
X6891887Y-12384268D01*
X6920458Y-12398554D01*
X6934744Y-12427125D01*
X6934744Y-12584268D01*
X6934744Y-12427125D02*
X6949030Y-12398554D01*
X6977601Y-12384268D01*
X7020458Y-12384268D01*
X7049030Y-12398554D01*
X7063315Y-12427125D01*
X7063315Y-12584268D01*
X7649030Y-12269983D02*
X7391887Y-12655697D01*
X8034744Y-12284268D02*
X8063315Y-12284268D01*
X8091887Y-12298554D01*
X8106172Y-12312840D01*
X8120458Y-12341411D01*
X8134744Y-12398554D01*
X8134744Y-12469983D01*
X8120458Y-12527125D01*
X8106172Y-12555697D01*
X8091887Y-12569983D01*
X8063315Y-12584268D01*
X8034744Y-12584268D01*
X8006172Y-12569983D01*
X7991887Y-12555697D01*
X7977601Y-12527125D01*
X7963315Y-12469983D01*
X7963315Y-12398554D01*
X7977601Y-12341411D01*
X7991887Y-12312840D01*
X8006172Y-12298554D01*
X8034744Y-12284268D01*
X8263315Y-12555697D02*
X8277601Y-12569983D01*
X8263315Y-12584268D01*
X8249030Y-12569983D01*
X8263315Y-12555697D01*
X8263315Y-12584268D01*
X8463315Y-12284268D02*
X8491887Y-12284268D01*
X8520458Y-12298554D01*
X8534744Y-12312840D01*
X8549030Y-12341411D01*
X8563315Y-12398554D01*
X8563315Y-12469983D01*
X8549030Y-12527125D01*
X8534744Y-12555697D01*
X8520458Y-12569983D01*
X8491887Y-12584268D01*
X8463315Y-12584268D01*
X8434744Y-12569983D01*
X8420458Y-12555697D01*
X8406172Y-12527125D01*
X8391887Y-12469983D01*
X8391887Y-12398554D01*
X8406172Y-12341411D01*
X8420458Y-12312840D01*
X8434744Y-12298554D01*
X8463315Y-12284268D01*
X8849030Y-12584268D02*
X8677601Y-12584268D01*
X8763315Y-12584268D02*
X8763315Y-12284268D01*
X8734744Y-12327125D01*
X8706172Y-12355697D01*
X8677601Y-12369983D01*
X8963315Y-12312840D02*
X8977601Y-12298554D01*
X9006172Y-12284268D01*
X9077601Y-12284268D01*
X9106172Y-12298554D01*
X9120458Y-12312840D01*
X9134744Y-12341411D01*
X9134744Y-12369983D01*
X9120458Y-12412840D01*
X8949030Y-12584268D01*
X9134744Y-12584268D01*
X9249030Y-12284268D02*
X9249030Y-12341411D01*
X9363315Y-12284268D02*
X9363315Y-12341411D01*
X9806172Y-12698554D02*
X9791887Y-12684268D01*
X9763315Y-12641411D01*
X9749030Y-12612840D01*
X9734744Y-12569983D01*
X9720458Y-12498554D01*
X9720458Y-12441411D01*
X9734744Y-12369983D01*
X9749030Y-12327125D01*
X9763315Y-12298554D01*
X9791887Y-12255697D01*
X9806172Y-12241411D01*
X9891887Y-12284268D02*
X10077601Y-12284268D01*
X9977601Y-12398554D01*
X10020458Y-12398554D01*
X10049030Y-12412840D01*
X10063315Y-12427125D01*
X10077601Y-12455697D01*
X10077601Y-12527125D01*
X10063315Y-12555697D01*
X10049030Y-12569983D01*
X10020458Y-12584268D01*
X9934744Y-12584268D01*
X9906172Y-12569983D01*
X9891887Y-12555697D01*
X10249030Y-12412840D02*
X10220458Y-12398554D01*
X10206172Y-12384268D01*
X10191887Y-12355697D01*
X10191887Y-12341411D01*
X10206172Y-12312840D01*
X10220458Y-12298554D01*
X10249030Y-12284268D01*
X10306172Y-12284268D01*
X10334744Y-12298554D01*
X10349030Y-12312840D01*
X10363315Y-12341411D01*
X10363315Y-12355697D01*
X10349030Y-12384268D01*
X10334744Y-12398554D01*
X10306172Y-12412840D01*
X10249030Y-12412840D01*
X10220458Y-12427125D01*
X10206172Y-12441411D01*
X10191887Y-12469983D01*
X10191887Y-12527125D01*
X10206172Y-12555697D01*
X10220458Y-12569983D01*
X10249030Y-12584268D01*
X10306172Y-12584268D01*
X10334744Y-12569983D01*
X10349030Y-12555697D01*
X10363315Y-12527125D01*
X10363315Y-12469983D01*
X10349030Y-12441411D01*
X10334744Y-12427125D01*
X10306172Y-12412840D01*
X10649030Y-12584268D02*
X10477601Y-12584268D01*
X10563315Y-12584268D02*
X10563315Y-12284268D01*
X10534744Y-12327125D01*
X10506172Y-12355697D01*
X10477601Y-12369983D01*
X11006172Y-12584268D02*
X11006172Y-12284268D01*
X11134744Y-12584268D02*
X11134744Y-12427125D01*
X11120458Y-12398554D01*
X11091887Y-12384268D01*
X11049030Y-12384268D01*
X11020458Y-12398554D01*
X11006172Y-12412840D01*
X11320458Y-12584268D02*
X11291887Y-12569983D01*
X11277601Y-12555697D01*
X11263315Y-12527125D01*
X11263315Y-12441411D01*
X11277601Y-12412840D01*
X11291887Y-12398554D01*
X11320458Y-12384268D01*
X11363315Y-12384268D01*
X11391887Y-12398554D01*
X11406172Y-12412840D01*
X11420458Y-12441411D01*
X11420458Y-12527125D01*
X11406172Y-12555697D01*
X11391887Y-12569983D01*
X11363315Y-12584268D01*
X11320458Y-12584268D01*
X11591887Y-12584268D02*
X11563315Y-12569983D01*
X11549030Y-12541411D01*
X11549030Y-12284268D01*
X11820458Y-12569983D02*
X11791887Y-12584268D01*
X11734744Y-12584268D01*
X11706172Y-12569983D01*
X11691887Y-12541411D01*
X11691887Y-12427125D01*
X11706172Y-12398554D01*
X11734744Y-12384268D01*
X11791887Y-12384268D01*
X11820458Y-12398554D01*
X11834744Y-12427125D01*
X11834744Y-12455697D01*
X11691887Y-12484268D01*
X11949030Y-12569983D02*
X11977601Y-12584268D01*
X12034744Y-12584268D01*
X12063315Y-12569983D01*
X12077601Y-12541411D01*
X12077601Y-12527125D01*
X12063315Y-12498554D01*
X12034744Y-12484268D01*
X11991887Y-12484268D01*
X11963315Y-12469983D01*
X11949030Y-12441411D01*
X11949030Y-12427125D01*
X11963315Y-12398554D01*
X11991887Y-12384268D01*
X12034744Y-12384268D01*
X12063315Y-12398554D01*
X12177601Y-12698554D02*
X12191887Y-12684268D01*
X12220458Y-12641411D01*
X12234744Y-12612840D01*
X12249030Y-12569983D01*
X12263315Y-12498554D01*
X12263315Y-12441411D01*
X12249030Y-12369983D01*
X12234744Y-12327125D01*
X12220458Y-12298554D01*
X12191887Y-12255697D01*
X12177601Y-12241411D01*
X5119744Y-12844554D02*
G75*
G03X5119744Y-12844554I-20000J0D01*
G01*
X5463315Y-12680268D02*
X5491887Y-12680268D01*
X5520458Y-12694554D01*
X5534744Y-12708840D01*
X5549030Y-12737411D01*
X5563315Y-12794554D01*
X5563315Y-12865983D01*
X5549030Y-12923125D01*
X5534744Y-12951697D01*
X5520458Y-12965983D01*
X5491887Y-12980268D01*
X5463315Y-12980268D01*
X5434744Y-12965983D01*
X5420458Y-12951697D01*
X5406172Y-12923125D01*
X5391887Y-12865983D01*
X5391887Y-12794554D01*
X5406172Y-12737411D01*
X5420458Y-12708840D01*
X5434744Y-12694554D01*
X5463315Y-12680268D01*
X5691887Y-12951697D02*
X5706172Y-12965983D01*
X5691887Y-12980268D01*
X5677601Y-12965983D01*
X5691887Y-12951697D01*
X5691887Y-12980268D01*
X5963315Y-12780268D02*
X5963315Y-12980268D01*
X5891887Y-12665983D02*
X5820458Y-12880268D01*
X6006172Y-12880268D01*
X6177601Y-12680268D02*
X6206172Y-12680268D01*
X6234744Y-12694554D01*
X6249030Y-12708840D01*
X6263315Y-12737411D01*
X6277601Y-12794554D01*
X6277601Y-12865983D01*
X6263315Y-12923125D01*
X6249030Y-12951697D01*
X6234744Y-12965983D01*
X6206172Y-12980268D01*
X6177601Y-12980268D01*
X6149030Y-12965983D01*
X6134744Y-12951697D01*
X6120458Y-12923125D01*
X6106172Y-12865983D01*
X6106172Y-12794554D01*
X6120458Y-12737411D01*
X6134744Y-12708840D01*
X6149030Y-12694554D01*
X6177601Y-12680268D01*
X6406172Y-12980268D02*
X6406172Y-12780268D01*
X6406172Y-12808840D02*
X6420458Y-12794554D01*
X6449030Y-12780268D01*
X6491887Y-12780268D01*
X6520458Y-12794554D01*
X6534744Y-12823125D01*
X6534744Y-12980268D01*
X6534744Y-12823125D02*
X6549030Y-12794554D01*
X6577601Y-12780268D01*
X6620458Y-12780268D01*
X6649030Y-12794554D01*
X6663315Y-12823125D01*
X6663315Y-12980268D01*
X6806172Y-12980268D02*
X6806172Y-12780268D01*
X6806172Y-12808840D02*
X6820458Y-12794554D01*
X6849030Y-12780268D01*
X6891887Y-12780268D01*
X6920458Y-12794554D01*
X6934744Y-12823125D01*
X6934744Y-12980268D01*
X6934744Y-12823125D02*
X6949030Y-12794554D01*
X6977601Y-12780268D01*
X7020458Y-12780268D01*
X7049030Y-12794554D01*
X7063315Y-12823125D01*
X7063315Y-12980268D01*
X7649030Y-12665983D02*
X7391887Y-13051697D01*
X8034744Y-12680268D02*
X8063315Y-12680268D01*
X8091887Y-12694554D01*
X8106172Y-12708840D01*
X8120458Y-12737411D01*
X8134744Y-12794554D01*
X8134744Y-12865983D01*
X8120458Y-12923125D01*
X8106172Y-12951697D01*
X8091887Y-12965983D01*
X8063315Y-12980268D01*
X8034744Y-12980268D01*
X8006172Y-12965983D01*
X7991887Y-12951697D01*
X7977601Y-12923125D01*
X7963315Y-12865983D01*
X7963315Y-12794554D01*
X7977601Y-12737411D01*
X7991887Y-12708840D01*
X8006172Y-12694554D01*
X8034744Y-12680268D01*
X8263315Y-12951697D02*
X8277601Y-12965983D01*
X8263315Y-12980268D01*
X8249030Y-12965983D01*
X8263315Y-12951697D01*
X8263315Y-12980268D01*
X8463315Y-12680268D02*
X8491887Y-12680268D01*
X8520458Y-12694554D01*
X8534744Y-12708840D01*
X8549030Y-12737411D01*
X8563315Y-12794554D01*
X8563315Y-12865983D01*
X8549030Y-12923125D01*
X8534744Y-12951697D01*
X8520458Y-12965983D01*
X8491887Y-12980268D01*
X8463315Y-12980268D01*
X8434744Y-12965983D01*
X8420458Y-12951697D01*
X8406172Y-12923125D01*
X8391887Y-12865983D01*
X8391887Y-12794554D01*
X8406172Y-12737411D01*
X8420458Y-12708840D01*
X8434744Y-12694554D01*
X8463315Y-12680268D01*
X8849030Y-12980268D02*
X8677601Y-12980268D01*
X8763315Y-12980268D02*
X8763315Y-12680268D01*
X8734744Y-12723125D01*
X8706172Y-12751697D01*
X8677601Y-12765983D01*
X9106172Y-12680268D02*
X9049030Y-12680268D01*
X9020458Y-12694554D01*
X9006172Y-12708840D01*
X8977601Y-12751697D01*
X8963315Y-12808840D01*
X8963315Y-12923125D01*
X8977601Y-12951697D01*
X8991887Y-12965983D01*
X9020458Y-12980268D01*
X9077601Y-12980268D01*
X9106172Y-12965983D01*
X9120458Y-12951697D01*
X9134744Y-12923125D01*
X9134744Y-12851697D01*
X9120458Y-12823125D01*
X9106172Y-12808840D01*
X9077601Y-12794554D01*
X9020458Y-12794554D01*
X8991887Y-12808840D01*
X8977601Y-12823125D01*
X8963315Y-12851697D01*
X9249030Y-12680268D02*
X9249030Y-12737411D01*
X9363315Y-12680268D02*
X9363315Y-12737411D01*
X9806172Y-13094554D02*
X9791887Y-13080268D01*
X9763315Y-13037411D01*
X9749030Y-13008840D01*
X9734744Y-12965983D01*
X9720458Y-12894554D01*
X9720458Y-12837411D01*
X9734744Y-12765983D01*
X9749030Y-12723125D01*
X9763315Y-12694554D01*
X9791887Y-12651697D01*
X9806172Y-12637411D01*
X9934744Y-12980268D02*
X9991887Y-12980268D01*
X10020458Y-12965983D01*
X10034744Y-12951697D01*
X10063315Y-12908840D01*
X10077601Y-12851697D01*
X10077601Y-12737411D01*
X10063315Y-12708840D01*
X10049030Y-12694554D01*
X10020458Y-12680268D01*
X9963315Y-12680268D01*
X9934744Y-12694554D01*
X9920458Y-12708840D01*
X9906172Y-12737411D01*
X9906172Y-12808840D01*
X9920458Y-12837411D01*
X9934744Y-12851697D01*
X9963315Y-12865983D01*
X10020458Y-12865983D01*
X10049030Y-12851697D01*
X10063315Y-12837411D01*
X10077601Y-12808840D01*
X10177601Y-12680268D02*
X10377601Y-12680268D01*
X10249030Y-12980268D01*
X10720458Y-12980268D02*
X10720458Y-12680268D01*
X10849030Y-12980268D02*
X10849030Y-12823125D01*
X10834744Y-12794554D01*
X10806172Y-12780268D01*
X10763315Y-12780268D01*
X10734744Y-12794554D01*
X10720458Y-12808840D01*
X11034744Y-12980268D02*
X11006172Y-12965983D01*
X10991887Y-12951697D01*
X10977601Y-12923125D01*
X10977601Y-12837411D01*
X10991887Y-12808840D01*
X11006172Y-12794554D01*
X11034744Y-12780268D01*
X11077601Y-12780268D01*
X11106172Y-12794554D01*
X11120458Y-12808840D01*
X11134744Y-12837411D01*
X11134744Y-12923125D01*
X11120458Y-12951697D01*
X11106172Y-12965983D01*
X11077601Y-12980268D01*
X11034744Y-12980268D01*
X11306172Y-12980268D02*
X11277601Y-12965983D01*
X11263315Y-12937411D01*
X11263315Y-12680268D01*
X11534744Y-12965983D02*
X11506172Y-12980268D01*
X11449030Y-12980268D01*
X11420458Y-12965983D01*
X11406172Y-12937411D01*
X11406172Y-12823125D01*
X11420458Y-12794554D01*
X11449030Y-12780268D01*
X11506172Y-12780268D01*
X11534744Y-12794554D01*
X11549030Y-12823125D01*
X11549030Y-12851697D01*
X11406172Y-12880268D01*
X11663315Y-12965983D02*
X11691887Y-12980268D01*
X11749030Y-12980268D01*
X11777601Y-12965983D01*
X11791887Y-12937411D01*
X11791887Y-12923125D01*
X11777601Y-12894554D01*
X11749030Y-12880268D01*
X11706172Y-12880268D01*
X11677601Y-12865983D01*
X11663315Y-12837411D01*
X11663315Y-12823125D01*
X11677601Y-12794554D01*
X11706172Y-12780268D01*
X11749030Y-12780268D01*
X11777601Y-12794554D01*
X11891887Y-13094554D02*
X11906172Y-13080268D01*
X11934744Y-13037411D01*
X11949030Y-13008840D01*
X11963315Y-12965983D01*
X11977601Y-12894554D01*
X11977601Y-12837411D01*
X11963315Y-12765983D01*
X11949030Y-12723125D01*
X11934744Y-12694554D01*
X11906172Y-12651697D01*
X11891887Y-12637411D01*
X5094744Y-13215554D02*
X5094744Y-13265554D01*
X5069744Y-13240554D02*
X5119744Y-13240554D01*
X5463315Y-13076268D02*
X5491887Y-13076268D01*
X5520458Y-13090554D01*
X5534744Y-13104840D01*
X5549030Y-13133411D01*
X5563315Y-13190554D01*
X5563315Y-13261983D01*
X5549030Y-13319125D01*
X5534744Y-13347697D01*
X5520458Y-13361983D01*
X5491887Y-13376268D01*
X5463315Y-13376268D01*
X5434744Y-13361983D01*
X5420458Y-13347697D01*
X5406172Y-13319125D01*
X5391887Y-13261983D01*
X5391887Y-13190554D01*
X5406172Y-13133411D01*
X5420458Y-13104840D01*
X5434744Y-13090554D01*
X5463315Y-13076268D01*
X5691887Y-13347697D02*
X5706172Y-13361983D01*
X5691887Y-13376268D01*
X5677601Y-13361983D01*
X5691887Y-13347697D01*
X5691887Y-13376268D01*
X5977601Y-13076268D02*
X5834744Y-13076268D01*
X5820458Y-13219125D01*
X5834744Y-13204840D01*
X5863315Y-13190554D01*
X5934744Y-13190554D01*
X5963315Y-13204840D01*
X5977601Y-13219125D01*
X5991887Y-13247697D01*
X5991887Y-13319125D01*
X5977601Y-13347697D01*
X5963315Y-13361983D01*
X5934744Y-13376268D01*
X5863315Y-13376268D01*
X5834744Y-13361983D01*
X5820458Y-13347697D01*
X6177601Y-13076268D02*
X6206172Y-13076268D01*
X6234744Y-13090554D01*
X6249030Y-13104840D01*
X6263315Y-13133411D01*
X6277601Y-13190554D01*
X6277601Y-13261983D01*
X6263315Y-13319125D01*
X6249030Y-13347697D01*
X6234744Y-13361983D01*
X6206172Y-13376268D01*
X6177601Y-13376268D01*
X6149030Y-13361983D01*
X6134744Y-13347697D01*
X6120458Y-13319125D01*
X6106172Y-13261983D01*
X6106172Y-13190554D01*
X6120458Y-13133411D01*
X6134744Y-13104840D01*
X6149030Y-13090554D01*
X6177601Y-13076268D01*
X6406172Y-13376268D02*
X6406172Y-13176268D01*
X6406172Y-13204840D02*
X6420458Y-13190554D01*
X6449030Y-13176268D01*
X6491887Y-13176268D01*
X6520458Y-13190554D01*
X6534744Y-13219125D01*
X6534744Y-13376268D01*
X6534744Y-13219125D02*
X6549030Y-13190554D01*
X6577601Y-13176268D01*
X6620458Y-13176268D01*
X6649030Y-13190554D01*
X6663315Y-13219125D01*
X6663315Y-13376268D01*
X6806172Y-13376268D02*
X6806172Y-13176268D01*
X6806172Y-13204840D02*
X6820458Y-13190554D01*
X6849030Y-13176268D01*
X6891887Y-13176268D01*
X6920458Y-13190554D01*
X6934744Y-13219125D01*
X6934744Y-13376268D01*
X6934744Y-13219125D02*
X6949030Y-13190554D01*
X6977601Y-13176268D01*
X7020458Y-13176268D01*
X7049030Y-13190554D01*
X7063315Y-13219125D01*
X7063315Y-13376268D01*
X7649030Y-13061983D02*
X7391887Y-13447697D01*
X8034744Y-13076268D02*
X8063315Y-13076268D01*
X8091887Y-13090554D01*
X8106172Y-13104840D01*
X8120458Y-13133411D01*
X8134744Y-13190554D01*
X8134744Y-13261983D01*
X8120458Y-13319125D01*
X8106172Y-13347697D01*
X8091887Y-13361983D01*
X8063315Y-13376268D01*
X8034744Y-13376268D01*
X8006172Y-13361983D01*
X7991887Y-13347697D01*
X7977601Y-13319125D01*
X7963315Y-13261983D01*
X7963315Y-13190554D01*
X7977601Y-13133411D01*
X7991887Y-13104840D01*
X8006172Y-13090554D01*
X8034744Y-13076268D01*
X8263315Y-13347697D02*
X8277601Y-13361983D01*
X8263315Y-13376268D01*
X8249030Y-13361983D01*
X8263315Y-13347697D01*
X8263315Y-13376268D01*
X8463315Y-13076268D02*
X8491887Y-13076268D01*
X8520458Y-13090554D01*
X8534744Y-13104840D01*
X8549030Y-13133411D01*
X8563315Y-13190554D01*
X8563315Y-13261983D01*
X8549030Y-13319125D01*
X8534744Y-13347697D01*
X8520458Y-13361983D01*
X8491887Y-13376268D01*
X8463315Y-13376268D01*
X8434744Y-13361983D01*
X8420458Y-13347697D01*
X8406172Y-13319125D01*
X8391887Y-13261983D01*
X8391887Y-13190554D01*
X8406172Y-13133411D01*
X8420458Y-13104840D01*
X8434744Y-13090554D01*
X8463315Y-13076268D01*
X8677601Y-13104840D02*
X8691887Y-13090554D01*
X8720458Y-13076268D01*
X8791887Y-13076268D01*
X8820458Y-13090554D01*
X8834744Y-13104840D01*
X8849030Y-13133411D01*
X8849030Y-13161983D01*
X8834744Y-13204840D01*
X8663315Y-13376268D01*
X8849030Y-13376268D01*
X9034744Y-13076268D02*
X9063315Y-13076268D01*
X9091887Y-13090554D01*
X9106172Y-13104840D01*
X9120458Y-13133411D01*
X9134744Y-13190554D01*
X9134744Y-13261983D01*
X9120458Y-13319125D01*
X9106172Y-13347697D01*
X9091887Y-13361983D01*
X9063315Y-13376268D01*
X9034744Y-13376268D01*
X9006172Y-13361983D01*
X8991887Y-13347697D01*
X8977601Y-13319125D01*
X8963315Y-13261983D01*
X8963315Y-13190554D01*
X8977601Y-13133411D01*
X8991887Y-13104840D01*
X9006172Y-13090554D01*
X9034744Y-13076268D01*
X9249030Y-13076268D02*
X9249030Y-13133411D01*
X9363315Y-13076268D02*
X9363315Y-13133411D01*
X9806172Y-13490554D02*
X9791887Y-13476268D01*
X9763315Y-13433411D01*
X9749030Y-13404840D01*
X9734744Y-13361983D01*
X9720458Y-13290554D01*
X9720458Y-13233411D01*
X9734744Y-13161983D01*
X9749030Y-13119125D01*
X9763315Y-13090554D01*
X9791887Y-13047697D01*
X9806172Y-13033411D01*
X10077601Y-13376268D02*
X9906172Y-13376268D01*
X9991887Y-13376268D02*
X9991887Y-13076268D01*
X9963315Y-13119125D01*
X9934744Y-13147697D01*
X9906172Y-13161983D01*
X10220458Y-13376268D02*
X10277601Y-13376268D01*
X10306172Y-13361983D01*
X10320458Y-13347697D01*
X10349030Y-13304840D01*
X10363315Y-13247697D01*
X10363315Y-13133411D01*
X10349030Y-13104840D01*
X10334744Y-13090554D01*
X10306172Y-13076268D01*
X10249030Y-13076268D01*
X10220458Y-13090554D01*
X10206172Y-13104840D01*
X10191887Y-13133411D01*
X10191887Y-13204840D01*
X10206172Y-13233411D01*
X10220458Y-13247697D01*
X10249030Y-13261983D01*
X10306172Y-13261983D01*
X10334744Y-13247697D01*
X10349030Y-13233411D01*
X10363315Y-13204840D01*
X10649030Y-13376268D02*
X10477601Y-13376268D01*
X10563315Y-13376268D02*
X10563315Y-13076268D01*
X10534744Y-13119125D01*
X10506172Y-13147697D01*
X10477601Y-13161983D01*
X11006172Y-13376268D02*
X11006172Y-13076268D01*
X11134744Y-13376268D02*
X11134744Y-13219125D01*
X11120458Y-13190554D01*
X11091887Y-13176268D01*
X11049030Y-13176268D01*
X11020458Y-13190554D01*
X11006172Y-13204840D01*
X11320458Y-13376268D02*
X11291887Y-13361983D01*
X11277601Y-13347697D01*
X11263315Y-13319125D01*
X11263315Y-13233411D01*
X11277601Y-13204840D01*
X11291887Y-13190554D01*
X11320458Y-13176268D01*
X11363315Y-13176268D01*
X11391887Y-13190554D01*
X11406172Y-13204840D01*
X11420458Y-13233411D01*
X11420458Y-13319125D01*
X11406172Y-13347697D01*
X11391887Y-13361983D01*
X11363315Y-13376268D01*
X11320458Y-13376268D01*
X11591887Y-13376268D02*
X11563315Y-13361983D01*
X11549030Y-13333411D01*
X11549030Y-13076268D01*
X11820458Y-13361983D02*
X11791887Y-13376268D01*
X11734744Y-13376268D01*
X11706172Y-13361983D01*
X11691887Y-13333411D01*
X11691887Y-13219125D01*
X11706172Y-13190554D01*
X11734744Y-13176268D01*
X11791887Y-13176268D01*
X11820458Y-13190554D01*
X11834744Y-13219125D01*
X11834744Y-13247697D01*
X11691887Y-13276268D01*
X11949030Y-13361983D02*
X11977601Y-13376268D01*
X12034744Y-13376268D01*
X12063315Y-13361983D01*
X12077601Y-13333411D01*
X12077601Y-13319125D01*
X12063315Y-13290554D01*
X12034744Y-13276268D01*
X11991887Y-13276268D01*
X11963315Y-13261983D01*
X11949030Y-13233411D01*
X11949030Y-13219125D01*
X11963315Y-13190554D01*
X11991887Y-13176268D01*
X12034744Y-13176268D01*
X12063315Y-13190554D01*
X12177601Y-13490554D02*
X12191887Y-13476268D01*
X12220458Y-13433411D01*
X12234744Y-13404840D01*
X12249030Y-13361983D01*
X12263315Y-13290554D01*
X12263315Y-13233411D01*
X12249030Y-13161983D01*
X12234744Y-13119125D01*
X12220458Y-13090554D01*
X12191887Y-13047697D01*
X12177601Y-13033411D01*
X5108585Y-13663495D02*
X5108585Y-13609613D01*
X5054703Y-13609613D01*
X5054703Y-13663495D01*
X5108585Y-13663495D01*
X5463315Y-13472268D02*
X5491887Y-13472268D01*
X5520458Y-13486554D01*
X5534744Y-13500840D01*
X5549030Y-13529411D01*
X5563315Y-13586554D01*
X5563315Y-13657983D01*
X5549030Y-13715125D01*
X5534744Y-13743697D01*
X5520458Y-13757983D01*
X5491887Y-13772268D01*
X5463315Y-13772268D01*
X5434744Y-13757983D01*
X5420458Y-13743697D01*
X5406172Y-13715125D01*
X5391887Y-13657983D01*
X5391887Y-13586554D01*
X5406172Y-13529411D01*
X5420458Y-13500840D01*
X5434744Y-13486554D01*
X5463315Y-13472268D01*
X5691887Y-13743697D02*
X5706172Y-13757983D01*
X5691887Y-13772268D01*
X5677601Y-13757983D01*
X5691887Y-13743697D01*
X5691887Y-13772268D01*
X5806172Y-13472268D02*
X6006172Y-13472268D01*
X5877601Y-13772268D01*
X6249030Y-13472268D02*
X6191887Y-13472268D01*
X6163315Y-13486554D01*
X6149030Y-13500840D01*
X6120458Y-13543697D01*
X6106172Y-13600840D01*
X6106172Y-13715125D01*
X6120458Y-13743697D01*
X6134744Y-13757983D01*
X6163315Y-13772268D01*
X6220458Y-13772268D01*
X6249030Y-13757983D01*
X6263315Y-13743697D01*
X6277601Y-13715125D01*
X6277601Y-13643697D01*
X6263315Y-13615125D01*
X6249030Y-13600840D01*
X6220458Y-13586554D01*
X6163315Y-13586554D01*
X6134744Y-13600840D01*
X6120458Y-13615125D01*
X6106172Y-13643697D01*
X6406172Y-13772268D02*
X6406172Y-13572268D01*
X6406172Y-13600840D02*
X6420458Y-13586554D01*
X6449030Y-13572268D01*
X6491887Y-13572268D01*
X6520458Y-13586554D01*
X6534744Y-13615125D01*
X6534744Y-13772268D01*
X6534744Y-13615125D02*
X6549030Y-13586554D01*
X6577601Y-13572268D01*
X6620458Y-13572268D01*
X6649030Y-13586554D01*
X6663315Y-13615125D01*
X6663315Y-13772268D01*
X6806172Y-13772268D02*
X6806172Y-13572268D01*
X6806172Y-13600840D02*
X6820458Y-13586554D01*
X6849030Y-13572268D01*
X6891887Y-13572268D01*
X6920458Y-13586554D01*
X6934744Y-13615125D01*
X6934744Y-13772268D01*
X6934744Y-13615125D02*
X6949030Y-13586554D01*
X6977601Y-13572268D01*
X7020458Y-13572268D01*
X7049030Y-13586554D01*
X7063315Y-13615125D01*
X7063315Y-13772268D01*
X7649030Y-13457983D02*
X7391887Y-13843697D01*
X8034744Y-13472268D02*
X8063315Y-13472268D01*
X8091887Y-13486554D01*
X8106172Y-13500840D01*
X8120458Y-13529411D01*
X8134744Y-13586554D01*
X8134744Y-13657983D01*
X8120458Y-13715125D01*
X8106172Y-13743697D01*
X8091887Y-13757983D01*
X8063315Y-13772268D01*
X8034744Y-13772268D01*
X8006172Y-13757983D01*
X7991887Y-13743697D01*
X7977601Y-13715125D01*
X7963315Y-13657983D01*
X7963315Y-13586554D01*
X7977601Y-13529411D01*
X7991887Y-13500840D01*
X8006172Y-13486554D01*
X8034744Y-13472268D01*
X8263315Y-13743697D02*
X8277601Y-13757983D01*
X8263315Y-13772268D01*
X8249030Y-13757983D01*
X8263315Y-13743697D01*
X8263315Y-13772268D01*
X8463315Y-13472268D02*
X8491887Y-13472268D01*
X8520458Y-13486554D01*
X8534744Y-13500840D01*
X8549030Y-13529411D01*
X8563315Y-13586554D01*
X8563315Y-13657983D01*
X8549030Y-13715125D01*
X8534744Y-13743697D01*
X8520458Y-13757983D01*
X8491887Y-13772268D01*
X8463315Y-13772268D01*
X8434744Y-13757983D01*
X8420458Y-13743697D01*
X8406172Y-13715125D01*
X8391887Y-13657983D01*
X8391887Y-13586554D01*
X8406172Y-13529411D01*
X8420458Y-13500840D01*
X8434744Y-13486554D01*
X8463315Y-13472268D01*
X8663315Y-13472268D02*
X8849030Y-13472268D01*
X8749030Y-13586554D01*
X8791887Y-13586554D01*
X8820458Y-13600840D01*
X8834744Y-13615125D01*
X8849030Y-13643697D01*
X8849030Y-13715125D01*
X8834744Y-13743697D01*
X8820458Y-13757983D01*
X8791887Y-13772268D01*
X8706172Y-13772268D01*
X8677601Y-13757983D01*
X8663315Y-13743697D01*
X9034744Y-13472268D02*
X9063315Y-13472268D01*
X9091887Y-13486554D01*
X9106172Y-13500840D01*
X9120458Y-13529411D01*
X9134744Y-13586554D01*
X9134744Y-13657983D01*
X9120458Y-13715125D01*
X9106172Y-13743697D01*
X9091887Y-13757983D01*
X9063315Y-13772268D01*
X9034744Y-13772268D01*
X9006172Y-13757983D01*
X8991887Y-13743697D01*
X8977601Y-13715125D01*
X8963315Y-13657983D01*
X8963315Y-13586554D01*
X8977601Y-13529411D01*
X8991887Y-13500840D01*
X9006172Y-13486554D01*
X9034744Y-13472268D01*
X9249030Y-13472268D02*
X9249030Y-13529411D01*
X9363315Y-13472268D02*
X9363315Y-13529411D01*
X9806172Y-13886554D02*
X9791887Y-13872268D01*
X9763315Y-13829411D01*
X9749030Y-13800840D01*
X9734744Y-13757983D01*
X9720458Y-13686554D01*
X9720458Y-13629411D01*
X9734744Y-13557983D01*
X9749030Y-13515125D01*
X9763315Y-13486554D01*
X9791887Y-13443697D01*
X9806172Y-13429411D01*
X9891887Y-13472268D02*
X10077601Y-13472268D01*
X9977601Y-13586554D01*
X10020458Y-13586554D01*
X10049030Y-13600840D01*
X10063315Y-13615125D01*
X10077601Y-13643697D01*
X10077601Y-13715125D01*
X10063315Y-13743697D01*
X10049030Y-13757983D01*
X10020458Y-13772268D01*
X9934744Y-13772268D01*
X9906172Y-13757983D01*
X9891887Y-13743697D01*
X10191887Y-13500840D02*
X10206172Y-13486554D01*
X10234744Y-13472268D01*
X10306172Y-13472268D01*
X10334744Y-13486554D01*
X10349030Y-13500840D01*
X10363315Y-13529411D01*
X10363315Y-13557983D01*
X10349030Y-13600840D01*
X10177601Y-13772268D01*
X10363315Y-13772268D01*
X10720458Y-13772268D02*
X10720458Y-13472268D01*
X10849030Y-13772268D02*
X10849030Y-13615125D01*
X10834744Y-13586554D01*
X10806172Y-13572268D01*
X10763315Y-13572268D01*
X10734744Y-13586554D01*
X10720458Y-13600840D01*
X11034744Y-13772268D02*
X11006172Y-13757983D01*
X10991887Y-13743697D01*
X10977601Y-13715125D01*
X10977601Y-13629411D01*
X10991887Y-13600840D01*
X11006172Y-13586554D01*
X11034744Y-13572268D01*
X11077601Y-13572268D01*
X11106172Y-13586554D01*
X11120458Y-13600840D01*
X11134744Y-13629411D01*
X11134744Y-13715125D01*
X11120458Y-13743697D01*
X11106172Y-13757983D01*
X11077601Y-13772268D01*
X11034744Y-13772268D01*
X11306172Y-13772268D02*
X11277601Y-13757983D01*
X11263315Y-13729411D01*
X11263315Y-13472268D01*
X11534744Y-13757983D02*
X11506172Y-13772268D01*
X11449030Y-13772268D01*
X11420458Y-13757983D01*
X11406172Y-13729411D01*
X11406172Y-13615125D01*
X11420458Y-13586554D01*
X11449030Y-13572268D01*
X11506172Y-13572268D01*
X11534744Y-13586554D01*
X11549030Y-13615125D01*
X11549030Y-13643697D01*
X11406172Y-13672268D01*
X11663315Y-13757983D02*
X11691887Y-13772268D01*
X11749030Y-13772268D01*
X11777601Y-13757983D01*
X11791887Y-13729411D01*
X11791887Y-13715125D01*
X11777601Y-13686554D01*
X11749030Y-13672268D01*
X11706172Y-13672268D01*
X11677601Y-13657983D01*
X11663315Y-13629411D01*
X11663315Y-13615125D01*
X11677601Y-13586554D01*
X11706172Y-13572268D01*
X11749030Y-13572268D01*
X11777601Y-13586554D01*
X11891887Y-13886554D02*
X11906172Y-13872268D01*
X11934744Y-13829411D01*
X11949030Y-13800840D01*
X11963315Y-13757983D01*
X11977601Y-13686554D01*
X11977601Y-13629411D01*
X11963315Y-13557983D01*
X11949030Y-13515125D01*
X11934744Y-13486554D01*
X11906172Y-13443697D01*
X11891887Y-13429411D01*
X5074744Y-14077554D02*
X5119744Y-14032554D01*
X5074744Y-13987554D01*
X5029744Y-14032554D01*
X5074744Y-14077554D01*
X5463315Y-13868268D02*
X5491887Y-13868268D01*
X5520458Y-13882554D01*
X5534744Y-13896840D01*
X5549030Y-13925411D01*
X5563315Y-13982554D01*
X5563315Y-14053983D01*
X5549030Y-14111125D01*
X5534744Y-14139697D01*
X5520458Y-14153983D01*
X5491887Y-14168268D01*
X5463315Y-14168268D01*
X5434744Y-14153983D01*
X5420458Y-14139697D01*
X5406172Y-14111125D01*
X5391887Y-14053983D01*
X5391887Y-13982554D01*
X5406172Y-13925411D01*
X5420458Y-13896840D01*
X5434744Y-13882554D01*
X5463315Y-13868268D01*
X5691887Y-14139697D02*
X5706172Y-14153983D01*
X5691887Y-14168268D01*
X5677601Y-14153983D01*
X5691887Y-14139697D01*
X5691887Y-14168268D01*
X5849030Y-14168268D02*
X5906172Y-14168268D01*
X5934744Y-14153983D01*
X5949030Y-14139697D01*
X5977601Y-14096840D01*
X5991887Y-14039697D01*
X5991887Y-13925411D01*
X5977601Y-13896840D01*
X5963315Y-13882554D01*
X5934744Y-13868268D01*
X5877601Y-13868268D01*
X5849030Y-13882554D01*
X5834744Y-13896840D01*
X5820458Y-13925411D01*
X5820458Y-13996840D01*
X5834744Y-14025411D01*
X5849030Y-14039697D01*
X5877601Y-14053983D01*
X5934744Y-14053983D01*
X5963315Y-14039697D01*
X5977601Y-14025411D01*
X5991887Y-13996840D01*
X6177601Y-13868268D02*
X6206172Y-13868268D01*
X6234744Y-13882554D01*
X6249030Y-13896840D01*
X6263315Y-13925411D01*
X6277601Y-13982554D01*
X6277601Y-14053983D01*
X6263315Y-14111125D01*
X6249030Y-14139697D01*
X6234744Y-14153983D01*
X6206172Y-14168268D01*
X6177601Y-14168268D01*
X6149030Y-14153983D01*
X6134744Y-14139697D01*
X6120458Y-14111125D01*
X6106172Y-14053983D01*
X6106172Y-13982554D01*
X6120458Y-13925411D01*
X6134744Y-13896840D01*
X6149030Y-13882554D01*
X6177601Y-13868268D01*
X6406172Y-14168268D02*
X6406172Y-13968268D01*
X6406172Y-13996840D02*
X6420458Y-13982554D01*
X6449030Y-13968268D01*
X6491887Y-13968268D01*
X6520458Y-13982554D01*
X6534744Y-14011125D01*
X6534744Y-14168268D01*
X6534744Y-14011125D02*
X6549030Y-13982554D01*
X6577601Y-13968268D01*
X6620458Y-13968268D01*
X6649030Y-13982554D01*
X6663315Y-14011125D01*
X6663315Y-14168268D01*
X6806172Y-14168268D02*
X6806172Y-13968268D01*
X6806172Y-13996840D02*
X6820458Y-13982554D01*
X6849030Y-13968268D01*
X6891887Y-13968268D01*
X6920458Y-13982554D01*
X6934744Y-14011125D01*
X6934744Y-14168268D01*
X6934744Y-14011125D02*
X6949030Y-13982554D01*
X6977601Y-13968268D01*
X7020458Y-13968268D01*
X7049030Y-13982554D01*
X7063315Y-14011125D01*
X7063315Y-14168268D01*
X7649030Y-13853983D02*
X7391887Y-14239697D01*
X8034744Y-13868268D02*
X8063315Y-13868268D01*
X8091887Y-13882554D01*
X8106172Y-13896840D01*
X8120458Y-13925411D01*
X8134744Y-13982554D01*
X8134744Y-14053983D01*
X8120458Y-14111125D01*
X8106172Y-14139697D01*
X8091887Y-14153983D01*
X8063315Y-14168268D01*
X8034744Y-14168268D01*
X8006172Y-14153983D01*
X7991887Y-14139697D01*
X7977601Y-14111125D01*
X7963315Y-14053983D01*
X7963315Y-13982554D01*
X7977601Y-13925411D01*
X7991887Y-13896840D01*
X8006172Y-13882554D01*
X8034744Y-13868268D01*
X8263315Y-14139697D02*
X8277601Y-14153983D01*
X8263315Y-14168268D01*
X8249030Y-14153983D01*
X8263315Y-14139697D01*
X8263315Y-14168268D01*
X8463315Y-13868268D02*
X8491887Y-13868268D01*
X8520458Y-13882554D01*
X8534744Y-13896840D01*
X8549030Y-13925411D01*
X8563315Y-13982554D01*
X8563315Y-14053983D01*
X8549030Y-14111125D01*
X8534744Y-14139697D01*
X8520458Y-14153983D01*
X8491887Y-14168268D01*
X8463315Y-14168268D01*
X8434744Y-14153983D01*
X8420458Y-14139697D01*
X8406172Y-14111125D01*
X8391887Y-14053983D01*
X8391887Y-13982554D01*
X8406172Y-13925411D01*
X8420458Y-13896840D01*
X8434744Y-13882554D01*
X8463315Y-13868268D01*
X8663315Y-13868268D02*
X8849030Y-13868268D01*
X8749030Y-13982554D01*
X8791887Y-13982554D01*
X8820458Y-13996840D01*
X8834744Y-14011125D01*
X8849030Y-14039697D01*
X8849030Y-14111125D01*
X8834744Y-14139697D01*
X8820458Y-14153983D01*
X8791887Y-14168268D01*
X8706172Y-14168268D01*
X8677601Y-14153983D01*
X8663315Y-14139697D01*
X9120458Y-13868268D02*
X8977601Y-13868268D01*
X8963315Y-14011125D01*
X8977601Y-13996840D01*
X9006172Y-13982554D01*
X9077601Y-13982554D01*
X9106172Y-13996840D01*
X9120458Y-14011125D01*
X9134744Y-14039697D01*
X9134744Y-14111125D01*
X9120458Y-14139697D01*
X9106172Y-14153983D01*
X9077601Y-14168268D01*
X9006172Y-14168268D01*
X8977601Y-14153983D01*
X8963315Y-14139697D01*
X9249030Y-13868268D02*
X9249030Y-13925411D01*
X9363315Y-13868268D02*
X9363315Y-13925411D01*
X9806172Y-14282554D02*
X9791887Y-14268268D01*
X9763315Y-14225411D01*
X9749030Y-14196840D01*
X9734744Y-14153983D01*
X9720458Y-14082554D01*
X9720458Y-14025411D01*
X9734744Y-13953983D01*
X9749030Y-13911125D01*
X9763315Y-13882554D01*
X9791887Y-13839697D01*
X9806172Y-13825411D01*
X9977601Y-13868268D02*
X10006172Y-13868268D01*
X10034744Y-13882554D01*
X10049030Y-13896840D01*
X10063315Y-13925411D01*
X10077601Y-13982554D01*
X10077601Y-14053983D01*
X10063315Y-14111125D01*
X10049030Y-14139697D01*
X10034744Y-14153983D01*
X10006172Y-14168268D01*
X9977601Y-14168268D01*
X9949030Y-14153983D01*
X9934744Y-14139697D01*
X9920458Y-14111125D01*
X9906172Y-14053983D01*
X9906172Y-13982554D01*
X9920458Y-13925411D01*
X9934744Y-13896840D01*
X9949030Y-13882554D01*
X9977601Y-13868268D01*
X10434744Y-14168268D02*
X10434744Y-13868268D01*
X10563315Y-14168268D02*
X10563315Y-14011125D01*
X10549030Y-13982554D01*
X10520458Y-13968268D01*
X10477601Y-13968268D01*
X10449030Y-13982554D01*
X10434744Y-13996840D01*
X10749030Y-14168268D02*
X10720458Y-14153983D01*
X10706172Y-14139697D01*
X10691887Y-14111125D01*
X10691887Y-14025411D01*
X10706172Y-13996840D01*
X10720458Y-13982554D01*
X10749030Y-13968268D01*
X10791887Y-13968268D01*
X10820458Y-13982554D01*
X10834744Y-13996840D01*
X10849030Y-14025411D01*
X10849030Y-14111125D01*
X10834744Y-14139697D01*
X10820458Y-14153983D01*
X10791887Y-14168268D01*
X10749030Y-14168268D01*
X11020458Y-14168268D02*
X10991887Y-14153983D01*
X10977601Y-14125411D01*
X10977601Y-13868268D01*
X11249030Y-14153983D02*
X11220458Y-14168268D01*
X11163315Y-14168268D01*
X11134744Y-14153983D01*
X11120458Y-14125411D01*
X11120458Y-14011125D01*
X11134744Y-13982554D01*
X11163315Y-13968268D01*
X11220458Y-13968268D01*
X11249030Y-13982554D01*
X11263315Y-14011125D01*
X11263315Y-14039697D01*
X11120458Y-14068268D01*
X11377601Y-14153983D02*
X11406172Y-14168268D01*
X11463315Y-14168268D01*
X11491887Y-14153983D01*
X11506172Y-14125411D01*
X11506172Y-14111125D01*
X11491887Y-14082554D01*
X11463315Y-14068268D01*
X11420458Y-14068268D01*
X11391887Y-14053983D01*
X11377601Y-14025411D01*
X11377601Y-14011125D01*
X11391887Y-13982554D01*
X11420458Y-13968268D01*
X11463315Y-13968268D01*
X11491887Y-13982554D01*
X11863315Y-14053983D02*
X12091887Y-14053983D01*
X11977601Y-14168268D02*
X11977601Y-13939697D01*
X12449030Y-13896840D02*
X12463315Y-13882554D01*
X12491887Y-13868268D01*
X12563315Y-13868268D01*
X12591887Y-13882554D01*
X12606172Y-13896840D01*
X12620458Y-13925411D01*
X12620458Y-13953983D01*
X12606172Y-13996840D01*
X12434744Y-14168268D01*
X12620458Y-14168268D01*
X12963315Y-14153983D02*
X12991887Y-14168268D01*
X13049030Y-14168268D01*
X13077601Y-14153983D01*
X13091887Y-14125411D01*
X13091887Y-14111125D01*
X13077601Y-14082554D01*
X13049030Y-14068268D01*
X13006172Y-14068268D01*
X12977601Y-14053983D01*
X12963315Y-14025411D01*
X12963315Y-14011125D01*
X12977601Y-13982554D01*
X13006172Y-13968268D01*
X13049030Y-13968268D01*
X13077601Y-13982554D01*
X13263315Y-14168268D02*
X13234744Y-14153983D01*
X13220458Y-14125411D01*
X13220458Y-13868268D01*
X13420458Y-14168268D02*
X13391887Y-14153983D01*
X13377601Y-14139697D01*
X13363315Y-14111125D01*
X13363315Y-14025411D01*
X13377601Y-13996840D01*
X13391887Y-13982554D01*
X13420458Y-13968268D01*
X13463315Y-13968268D01*
X13491887Y-13982554D01*
X13506172Y-13996840D01*
X13520458Y-14025411D01*
X13520458Y-14111125D01*
X13506172Y-14139697D01*
X13491887Y-14153983D01*
X13463315Y-14168268D01*
X13420458Y-14168268D01*
X13606172Y-13968268D02*
X13720458Y-13968268D01*
X13649030Y-13868268D02*
X13649030Y-14125411D01*
X13663315Y-14153983D01*
X13691887Y-14168268D01*
X13720458Y-14168268D01*
X13806172Y-14153983D02*
X13834744Y-14168268D01*
X13891887Y-14168268D01*
X13920458Y-14153983D01*
X13934744Y-14125411D01*
X13934744Y-14111125D01*
X13920458Y-14082554D01*
X13891887Y-14068268D01*
X13849030Y-14068268D01*
X13820458Y-14053983D01*
X13806172Y-14025411D01*
X13806172Y-14011125D01*
X13820458Y-13982554D01*
X13849030Y-13968268D01*
X13891887Y-13968268D01*
X13920458Y-13982554D01*
X14034744Y-14282554D02*
X14049030Y-14268268D01*
X14077601Y-14225411D01*
X14091887Y-14196840D01*
X14106172Y-14153983D01*
X14120458Y-14082554D01*
X14120458Y-14025411D01*
X14106172Y-13953983D01*
X14091887Y-13911125D01*
X14077601Y-13882554D01*
X14049030Y-13839697D01*
X14034744Y-13825411D01*
X5019744Y-14378554D02*
X5119744Y-14478554D01*
X5119744Y-14378554D02*
X5019744Y-14478554D01*
X5119744Y-14428554D02*
G75*
G03X5119744Y-14428554I-50000J0D01*
G01*
X5563315Y-14564268D02*
X5391887Y-14564268D01*
X5477601Y-14564268D02*
X5477601Y-14264268D01*
X5449030Y-14307125D01*
X5420458Y-14335697D01*
X5391887Y-14349983D01*
X5691887Y-14535697D02*
X5706172Y-14549983D01*
X5691887Y-14564268D01*
X5677601Y-14549983D01*
X5691887Y-14535697D01*
X5691887Y-14564268D01*
X5891887Y-14264268D02*
X5920458Y-14264268D01*
X5949030Y-14278554D01*
X5963315Y-14292840D01*
X5977601Y-14321411D01*
X5991887Y-14378554D01*
X5991887Y-14449983D01*
X5977601Y-14507125D01*
X5963315Y-14535697D01*
X5949030Y-14549983D01*
X5920458Y-14564268D01*
X5891887Y-14564268D01*
X5863315Y-14549983D01*
X5849030Y-14535697D01*
X5834744Y-14507125D01*
X5820458Y-14449983D01*
X5820458Y-14378554D01*
X5834744Y-14321411D01*
X5849030Y-14292840D01*
X5863315Y-14278554D01*
X5891887Y-14264268D01*
X6177601Y-14264268D02*
X6206172Y-14264268D01*
X6234744Y-14278554D01*
X6249030Y-14292840D01*
X6263315Y-14321411D01*
X6277601Y-14378554D01*
X6277601Y-14449983D01*
X6263315Y-14507125D01*
X6249030Y-14535697D01*
X6234744Y-14549983D01*
X6206172Y-14564268D01*
X6177601Y-14564268D01*
X6149030Y-14549983D01*
X6134744Y-14535697D01*
X6120458Y-14507125D01*
X6106172Y-14449983D01*
X6106172Y-14378554D01*
X6120458Y-14321411D01*
X6134744Y-14292840D01*
X6149030Y-14278554D01*
X6177601Y-14264268D01*
X6406172Y-14564268D02*
X6406172Y-14364268D01*
X6406172Y-14392840D02*
X6420458Y-14378554D01*
X6449030Y-14364268D01*
X6491887Y-14364268D01*
X6520458Y-14378554D01*
X6534744Y-14407125D01*
X6534744Y-14564268D01*
X6534744Y-14407125D02*
X6549030Y-14378554D01*
X6577601Y-14364268D01*
X6620458Y-14364268D01*
X6649030Y-14378554D01*
X6663315Y-14407125D01*
X6663315Y-14564268D01*
X6806172Y-14564268D02*
X6806172Y-14364268D01*
X6806172Y-14392840D02*
X6820458Y-14378554D01*
X6849030Y-14364268D01*
X6891887Y-14364268D01*
X6920458Y-14378554D01*
X6934744Y-14407125D01*
X6934744Y-14564268D01*
X6934744Y-14407125D02*
X6949030Y-14378554D01*
X6977601Y-14364268D01*
X7020458Y-14364268D01*
X7049030Y-14378554D01*
X7063315Y-14407125D01*
X7063315Y-14564268D01*
X7649030Y-14249983D02*
X7391887Y-14635697D01*
X8034744Y-14264268D02*
X8063315Y-14264268D01*
X8091887Y-14278554D01*
X8106172Y-14292840D01*
X8120458Y-14321411D01*
X8134744Y-14378554D01*
X8134744Y-14449983D01*
X8120458Y-14507125D01*
X8106172Y-14535697D01*
X8091887Y-14549983D01*
X8063315Y-14564268D01*
X8034744Y-14564268D01*
X8006172Y-14549983D01*
X7991887Y-14535697D01*
X7977601Y-14507125D01*
X7963315Y-14449983D01*
X7963315Y-14378554D01*
X7977601Y-14321411D01*
X7991887Y-14292840D01*
X8006172Y-14278554D01*
X8034744Y-14264268D01*
X8263315Y-14535697D02*
X8277601Y-14549983D01*
X8263315Y-14564268D01*
X8249030Y-14549983D01*
X8263315Y-14535697D01*
X8263315Y-14564268D01*
X8463315Y-14264268D02*
X8491887Y-14264268D01*
X8520458Y-14278554D01*
X8534744Y-14292840D01*
X8549030Y-14321411D01*
X8563315Y-14378554D01*
X8563315Y-14449983D01*
X8549030Y-14507125D01*
X8534744Y-14535697D01*
X8520458Y-14549983D01*
X8491887Y-14564268D01*
X8463315Y-14564268D01*
X8434744Y-14549983D01*
X8420458Y-14535697D01*
X8406172Y-14507125D01*
X8391887Y-14449983D01*
X8391887Y-14378554D01*
X8406172Y-14321411D01*
X8420458Y-14292840D01*
X8434744Y-14278554D01*
X8463315Y-14264268D01*
X8663315Y-14264268D02*
X8849030Y-14264268D01*
X8749030Y-14378554D01*
X8791887Y-14378554D01*
X8820458Y-14392840D01*
X8834744Y-14407125D01*
X8849030Y-14435697D01*
X8849030Y-14507125D01*
X8834744Y-14535697D01*
X8820458Y-14549983D01*
X8791887Y-14564268D01*
X8706172Y-14564268D01*
X8677601Y-14549983D01*
X8663315Y-14535697D01*
X8991887Y-14564268D02*
X9049030Y-14564268D01*
X9077601Y-14549983D01*
X9091887Y-14535697D01*
X9120458Y-14492840D01*
X9134744Y-14435697D01*
X9134744Y-14321411D01*
X9120458Y-14292840D01*
X9106172Y-14278554D01*
X9077601Y-14264268D01*
X9020458Y-14264268D01*
X8991887Y-14278554D01*
X8977601Y-14292840D01*
X8963315Y-14321411D01*
X8963315Y-14392840D01*
X8977601Y-14421411D01*
X8991887Y-14435697D01*
X9020458Y-14449983D01*
X9077601Y-14449983D01*
X9106172Y-14435697D01*
X9120458Y-14421411D01*
X9134744Y-14392840D01*
X9249030Y-14264268D02*
X9249030Y-14321411D01*
X9363315Y-14264268D02*
X9363315Y-14321411D01*
X9806172Y-14678554D02*
X9791887Y-14664268D01*
X9763315Y-14621411D01*
X9749030Y-14592840D01*
X9734744Y-14549983D01*
X9720458Y-14478554D01*
X9720458Y-14421411D01*
X9734744Y-14349983D01*
X9749030Y-14307125D01*
X9763315Y-14278554D01*
X9791887Y-14235697D01*
X9806172Y-14221411D01*
X10049030Y-14264268D02*
X9991887Y-14264268D01*
X9963315Y-14278554D01*
X9949030Y-14292840D01*
X9920458Y-14335697D01*
X9906172Y-14392840D01*
X9906172Y-14507125D01*
X9920458Y-14535697D01*
X9934744Y-14549983D01*
X9963315Y-14564268D01*
X10020458Y-14564268D01*
X10049030Y-14549983D01*
X10063315Y-14535697D01*
X10077601Y-14507125D01*
X10077601Y-14435697D01*
X10063315Y-14407125D01*
X10049030Y-14392840D01*
X10020458Y-14378554D01*
X9963315Y-14378554D01*
X9934744Y-14392840D01*
X9920458Y-14407125D01*
X9906172Y-14435697D01*
X10220458Y-14564268D02*
X10277601Y-14564268D01*
X10306172Y-14549983D01*
X10320458Y-14535697D01*
X10349030Y-14492840D01*
X10363315Y-14435697D01*
X10363315Y-14321411D01*
X10349030Y-14292840D01*
X10334744Y-14278554D01*
X10306172Y-14264268D01*
X10249030Y-14264268D01*
X10220458Y-14278554D01*
X10206172Y-14292840D01*
X10191887Y-14321411D01*
X10191887Y-14392840D01*
X10206172Y-14421411D01*
X10220458Y-14435697D01*
X10249030Y-14449983D01*
X10306172Y-14449983D01*
X10334744Y-14435697D01*
X10349030Y-14421411D01*
X10363315Y-14392840D01*
X10720458Y-14564268D02*
X10720458Y-14264268D01*
X10849030Y-14564268D02*
X10849030Y-14407125D01*
X10834744Y-14378554D01*
X10806172Y-14364268D01*
X10763315Y-14364268D01*
X10734744Y-14378554D01*
X10720458Y-14392840D01*
X11034744Y-14564268D02*
X11006172Y-14549983D01*
X10991887Y-14535697D01*
X10977601Y-14507125D01*
X10977601Y-14421411D01*
X10991887Y-14392840D01*
X11006172Y-14378554D01*
X11034744Y-14364268D01*
X11077601Y-14364268D01*
X11106172Y-14378554D01*
X11120458Y-14392840D01*
X11134744Y-14421411D01*
X11134744Y-14507125D01*
X11120458Y-14535697D01*
X11106172Y-14549983D01*
X11077601Y-14564268D01*
X11034744Y-14564268D01*
X11306172Y-14564268D02*
X11277601Y-14549983D01*
X11263315Y-14521411D01*
X11263315Y-14264268D01*
X11534744Y-14549983D02*
X11506172Y-14564268D01*
X11449030Y-14564268D01*
X11420458Y-14549983D01*
X11406172Y-14521411D01*
X11406172Y-14407125D01*
X11420458Y-14378554D01*
X11449030Y-14364268D01*
X11506172Y-14364268D01*
X11534744Y-14378554D01*
X11549030Y-14407125D01*
X11549030Y-14435697D01*
X11406172Y-14464268D01*
X11663315Y-14549983D02*
X11691887Y-14564268D01*
X11749030Y-14564268D01*
X11777601Y-14549983D01*
X11791887Y-14521411D01*
X11791887Y-14507125D01*
X11777601Y-14478554D01*
X11749030Y-14464268D01*
X11706172Y-14464268D01*
X11677601Y-14449983D01*
X11663315Y-14421411D01*
X11663315Y-14407125D01*
X11677601Y-14378554D01*
X11706172Y-14364268D01*
X11749030Y-14364268D01*
X11777601Y-14378554D01*
X11891887Y-14678554D02*
X11906172Y-14664268D01*
X11934744Y-14621411D01*
X11949030Y-14592840D01*
X11963315Y-14549983D01*
X11977601Y-14478554D01*
X11977601Y-14421411D01*
X11963315Y-14349983D01*
X11949030Y-14307125D01*
X11934744Y-14278554D01*
X11906172Y-14235697D01*
X11891887Y-14221411D01*
X4849744Y-14689554D02*
X5119744Y-14959554D01*
X5119744Y-14689554D02*
X4849744Y-14959554D01*
X4984744Y-14689554D02*
X4984744Y-14959554D01*
X4849744Y-14824554D02*
X5119744Y-14824554D01*
X5391887Y-14688840D02*
X5406172Y-14674554D01*
X5434744Y-14660268D01*
X5506172Y-14660268D01*
X5534744Y-14674554D01*
X5549030Y-14688840D01*
X5563315Y-14717411D01*
X5563315Y-14745983D01*
X5549030Y-14788840D01*
X5377601Y-14960268D01*
X5563315Y-14960268D01*
X5691887Y-14931697D02*
X5706172Y-14945983D01*
X5691887Y-14960268D01*
X5677601Y-14945983D01*
X5691887Y-14931697D01*
X5691887Y-14960268D01*
X5806172Y-14660268D02*
X6006172Y-14660268D01*
X5877601Y-14960268D01*
X6177601Y-14660268D02*
X6206172Y-14660268D01*
X6234744Y-14674554D01*
X6249030Y-14688840D01*
X6263315Y-14717411D01*
X6277601Y-14774554D01*
X6277601Y-14845983D01*
X6263315Y-14903125D01*
X6249030Y-14931697D01*
X6234744Y-14945983D01*
X6206172Y-14960268D01*
X6177601Y-14960268D01*
X6149030Y-14945983D01*
X6134744Y-14931697D01*
X6120458Y-14903125D01*
X6106172Y-14845983D01*
X6106172Y-14774554D01*
X6120458Y-14717411D01*
X6134744Y-14688840D01*
X6149030Y-14674554D01*
X6177601Y-14660268D01*
X6406172Y-14960268D02*
X6406172Y-14760268D01*
X6406172Y-14788840D02*
X6420458Y-14774554D01*
X6449030Y-14760268D01*
X6491887Y-14760268D01*
X6520458Y-14774554D01*
X6534744Y-14803125D01*
X6534744Y-14960268D01*
X6534744Y-14803125D02*
X6549030Y-14774554D01*
X6577601Y-14760268D01*
X6620458Y-14760268D01*
X6649030Y-14774554D01*
X6663315Y-14803125D01*
X6663315Y-14960268D01*
X6806172Y-14960268D02*
X6806172Y-14760268D01*
X6806172Y-14788840D02*
X6820458Y-14774554D01*
X6849030Y-14760268D01*
X6891887Y-14760268D01*
X6920458Y-14774554D01*
X6934744Y-14803125D01*
X6934744Y-14960268D01*
X6934744Y-14803125D02*
X6949030Y-14774554D01*
X6977601Y-14760268D01*
X7020458Y-14760268D01*
X7049030Y-14774554D01*
X7063315Y-14803125D01*
X7063315Y-14960268D01*
X7649030Y-14645983D02*
X7391887Y-15031697D01*
X8034744Y-14660268D02*
X8063315Y-14660268D01*
X8091887Y-14674554D01*
X8106172Y-14688840D01*
X8120458Y-14717411D01*
X8134744Y-14774554D01*
X8134744Y-14845983D01*
X8120458Y-14903125D01*
X8106172Y-14931697D01*
X8091887Y-14945983D01*
X8063315Y-14960268D01*
X8034744Y-14960268D01*
X8006172Y-14945983D01*
X7991887Y-14931697D01*
X7977601Y-14903125D01*
X7963315Y-14845983D01*
X7963315Y-14774554D01*
X7977601Y-14717411D01*
X7991887Y-14688840D01*
X8006172Y-14674554D01*
X8034744Y-14660268D01*
X8263315Y-14931697D02*
X8277601Y-14945983D01*
X8263315Y-14960268D01*
X8249030Y-14945983D01*
X8263315Y-14931697D01*
X8263315Y-14960268D01*
X8563315Y-14960268D02*
X8391887Y-14960268D01*
X8477601Y-14960268D02*
X8477601Y-14660268D01*
X8449030Y-14703125D01*
X8420458Y-14731697D01*
X8391887Y-14745983D01*
X8749030Y-14660268D02*
X8777601Y-14660268D01*
X8806172Y-14674554D01*
X8820458Y-14688840D01*
X8834744Y-14717411D01*
X8849030Y-14774554D01*
X8849030Y-14845983D01*
X8834744Y-14903125D01*
X8820458Y-14931697D01*
X8806172Y-14945983D01*
X8777601Y-14960268D01*
X8749030Y-14960268D01*
X8720458Y-14945983D01*
X8706172Y-14931697D01*
X8691887Y-14903125D01*
X8677601Y-14845983D01*
X8677601Y-14774554D01*
X8691887Y-14717411D01*
X8706172Y-14688840D01*
X8720458Y-14674554D01*
X8749030Y-14660268D01*
X9106172Y-14660268D02*
X9049030Y-14660268D01*
X9020458Y-14674554D01*
X9006172Y-14688840D01*
X8977601Y-14731697D01*
X8963315Y-14788840D01*
X8963315Y-14903125D01*
X8977601Y-14931697D01*
X8991887Y-14945983D01*
X9020458Y-14960268D01*
X9077601Y-14960268D01*
X9106172Y-14945983D01*
X9120458Y-14931697D01*
X9134744Y-14903125D01*
X9134744Y-14831697D01*
X9120458Y-14803125D01*
X9106172Y-14788840D01*
X9077601Y-14774554D01*
X9020458Y-14774554D01*
X8991887Y-14788840D01*
X8977601Y-14803125D01*
X8963315Y-14831697D01*
X9249030Y-14660268D02*
X9249030Y-14717411D01*
X9363315Y-14660268D02*
X9363315Y-14717411D01*
X9806172Y-15074554D02*
X9791887Y-15060268D01*
X9763315Y-15017411D01*
X9749030Y-14988840D01*
X9734744Y-14945983D01*
X9720458Y-14874554D01*
X9720458Y-14817411D01*
X9734744Y-14745983D01*
X9749030Y-14703125D01*
X9763315Y-14674554D01*
X9791887Y-14631697D01*
X9806172Y-14617411D01*
X10049030Y-14760268D02*
X10049030Y-14960268D01*
X9977601Y-14645983D02*
X9906172Y-14860268D01*
X10091887Y-14860268D01*
X10434744Y-14960268D02*
X10434744Y-14660268D01*
X10563315Y-14960268D02*
X10563315Y-14803125D01*
X10549030Y-14774554D01*
X10520458Y-14760268D01*
X10477601Y-14760268D01*
X10449030Y-14774554D01*
X10434744Y-14788840D01*
X10749030Y-14960268D02*
X10720458Y-14945983D01*
X10706172Y-14931697D01*
X10691887Y-14903125D01*
X10691887Y-14817411D01*
X10706172Y-14788840D01*
X10720458Y-14774554D01*
X10749030Y-14760268D01*
X10791887Y-14760268D01*
X10820458Y-14774554D01*
X10834744Y-14788840D01*
X10849030Y-14817411D01*
X10849030Y-14903125D01*
X10834744Y-14931697D01*
X10820458Y-14945983D01*
X10791887Y-14960268D01*
X10749030Y-14960268D01*
X11020458Y-14960268D02*
X10991887Y-14945983D01*
X10977601Y-14917411D01*
X10977601Y-14660268D01*
X11249030Y-14945983D02*
X11220458Y-14960268D01*
X11163315Y-14960268D01*
X11134744Y-14945983D01*
X11120458Y-14917411D01*
X11120458Y-14803125D01*
X11134744Y-14774554D01*
X11163315Y-14760268D01*
X11220458Y-14760268D01*
X11249030Y-14774554D01*
X11263315Y-14803125D01*
X11263315Y-14831697D01*
X11120458Y-14860268D01*
X11377601Y-14945983D02*
X11406172Y-14960268D01*
X11463315Y-14960268D01*
X11491887Y-14945983D01*
X11506172Y-14917411D01*
X11506172Y-14903125D01*
X11491887Y-14874554D01*
X11463315Y-14860268D01*
X11420458Y-14860268D01*
X11391887Y-14845983D01*
X11377601Y-14817411D01*
X11377601Y-14803125D01*
X11391887Y-14774554D01*
X11420458Y-14760268D01*
X11463315Y-14760268D01*
X11491887Y-14774554D01*
X11606172Y-15074554D02*
X11620458Y-15060268D01*
X11649030Y-15017411D01*
X11663315Y-14988840D01*
X11677601Y-14945983D01*
X11691887Y-14874554D01*
X11691887Y-14817411D01*
X11677601Y-14745983D01*
X11663315Y-14703125D01*
X11649030Y-14674554D01*
X11620458Y-14631697D01*
X11606172Y-14617411D01*
X5009744Y-15169554D02*
X5119744Y-15279554D01*
X5119744Y-15169554D02*
X5009744Y-15279554D01*
X5103635Y-15263445D02*
X5103635Y-15185663D01*
X5025853Y-15185663D01*
X5025853Y-15263445D01*
X5103635Y-15263445D01*
X5563315Y-15360268D02*
X5391887Y-15360268D01*
X5477601Y-15360268D02*
X5477601Y-15060268D01*
X5449030Y-15103125D01*
X5420458Y-15131697D01*
X5391887Y-15145983D01*
X5691887Y-15331697D02*
X5706172Y-15345983D01*
X5691887Y-15360268D01*
X5677601Y-15345983D01*
X5691887Y-15331697D01*
X5691887Y-15360268D01*
X5991887Y-15360268D02*
X5820458Y-15360268D01*
X5906172Y-15360268D02*
X5906172Y-15060268D01*
X5877601Y-15103125D01*
X5849030Y-15131697D01*
X5820458Y-15145983D01*
X6177601Y-15060268D02*
X6206172Y-15060268D01*
X6234744Y-15074554D01*
X6249030Y-15088840D01*
X6263315Y-15117411D01*
X6277601Y-15174554D01*
X6277601Y-15245983D01*
X6263315Y-15303125D01*
X6249030Y-15331697D01*
X6234744Y-15345983D01*
X6206172Y-15360268D01*
X6177601Y-15360268D01*
X6149030Y-15345983D01*
X6134744Y-15331697D01*
X6120458Y-15303125D01*
X6106172Y-15245983D01*
X6106172Y-15174554D01*
X6120458Y-15117411D01*
X6134744Y-15088840D01*
X6149030Y-15074554D01*
X6177601Y-15060268D01*
X6406172Y-15360268D02*
X6406172Y-15160268D01*
X6406172Y-15188840D02*
X6420458Y-15174554D01*
X6449030Y-15160268D01*
X6491887Y-15160268D01*
X6520458Y-15174554D01*
X6534744Y-15203125D01*
X6534744Y-15360268D01*
X6534744Y-15203125D02*
X6549030Y-15174554D01*
X6577601Y-15160268D01*
X6620458Y-15160268D01*
X6649030Y-15174554D01*
X6663315Y-15203125D01*
X6663315Y-15360268D01*
X6806172Y-15360268D02*
X6806172Y-15160268D01*
X6806172Y-15188840D02*
X6820458Y-15174554D01*
X6849030Y-15160268D01*
X6891887Y-15160268D01*
X6920458Y-15174554D01*
X6934744Y-15203125D01*
X6934744Y-15360268D01*
X6934744Y-15203125D02*
X6949030Y-15174554D01*
X6977601Y-15160268D01*
X7020458Y-15160268D01*
X7049030Y-15174554D01*
X7063315Y-15203125D01*
X7063315Y-15360268D01*
X7649030Y-15045983D02*
X7391887Y-15431697D01*
X8034744Y-15060268D02*
X8063315Y-15060268D01*
X8091887Y-15074554D01*
X8106172Y-15088840D01*
X8120458Y-15117411D01*
X8134744Y-15174554D01*
X8134744Y-15245983D01*
X8120458Y-15303125D01*
X8106172Y-15331697D01*
X8091887Y-15345983D01*
X8063315Y-15360268D01*
X8034744Y-15360268D01*
X8006172Y-15345983D01*
X7991887Y-15331697D01*
X7977601Y-15303125D01*
X7963315Y-15245983D01*
X7963315Y-15174554D01*
X7977601Y-15117411D01*
X7991887Y-15088840D01*
X8006172Y-15074554D01*
X8034744Y-15060268D01*
X8263315Y-15331697D02*
X8277601Y-15345983D01*
X8263315Y-15360268D01*
X8249030Y-15345983D01*
X8263315Y-15331697D01*
X8263315Y-15360268D01*
X8463315Y-15060268D02*
X8491887Y-15060268D01*
X8520458Y-15074554D01*
X8534744Y-15088840D01*
X8549030Y-15117411D01*
X8563315Y-15174554D01*
X8563315Y-15245983D01*
X8549030Y-15303125D01*
X8534744Y-15331697D01*
X8520458Y-15345983D01*
X8491887Y-15360268D01*
X8463315Y-15360268D01*
X8434744Y-15345983D01*
X8420458Y-15331697D01*
X8406172Y-15303125D01*
X8391887Y-15245983D01*
X8391887Y-15174554D01*
X8406172Y-15117411D01*
X8420458Y-15088840D01*
X8434744Y-15074554D01*
X8463315Y-15060268D01*
X8820458Y-15160268D02*
X8820458Y-15360268D01*
X8749030Y-15045983D02*
X8677601Y-15260268D01*
X8863315Y-15260268D01*
X8949030Y-15060268D02*
X9134744Y-15060268D01*
X9034744Y-15174554D01*
X9077601Y-15174554D01*
X9106172Y-15188840D01*
X9120458Y-15203125D01*
X9134744Y-15231697D01*
X9134744Y-15303125D01*
X9120458Y-15331697D01*
X9106172Y-15345983D01*
X9077601Y-15360268D01*
X8991887Y-15360268D01*
X8963315Y-15345983D01*
X8949030Y-15331697D01*
X9249030Y-15060268D02*
X9249030Y-15117411D01*
X9363315Y-15060268D02*
X9363315Y-15117411D01*
X9806172Y-15474554D02*
X9791887Y-15460268D01*
X9763315Y-15417411D01*
X9749030Y-15388840D01*
X9734744Y-15345983D01*
X9720458Y-15274554D01*
X9720458Y-15217411D01*
X9734744Y-15145983D01*
X9749030Y-15103125D01*
X9763315Y-15074554D01*
X9791887Y-15031697D01*
X9806172Y-15017411D01*
X9906172Y-15088840D02*
X9920458Y-15074554D01*
X9949030Y-15060268D01*
X10020458Y-15060268D01*
X10049030Y-15074554D01*
X10063315Y-15088840D01*
X10077601Y-15117411D01*
X10077601Y-15145983D01*
X10063315Y-15188840D01*
X9891887Y-15360268D01*
X10077601Y-15360268D01*
X10434744Y-15360268D02*
X10434744Y-15060268D01*
X10563315Y-15360268D02*
X10563315Y-15203125D01*
X10549030Y-15174554D01*
X10520458Y-15160268D01*
X10477601Y-15160268D01*
X10449030Y-15174554D01*
X10434744Y-15188840D01*
X10749030Y-15360268D02*
X10720458Y-15345983D01*
X10706172Y-15331697D01*
X10691887Y-15303125D01*
X10691887Y-15217411D01*
X10706172Y-15188840D01*
X10720458Y-15174554D01*
X10749030Y-15160268D01*
X10791887Y-15160268D01*
X10820458Y-15174554D01*
X10834744Y-15188840D01*
X10849030Y-15217411D01*
X10849030Y-15303125D01*
X10834744Y-15331697D01*
X10820458Y-15345983D01*
X10791887Y-15360268D01*
X10749030Y-15360268D01*
X11020458Y-15360268D02*
X10991887Y-15345983D01*
X10977601Y-15317411D01*
X10977601Y-15060268D01*
X11249030Y-15345983D02*
X11220458Y-15360268D01*
X11163315Y-15360268D01*
X11134744Y-15345983D01*
X11120458Y-15317411D01*
X11120458Y-15203125D01*
X11134744Y-15174554D01*
X11163315Y-15160268D01*
X11220458Y-15160268D01*
X11249030Y-15174554D01*
X11263315Y-15203125D01*
X11263315Y-15231697D01*
X11120458Y-15260268D01*
X11377601Y-15345983D02*
X11406172Y-15360268D01*
X11463315Y-15360268D01*
X11491887Y-15345983D01*
X11506172Y-15317411D01*
X11506172Y-15303125D01*
X11491887Y-15274554D01*
X11463315Y-15260268D01*
X11420458Y-15260268D01*
X11391887Y-15245983D01*
X11377601Y-15217411D01*
X11377601Y-15203125D01*
X11391887Y-15174554D01*
X11420458Y-15160268D01*
X11463315Y-15160268D01*
X11491887Y-15174554D01*
X11606172Y-15474554D02*
X11620458Y-15460268D01*
X11649030Y-15417411D01*
X11663315Y-15388840D01*
X11677601Y-15345983D01*
X11691887Y-15274554D01*
X11691887Y-15217411D01*
X11677601Y-15145983D01*
X11663315Y-15103125D01*
X11649030Y-15074554D01*
X11620458Y-15031697D01*
X11606172Y-15017411D01*
X12149030Y-15474554D02*
X12134744Y-15460268D01*
X12106172Y-15417411D01*
X12091887Y-15388840D01*
X12077601Y-15345983D01*
X12063315Y-15274554D01*
X12063315Y-15217411D01*
X12077601Y-15145983D01*
X12091887Y-15103125D01*
X12106172Y-15074554D01*
X12134744Y-15031697D01*
X12149030Y-15017411D01*
X12263315Y-15160268D02*
X12263315Y-15360268D01*
X12263315Y-15188840D02*
X12277601Y-15174554D01*
X12306172Y-15160268D01*
X12349030Y-15160268D01*
X12377601Y-15174554D01*
X12391887Y-15203125D01*
X12391887Y-15360268D01*
X12577601Y-15360268D02*
X12549030Y-15345983D01*
X12534744Y-15331697D01*
X12520458Y-15303125D01*
X12520458Y-15217411D01*
X12534744Y-15188840D01*
X12549030Y-15174554D01*
X12577601Y-15160268D01*
X12620458Y-15160268D01*
X12649030Y-15174554D01*
X12663315Y-15188840D01*
X12677601Y-15217411D01*
X12677601Y-15303125D01*
X12663315Y-15331697D01*
X12649030Y-15345983D01*
X12620458Y-15360268D01*
X12577601Y-15360268D01*
X12763315Y-15160268D02*
X12877601Y-15160268D01*
X12806172Y-15060268D02*
X12806172Y-15317411D01*
X12820458Y-15345983D01*
X12849030Y-15360268D01*
X12877601Y-15360268D01*
X13206172Y-15160268D02*
X13206172Y-15460268D01*
X13206172Y-15174554D02*
X13234744Y-15160268D01*
X13291887Y-15160268D01*
X13320458Y-15174554D01*
X13334744Y-15188840D01*
X13349030Y-15217411D01*
X13349030Y-15303125D01*
X13334744Y-15331697D01*
X13320458Y-15345983D01*
X13291887Y-15360268D01*
X13234744Y-15360268D01*
X13206172Y-15345983D01*
X13520458Y-15360268D02*
X13491887Y-15345983D01*
X13477601Y-15317411D01*
X13477601Y-15060268D01*
X13763315Y-15360268D02*
X13763315Y-15203125D01*
X13749030Y-15174554D01*
X13720458Y-15160268D01*
X13663315Y-15160268D01*
X13634744Y-15174554D01*
X13763315Y-15345983D02*
X13734744Y-15360268D01*
X13663315Y-15360268D01*
X13634744Y-15345983D01*
X13620458Y-15317411D01*
X13620458Y-15288840D01*
X13634744Y-15260268D01*
X13663315Y-15245983D01*
X13734744Y-15245983D01*
X13763315Y-15231697D01*
X13863315Y-15160268D02*
X13977601Y-15160268D01*
X13906172Y-15060268D02*
X13906172Y-15317411D01*
X13920458Y-15345983D01*
X13949030Y-15360268D01*
X13977601Y-15360268D01*
X14191887Y-15345983D02*
X14163315Y-15360268D01*
X14106172Y-15360268D01*
X14077601Y-15345983D01*
X14063315Y-15317411D01*
X14063315Y-15203125D01*
X14077601Y-15174554D01*
X14106172Y-15160268D01*
X14163315Y-15160268D01*
X14191887Y-15174554D01*
X14206172Y-15203125D01*
X14206172Y-15231697D01*
X14063315Y-15260268D01*
X14463315Y-15360268D02*
X14463315Y-15060268D01*
X14463315Y-15345983D02*
X14434744Y-15360268D01*
X14377601Y-15360268D01*
X14349030Y-15345983D01*
X14334744Y-15331697D01*
X14320458Y-15303125D01*
X14320458Y-15217411D01*
X14334744Y-15188840D01*
X14349030Y-15174554D01*
X14377601Y-15160268D01*
X14434744Y-15160268D01*
X14463315Y-15174554D01*
X14577601Y-15474554D02*
X14591887Y-15460268D01*
X14620458Y-15417411D01*
X14634744Y-15388840D01*
X14649030Y-15345983D01*
X14663315Y-15274554D01*
X14663315Y-15217411D01*
X14649030Y-15145983D01*
X14634744Y-15103125D01*
X14620458Y-15074554D01*
X14591887Y-15031697D01*
X14577601Y-15017411D01*
M02*
