M48
; DRILL file {KiCad 6.0.0-unknown-cbea514~86~ubuntu18.04.1} date jue 13 jun 2019 15:54:14 -05
; FORMAT={-:-/ absolute / inch / decimal}
; #@! TF.CreationDate,2019-06-13T15:54:14-05:00
; #@! TF.GenerationSoftware,Kicad,Pcbnew,6.0.0-unknown-cbea514~86~ubuntu18.04.1
FMAT,2
INCH
T1C0.0118
T2C0.0157
T3C0.0197
T4C0.0300
T5C0.0354
T6C0.0394
T7C0.1063
T8C0.0433
%
G90
G05
T1
X2.1827Y-2.6019
X2.3562Y-3.0789
X2.362Y-2.5669
X2.3652Y-2.657
X2.4203Y-2.981
X2.445Y-3.4566
X2.4524Y-2.5666
X2.4526Y-2.657
X2.5017Y-2.9615
X2.5704Y-2.9596
X2.6759Y-3.2843
X2.6779Y-3.2438
X2.788Y-2.544
X2.8016Y-2.6277
X2.8675Y-2.6356
X2.8708Y-2.4586
X2.9122Y-3.2984
X2.9122Y-3.3315
X2.933Y-3.67
X2.948Y-2.43
X2.9688Y-2.8137
X2.9688Y-1.0142
X2.9737Y-2.42
X2.9776Y-2.9071
X2.9778Y-3.6543
X3.0071Y-2.2581
X3.0284Y-2.82
X3.0467Y-2.855
X3.0784Y-2.8266
X3.0889Y-2.8993
X3.1056Y-2.8227
X3.1106Y-2.4149
X3.1372Y-2.8236
X3.1606Y-2.3985
X3.1723Y-2.3693
X3.245Y-3.768
X3.2499Y-2.6512
X3.2533Y-2.5605
X3.2682Y-2.7354
X3.2759Y-2.7049
X3.31Y-3.81
X3.362Y-3.564
X3.3786Y-3.2554
X3.5009Y-3.3108
X3.5194Y-3.6002
X3.5428Y-3.1811
X3.5432Y-3.2076
X3.5436Y-3.2306
X3.56Y-3.3675
X3.5691Y-3.2071
X3.57Y-3.1821
X3.5705Y-3.2316
X3.588Y-3.08
X3.5895Y-3.6016
X3.5945Y-3.1812
X3.5945Y-3.2081
X3.5955Y-3.2311
X3.638Y-3.484
X3.663Y-3.104
X3.687Y-2.3943
X3.6872Y-2.329
X3.6932Y-3.0498
X3.7418Y-2.1294
X3.7463Y-3.2362
X3.7897Y-2.1756
X3.8479Y-2.0782
X3.8483Y-2.0089
X3.8649Y-3.2517
X3.8741Y-2.797
X3.8771Y-2.3698
X3.8779Y-2.7278
X3.878Y-2.5746
X3.9019Y-2.3309
X3.9039Y-2.7973
X3.9348Y-2.7987
X3.9423Y-2.9043
X3.9467Y-2.3342
X3.9546Y-3.1131
X3.9615Y-3.2473
X3.9682Y-3.9965
X3.9782Y-2.3629
X3.9799Y-2.799
X4.0025Y-2.3873
X4.0237Y-3.0121
X4.0334Y-2.7975
X4.057Y-2.9929
X4.061Y-2.7975
X4.0689Y-2.4142
X4.0925Y-2.7975
X4.111Y-3.5821
X4.1245Y-2.7975
X4.1465Y-2.3825
X4.1634Y-3.4999
X4.1684Y-3.9436
X4.1691Y-3.9881
X4.2074Y-2.7975
X4.2138Y-3.1496
X4.2166Y-2.735
X4.2212Y-2.3918
X4.2346Y-2.7932
X4.2452Y-3.2498
X4.246Y-2.446
X4.2484Y-3.4984
X4.2558Y-3.3506
X4.2595Y-2.721
X4.2616Y-3.2007
X4.2625Y-2.8365
X4.2717Y-2.5191
X4.2726Y-3.5346
X4.28Y-3.5821
X4.2825Y-2.7737
X4.294Y-2.42
X4.3037Y-2.55
X4.3088Y-2.71
X4.3095Y-2.4742
X4.3125Y-2.6472
X4.3125Y-2.6787
X4.3125Y-2.6157
X4.3248Y-2.8492
X4.33Y-2.5172
X4.3312Y-2.57
X4.3476Y-2.5948
X4.3605Y-2.8453
X4.4062Y-2.9923
X4.4251Y-3.0379
X4.4355Y-2.9067
X4.442Y-2.4647
X4.4488Y-2.4914
X4.4492Y-3.3865
X4.4492Y-3.5027
X4.4492Y-3.5313
X4.4492Y-3.631
X4.4505Y-3.0488
X4.4508Y-3.7697
X4.451Y-3.835
X4.4514Y-3.7146
X4.4514Y-3.3378
X4.4514Y-3.7421
X4.452Y-3.687
X4.4535Y-3.6595
X4.4691Y-3.94
X4.4729Y-2.2789
X4.473Y-3.5453
X4.479Y-2.1964
X4.4807Y-3.5908
X4.4971Y-3.4818
X4.5059Y-3.9906
X4.5241Y-0.7317
X4.5263Y-3.629
X4.527Y-3.8
X4.5322Y-3.602
X4.5325Y-3.5619
X4.5384Y-3.4809
X4.5449Y-3.2304
X4.5495Y-3.3712
X4.5497Y-1.7148
X4.5579Y-2.8568
X4.558Y-3.795
X4.5598Y-2.8198
X4.5632Y-3.2659
X4.5672Y-2.8991
X4.5686Y-3.293
X4.5934Y-2.5837
X4.5989Y-3.2917
X4.5993Y-3.4056
X4.6028Y-2.4505
X4.6029Y-1.6604
X4.6033Y-2.8155
X4.6064Y-2.3888
X4.6092Y-4.0269
X4.6125Y-2.355
X4.613Y-2.542
X4.6197Y-2.5922
X4.6259Y-3.2973
X4.6457Y-2.7425
X4.6473Y-3.2698
X4.654Y-3.612
X4.6543Y-2.2647
X4.6566Y-1.9627
X4.6579Y-2.7866
X4.6598Y-3.7718
X4.6681Y-2.9676
X4.6684Y-3.029
X4.6705Y-2.401
X4.6752Y-2.8965
X4.6752Y-2.9387
X4.6755Y-3.192
X4.6775Y-2.34
X4.6801Y-1.5886
X4.6848Y-2.8099
X4.69Y-2.6046
X4.6984Y-3.4269
X4.7028Y-2.5436
X4.7048Y-3.2432
X4.7109Y-3.8296
X4.7188Y-2.6349
X4.7239Y-2.3851
X4.726Y-3.608
X4.7321Y-3.6904
X4.7376Y-3.2369
X4.7393Y-3.3879
X4.7399Y-3.1095
X4.74Y-3.7975
X4.7403Y-2.447
X4.7429Y-3.0098
X4.7501Y-3.4376
X4.7714Y-2.6068
X4.7759Y-3.8283
X4.7774Y-3.9334
X4.7857Y-2.3029
X4.786Y-3.0467
X4.7862Y-2.9447
X4.7895Y-3.0741
X4.791Y-2.2701
X4.7953Y-3.102
X4.7968Y-2.2432
X4.7984Y-2.4462
X4.7984Y-2.5864
X4.7998Y-3.4709
X4.8023Y-2.3812
X4.8034Y-2.117
X4.8047Y-2.1937
X4.8065Y-3.9182
X4.8107Y-3.7294
X4.8107Y-3.7294
X4.8108Y-3.6101
X4.8123Y-3.867
X4.8162Y-4.0005
X4.8201Y-3.1514
X4.8347Y-3.7836
X4.8349Y-3.5967
X4.8428Y-3.5687
X4.8445Y-3.367
X4.8477Y-3.3236
X4.8554Y-3.0138
X4.8599Y-3.8489
X4.8699Y-2.7484
X4.8718Y-3.3711
X4.8742Y-2.0941
X4.8769Y-3.0811
X4.8782Y-2.8219
X4.8794Y-2.7786
X4.8819Y-2.8652
X4.8908Y-3.4131
X4.8994Y-3.1378
X4.9004Y-2.8436
X4.9013Y-2.8003
X4.9033Y-2.6176
X4.9049Y-2.0941
X4.9067Y-2.5679
X4.9089Y-2.4067
X4.9094Y-3.4357
X4.9127Y-3.782
X4.9131Y-4.0776
X4.9343Y-2.0932
X4.9356Y-2.4517
X4.9366Y-3.1483
X4.9426Y-1.5907
X4.9505Y-2.6206
X4.9525Y-2.2775
X4.9676Y-3.1781
X4.9686Y-3.234
X4.9716Y-3.5718
X4.9741Y-1.5356
X4.9817Y-2.0799
X4.984Y-2.2775
X4.987Y-3.3515
X4.9911Y-3.125
X4.9961Y-1.4946
X5.0049Y-3.6192
X5.0115Y-2.0892
X5.0153Y-2.2808
X5.0184Y-3.3543
X5.0191Y-1.764
X5.0257Y-3.4217
X5.0267Y-3.4532
X5.027Y-3.0273
X5.0344Y-3.3954
X5.0438Y-2.598
X5.044Y-3.5747
X5.0468Y-2.2828
X5.05Y-3.066
X5.05Y-3.2362
X5.0574Y-1.5975
X5.0616Y-4.1096
X5.0782Y-2.2852
X5.08Y-3.042
X5.08Y-3.234
X5.0912Y-3.6014
X5.0912Y-3.5714
X5.0951Y-1.5907
X5.1035Y-2.5817
X5.1037Y-3.1095
X5.1096Y-2.2848
X5.1259Y-2.7308
X5.1268Y-2.7594
X5.1368Y-3.6389
X5.1416Y-2.2847
X5.1419Y-3.1019
X5.1494Y-3.5877
X5.1731Y-2.2852
X5.1772Y-3.918
X5.1836Y-2.7708
X5.1836Y-3.06
X5.1923Y-3.8083
X5.2041Y-2.729
X5.2046Y-2.2848
X5.2145Y-3.4582
X5.2162Y-3.0586
X5.2202Y-3.3972
X5.2213Y-4.08
X5.2263Y-3.5984
X5.2321Y-2.2857
X5.2367Y-3.2669
X5.2407Y-3.2306
X5.2437Y-3.0082
X5.244Y-3.143
X5.2581Y-2.7968
X5.2591Y-2.2911
X5.2594Y-3.2931
X5.2627Y-2.556
X5.2707Y-2.4049
X5.2712Y-3.8684
X5.2835Y-3.3146
X5.2875Y-3.4624
X5.2891Y-3.4935
X5.29Y-3.4
X5.2925Y-3.5277
X5.3037Y-2.6653
X5.3058Y-2.5938
X5.3259Y-1.6394
X5.3259Y-1.7143
X5.328Y-2.4571
X5.3303Y-2.5434
X5.3486Y-3.4853
X5.3495Y-3.7606
X5.3503Y-3.6946
X5.3507Y-3.6455
X5.3523Y-2.5077
X5.3531Y-2.6056
X5.3671Y-3.9798
X5.3687Y-3.9234
X5.3773Y-2.6273
X5.3824Y-2.692
X5.3826Y-1.6406
X5.3956Y-2.563
X5.4052Y-2.5354
X5.4096Y-2.3397
X5.4116Y-2.9893
X5.4165Y-2.4661
X5.4241Y-2.0373
X5.4247Y-3.405
X5.4262Y-2.8798
X5.4342Y-3.7964
X5.4346Y-3.4762
X5.4494Y-3.3246
X5.4525Y-2.78
X5.4575Y-2.815
X5.4629Y-2.8778
X5.4637Y-2.9093
X5.4676Y-2.9406
X5.47Y-2.9725
X5.4731Y-3.5637
X5.4772Y-4.0028
X5.48Y-1.874
X5.5177Y-3.3915
X5.5532Y-2.0682
X5.5725Y-3.3124
X5.5798Y-2.5627
X5.5861Y-3.6788
X5.5893Y-4.0138
X5.5906Y-3.1471
X5.5945Y-3.0892
X5.6139Y-2.8747
X5.6153Y-2.7128
X5.6245Y-2.5256
X5.6285Y-2.5891
X5.642Y-3.5
X5.6569Y-2.5672
X5.668Y-2.8533
X5.67Y-3.681
T2
X2.336Y-1.99
X2.45Y-1.882
X2.6198Y-3.9722
X2.6239Y-2.5375
X2.662Y-1.802
X2.714Y-1.878
X2.7928Y-3.5486
X2.8968Y-3.4182
X2.9996Y-4.1051
X3.1341Y-3.6296
X3.3476Y-2.3097
X3.3726Y-3.3983
X3.5222Y-2.1461
X3.5448Y-3.0894
X3.6059Y-2.7945
X3.6137Y-3.3062
X3.6628Y-2.9033
X3.6707Y-3.1837
X3.7045Y-3.3325
X3.7217Y-2.4735
X3.725Y-2.3721
X3.7346Y-3.8003
X3.7352Y-3.5194
X3.7436Y-2.8196
X3.7603Y-3.4329
X3.7725Y-1.9845
X3.7826Y-2.787
X3.7965Y-2.0756
X3.8204Y-3.2224
X3.8363Y-3.5841
X3.8431Y-3.8041
X3.8442Y-2.7292
X3.8657Y-3.5158
X3.8691Y-3.0013
X3.8697Y-2.8262
X3.871Y-2.1249
X3.8856Y-3.2268
X3.9014Y-3.8586
X3.9033Y-3.4308
X3.9082Y-3.5076
X3.9362Y-3.396
X3.9482Y-3.5368
X3.9485Y-3.3309
X3.9668Y-3.4308
X3.9744Y-3.2033
X3.9754Y-2.9732
X3.9797Y-3.3957
X4.0176Y-3.6166
X4.0747Y-3.462
X4.0973Y-3.8108
X4.105Y-3.2992
X4.1319Y-3.6613
X4.2141Y-3.5368
X4.2272Y-3.7987
X4.2531Y-3.896
X4.419Y-2.2261
X4.4504Y-2.0194
X4.4521Y-3.8645
X4.4641Y-3.8964
X4.5833Y-3.5846
X4.6102Y-3.8951
X4.6218Y-2.0248
X4.678Y-3.9584
X4.8078Y-1.2397
X4.8407Y-2.9049
X4.8478Y-1.238
X4.8615Y-1.5374
X4.8629Y-1.3761
X4.8965Y-1.6186
X4.9008Y-3.6394
X4.9235Y-2.2088
X4.9262Y-1.3752
X4.9376Y-2.5794
X4.9536Y-2.949
X4.9555Y-3.0031
X5.0305Y-2.7723
X5.0931Y-3.631
X5.1254Y-3.0054
X5.1272Y-2.8259
X5.2591Y-2.8703
X5.2621Y-3.0484
X5.3362Y-4.0083
X5.3529Y-2.7136
X5.3538Y-1.4598
X5.3971Y-3.2737
X5.4245Y-3.5645
X5.4268Y-3.6917
X5.5084Y-3.0566
X5.5188Y-3.7065
X5.5359Y-3.0733
X5.5583Y-1.4525
X5.5633Y-3.6453
X5.6381Y-2.6456
X5.695Y-2.814
X5.7037Y-2.8937
X5.7844Y-2.7846
X5.8453Y-2.7813
T3
X2.1168Y-1.0797
X2.1189Y-1.6384
X2.2159Y-2.8605
X2.221Y-3.9888
X2.2214Y-4.0708
X2.2217Y-3.904
X2.2239Y-4.1731
X2.24Y-3.28
X2.242Y-1.834
X2.2794Y-1.508
X2.3033Y-4.214
X2.348Y-1.0781
X2.4326Y-4.2177
X2.4409Y-3.0709
X2.4409Y-3.189
X2.4458Y-3.5378
X2.4473Y-3.6021
X2.4481Y-3.6672
X2.4917Y-0.7397
X2.5582Y-4.2232
X2.5591Y-3.0709
X2.5591Y-3.189
X2.5778Y-2.6887
X2.585Y-1.5186
X2.6378Y-3.7008
X2.6378Y-3.7795
X2.703Y-1.5466
X2.7078Y-4.2214
X2.7165Y-3.7008
X2.7165Y-3.7795
X2.7165Y-3.8583
X2.7304Y-2.5215
X2.7953Y-3.7008
X2.7953Y-3.7795
X2.7953Y-3.8583
X2.8332Y-2.8988
X2.8426Y-4.2158
X2.874Y-3.7008
X2.874Y-3.7795
X2.874Y-3.8583
X2.8954Y-1.3036
X2.9149Y-4.1579
X2.9235Y-2.353
X2.9624Y-4.0072
X2.9947Y-2.5391
X2.9955Y-2.5842
X2.9967Y-2.6286
X2.9975Y-2.6712
X2.9975Y-2.7116
X3.0322Y-1.4225
X3.0367Y-2.5403
X3.0375Y-2.5838
X3.0391Y-2.6294
X3.0402Y-2.6719
X3.0409Y-2.7106
X3.0675Y-2.9688
X3.077Y-1.062
X3.0775Y-2.5398
X3.0787Y-2.5846
X3.0795Y-2.6722
X3.0799Y-2.6298
X3.0812Y-2.7109
X3.0835Y-0.7501
X3.1011Y-3.2308
X3.1102Y-4.2126
X3.1102Y-4.3307
X3.114Y-3.373
X3.1223Y-2.5399
X3.1245Y-2.6726
X3.1247Y-2.5834
X3.1248Y-2.7103
X3.1259Y-2.6306
X3.1288Y-3.4894
X3.1482Y-3.0494
X3.1627Y-2.5379
X3.1647Y-2.5826
X3.1655Y-2.6298
X3.1658Y-2.6723
X3.1665Y-2.7103
X3.1812Y-4.0155
X3.189Y-4.2913
X3.1915Y-4.2384
X3.1943Y-0.6974
X3.2323Y-3.008
X3.2339Y-1.7375
X3.2712Y-2.5942
X3.2845Y-4.0362
X3.3042Y-4.4273
X3.3383Y-4.1415
X3.3455Y-0.7692
X3.3465Y-1.9685
X3.3465Y-2.126
X3.3607Y-4.1022
X3.3858Y-4.2913
X3.3988Y-3.0772
X3.4252Y-4.2126
X3.4252Y-4.3701
X3.4261Y-0.7702
X3.4861Y-2.964
X3.5305Y-0.7702
X3.5433Y-4.2126
X3.5433Y-4.2913
X3.5433Y-4.3701
X3.618Y-2.5376
X3.6199Y-2.6988
X3.622Y-4.2126
X3.622Y-4.2913
X3.622Y-4.3701
X3.6378Y-0.7674
X3.7008Y-4.2126
X3.7008Y-4.2913
X3.7008Y-4.3701
X3.7393Y-0.773
X3.7663Y-3.5907
X3.7702Y-2.9479
X3.7748Y-2.4834
X3.7851Y-2.7486
X3.7938Y-3.5182
X3.7975Y-4.1531
X3.8016Y-3.4317
X3.809Y-3.3421
X3.8166Y-2.83
X3.8328Y-3.037
X3.8353Y-0.7759
X3.9199Y-0.773
X4.0159Y-0.773
X4.2078Y-0.8859
X4.2126Y-1.9291
X4.2126Y-2.0079
X4.2219Y-0.7646
X4.2543Y-1.4536
X4.2684Y-1.5806
X4.2896Y-0.8831
X4.2913Y-1.9291
X4.2913Y-2.0079
X4.2913Y-2.0866
X4.3307Y-2.1654
X4.3307Y-2.2835
X4.3319Y-0.7618
X4.339Y-1.3784
X4.3701Y-1.9291
X4.3719Y-1.6558
X4.3837Y-1.4654
X4.3884Y-0.8775
X4.4094Y-2.0079
X4.4094Y-2.0866
X4.442Y-0.7702
X4.4495Y-1.3784
X4.4589Y-1.764
X4.4824Y-1.5806
X4.4871Y-0.8577
X4.5765Y-1.7828
X4.5795Y-2.3344
X4.6402Y-1.4257
X4.6402Y-1.5217
X4.695Y-1.3493
X4.7451Y-4.0137
X4.7754Y-1.3434
X4.9941Y-1.3758
X5.0417Y-1.3568
X5.0988Y-1.3527
X5.1456Y-2.1125
X5.1533Y-1.3581
X5.2055Y-2.0549
X5.2465Y-1.6326
X5.2498Y-2.0947
X5.2756Y-4.2126
X5.2756Y-4.4488
X5.3543Y-4.2126
X5.3543Y-4.4488
X5.3785Y-2.21
X5.3816Y-2.2961
X5.4331Y-4.2126
X5.4331Y-4.4488
X5.5118Y-4.2126
X5.5118Y-4.4488
X5.5747Y-1.0602
X5.6242Y-1.7483
X5.6384Y-1.9138
X5.6627Y-3.3887
X5.6656Y-1.9873
X5.6743Y-3.8047
X5.6853Y-3.1762
X5.7078Y-1.9411
X5.7129Y-1.7464
X5.7377Y-1.9955
X5.7429Y-2.9386
X5.8442Y-0.9591
X5.856Y-2.4595
X5.8713Y-2.4098
X5.8744Y-2.3043
T4
X3.1695Y-0.7673
X3.1695Y-0.8461
X3.1695Y-0.9248
X3.1695Y-1.0035
X3.1695Y-1.0823
X3.1695Y-1.161
X3.1695Y-1.2398
X3.1695Y-1.3185
X3.1695Y-1.3972
X3.1695Y-1.476
X3.1695Y-1.5547
X3.1695Y-1.6335
X3.1695Y-1.7122
X3.1695Y-1.7909
X3.1695Y-1.8697
X3.1695Y-1.9484
X4.1301Y-0.7673
X4.1301Y-0.8461
X4.1301Y-0.9248
X4.1301Y-1.0035
X4.1301Y-1.0823
X4.1301Y-1.161
X4.1301Y-1.2398
X4.1301Y-1.3185
X4.1301Y-1.3972
X4.1301Y-1.476
X4.1301Y-1.5547
X4.1301Y-1.6335
X4.1301Y-1.7122
X4.1301Y-1.7909
X4.1301Y-1.8697
X4.1301Y-1.9484
T6
X5.7473Y-3.2479
X5.7473Y-3.3479
X5.4224Y-0.687
X5.4224Y-0.787
X4.6129Y-0.6808
X4.6129Y-0.7808
X4.7129Y-0.6808
X2.1599Y-1.454
X2.278Y-1.639
X4.7129Y-0.7808
X4.8129Y-0.6808
X4.8129Y-0.7808
X4.9129Y-0.6808
X4.9129Y-0.7808
X5.0129Y-0.6808
X5.0129Y-0.7808
X5.1129Y-0.6808
X5.1129Y-0.7808
X2.3961Y-1.454
X5.7473Y-3.4479
X5.7473Y-3.5479
X5.7473Y-3.6479
X5.7473Y-3.7479
X5.7473Y-3.8479
X5.7473Y-3.9479
X5.7473Y-4.0479
X5.7473Y-4.1479
X5.8473Y-3.2479
X5.8473Y-3.3479
X5.8473Y-3.4479
X5.8473Y-3.5479
X5.8473Y-3.6479
X5.8473Y-3.7479
X5.8473Y-3.8479
X5.8473Y-3.9479
X5.8473Y-4.0479
X5.8473Y-4.1479
X4.1895Y-4.3218
X4.1895Y-4.4218
X4.2895Y-4.3218
X4.2895Y-4.4218
X4.3895Y-4.3218
X4.3895Y-4.4218
X4.4895Y-4.3218
X4.4895Y-4.4218
X4.5895Y-4.3218
X4.5895Y-4.4218
X4.6895Y-4.3218
X4.6895Y-4.4218
X4.7895Y-4.3218
X4.7895Y-4.4218
X4.8895Y-4.3218
X4.8895Y-4.4218
X4.9895Y-4.3218
X4.9895Y-4.4218
X5.0895Y-4.3218
X5.0895Y-4.4218
X5.78Y-1.1565
X5.78Y-1.2565
X5.78Y-1.3565
X5.78Y-1.4565
X5.78Y-1.5565
X5.78Y-1.6565
X5.88Y-1.1565
X5.88Y-1.2565
X5.88Y-1.3565
X5.88Y-1.4565
X5.88Y-1.5565
X5.88Y-1.6565
T7
X2.2309Y-4.3426
X5.6992Y-4.3604
X2.248Y-0.7791
X5.718Y-0.7962
T8
X2.1451Y-1.9562
X2.1451Y-2.1374
T5
G00X2.1765Y-1.8224
M15
G01X2.1136Y-1.8224
M16
G05
G00X2.1765Y-2.2712
M15
G01X2.1136Y-2.2712
M16
G05
T0
M30
