G04 #@! TF.GenerationSoftware,KiCad,Pcbnew,6.0.0-unknown-cbea514~86~ubuntu18.04.1*
G04 #@! TF.CreationDate,2019-06-10T18:18:56-05:00*
G04 #@! TF.ProjectId,power,706f7765-722e-46b6-9963-61645f706362,rev?*
G04 #@! TF.SameCoordinates,Original*
G04 #@! TF.FileFunction,Legend,Bot*
G04 #@! TF.FilePolarity,Positive*
%FSLAX46Y46*%
G04 Gerber Fmt 4.6, Leading zero omitted, Abs format (unit mm)*
G04 Created by KiCad (PCBNEW 6.0.0-unknown-cbea514~86~ubuntu18.04.1) date 2019-06-10 18:18:56*
%MOMM*%
%LPD*%
G04 APERTURE LIST*
%ADD10C,0.120000*%
%ADD11C,0.150000*%
G04 APERTURE END LIST*
D10*
X132807527Y-92386880D02*
X132464993Y-92386880D01*
X132807527Y-91366880D02*
X132464993Y-91366880D01*
X115733274Y-68678709D02*
X115733274Y-67388709D01*
X114783274Y-68678709D02*
X115733274Y-68678709D01*
X114783274Y-69628709D02*
X114783274Y-68678709D01*
X114783274Y-88898709D02*
X115733274Y-88898709D01*
X114783274Y-87948709D02*
X114783274Y-88898709D01*
X135003274Y-68678709D02*
X134053274Y-68678709D01*
X135003274Y-69628709D02*
X135003274Y-68678709D01*
X135003274Y-88898709D02*
X134053274Y-88898709D01*
X135003274Y-87948709D02*
X135003274Y-88898709D01*
X105099967Y-90344720D02*
X104757433Y-90344720D01*
X105099967Y-89324720D02*
X104757433Y-89324720D01*
X108445147Y-86544880D02*
X108102613Y-86544880D01*
X108445147Y-85524880D02*
X108102613Y-85524880D01*
X143796191Y-73563422D02*
X147402435Y-77169666D01*
X140790987Y-76568626D02*
X143796191Y-73563422D01*
X119336667Y-93067600D02*
X118994133Y-93067600D01*
X119336667Y-92047600D02*
X118994133Y-92047600D01*
X86046267Y-103010000D02*
X85703733Y-103010000D01*
X86046267Y-101990000D02*
X85703733Y-101990000D01*
X94740000Y-107546267D02*
X94740000Y-107203733D01*
X95760000Y-107546267D02*
X95760000Y-107203733D01*
X84490000Y-107546267D02*
X84490000Y-107203733D01*
X85510000Y-107546267D02*
X85510000Y-107203733D01*
X140655253Y-66746660D02*
X140997787Y-66746660D01*
X140655253Y-67766660D02*
X140997787Y-67766660D01*
X138343487Y-91298300D02*
X138000953Y-91298300D01*
X138343487Y-92318300D02*
X138000953Y-92318300D01*
X112968500Y-59014207D02*
X112968500Y-58671673D01*
X111948500Y-59014207D02*
X111948500Y-58671673D01*
X114545840Y-58971027D02*
X114545840Y-58628493D01*
X113525840Y-58971027D02*
X113525840Y-58628493D01*
X111467360Y-84561893D02*
X111467360Y-84904427D01*
X110447360Y-84561893D02*
X110447360Y-84904427D01*
X65056800Y-45140800D02*
X63596800Y-45140800D01*
X65056800Y-48300800D02*
X62896800Y-48300800D01*
X65056800Y-48300800D02*
X65056800Y-47370800D01*
X65056800Y-45140800D02*
X65056800Y-46070800D01*
X84955667Y-61907885D02*
X85298201Y-61907885D01*
X84955667Y-62927885D02*
X85298201Y-62927885D01*
X102608920Y-56925027D02*
X102608920Y-56582493D01*
X103628920Y-56925027D02*
X103628920Y-56582493D01*
X104177603Y-56899187D02*
X104177603Y-56556653D01*
X105197603Y-56899187D02*
X105197603Y-56556653D01*
X105725799Y-56856082D02*
X105725799Y-56513548D01*
X106745799Y-56856082D02*
X106745799Y-56513548D01*
X84935910Y-63727285D02*
X85278444Y-63727285D01*
X84935910Y-64747285D02*
X85278444Y-64747285D01*
X84943417Y-65449698D02*
X85285951Y-65449698D01*
X84943417Y-66469698D02*
X85285951Y-66469698D01*
X70401027Y-68536280D02*
X70058493Y-68536280D01*
X70401027Y-67516280D02*
X70058493Y-67516280D01*
X95366217Y-81027905D02*
X95023683Y-81027905D01*
X95366217Y-80007905D02*
X95023683Y-80007905D01*
X95341287Y-83494340D02*
X94998753Y-83494340D01*
X95341287Y-82474340D02*
X94998753Y-82474340D01*
X99319620Y-56908547D02*
X99319620Y-56566013D01*
X100339620Y-56908547D02*
X100339620Y-56566013D01*
X101046820Y-56931347D02*
X101046820Y-56588813D01*
X102066820Y-56931347D02*
X102066820Y-56588813D01*
X91996800Y-85729867D02*
X91996800Y-85387333D01*
X93016800Y-85729867D02*
X93016800Y-85387333D01*
X85261267Y-70406800D02*
X84918733Y-70406800D01*
X85261267Y-71426800D02*
X84918733Y-71426800D01*
X97508600Y-56894547D02*
X97508600Y-56552013D01*
X98528600Y-56894547D02*
X98528600Y-56552013D01*
X85261267Y-68628800D02*
X84918733Y-68628800D01*
X85261267Y-69648800D02*
X84918733Y-69648800D01*
X77896180Y-74352333D02*
X77896180Y-74694867D01*
X76876180Y-74352333D02*
X76876180Y-74694867D01*
X77020960Y-59420607D02*
X77020960Y-59078073D01*
X78040960Y-59420607D02*
X78040960Y-59078073D01*
X78814200Y-59415467D02*
X78814200Y-59072933D01*
X79834200Y-59415467D02*
X79834200Y-59072933D01*
X84927593Y-67135280D02*
X85270127Y-67135280D01*
X84927593Y-68155280D02*
X85270127Y-68155280D01*
X71981729Y-71989520D02*
X71739520Y-72231729D01*
X71260480Y-71268271D02*
X71018271Y-71510480D01*
X146482671Y-74255120D02*
X146724880Y-74497329D01*
X147203920Y-73533871D02*
X147446129Y-73776080D01*
X105073521Y-88453178D02*
X104730987Y-88453178D01*
X105073521Y-87433178D02*
X104730987Y-87433178D01*
X105073521Y-86894205D02*
X104730987Y-86894205D01*
X105073521Y-85874205D02*
X104730987Y-85874205D01*
X140591753Y-73404000D02*
X140934287Y-73404000D01*
X140591753Y-74424000D02*
X140934287Y-74424000D01*
X103421267Y-81510000D02*
X103078733Y-81510000D01*
X103421267Y-80490000D02*
X103078733Y-80490000D01*
X104856067Y-85346000D02*
X104513533Y-85346000D01*
X104856067Y-84326000D02*
X104513533Y-84326000D01*
X127187420Y-95052093D02*
X127187420Y-95394627D01*
X126167420Y-95052093D02*
X126167420Y-95394627D01*
X125475460Y-95008853D02*
X125475460Y-95351387D01*
X124455460Y-95008853D02*
X124455460Y-95351387D01*
X119293487Y-95310420D02*
X118950953Y-95310420D01*
X119293487Y-94290420D02*
X118950953Y-94290420D01*
X130611280Y-95059653D02*
X130611280Y-95402187D01*
X129591280Y-95059653D02*
X129591280Y-95402187D01*
X133895560Y-95570193D02*
X133895560Y-95912727D01*
X132875560Y-95570193D02*
X132875560Y-95912727D01*
X120822258Y-42449594D02*
X120479724Y-42449594D01*
X120822258Y-41429594D02*
X120479724Y-41429594D01*
X120797435Y-44251033D02*
X120454901Y-44251033D01*
X120797435Y-43231033D02*
X120454901Y-43231033D01*
X101717380Y-86949127D02*
X101717380Y-86606593D01*
X102737380Y-86949127D02*
X102737380Y-86606593D01*
X108412127Y-83458780D02*
X108069593Y-83458780D01*
X108412127Y-82438780D02*
X108069593Y-82438780D01*
X140712373Y-68379880D02*
X141054907Y-68379880D01*
X140712373Y-69399880D02*
X141054907Y-69399880D01*
X135665940Y-95504153D02*
X135665940Y-95846687D01*
X134645940Y-95504153D02*
X134645940Y-95846687D01*
X128914620Y-95052093D02*
X128914620Y-95394627D01*
X127894620Y-95052093D02*
X127894620Y-95394627D01*
X122142980Y-95024093D02*
X122142980Y-95366627D01*
X121122980Y-95024093D02*
X121122980Y-95366627D01*
X116842000Y-93108933D02*
X116842000Y-93451467D01*
X115822000Y-93108933D02*
X115822000Y-93451467D01*
X103296267Y-79760000D02*
X102953733Y-79760000D01*
X103296267Y-78740000D02*
X102953733Y-78740000D01*
X108437527Y-88076500D02*
X108094993Y-88076500D01*
X108437527Y-87056500D02*
X108094993Y-87056500D01*
X108445147Y-85010720D02*
X108102613Y-85010720D01*
X108445147Y-83990720D02*
X108102613Y-83990720D01*
X137412000Y-67373287D02*
X137412000Y-67030753D01*
X138432000Y-67373287D02*
X138432000Y-67030753D01*
X143461200Y-101782667D02*
X143461200Y-101440133D01*
X142441200Y-101782667D02*
X142441200Y-101440133D01*
X140206000Y-103001867D02*
X140206000Y-102659333D01*
X141226000Y-103001867D02*
X141226000Y-102659333D01*
D11*
X130243817Y-92310222D02*
X130291436Y-92357841D01*
X130434293Y-92405460D01*
X130529531Y-92405460D01*
X130672388Y-92357841D01*
X130767626Y-92262603D01*
X130815245Y-92167365D01*
X130862864Y-91976889D01*
X130862864Y-91834032D01*
X130815245Y-91643556D01*
X130767626Y-91548318D01*
X130672388Y-91453080D01*
X130529531Y-91405460D01*
X130434293Y-91405460D01*
X130291436Y-91453080D01*
X130243817Y-91500699D01*
X129291436Y-92405460D02*
X129862864Y-92405460D01*
X129577150Y-92405460D02*
X129577150Y-91405460D01*
X129672388Y-91548318D01*
X129767626Y-91643556D01*
X129862864Y-91691175D01*
X128958102Y-91405460D02*
X128339055Y-91405460D01*
X128672388Y-91786413D01*
X128529531Y-91786413D01*
X128434293Y-91834032D01*
X128386674Y-91881651D01*
X128339055Y-91976889D01*
X128339055Y-92214984D01*
X128386674Y-92310222D01*
X128434293Y-92357841D01*
X128529531Y-92405460D01*
X128815245Y-92405460D01*
X128910483Y-92357841D01*
X128958102Y-92310222D01*
X111995654Y-77550613D02*
X112805178Y-77550613D01*
X112900416Y-77598232D01*
X112948035Y-77645851D01*
X112995654Y-77741089D01*
X112995654Y-77931566D01*
X112948035Y-78026804D01*
X112900416Y-78074423D01*
X112805178Y-78122042D01*
X111995654Y-78122042D01*
X112995654Y-79122042D02*
X112995654Y-78550613D01*
X112995654Y-78836328D02*
X111995654Y-78836328D01*
X112138512Y-78741089D01*
X112233750Y-78645851D01*
X112281369Y-78550613D01*
X111995654Y-79741089D02*
X111995654Y-79836328D01*
X112043274Y-79931566D01*
X112090893Y-79979185D01*
X112186131Y-80026804D01*
X112376607Y-80074423D01*
X112614702Y-80074423D01*
X112805178Y-80026804D01*
X112900416Y-79979185D01*
X112948035Y-79931566D01*
X112995654Y-79836328D01*
X112995654Y-79741089D01*
X112948035Y-79645851D01*
X112900416Y-79598232D01*
X112805178Y-79550613D01*
X112614702Y-79502994D01*
X112376607Y-79502994D01*
X112186131Y-79550613D01*
X112090893Y-79598232D01*
X112043274Y-79645851D01*
X111995654Y-79741089D01*
X105557557Y-91858102D02*
X105605176Y-91905721D01*
X105748033Y-91953340D01*
X105843271Y-91953340D01*
X105986128Y-91905721D01*
X106081366Y-91810483D01*
X106128985Y-91715245D01*
X106176604Y-91524769D01*
X106176604Y-91381912D01*
X106128985Y-91191436D01*
X106081366Y-91096198D01*
X105986128Y-91000960D01*
X105843271Y-90953340D01*
X105748033Y-90953340D01*
X105605176Y-91000960D01*
X105557557Y-91048579D01*
X105224223Y-90953340D02*
X104605176Y-90953340D01*
X104938509Y-91334293D01*
X104795652Y-91334293D01*
X104700414Y-91381912D01*
X104652795Y-91429531D01*
X104605176Y-91524769D01*
X104605176Y-91762864D01*
X104652795Y-91858102D01*
X104700414Y-91905721D01*
X104795652Y-91953340D01*
X105081366Y-91953340D01*
X105176604Y-91905721D01*
X105224223Y-91858102D01*
X103748033Y-90953340D02*
X103938509Y-90953340D01*
X104033747Y-91000960D01*
X104081366Y-91048579D01*
X104176604Y-91191436D01*
X104224223Y-91381912D01*
X104224223Y-91762864D01*
X104176604Y-91858102D01*
X104128985Y-91905721D01*
X104033747Y-91953340D01*
X103843271Y-91953340D01*
X103748033Y-91905721D01*
X103700414Y-91858102D01*
X103652795Y-91762864D01*
X103652795Y-91524769D01*
X103700414Y-91429531D01*
X103748033Y-91381912D01*
X103843271Y-91334293D01*
X104033747Y-91334293D01*
X104128985Y-91381912D01*
X104176604Y-91429531D01*
X104224223Y-91524769D01*
X111976137Y-87702662D02*
X112023756Y-87750281D01*
X112166613Y-87797900D01*
X112261851Y-87797900D01*
X112404708Y-87750281D01*
X112499946Y-87655043D01*
X112547565Y-87559805D01*
X112595184Y-87369329D01*
X112595184Y-87226472D01*
X112547565Y-87035996D01*
X112499946Y-86940758D01*
X112404708Y-86845520D01*
X112261851Y-86797900D01*
X112166613Y-86797900D01*
X112023756Y-86845520D01*
X111976137Y-86893139D01*
X111595184Y-86893139D02*
X111547565Y-86845520D01*
X111452327Y-86797900D01*
X111214232Y-86797900D01*
X111118994Y-86845520D01*
X111071375Y-86893139D01*
X111023756Y-86988377D01*
X111023756Y-87083615D01*
X111071375Y-87226472D01*
X111642803Y-87797900D01*
X111023756Y-87797900D01*
X110404708Y-86797900D02*
X110309470Y-86797900D01*
X110214232Y-86845520D01*
X110166613Y-86893139D01*
X110118994Y-86988377D01*
X110071375Y-87178853D01*
X110071375Y-87416948D01*
X110118994Y-87607424D01*
X110166613Y-87702662D01*
X110214232Y-87750281D01*
X110309470Y-87797900D01*
X110404708Y-87797900D01*
X110499946Y-87750281D01*
X110547565Y-87702662D01*
X110595184Y-87607424D01*
X110642803Y-87416948D01*
X110642803Y-87178853D01*
X110595184Y-86988377D01*
X110547565Y-86893139D01*
X110499946Y-86845520D01*
X110404708Y-86797900D01*
X142988068Y-79122627D02*
X141809557Y-79358329D01*
X142516664Y-78651223D02*
X142280962Y-79829734D01*
X141169794Y-78718566D02*
X141573855Y-79122627D01*
X141371824Y-78920597D02*
X142078931Y-78213490D01*
X142045259Y-78381849D01*
X142045259Y-78516536D01*
X142078931Y-78617551D01*
X123037837Y-93065860D02*
X123371170Y-92589670D01*
X123609265Y-93065860D02*
X123609265Y-92065860D01*
X123228313Y-92065860D01*
X123133075Y-92113480D01*
X123085456Y-92161099D01*
X123037837Y-92256337D01*
X123037837Y-92399194D01*
X123085456Y-92494432D01*
X123133075Y-92542051D01*
X123228313Y-92589670D01*
X123609265Y-92589670D01*
X122180694Y-92399194D02*
X122180694Y-93065860D01*
X122418789Y-92018241D02*
X122656884Y-92732527D01*
X122037837Y-92732527D01*
X121752122Y-92065860D02*
X121133075Y-92065860D01*
X121466408Y-92446813D01*
X121323551Y-92446813D01*
X121228313Y-92494432D01*
X121180694Y-92542051D01*
X121133075Y-92637289D01*
X121133075Y-92875384D01*
X121180694Y-92970622D01*
X121228313Y-93018241D01*
X121323551Y-93065860D01*
X121609265Y-93065860D01*
X121704503Y-93018241D01*
X121752122Y-92970622D01*
X86517857Y-101522380D02*
X86851190Y-101046190D01*
X87089285Y-101522380D02*
X87089285Y-100522380D01*
X86708333Y-100522380D01*
X86613095Y-100570000D01*
X86565476Y-100617619D01*
X86517857Y-100712857D01*
X86517857Y-100855714D01*
X86565476Y-100950952D01*
X86613095Y-100998571D01*
X86708333Y-101046190D01*
X87089285Y-101046190D01*
X86136904Y-100617619D02*
X86089285Y-100570000D01*
X85994047Y-100522380D01*
X85755952Y-100522380D01*
X85660714Y-100570000D01*
X85613095Y-100617619D01*
X85565476Y-100712857D01*
X85565476Y-100808095D01*
X85613095Y-100950952D01*
X86184523Y-101522380D01*
X85565476Y-101522380D01*
X84708333Y-100522380D02*
X84898809Y-100522380D01*
X84994047Y-100570000D01*
X85041666Y-100617619D01*
X85136904Y-100760476D01*
X85184523Y-100950952D01*
X85184523Y-101331904D01*
X85136904Y-101427142D01*
X85089285Y-101474761D01*
X84994047Y-101522380D01*
X84803571Y-101522380D01*
X84708333Y-101474761D01*
X84660714Y-101427142D01*
X84613095Y-101331904D01*
X84613095Y-101093809D01*
X84660714Y-100998571D01*
X84708333Y-100950952D01*
X84803571Y-100903333D01*
X84994047Y-100903333D01*
X85089285Y-100950952D01*
X85136904Y-100998571D01*
X85184523Y-101093809D01*
X97132380Y-106732142D02*
X96656190Y-106398809D01*
X97132380Y-106160714D02*
X96132380Y-106160714D01*
X96132380Y-106541666D01*
X96180000Y-106636904D01*
X96227619Y-106684523D01*
X96322857Y-106732142D01*
X96465714Y-106732142D01*
X96560952Y-106684523D01*
X96608571Y-106636904D01*
X96656190Y-106541666D01*
X96656190Y-106160714D01*
X96227619Y-107113095D02*
X96180000Y-107160714D01*
X96132380Y-107255952D01*
X96132380Y-107494047D01*
X96180000Y-107589285D01*
X96227619Y-107636904D01*
X96322857Y-107684523D01*
X96418095Y-107684523D01*
X96560952Y-107636904D01*
X97132380Y-107065476D01*
X97132380Y-107684523D01*
X96465714Y-108541666D02*
X97132380Y-108541666D01*
X96084761Y-108303571D02*
X96799047Y-108065476D01*
X96799047Y-108684523D01*
X86882380Y-106732142D02*
X86406190Y-106398809D01*
X86882380Y-106160714D02*
X85882380Y-106160714D01*
X85882380Y-106541666D01*
X85930000Y-106636904D01*
X85977619Y-106684523D01*
X86072857Y-106732142D01*
X86215714Y-106732142D01*
X86310952Y-106684523D01*
X86358571Y-106636904D01*
X86406190Y-106541666D01*
X86406190Y-106160714D01*
X85977619Y-107113095D02*
X85930000Y-107160714D01*
X85882380Y-107255952D01*
X85882380Y-107494047D01*
X85930000Y-107589285D01*
X85977619Y-107636904D01*
X86072857Y-107684523D01*
X86168095Y-107684523D01*
X86310952Y-107636904D01*
X86882380Y-107065476D01*
X86882380Y-107684523D01*
X85882380Y-108017857D02*
X85882380Y-108636904D01*
X86263333Y-108303571D01*
X86263333Y-108446428D01*
X86310952Y-108541666D01*
X86358571Y-108589285D01*
X86453809Y-108636904D01*
X86691904Y-108636904D01*
X86787142Y-108589285D01*
X86834761Y-108541666D01*
X86882380Y-108446428D01*
X86882380Y-108160714D01*
X86834761Y-108065476D01*
X86787142Y-108017857D01*
X144787857Y-67770000D02*
X145121190Y-67293810D01*
X145359285Y-67770000D02*
X145359285Y-66770000D01*
X144978333Y-66770000D01*
X144883095Y-66817620D01*
X144835476Y-66865239D01*
X144787857Y-66960477D01*
X144787857Y-67103334D01*
X144835476Y-67198572D01*
X144883095Y-67246191D01*
X144978333Y-67293810D01*
X145359285Y-67293810D01*
X144406904Y-66865239D02*
X144359285Y-66817620D01*
X144264047Y-66770000D01*
X144025952Y-66770000D01*
X143930714Y-66817620D01*
X143883095Y-66865239D01*
X143835476Y-66960477D01*
X143835476Y-67055715D01*
X143883095Y-67198572D01*
X144454523Y-67770000D01*
X143835476Y-67770000D01*
X143454523Y-66865239D02*
X143406904Y-66817620D01*
X143311666Y-66770000D01*
X143073571Y-66770000D01*
X142978333Y-66817620D01*
X142930714Y-66865239D01*
X142883095Y-66960477D01*
X142883095Y-67055715D01*
X142930714Y-67198572D01*
X143502142Y-67770000D01*
X142883095Y-67770000D01*
X138798537Y-90795100D02*
X139131870Y-90318910D01*
X139369965Y-90795100D02*
X139369965Y-89795100D01*
X138989013Y-89795100D01*
X138893775Y-89842720D01*
X138846156Y-89890339D01*
X138798537Y-89985577D01*
X138798537Y-90128434D01*
X138846156Y-90223672D01*
X138893775Y-90271291D01*
X138989013Y-90318910D01*
X139369965Y-90318910D01*
X138417584Y-89890339D02*
X138369965Y-89842720D01*
X138274727Y-89795100D01*
X138036632Y-89795100D01*
X137941394Y-89842720D01*
X137893775Y-89890339D01*
X137846156Y-89985577D01*
X137846156Y-90080815D01*
X137893775Y-90223672D01*
X138465203Y-90795100D01*
X137846156Y-90795100D01*
X137227108Y-89795100D02*
X137131870Y-89795100D01*
X137036632Y-89842720D01*
X136989013Y-89890339D01*
X136941394Y-89985577D01*
X136893775Y-90176053D01*
X136893775Y-90414148D01*
X136941394Y-90604624D01*
X136989013Y-90699862D01*
X137036632Y-90747481D01*
X137131870Y-90795100D01*
X137227108Y-90795100D01*
X137322346Y-90747481D01*
X137369965Y-90699862D01*
X137417584Y-90604624D01*
X137465203Y-90414148D01*
X137465203Y-90176053D01*
X137417584Y-89985577D01*
X137369965Y-89890339D01*
X137322346Y-89842720D01*
X137227108Y-89795100D01*
X113088680Y-55972413D02*
X112612490Y-55639080D01*
X113088680Y-55400984D02*
X112088680Y-55400984D01*
X112088680Y-55781937D01*
X112136300Y-55877175D01*
X112183919Y-55924794D01*
X112279157Y-55972413D01*
X112422014Y-55972413D01*
X112517252Y-55924794D01*
X112564871Y-55877175D01*
X112612490Y-55781937D01*
X112612490Y-55400984D01*
X112088680Y-56305746D02*
X112088680Y-56972413D01*
X113088680Y-56543841D01*
X114602520Y-56035913D02*
X114126330Y-55702580D01*
X114602520Y-55464484D02*
X113602520Y-55464484D01*
X113602520Y-55845437D01*
X113650140Y-55940675D01*
X113697759Y-55988294D01*
X113792997Y-56035913D01*
X113935854Y-56035913D01*
X114031092Y-55988294D01*
X114078711Y-55940675D01*
X114126330Y-55845437D01*
X114126330Y-55464484D01*
X113602520Y-56893056D02*
X113602520Y-56702580D01*
X113650140Y-56607341D01*
X113697759Y-56559722D01*
X113840616Y-56464484D01*
X114031092Y-56416865D01*
X114412044Y-56416865D01*
X114507282Y-56464484D01*
X114554901Y-56512103D01*
X114602520Y-56607341D01*
X114602520Y-56797818D01*
X114554901Y-56893056D01*
X114507282Y-56940675D01*
X114412044Y-56988294D01*
X114173949Y-56988294D01*
X114078711Y-56940675D01*
X114031092Y-56893056D01*
X113983473Y-56797818D01*
X113983473Y-56607341D01*
X114031092Y-56512103D01*
X114078711Y-56464484D01*
X114173949Y-56416865D01*
X113002320Y-84664253D02*
X113002320Y-84188062D01*
X112002320Y-84188062D01*
X112002320Y-84902348D02*
X112002320Y-85521396D01*
X112383273Y-85188062D01*
X112383273Y-85330920D01*
X112430892Y-85426158D01*
X112478511Y-85473777D01*
X112573749Y-85521396D01*
X112811844Y-85521396D01*
X112907082Y-85473777D01*
X112954701Y-85426158D01*
X113002320Y-85330920D01*
X113002320Y-85045205D01*
X112954701Y-84949967D01*
X112907082Y-84902348D01*
X65034895Y-49673180D02*
X65034895Y-48673180D01*
X64796800Y-48673180D01*
X64653942Y-48720800D01*
X64558704Y-48816038D01*
X64511085Y-48911276D01*
X64463466Y-49101752D01*
X64463466Y-49244609D01*
X64511085Y-49435085D01*
X64558704Y-49530323D01*
X64653942Y-49625561D01*
X64796800Y-49673180D01*
X65034895Y-49673180D01*
X64082514Y-48768419D02*
X64034895Y-48720800D01*
X63939657Y-48673180D01*
X63701561Y-48673180D01*
X63606323Y-48720800D01*
X63558704Y-48768419D01*
X63511085Y-48863657D01*
X63511085Y-48958895D01*
X63558704Y-49101752D01*
X64130133Y-49673180D01*
X63511085Y-49673180D01*
X89881887Y-62935122D02*
X89929506Y-62982741D01*
X90072363Y-63030360D01*
X90167601Y-63030360D01*
X90310459Y-62982741D01*
X90405697Y-62887503D01*
X90453316Y-62792265D01*
X90500935Y-62601789D01*
X90500935Y-62458932D01*
X90453316Y-62268456D01*
X90405697Y-62173218D01*
X90310459Y-62077980D01*
X90167601Y-62030360D01*
X90072363Y-62030360D01*
X89929506Y-62077980D01*
X89881887Y-62125599D01*
X88929506Y-63030360D02*
X89500935Y-63030360D01*
X89215220Y-63030360D02*
X89215220Y-62030360D01*
X89310459Y-62173218D01*
X89405697Y-62268456D01*
X89500935Y-62316075D01*
X88548554Y-62125599D02*
X88500935Y-62077980D01*
X88405697Y-62030360D01*
X88167601Y-62030360D01*
X88072363Y-62077980D01*
X88024744Y-62125599D01*
X87977125Y-62220837D01*
X87977125Y-62316075D01*
X88024744Y-62458932D01*
X88596173Y-63030360D01*
X87977125Y-63030360D01*
X87358078Y-62030360D02*
X87262840Y-62030360D01*
X87167601Y-62077980D01*
X87119982Y-62125599D01*
X87072363Y-62220837D01*
X87024744Y-62411313D01*
X87024744Y-62649408D01*
X87072363Y-62839884D01*
X87119982Y-62935122D01*
X87167601Y-62982741D01*
X87262840Y-63030360D01*
X87358078Y-63030360D01*
X87453316Y-62982741D01*
X87500935Y-62935122D01*
X87548554Y-62839884D01*
X87596173Y-62649408D01*
X87596173Y-62411313D01*
X87548554Y-62220837D01*
X87500935Y-62125599D01*
X87453316Y-62077980D01*
X87358078Y-62030360D01*
X103491302Y-51954252D02*
X103538921Y-51906633D01*
X103586540Y-51763776D01*
X103586540Y-51668538D01*
X103538921Y-51525680D01*
X103443683Y-51430442D01*
X103348445Y-51382823D01*
X103157969Y-51335204D01*
X103015112Y-51335204D01*
X102824636Y-51382823D01*
X102729398Y-51430442D01*
X102634160Y-51525680D01*
X102586540Y-51668538D01*
X102586540Y-51763776D01*
X102634160Y-51906633D01*
X102681779Y-51954252D01*
X103586540Y-52906633D02*
X103586540Y-52335204D01*
X103586540Y-52620919D02*
X102586540Y-52620919D01*
X102729398Y-52525680D01*
X102824636Y-52430442D01*
X102872255Y-52335204D01*
X103586540Y-53859014D02*
X103586540Y-53287585D01*
X103586540Y-53573300D02*
X102586540Y-53573300D01*
X102729398Y-53478061D01*
X102824636Y-53382823D01*
X102872255Y-53287585D01*
X102586540Y-54716157D02*
X102586540Y-54525680D01*
X102634160Y-54430442D01*
X102681779Y-54382823D01*
X102824636Y-54287585D01*
X103015112Y-54239966D01*
X103396064Y-54239966D01*
X103491302Y-54287585D01*
X103538921Y-54335204D01*
X103586540Y-54430442D01*
X103586540Y-54620919D01*
X103538921Y-54716157D01*
X103491302Y-54763776D01*
X103396064Y-54811395D01*
X103157969Y-54811395D01*
X103062731Y-54763776D01*
X103015112Y-54716157D01*
X102967493Y-54620919D01*
X102967493Y-54430442D01*
X103015112Y-54335204D01*
X103062731Y-54287585D01*
X103157969Y-54239966D01*
X105083882Y-51928852D02*
X105131501Y-51881233D01*
X105179120Y-51738376D01*
X105179120Y-51643138D01*
X105131501Y-51500280D01*
X105036263Y-51405042D01*
X104941025Y-51357423D01*
X104750549Y-51309804D01*
X104607692Y-51309804D01*
X104417216Y-51357423D01*
X104321978Y-51405042D01*
X104226740Y-51500280D01*
X104179120Y-51643138D01*
X104179120Y-51738376D01*
X104226740Y-51881233D01*
X104274359Y-51928852D01*
X105179120Y-52881233D02*
X105179120Y-52309804D01*
X105179120Y-52595519D02*
X104179120Y-52595519D01*
X104321978Y-52500280D01*
X104417216Y-52405042D01*
X104464835Y-52309804D01*
X105179120Y-53833614D02*
X105179120Y-53262185D01*
X105179120Y-53547900D02*
X104179120Y-53547900D01*
X104321978Y-53452661D01*
X104417216Y-53357423D01*
X104464835Y-53262185D01*
X104179120Y-54166947D02*
X104179120Y-54785995D01*
X104560073Y-54452661D01*
X104560073Y-54595519D01*
X104607692Y-54690757D01*
X104655311Y-54738376D01*
X104750549Y-54785995D01*
X104988644Y-54785995D01*
X105083882Y-54738376D01*
X105131501Y-54690757D01*
X105179120Y-54595519D01*
X105179120Y-54309804D01*
X105131501Y-54214566D01*
X105083882Y-54166947D01*
X106653602Y-51911072D02*
X106701221Y-51863453D01*
X106748840Y-51720596D01*
X106748840Y-51625358D01*
X106701221Y-51482500D01*
X106605983Y-51387262D01*
X106510745Y-51339643D01*
X106320269Y-51292024D01*
X106177412Y-51292024D01*
X105986936Y-51339643D01*
X105891698Y-51387262D01*
X105796460Y-51482500D01*
X105748840Y-51625358D01*
X105748840Y-51720596D01*
X105796460Y-51863453D01*
X105844079Y-51911072D01*
X106748840Y-52863453D02*
X106748840Y-52292024D01*
X106748840Y-52577739D02*
X105748840Y-52577739D01*
X105891698Y-52482500D01*
X105986936Y-52387262D01*
X106034555Y-52292024D01*
X106748840Y-53815834D02*
X106748840Y-53244405D01*
X106748840Y-53530120D02*
X105748840Y-53530120D01*
X105891698Y-53434881D01*
X105986936Y-53339643D01*
X106034555Y-53244405D01*
X105844079Y-54196786D02*
X105796460Y-54244405D01*
X105748840Y-54339643D01*
X105748840Y-54577739D01*
X105796460Y-54672977D01*
X105844079Y-54720596D01*
X105939317Y-54768215D01*
X106034555Y-54768215D01*
X106177412Y-54720596D01*
X106748840Y-54149167D01*
X106748840Y-54768215D01*
X89808227Y-64629302D02*
X89855846Y-64676921D01*
X89998703Y-64724540D01*
X90093941Y-64724540D01*
X90236799Y-64676921D01*
X90332037Y-64581683D01*
X90379656Y-64486445D01*
X90427275Y-64295969D01*
X90427275Y-64153112D01*
X90379656Y-63962636D01*
X90332037Y-63867398D01*
X90236799Y-63772160D01*
X90093941Y-63724540D01*
X89998703Y-63724540D01*
X89855846Y-63772160D01*
X89808227Y-63819779D01*
X88855846Y-64724540D02*
X89427275Y-64724540D01*
X89141560Y-64724540D02*
X89141560Y-63724540D01*
X89236799Y-63867398D01*
X89332037Y-63962636D01*
X89427275Y-64010255D01*
X87903465Y-64724540D02*
X88474894Y-64724540D01*
X88189180Y-64724540D02*
X88189180Y-63724540D01*
X88284418Y-63867398D01*
X88379656Y-63962636D01*
X88474894Y-64010255D01*
X86951084Y-64724540D02*
X87522513Y-64724540D01*
X87236799Y-64724540D02*
X87236799Y-63724540D01*
X87332037Y-63867398D01*
X87427275Y-63962636D01*
X87522513Y-64010255D01*
X89986027Y-66323482D02*
X90033646Y-66371101D01*
X90176503Y-66418720D01*
X90271741Y-66418720D01*
X90414599Y-66371101D01*
X90509837Y-66275863D01*
X90557456Y-66180625D01*
X90605075Y-65990149D01*
X90605075Y-65847292D01*
X90557456Y-65656816D01*
X90509837Y-65561578D01*
X90414599Y-65466340D01*
X90271741Y-65418720D01*
X90176503Y-65418720D01*
X90033646Y-65466340D01*
X89986027Y-65513959D01*
X89033646Y-66418720D02*
X89605075Y-66418720D01*
X89319360Y-66418720D02*
X89319360Y-65418720D01*
X89414599Y-65561578D01*
X89509837Y-65656816D01*
X89605075Y-65704435D01*
X88414599Y-65418720D02*
X88319360Y-65418720D01*
X88224122Y-65466340D01*
X88176503Y-65513959D01*
X88128884Y-65609197D01*
X88081265Y-65799673D01*
X88081265Y-66037768D01*
X88128884Y-66228244D01*
X88176503Y-66323482D01*
X88224122Y-66371101D01*
X88319360Y-66418720D01*
X88414599Y-66418720D01*
X88509837Y-66371101D01*
X88557456Y-66323482D01*
X88605075Y-66228244D01*
X88652694Y-66037768D01*
X88652694Y-65799673D01*
X88605075Y-65609197D01*
X88557456Y-65513959D01*
X88509837Y-65466340D01*
X88414599Y-65418720D01*
X87509837Y-65847292D02*
X87605075Y-65799673D01*
X87652694Y-65752054D01*
X87700313Y-65656816D01*
X87700313Y-65609197D01*
X87652694Y-65513959D01*
X87605075Y-65466340D01*
X87509837Y-65418720D01*
X87319360Y-65418720D01*
X87224122Y-65466340D01*
X87176503Y-65513959D01*
X87128884Y-65609197D01*
X87128884Y-65656816D01*
X87176503Y-65752054D01*
X87224122Y-65799673D01*
X87319360Y-65847292D01*
X87509837Y-65847292D01*
X87605075Y-65894911D01*
X87652694Y-65942530D01*
X87700313Y-66037768D01*
X87700313Y-66228244D01*
X87652694Y-66323482D01*
X87605075Y-66371101D01*
X87509837Y-66418720D01*
X87319360Y-66418720D01*
X87224122Y-66371101D01*
X87176503Y-66323482D01*
X87128884Y-66228244D01*
X87128884Y-66037768D01*
X87176503Y-65942530D01*
X87224122Y-65894911D01*
X87319360Y-65847292D01*
X71348807Y-66953422D02*
X71396426Y-67001041D01*
X71539283Y-67048660D01*
X71634521Y-67048660D01*
X71777379Y-67001041D01*
X71872617Y-66905803D01*
X71920236Y-66810565D01*
X71967855Y-66620089D01*
X71967855Y-66477232D01*
X71920236Y-66286756D01*
X71872617Y-66191518D01*
X71777379Y-66096280D01*
X71634521Y-66048660D01*
X71539283Y-66048660D01*
X71396426Y-66096280D01*
X71348807Y-66143899D01*
X70396426Y-67048660D02*
X70967855Y-67048660D01*
X70682140Y-67048660D02*
X70682140Y-66048660D01*
X70777379Y-66191518D01*
X70872617Y-66286756D01*
X70967855Y-66334375D01*
X69777379Y-66048660D02*
X69682140Y-66048660D01*
X69586902Y-66096280D01*
X69539283Y-66143899D01*
X69491664Y-66239137D01*
X69444045Y-66429613D01*
X69444045Y-66667708D01*
X69491664Y-66858184D01*
X69539283Y-66953422D01*
X69586902Y-67001041D01*
X69682140Y-67048660D01*
X69777379Y-67048660D01*
X69872617Y-67001041D01*
X69920236Y-66953422D01*
X69967855Y-66858184D01*
X70015474Y-66667708D01*
X70015474Y-66429613D01*
X69967855Y-66239137D01*
X69920236Y-66143899D01*
X69872617Y-66096280D01*
X69777379Y-66048660D01*
X69110712Y-66048660D02*
X68444045Y-66048660D01*
X68872617Y-67048660D01*
X98897677Y-80946262D02*
X98945296Y-80993881D01*
X99088153Y-81041500D01*
X99183391Y-81041500D01*
X99326248Y-80993881D01*
X99421486Y-80898643D01*
X99469105Y-80803405D01*
X99516724Y-80612929D01*
X99516724Y-80470072D01*
X99469105Y-80279596D01*
X99421486Y-80184358D01*
X99326248Y-80089120D01*
X99183391Y-80041500D01*
X99088153Y-80041500D01*
X98945296Y-80089120D01*
X98897677Y-80136739D01*
X98421486Y-81041500D02*
X98231010Y-81041500D01*
X98135772Y-80993881D01*
X98088153Y-80946262D01*
X97992915Y-80803405D01*
X97945296Y-80612929D01*
X97945296Y-80231977D01*
X97992915Y-80136739D01*
X98040534Y-80089120D01*
X98135772Y-80041500D01*
X98326248Y-80041500D01*
X98421486Y-80089120D01*
X98469105Y-80136739D01*
X98516724Y-80231977D01*
X98516724Y-80470072D01*
X98469105Y-80565310D01*
X98421486Y-80612929D01*
X98326248Y-80660548D01*
X98135772Y-80660548D01*
X98040534Y-80612929D01*
X97992915Y-80565310D01*
X97945296Y-80470072D01*
X97373867Y-80470072D02*
X97469105Y-80422453D01*
X97516724Y-80374834D01*
X97564343Y-80279596D01*
X97564343Y-80231977D01*
X97516724Y-80136739D01*
X97469105Y-80089120D01*
X97373867Y-80041500D01*
X97183391Y-80041500D01*
X97088153Y-80089120D01*
X97040534Y-80136739D01*
X96992915Y-80231977D01*
X96992915Y-80279596D01*
X97040534Y-80374834D01*
X97088153Y-80422453D01*
X97183391Y-80470072D01*
X97373867Y-80470072D01*
X97469105Y-80517691D01*
X97516724Y-80565310D01*
X97564343Y-80660548D01*
X97564343Y-80851024D01*
X97516724Y-80946262D01*
X97469105Y-80993881D01*
X97373867Y-81041500D01*
X97183391Y-81041500D01*
X97088153Y-80993881D01*
X97040534Y-80946262D01*
X96992915Y-80851024D01*
X96992915Y-80660548D01*
X97040534Y-80565310D01*
X97088153Y-80517691D01*
X97183391Y-80470072D01*
X99067857Y-83219562D02*
X99115476Y-83267181D01*
X99258333Y-83314800D01*
X99353571Y-83314800D01*
X99496428Y-83267181D01*
X99591666Y-83171943D01*
X99639285Y-83076705D01*
X99686904Y-82886229D01*
X99686904Y-82743372D01*
X99639285Y-82552896D01*
X99591666Y-82457658D01*
X99496428Y-82362420D01*
X99353571Y-82314800D01*
X99258333Y-82314800D01*
X99115476Y-82362420D01*
X99067857Y-82410039D01*
X98591666Y-83314800D02*
X98401190Y-83314800D01*
X98305952Y-83267181D01*
X98258333Y-83219562D01*
X98163095Y-83076705D01*
X98115476Y-82886229D01*
X98115476Y-82505277D01*
X98163095Y-82410039D01*
X98210714Y-82362420D01*
X98305952Y-82314800D01*
X98496428Y-82314800D01*
X98591666Y-82362420D01*
X98639285Y-82410039D01*
X98686904Y-82505277D01*
X98686904Y-82743372D01*
X98639285Y-82838610D01*
X98591666Y-82886229D01*
X98496428Y-82933848D01*
X98305952Y-82933848D01*
X98210714Y-82886229D01*
X98163095Y-82838610D01*
X98115476Y-82743372D01*
X97258333Y-82314800D02*
X97448809Y-82314800D01*
X97544047Y-82362420D01*
X97591666Y-82410039D01*
X97686904Y-82552896D01*
X97734523Y-82743372D01*
X97734523Y-83124324D01*
X97686904Y-83219562D01*
X97639285Y-83267181D01*
X97544047Y-83314800D01*
X97353571Y-83314800D01*
X97258333Y-83267181D01*
X97210714Y-83219562D01*
X97163095Y-83124324D01*
X97163095Y-82886229D01*
X97210714Y-82790991D01*
X97258333Y-82743372D01*
X97353571Y-82695753D01*
X97544047Y-82695753D01*
X97639285Y-82743372D01*
X97686904Y-82790991D01*
X97734523Y-82886229D01*
X100252802Y-52747942D02*
X100300421Y-52700323D01*
X100348040Y-52557466D01*
X100348040Y-52462228D01*
X100300421Y-52319371D01*
X100205183Y-52224133D01*
X100109945Y-52176514D01*
X99919469Y-52128895D01*
X99776612Y-52128895D01*
X99586136Y-52176514D01*
X99490898Y-52224133D01*
X99395660Y-52319371D01*
X99348040Y-52462228D01*
X99348040Y-52557466D01*
X99395660Y-52700323D01*
X99443279Y-52747942D01*
X100348040Y-53224133D02*
X100348040Y-53414609D01*
X100300421Y-53509847D01*
X100252802Y-53557466D01*
X100109945Y-53652704D01*
X99919469Y-53700323D01*
X99538517Y-53700323D01*
X99443279Y-53652704D01*
X99395660Y-53605085D01*
X99348040Y-53509847D01*
X99348040Y-53319371D01*
X99395660Y-53224133D01*
X99443279Y-53176514D01*
X99538517Y-53128895D01*
X99776612Y-53128895D01*
X99871850Y-53176514D01*
X99919469Y-53224133D01*
X99967088Y-53319371D01*
X99967088Y-53509847D01*
X99919469Y-53605085D01*
X99871850Y-53652704D01*
X99776612Y-53700323D01*
X99681374Y-54557466D02*
X100348040Y-54557466D01*
X99300421Y-54319371D02*
X100014707Y-54081276D01*
X100014707Y-54700323D01*
X101974922Y-52938442D02*
X102022541Y-52890823D01*
X102070160Y-52747966D01*
X102070160Y-52652728D01*
X102022541Y-52509871D01*
X101927303Y-52414633D01*
X101832065Y-52367014D01*
X101641589Y-52319395D01*
X101498732Y-52319395D01*
X101308256Y-52367014D01*
X101213018Y-52414633D01*
X101117780Y-52509871D01*
X101070160Y-52652728D01*
X101070160Y-52747966D01*
X101117780Y-52890823D01*
X101165399Y-52938442D01*
X102070160Y-53414633D02*
X102070160Y-53605109D01*
X102022541Y-53700347D01*
X101974922Y-53747966D01*
X101832065Y-53843204D01*
X101641589Y-53890823D01*
X101260637Y-53890823D01*
X101165399Y-53843204D01*
X101117780Y-53795585D01*
X101070160Y-53700347D01*
X101070160Y-53509871D01*
X101117780Y-53414633D01*
X101165399Y-53367014D01*
X101260637Y-53319395D01*
X101498732Y-53319395D01*
X101593970Y-53367014D01*
X101641589Y-53414633D01*
X101689208Y-53509871D01*
X101689208Y-53700347D01*
X101641589Y-53795585D01*
X101593970Y-53843204D01*
X101498732Y-53890823D01*
X101070160Y-54224157D02*
X101070160Y-54843204D01*
X101451113Y-54509871D01*
X101451113Y-54652728D01*
X101498732Y-54747966D01*
X101546351Y-54795585D01*
X101641589Y-54843204D01*
X101879684Y-54843204D01*
X101974922Y-54795585D01*
X102022541Y-54747966D01*
X102070160Y-54652728D01*
X102070160Y-54367014D01*
X102022541Y-54271776D01*
X101974922Y-54224157D01*
X94293942Y-84915742D02*
X94341561Y-84868123D01*
X94389180Y-84725266D01*
X94389180Y-84630028D01*
X94341561Y-84487171D01*
X94246323Y-84391933D01*
X94151085Y-84344314D01*
X93960609Y-84296695D01*
X93817752Y-84296695D01*
X93627276Y-84344314D01*
X93532038Y-84391933D01*
X93436800Y-84487171D01*
X93389180Y-84630028D01*
X93389180Y-84725266D01*
X93436800Y-84868123D01*
X93484419Y-84915742D01*
X94389180Y-85391933D02*
X94389180Y-85582409D01*
X94341561Y-85677647D01*
X94293942Y-85725266D01*
X94151085Y-85820504D01*
X93960609Y-85868123D01*
X93579657Y-85868123D01*
X93484419Y-85820504D01*
X93436800Y-85772885D01*
X93389180Y-85677647D01*
X93389180Y-85487171D01*
X93436800Y-85391933D01*
X93484419Y-85344314D01*
X93579657Y-85296695D01*
X93817752Y-85296695D01*
X93912990Y-85344314D01*
X93960609Y-85391933D01*
X94008228Y-85487171D01*
X94008228Y-85677647D01*
X93960609Y-85772885D01*
X93912990Y-85820504D01*
X93817752Y-85868123D01*
X93484419Y-86249076D02*
X93436800Y-86296695D01*
X93389180Y-86391933D01*
X93389180Y-86630028D01*
X93436800Y-86725266D01*
X93484419Y-86772885D01*
X93579657Y-86820504D01*
X93674895Y-86820504D01*
X93817752Y-86772885D01*
X94389180Y-86201457D01*
X94389180Y-86820504D01*
X88877377Y-71276482D02*
X88924996Y-71324101D01*
X89067853Y-71371720D01*
X89163091Y-71371720D01*
X89305948Y-71324101D01*
X89401186Y-71228863D01*
X89448805Y-71133625D01*
X89496424Y-70943149D01*
X89496424Y-70800292D01*
X89448805Y-70609816D01*
X89401186Y-70514578D01*
X89305948Y-70419340D01*
X89163091Y-70371720D01*
X89067853Y-70371720D01*
X88924996Y-70419340D01*
X88877377Y-70466959D01*
X88305948Y-70800292D02*
X88401186Y-70752673D01*
X88448805Y-70705054D01*
X88496424Y-70609816D01*
X88496424Y-70562197D01*
X88448805Y-70466959D01*
X88401186Y-70419340D01*
X88305948Y-70371720D01*
X88115472Y-70371720D01*
X88020234Y-70419340D01*
X87972615Y-70466959D01*
X87924996Y-70562197D01*
X87924996Y-70609816D01*
X87972615Y-70705054D01*
X88020234Y-70752673D01*
X88115472Y-70800292D01*
X88305948Y-70800292D01*
X88401186Y-70847911D01*
X88448805Y-70895530D01*
X88496424Y-70990768D01*
X88496424Y-71181244D01*
X88448805Y-71276482D01*
X88401186Y-71324101D01*
X88305948Y-71371720D01*
X88115472Y-71371720D01*
X88020234Y-71324101D01*
X87972615Y-71276482D01*
X87924996Y-71181244D01*
X87924996Y-70990768D01*
X87972615Y-70895530D01*
X88020234Y-70847911D01*
X88115472Y-70800292D01*
X87448805Y-71371720D02*
X87258329Y-71371720D01*
X87163091Y-71324101D01*
X87115472Y-71276482D01*
X87020234Y-71133625D01*
X86972615Y-70943149D01*
X86972615Y-70562197D01*
X87020234Y-70466959D01*
X87067853Y-70419340D01*
X87163091Y-70371720D01*
X87353567Y-70371720D01*
X87448805Y-70419340D01*
X87496424Y-70466959D01*
X87544043Y-70562197D01*
X87544043Y-70800292D01*
X87496424Y-70895530D01*
X87448805Y-70943149D01*
X87353567Y-70990768D01*
X87163091Y-70990768D01*
X87067853Y-70943149D01*
X87020234Y-70895530D01*
X86972615Y-70800292D01*
X98479882Y-52824142D02*
X98527501Y-52776523D01*
X98575120Y-52633666D01*
X98575120Y-52538428D01*
X98527501Y-52395571D01*
X98432263Y-52300333D01*
X98337025Y-52252714D01*
X98146549Y-52205095D01*
X98003692Y-52205095D01*
X97813216Y-52252714D01*
X97717978Y-52300333D01*
X97622740Y-52395571D01*
X97575120Y-52538428D01*
X97575120Y-52633666D01*
X97622740Y-52776523D01*
X97670359Y-52824142D01*
X98003692Y-53395571D02*
X97956073Y-53300333D01*
X97908454Y-53252714D01*
X97813216Y-53205095D01*
X97765597Y-53205095D01*
X97670359Y-53252714D01*
X97622740Y-53300333D01*
X97575120Y-53395571D01*
X97575120Y-53586047D01*
X97622740Y-53681285D01*
X97670359Y-53728904D01*
X97765597Y-53776523D01*
X97813216Y-53776523D01*
X97908454Y-53728904D01*
X97956073Y-53681285D01*
X98003692Y-53586047D01*
X98003692Y-53395571D01*
X98051311Y-53300333D01*
X98098930Y-53252714D01*
X98194168Y-53205095D01*
X98384644Y-53205095D01*
X98479882Y-53252714D01*
X98527501Y-53300333D01*
X98575120Y-53395571D01*
X98575120Y-53586047D01*
X98527501Y-53681285D01*
X98479882Y-53728904D01*
X98384644Y-53776523D01*
X98194168Y-53776523D01*
X98098930Y-53728904D01*
X98051311Y-53681285D01*
X98003692Y-53586047D01*
X98003692Y-54347952D02*
X97956073Y-54252714D01*
X97908454Y-54205095D01*
X97813216Y-54157476D01*
X97765597Y-54157476D01*
X97670359Y-54205095D01*
X97622740Y-54252714D01*
X97575120Y-54347952D01*
X97575120Y-54538428D01*
X97622740Y-54633666D01*
X97670359Y-54681285D01*
X97765597Y-54728904D01*
X97813216Y-54728904D01*
X97908454Y-54681285D01*
X97956073Y-54633666D01*
X98003692Y-54538428D01*
X98003692Y-54347952D01*
X98051311Y-54252714D01*
X98098930Y-54205095D01*
X98194168Y-54157476D01*
X98384644Y-54157476D01*
X98479882Y-54205095D01*
X98527501Y-54252714D01*
X98575120Y-54347952D01*
X98575120Y-54538428D01*
X98527501Y-54633666D01*
X98479882Y-54681285D01*
X98384644Y-54728904D01*
X98194168Y-54728904D01*
X98098930Y-54681285D01*
X98051311Y-54633666D01*
X98003692Y-54538428D01*
X89090737Y-67966862D02*
X89138356Y-68014481D01*
X89281213Y-68062100D01*
X89376451Y-68062100D01*
X89519308Y-68014481D01*
X89614546Y-67919243D01*
X89662165Y-67824005D01*
X89709784Y-67633529D01*
X89709784Y-67490672D01*
X89662165Y-67300196D01*
X89614546Y-67204958D01*
X89519308Y-67109720D01*
X89376451Y-67062100D01*
X89281213Y-67062100D01*
X89138356Y-67109720D01*
X89090737Y-67157339D01*
X88519308Y-67490672D02*
X88614546Y-67443053D01*
X88662165Y-67395434D01*
X88709784Y-67300196D01*
X88709784Y-67252577D01*
X88662165Y-67157339D01*
X88614546Y-67109720D01*
X88519308Y-67062100D01*
X88328832Y-67062100D01*
X88233594Y-67109720D01*
X88185975Y-67157339D01*
X88138356Y-67252577D01*
X88138356Y-67300196D01*
X88185975Y-67395434D01*
X88233594Y-67443053D01*
X88328832Y-67490672D01*
X88519308Y-67490672D01*
X88614546Y-67538291D01*
X88662165Y-67585910D01*
X88709784Y-67681148D01*
X88709784Y-67871624D01*
X88662165Y-67966862D01*
X88614546Y-68014481D01*
X88519308Y-68062100D01*
X88328832Y-68062100D01*
X88233594Y-68014481D01*
X88185975Y-67966862D01*
X88138356Y-67871624D01*
X88138356Y-67681148D01*
X88185975Y-67585910D01*
X88233594Y-67538291D01*
X88328832Y-67490672D01*
X87281213Y-67062100D02*
X87471689Y-67062100D01*
X87566927Y-67109720D01*
X87614546Y-67157339D01*
X87709784Y-67300196D01*
X87757403Y-67490672D01*
X87757403Y-67871624D01*
X87709784Y-67966862D01*
X87662165Y-68014481D01*
X87566927Y-68062100D01*
X87376451Y-68062100D01*
X87281213Y-68014481D01*
X87233594Y-67966862D01*
X87185975Y-67871624D01*
X87185975Y-67633529D01*
X87233594Y-67538291D01*
X87281213Y-67490672D01*
X87376451Y-67443053D01*
X87566927Y-67443053D01*
X87662165Y-67490672D01*
X87709784Y-67538291D01*
X87757403Y-67633529D01*
X76313322Y-73880742D02*
X76360941Y-73833123D01*
X76408560Y-73690266D01*
X76408560Y-73595028D01*
X76360941Y-73452171D01*
X76265703Y-73356933D01*
X76170465Y-73309314D01*
X75979989Y-73261695D01*
X75837132Y-73261695D01*
X75646656Y-73309314D01*
X75551418Y-73356933D01*
X75456180Y-73452171D01*
X75408560Y-73595028D01*
X75408560Y-73690266D01*
X75456180Y-73833123D01*
X75503799Y-73880742D01*
X75837132Y-74452171D02*
X75789513Y-74356933D01*
X75741894Y-74309314D01*
X75646656Y-74261695D01*
X75599037Y-74261695D01*
X75503799Y-74309314D01*
X75456180Y-74356933D01*
X75408560Y-74452171D01*
X75408560Y-74642647D01*
X75456180Y-74737885D01*
X75503799Y-74785504D01*
X75599037Y-74833123D01*
X75646656Y-74833123D01*
X75741894Y-74785504D01*
X75789513Y-74737885D01*
X75837132Y-74642647D01*
X75837132Y-74452171D01*
X75884751Y-74356933D01*
X75932370Y-74309314D01*
X76027608Y-74261695D01*
X76218084Y-74261695D01*
X76313322Y-74309314D01*
X76360941Y-74356933D01*
X76408560Y-74452171D01*
X76408560Y-74642647D01*
X76360941Y-74737885D01*
X76313322Y-74785504D01*
X76218084Y-74833123D01*
X76027608Y-74833123D01*
X75932370Y-74785504D01*
X75884751Y-74737885D01*
X75837132Y-74642647D01*
X75408560Y-75737885D02*
X75408560Y-75261695D01*
X75884751Y-75214076D01*
X75837132Y-75261695D01*
X75789513Y-75356933D01*
X75789513Y-75595028D01*
X75837132Y-75690266D01*
X75884751Y-75737885D01*
X75979989Y-75785504D01*
X76218084Y-75785504D01*
X76313322Y-75737885D01*
X76360941Y-75690266D01*
X76408560Y-75595028D01*
X76408560Y-75356933D01*
X76360941Y-75261695D01*
X76313322Y-75214076D01*
X78012562Y-55420022D02*
X78060181Y-55372403D01*
X78107800Y-55229546D01*
X78107800Y-55134308D01*
X78060181Y-54991451D01*
X77964943Y-54896213D01*
X77869705Y-54848594D01*
X77679229Y-54800975D01*
X77536372Y-54800975D01*
X77345896Y-54848594D01*
X77250658Y-54896213D01*
X77155420Y-54991451D01*
X77107800Y-55134308D01*
X77107800Y-55229546D01*
X77155420Y-55372403D01*
X77203039Y-55420022D01*
X77536372Y-55991451D02*
X77488753Y-55896213D01*
X77441134Y-55848594D01*
X77345896Y-55800975D01*
X77298277Y-55800975D01*
X77203039Y-55848594D01*
X77155420Y-55896213D01*
X77107800Y-55991451D01*
X77107800Y-56181927D01*
X77155420Y-56277165D01*
X77203039Y-56324784D01*
X77298277Y-56372403D01*
X77345896Y-56372403D01*
X77441134Y-56324784D01*
X77488753Y-56277165D01*
X77536372Y-56181927D01*
X77536372Y-55991451D01*
X77583991Y-55896213D01*
X77631610Y-55848594D01*
X77726848Y-55800975D01*
X77917324Y-55800975D01*
X78012562Y-55848594D01*
X78060181Y-55896213D01*
X78107800Y-55991451D01*
X78107800Y-56181927D01*
X78060181Y-56277165D01*
X78012562Y-56324784D01*
X77917324Y-56372403D01*
X77726848Y-56372403D01*
X77631610Y-56324784D01*
X77583991Y-56277165D01*
X77536372Y-56181927D01*
X77441134Y-57229546D02*
X78107800Y-57229546D01*
X77060181Y-56991451D02*
X77774467Y-56753356D01*
X77774467Y-57372403D01*
X79760082Y-55313342D02*
X79807701Y-55265723D01*
X79855320Y-55122866D01*
X79855320Y-55027628D01*
X79807701Y-54884771D01*
X79712463Y-54789533D01*
X79617225Y-54741914D01*
X79426749Y-54694295D01*
X79283892Y-54694295D01*
X79093416Y-54741914D01*
X78998178Y-54789533D01*
X78902940Y-54884771D01*
X78855320Y-55027628D01*
X78855320Y-55122866D01*
X78902940Y-55265723D01*
X78950559Y-55313342D01*
X79283892Y-55884771D02*
X79236273Y-55789533D01*
X79188654Y-55741914D01*
X79093416Y-55694295D01*
X79045797Y-55694295D01*
X78950559Y-55741914D01*
X78902940Y-55789533D01*
X78855320Y-55884771D01*
X78855320Y-56075247D01*
X78902940Y-56170485D01*
X78950559Y-56218104D01*
X79045797Y-56265723D01*
X79093416Y-56265723D01*
X79188654Y-56218104D01*
X79236273Y-56170485D01*
X79283892Y-56075247D01*
X79283892Y-55884771D01*
X79331511Y-55789533D01*
X79379130Y-55741914D01*
X79474368Y-55694295D01*
X79664844Y-55694295D01*
X79760082Y-55741914D01*
X79807701Y-55789533D01*
X79855320Y-55884771D01*
X79855320Y-56075247D01*
X79807701Y-56170485D01*
X79760082Y-56218104D01*
X79664844Y-56265723D01*
X79474368Y-56265723D01*
X79379130Y-56218104D01*
X79331511Y-56170485D01*
X79283892Y-56075247D01*
X78855320Y-56599057D02*
X78855320Y-57218104D01*
X79236273Y-56884771D01*
X79236273Y-57027628D01*
X79283892Y-57122866D01*
X79331511Y-57170485D01*
X79426749Y-57218104D01*
X79664844Y-57218104D01*
X79760082Y-57170485D01*
X79807701Y-57122866D01*
X79855320Y-57027628D01*
X79855320Y-56741914D01*
X79807701Y-56646676D01*
X79760082Y-56599057D01*
X88961197Y-69549282D02*
X89008816Y-69596901D01*
X89151673Y-69644520D01*
X89246911Y-69644520D01*
X89389768Y-69596901D01*
X89485006Y-69501663D01*
X89532625Y-69406425D01*
X89580244Y-69215949D01*
X89580244Y-69073092D01*
X89532625Y-68882616D01*
X89485006Y-68787378D01*
X89389768Y-68692140D01*
X89246911Y-68644520D01*
X89151673Y-68644520D01*
X89008816Y-68692140D01*
X88961197Y-68739759D01*
X88389768Y-69073092D02*
X88485006Y-69025473D01*
X88532625Y-68977854D01*
X88580244Y-68882616D01*
X88580244Y-68834997D01*
X88532625Y-68739759D01*
X88485006Y-68692140D01*
X88389768Y-68644520D01*
X88199292Y-68644520D01*
X88104054Y-68692140D01*
X88056435Y-68739759D01*
X88008816Y-68834997D01*
X88008816Y-68882616D01*
X88056435Y-68977854D01*
X88104054Y-69025473D01*
X88199292Y-69073092D01*
X88389768Y-69073092D01*
X88485006Y-69120711D01*
X88532625Y-69168330D01*
X88580244Y-69263568D01*
X88580244Y-69454044D01*
X88532625Y-69549282D01*
X88485006Y-69596901D01*
X88389768Y-69644520D01*
X88199292Y-69644520D01*
X88104054Y-69596901D01*
X88056435Y-69549282D01*
X88008816Y-69454044D01*
X88008816Y-69263568D01*
X88056435Y-69168330D01*
X88104054Y-69120711D01*
X88199292Y-69073092D01*
X87389768Y-68644520D02*
X87294530Y-68644520D01*
X87199292Y-68692140D01*
X87151673Y-68739759D01*
X87104054Y-68834997D01*
X87056435Y-69025473D01*
X87056435Y-69263568D01*
X87104054Y-69454044D01*
X87151673Y-69549282D01*
X87199292Y-69596901D01*
X87294530Y-69644520D01*
X87389768Y-69644520D01*
X87485006Y-69596901D01*
X87532625Y-69549282D01*
X87580244Y-69454044D01*
X87627863Y-69263568D01*
X87627863Y-69025473D01*
X87580244Y-68834997D01*
X87532625Y-68739759D01*
X87485006Y-68692140D01*
X87389768Y-68644520D01*
X71195943Y-70536806D02*
X71263287Y-70536806D01*
X71397974Y-70469462D01*
X71465317Y-70402119D01*
X71532661Y-70267432D01*
X71532661Y-70132745D01*
X71498989Y-70031730D01*
X71397974Y-69863371D01*
X71296959Y-69762356D01*
X71128600Y-69661340D01*
X71027585Y-69627669D01*
X70892898Y-69627669D01*
X70758211Y-69695012D01*
X70690867Y-69762356D01*
X70623524Y-69897043D01*
X70623524Y-69964386D01*
X70320478Y-70132745D02*
X69849073Y-70604149D01*
X70859226Y-71008211D01*
X69512356Y-71412272D02*
X69983760Y-71883676D01*
X69411340Y-70974539D02*
X70084775Y-71311256D01*
X69647043Y-71748989D01*
X148278950Y-73597486D02*
X148278950Y-73664830D01*
X148346294Y-73799517D01*
X148413637Y-73866860D01*
X148548324Y-73934204D01*
X148683011Y-73934204D01*
X148784026Y-73900532D01*
X148952385Y-73799517D01*
X149053400Y-73698502D01*
X149154416Y-73530143D01*
X149188087Y-73429128D01*
X149188087Y-73294441D01*
X149120744Y-73159754D01*
X149053400Y-73092410D01*
X148918713Y-73025067D01*
X148851370Y-73025067D01*
X148683011Y-72722021D02*
X148211607Y-72250616D01*
X147807545Y-73260769D01*
X147908561Y-72082257D02*
X147908561Y-72014914D01*
X147874889Y-71913899D01*
X147706530Y-71745540D01*
X147605515Y-71711868D01*
X147538171Y-71711868D01*
X147437156Y-71745540D01*
X147369813Y-71812883D01*
X147302469Y-71947570D01*
X147302469Y-72755692D01*
X146864736Y-72317960D01*
X102489237Y-89859122D02*
X102536856Y-89906741D01*
X102679713Y-89954360D01*
X102774951Y-89954360D01*
X102917808Y-89906741D01*
X103013046Y-89811503D01*
X103060665Y-89716265D01*
X103108284Y-89525789D01*
X103108284Y-89382932D01*
X103060665Y-89192456D01*
X103013046Y-89097218D01*
X102917808Y-89001980D01*
X102774951Y-88954360D01*
X102679713Y-88954360D01*
X102536856Y-89001980D01*
X102489237Y-89049599D01*
X101632094Y-88954360D02*
X101822570Y-88954360D01*
X101917808Y-89001980D01*
X101965427Y-89049599D01*
X102060665Y-89192456D01*
X102108284Y-89382932D01*
X102108284Y-89763884D01*
X102060665Y-89859122D01*
X102013046Y-89906741D01*
X101917808Y-89954360D01*
X101727332Y-89954360D01*
X101632094Y-89906741D01*
X101584475Y-89859122D01*
X101536856Y-89763884D01*
X101536856Y-89525789D01*
X101584475Y-89430551D01*
X101632094Y-89382932D01*
X101727332Y-89335313D01*
X101917808Y-89335313D01*
X102013046Y-89382932D01*
X102060665Y-89430551D01*
X102108284Y-89525789D01*
X101060665Y-89954360D02*
X100870189Y-89954360D01*
X100774951Y-89906741D01*
X100727332Y-89859122D01*
X100632094Y-89716265D01*
X100584475Y-89525789D01*
X100584475Y-89144837D01*
X100632094Y-89049599D01*
X100679713Y-89001980D01*
X100774951Y-88954360D01*
X100965427Y-88954360D01*
X101060665Y-89001980D01*
X101108284Y-89049599D01*
X101155903Y-89144837D01*
X101155903Y-89382932D01*
X101108284Y-89478170D01*
X101060665Y-89525789D01*
X100965427Y-89573408D01*
X100774951Y-89573408D01*
X100679713Y-89525789D01*
X100632094Y-89478170D01*
X100584475Y-89382932D01*
X102263177Y-84720702D02*
X102310796Y-84768321D01*
X102453653Y-84815940D01*
X102548891Y-84815940D01*
X102691748Y-84768321D01*
X102786986Y-84673083D01*
X102834605Y-84577845D01*
X102882224Y-84387369D01*
X102882224Y-84244512D01*
X102834605Y-84054036D01*
X102786986Y-83958798D01*
X102691748Y-83863560D01*
X102548891Y-83815940D01*
X102453653Y-83815940D01*
X102310796Y-83863560D01*
X102263177Y-83911179D01*
X101406034Y-83815940D02*
X101596510Y-83815940D01*
X101691748Y-83863560D01*
X101739367Y-83911179D01*
X101834605Y-84054036D01*
X101882224Y-84244512D01*
X101882224Y-84625464D01*
X101834605Y-84720702D01*
X101786986Y-84768321D01*
X101691748Y-84815940D01*
X101501272Y-84815940D01*
X101406034Y-84768321D01*
X101358415Y-84720702D01*
X101310796Y-84625464D01*
X101310796Y-84387369D01*
X101358415Y-84292131D01*
X101406034Y-84244512D01*
X101501272Y-84196893D01*
X101691748Y-84196893D01*
X101786986Y-84244512D01*
X101834605Y-84292131D01*
X101882224Y-84387369D01*
X100453653Y-83815940D02*
X100644129Y-83815940D01*
X100739367Y-83863560D01*
X100786986Y-83911179D01*
X100882224Y-84054036D01*
X100929843Y-84244512D01*
X100929843Y-84625464D01*
X100882224Y-84720702D01*
X100834605Y-84768321D01*
X100739367Y-84815940D01*
X100548891Y-84815940D01*
X100453653Y-84768321D01*
X100406034Y-84720702D01*
X100358415Y-84625464D01*
X100358415Y-84387369D01*
X100406034Y-84292131D01*
X100453653Y-84244512D01*
X100548891Y-84196893D01*
X100739367Y-84196893D01*
X100834605Y-84244512D01*
X100882224Y-84292131D01*
X100929843Y-84387369D01*
X141396957Y-72894462D02*
X141444576Y-72942081D01*
X141587433Y-72989700D01*
X141682671Y-72989700D01*
X141825528Y-72942081D01*
X141920766Y-72846843D01*
X141968385Y-72751605D01*
X142016004Y-72561129D01*
X142016004Y-72418272D01*
X141968385Y-72227796D01*
X141920766Y-72132558D01*
X141825528Y-72037320D01*
X141682671Y-71989700D01*
X141587433Y-71989700D01*
X141444576Y-72037320D01*
X141396957Y-72084939D01*
X140539814Y-71989700D02*
X140730290Y-71989700D01*
X140825528Y-72037320D01*
X140873147Y-72084939D01*
X140968385Y-72227796D01*
X141016004Y-72418272D01*
X141016004Y-72799224D01*
X140968385Y-72894462D01*
X140920766Y-72942081D01*
X140825528Y-72989700D01*
X140635052Y-72989700D01*
X140539814Y-72942081D01*
X140492195Y-72894462D01*
X140444576Y-72799224D01*
X140444576Y-72561129D01*
X140492195Y-72465891D01*
X140539814Y-72418272D01*
X140635052Y-72370653D01*
X140825528Y-72370653D01*
X140920766Y-72418272D01*
X140968385Y-72465891D01*
X141016004Y-72561129D01*
X139587433Y-72323034D02*
X139587433Y-72989700D01*
X139825528Y-71942081D02*
X140063623Y-72656367D01*
X139444576Y-72656367D01*
X102705137Y-82891902D02*
X102752756Y-82939521D01*
X102895613Y-82987140D01*
X102990851Y-82987140D01*
X103133708Y-82939521D01*
X103228946Y-82844283D01*
X103276565Y-82749045D01*
X103324184Y-82558569D01*
X103324184Y-82415712D01*
X103276565Y-82225236D01*
X103228946Y-82129998D01*
X103133708Y-82034760D01*
X102990851Y-81987140D01*
X102895613Y-81987140D01*
X102752756Y-82034760D01*
X102705137Y-82082379D01*
X101847994Y-81987140D02*
X102038470Y-81987140D01*
X102133708Y-82034760D01*
X102181327Y-82082379D01*
X102276565Y-82225236D01*
X102324184Y-82415712D01*
X102324184Y-82796664D01*
X102276565Y-82891902D01*
X102228946Y-82939521D01*
X102133708Y-82987140D01*
X101943232Y-82987140D01*
X101847994Y-82939521D01*
X101800375Y-82891902D01*
X101752756Y-82796664D01*
X101752756Y-82558569D01*
X101800375Y-82463331D01*
X101847994Y-82415712D01*
X101943232Y-82368093D01*
X102133708Y-82368093D01*
X102228946Y-82415712D01*
X102276565Y-82463331D01*
X102324184Y-82558569D01*
X101419422Y-81987140D02*
X100800375Y-81987140D01*
X101133708Y-82368093D01*
X100990851Y-82368093D01*
X100895613Y-82415712D01*
X100847994Y-82463331D01*
X100800375Y-82558569D01*
X100800375Y-82796664D01*
X100847994Y-82891902D01*
X100895613Y-82939521D01*
X100990851Y-82987140D01*
X101276565Y-82987140D01*
X101371803Y-82939521D01*
X101419422Y-82891902D01*
X105327657Y-83763142D02*
X105375276Y-83810761D01*
X105518133Y-83858380D01*
X105613371Y-83858380D01*
X105756228Y-83810761D01*
X105851466Y-83715523D01*
X105899085Y-83620285D01*
X105946704Y-83429809D01*
X105946704Y-83286952D01*
X105899085Y-83096476D01*
X105851466Y-83001238D01*
X105756228Y-82906000D01*
X105613371Y-82858380D01*
X105518133Y-82858380D01*
X105375276Y-82906000D01*
X105327657Y-82953619D01*
X104470514Y-82858380D02*
X104660990Y-82858380D01*
X104756228Y-82906000D01*
X104803847Y-82953619D01*
X104899085Y-83096476D01*
X104946704Y-83286952D01*
X104946704Y-83667904D01*
X104899085Y-83763142D01*
X104851466Y-83810761D01*
X104756228Y-83858380D01*
X104565752Y-83858380D01*
X104470514Y-83810761D01*
X104422895Y-83763142D01*
X104375276Y-83667904D01*
X104375276Y-83429809D01*
X104422895Y-83334571D01*
X104470514Y-83286952D01*
X104565752Y-83239333D01*
X104756228Y-83239333D01*
X104851466Y-83286952D01*
X104899085Y-83334571D01*
X104946704Y-83429809D01*
X103994323Y-82953619D02*
X103946704Y-82906000D01*
X103851466Y-82858380D01*
X103613371Y-82858380D01*
X103518133Y-82906000D01*
X103470514Y-82953619D01*
X103422895Y-83048857D01*
X103422895Y-83144095D01*
X103470514Y-83286952D01*
X104041942Y-83858380D01*
X103422895Y-83858380D01*
X127105682Y-97797382D02*
X127153301Y-97749763D01*
X127200920Y-97606906D01*
X127200920Y-97511668D01*
X127153301Y-97368811D01*
X127058063Y-97273573D01*
X126962825Y-97225954D01*
X126772349Y-97178335D01*
X126629492Y-97178335D01*
X126439016Y-97225954D01*
X126343778Y-97273573D01*
X126248540Y-97368811D01*
X126200920Y-97511668D01*
X126200920Y-97606906D01*
X126248540Y-97749763D01*
X126296159Y-97797382D01*
X126200920Y-98654525D02*
X126200920Y-98464049D01*
X126248540Y-98368811D01*
X126296159Y-98321192D01*
X126439016Y-98225954D01*
X126629492Y-98178335D01*
X127010444Y-98178335D01*
X127105682Y-98225954D01*
X127153301Y-98273573D01*
X127200920Y-98368811D01*
X127200920Y-98559287D01*
X127153301Y-98654525D01*
X127105682Y-98702144D01*
X127010444Y-98749763D01*
X126772349Y-98749763D01*
X126677111Y-98702144D01*
X126629492Y-98654525D01*
X126581873Y-98559287D01*
X126581873Y-98368811D01*
X126629492Y-98273573D01*
X126677111Y-98225954D01*
X126772349Y-98178335D01*
X126200920Y-99368811D02*
X126200920Y-99464049D01*
X126248540Y-99559287D01*
X126296159Y-99606906D01*
X126391397Y-99654525D01*
X126581873Y-99702144D01*
X126819968Y-99702144D01*
X127010444Y-99654525D01*
X127105682Y-99606906D01*
X127153301Y-99559287D01*
X127200920Y-99464049D01*
X127200920Y-99368811D01*
X127153301Y-99273573D01*
X127105682Y-99225954D01*
X127010444Y-99178335D01*
X126819968Y-99130716D01*
X126581873Y-99130716D01*
X126391397Y-99178335D01*
X126296159Y-99225954D01*
X126248540Y-99273573D01*
X126200920Y-99368811D01*
X125370862Y-97797382D02*
X125418481Y-97749763D01*
X125466100Y-97606906D01*
X125466100Y-97511668D01*
X125418481Y-97368811D01*
X125323243Y-97273573D01*
X125228005Y-97225954D01*
X125037529Y-97178335D01*
X124894672Y-97178335D01*
X124704196Y-97225954D01*
X124608958Y-97273573D01*
X124513720Y-97368811D01*
X124466100Y-97511668D01*
X124466100Y-97606906D01*
X124513720Y-97749763D01*
X124561339Y-97797382D01*
X124466100Y-98702144D02*
X124466100Y-98225954D01*
X124942291Y-98178335D01*
X124894672Y-98225954D01*
X124847053Y-98321192D01*
X124847053Y-98559287D01*
X124894672Y-98654525D01*
X124942291Y-98702144D01*
X125037529Y-98749763D01*
X125275624Y-98749763D01*
X125370862Y-98702144D01*
X125418481Y-98654525D01*
X125466100Y-98559287D01*
X125466100Y-98321192D01*
X125418481Y-98225954D01*
X125370862Y-98178335D01*
X125466100Y-99225954D02*
X125466100Y-99416430D01*
X125418481Y-99511668D01*
X125370862Y-99559287D01*
X125228005Y-99654525D01*
X125037529Y-99702144D01*
X124656577Y-99702144D01*
X124561339Y-99654525D01*
X124513720Y-99606906D01*
X124466100Y-99511668D01*
X124466100Y-99321192D01*
X124513720Y-99225954D01*
X124561339Y-99178335D01*
X124656577Y-99130716D01*
X124894672Y-99130716D01*
X124989910Y-99178335D01*
X125037529Y-99225954D01*
X125085148Y-99321192D01*
X125085148Y-99511668D01*
X125037529Y-99606906D01*
X124989910Y-99654525D01*
X124894672Y-99702144D01*
X119796797Y-96676482D02*
X119844416Y-96724101D01*
X119987273Y-96771720D01*
X120082511Y-96771720D01*
X120225368Y-96724101D01*
X120320606Y-96628863D01*
X120368225Y-96533625D01*
X120415844Y-96343149D01*
X120415844Y-96200292D01*
X120368225Y-96009816D01*
X120320606Y-95914578D01*
X120225368Y-95819340D01*
X120082511Y-95771720D01*
X119987273Y-95771720D01*
X119844416Y-95819340D01*
X119796797Y-95866959D01*
X118892035Y-95771720D02*
X119368225Y-95771720D01*
X119415844Y-96247911D01*
X119368225Y-96200292D01*
X119272987Y-96152673D01*
X119034892Y-96152673D01*
X118939654Y-96200292D01*
X118892035Y-96247911D01*
X118844416Y-96343149D01*
X118844416Y-96581244D01*
X118892035Y-96676482D01*
X118939654Y-96724101D01*
X119034892Y-96771720D01*
X119272987Y-96771720D01*
X119368225Y-96724101D01*
X119415844Y-96676482D01*
X117939654Y-95771720D02*
X118415844Y-95771720D01*
X118463463Y-96247911D01*
X118415844Y-96200292D01*
X118320606Y-96152673D01*
X118082511Y-96152673D01*
X117987273Y-96200292D01*
X117939654Y-96247911D01*
X117892035Y-96343149D01*
X117892035Y-96581244D01*
X117939654Y-96676482D01*
X117987273Y-96724101D01*
X118082511Y-96771720D01*
X118320606Y-96771720D01*
X118415844Y-96724101D01*
X118463463Y-96676482D01*
X130478802Y-97896442D02*
X130526421Y-97848823D01*
X130574040Y-97705966D01*
X130574040Y-97610728D01*
X130526421Y-97467871D01*
X130431183Y-97372633D01*
X130335945Y-97325014D01*
X130145469Y-97277395D01*
X130002612Y-97277395D01*
X129812136Y-97325014D01*
X129716898Y-97372633D01*
X129621660Y-97467871D01*
X129574040Y-97610728D01*
X129574040Y-97705966D01*
X129621660Y-97848823D01*
X129669279Y-97896442D01*
X129574040Y-98801204D02*
X129574040Y-98325014D01*
X130050231Y-98277395D01*
X130002612Y-98325014D01*
X129954993Y-98420252D01*
X129954993Y-98658347D01*
X130002612Y-98753585D01*
X130050231Y-98801204D01*
X130145469Y-98848823D01*
X130383564Y-98848823D01*
X130478802Y-98801204D01*
X130526421Y-98753585D01*
X130574040Y-98658347D01*
X130574040Y-98420252D01*
X130526421Y-98325014D01*
X130478802Y-98277395D01*
X129574040Y-99467871D02*
X129574040Y-99563109D01*
X129621660Y-99658347D01*
X129669279Y-99705966D01*
X129764517Y-99753585D01*
X129954993Y-99801204D01*
X130193088Y-99801204D01*
X130383564Y-99753585D01*
X130478802Y-99705966D01*
X130526421Y-99658347D01*
X130574040Y-99563109D01*
X130574040Y-99467871D01*
X130526421Y-99372633D01*
X130478802Y-99325014D01*
X130383564Y-99277395D01*
X130193088Y-99229776D01*
X129954993Y-99229776D01*
X129764517Y-99277395D01*
X129669279Y-99325014D01*
X129621660Y-99372633D01*
X129574040Y-99467871D01*
X133740162Y-98267282D02*
X133787781Y-98219663D01*
X133835400Y-98076806D01*
X133835400Y-97981568D01*
X133787781Y-97838711D01*
X133692543Y-97743473D01*
X133597305Y-97695854D01*
X133406829Y-97648235D01*
X133263972Y-97648235D01*
X133073496Y-97695854D01*
X132978258Y-97743473D01*
X132883020Y-97838711D01*
X132835400Y-97981568D01*
X132835400Y-98076806D01*
X132883020Y-98219663D01*
X132930639Y-98267282D01*
X133168734Y-99124425D02*
X133835400Y-99124425D01*
X132787781Y-98886330D02*
X133502067Y-98648235D01*
X133502067Y-99267282D01*
X132835400Y-99552997D02*
X132835400Y-100219663D01*
X133835400Y-99791092D01*
X121293848Y-40866736D02*
X121341467Y-40914355D01*
X121484324Y-40961974D01*
X121579562Y-40961974D01*
X121722419Y-40914355D01*
X121817657Y-40819117D01*
X121865276Y-40723879D01*
X121912895Y-40533403D01*
X121912895Y-40390546D01*
X121865276Y-40200070D01*
X121817657Y-40104832D01*
X121722419Y-40009594D01*
X121579562Y-39961974D01*
X121484324Y-39961974D01*
X121341467Y-40009594D01*
X121293848Y-40057213D01*
X120436705Y-40295308D02*
X120436705Y-40961974D01*
X120674800Y-39914355D02*
X120912895Y-40628641D01*
X120293848Y-40628641D01*
X119389086Y-40961974D02*
X119960514Y-40961974D01*
X119674800Y-40961974D02*
X119674800Y-39961974D01*
X119770038Y-40104832D01*
X119865276Y-40200070D01*
X119960514Y-40247689D01*
X121269025Y-42668175D02*
X121316644Y-42715794D01*
X121459501Y-42763413D01*
X121554739Y-42763413D01*
X121697596Y-42715794D01*
X121792834Y-42620556D01*
X121840453Y-42525318D01*
X121888072Y-42334842D01*
X121888072Y-42191985D01*
X121840453Y-42001509D01*
X121792834Y-41906271D01*
X121697596Y-41811033D01*
X121554739Y-41763413D01*
X121459501Y-41763413D01*
X121316644Y-41811033D01*
X121269025Y-41858652D01*
X120411882Y-42096747D02*
X120411882Y-42763413D01*
X120649977Y-41715794D02*
X120888072Y-42430080D01*
X120269025Y-42430080D01*
X119697596Y-41763413D02*
X119602358Y-41763413D01*
X119507120Y-41811033D01*
X119459501Y-41858652D01*
X119411882Y-41953890D01*
X119364263Y-42144366D01*
X119364263Y-42382461D01*
X119411882Y-42572937D01*
X119459501Y-42668175D01*
X119507120Y-42715794D01*
X119602358Y-42763413D01*
X119697596Y-42763413D01*
X119792834Y-42715794D01*
X119840453Y-42668175D01*
X119888072Y-42572937D01*
X119935691Y-42382461D01*
X119935691Y-42144366D01*
X119888072Y-41953890D01*
X119840453Y-41858652D01*
X119792834Y-41811033D01*
X119697596Y-41763413D01*
X101091002Y-86148942D02*
X101138621Y-86101323D01*
X101186240Y-85958466D01*
X101186240Y-85863228D01*
X101138621Y-85720371D01*
X101043383Y-85625133D01*
X100948145Y-85577514D01*
X100757669Y-85529895D01*
X100614812Y-85529895D01*
X100424336Y-85577514D01*
X100329098Y-85625133D01*
X100233860Y-85720371D01*
X100186240Y-85863228D01*
X100186240Y-85958466D01*
X100233860Y-86101323D01*
X100281479Y-86148942D01*
X100186240Y-86482276D02*
X100186240Y-87101323D01*
X100567193Y-86767990D01*
X100567193Y-86910847D01*
X100614812Y-87006085D01*
X100662431Y-87053704D01*
X100757669Y-87101323D01*
X100995764Y-87101323D01*
X101091002Y-87053704D01*
X101138621Y-87006085D01*
X101186240Y-86910847D01*
X101186240Y-86625133D01*
X101138621Y-86529895D01*
X101091002Y-86482276D01*
X100186240Y-88006085D02*
X100186240Y-87529895D01*
X100662431Y-87482276D01*
X100614812Y-87529895D01*
X100567193Y-87625133D01*
X100567193Y-87863228D01*
X100614812Y-87958466D01*
X100662431Y-88006085D01*
X100757669Y-88053704D01*
X100995764Y-88053704D01*
X101091002Y-88006085D01*
X101138621Y-87958466D01*
X101186240Y-87863228D01*
X101186240Y-87625133D01*
X101138621Y-87529895D01*
X101091002Y-87482276D01*
X109029737Y-82007982D02*
X109077356Y-82055601D01*
X109220213Y-82103220D01*
X109315451Y-82103220D01*
X109458308Y-82055601D01*
X109553546Y-81960363D01*
X109601165Y-81865125D01*
X109648784Y-81674649D01*
X109648784Y-81531792D01*
X109601165Y-81341316D01*
X109553546Y-81246078D01*
X109458308Y-81150840D01*
X109315451Y-81103220D01*
X109220213Y-81103220D01*
X109077356Y-81150840D01*
X109029737Y-81198459D01*
X108696403Y-81103220D02*
X108077356Y-81103220D01*
X108410689Y-81484173D01*
X108267832Y-81484173D01*
X108172594Y-81531792D01*
X108124975Y-81579411D01*
X108077356Y-81674649D01*
X108077356Y-81912744D01*
X108124975Y-82007982D01*
X108172594Y-82055601D01*
X108267832Y-82103220D01*
X108553546Y-82103220D01*
X108648784Y-82055601D01*
X108696403Y-82007982D01*
X107744022Y-81103220D02*
X107124975Y-81103220D01*
X107458308Y-81484173D01*
X107315451Y-81484173D01*
X107220213Y-81531792D01*
X107172594Y-81579411D01*
X107124975Y-81674649D01*
X107124975Y-81912744D01*
X107172594Y-82007982D01*
X107220213Y-82055601D01*
X107315451Y-82103220D01*
X107601165Y-82103220D01*
X107696403Y-82055601D01*
X107744022Y-82007982D01*
X144709117Y-69348622D02*
X144756736Y-69396241D01*
X144899593Y-69443860D01*
X144994831Y-69443860D01*
X145137688Y-69396241D01*
X145232926Y-69301003D01*
X145280545Y-69205765D01*
X145328164Y-69015289D01*
X145328164Y-68872432D01*
X145280545Y-68681956D01*
X145232926Y-68586718D01*
X145137688Y-68491480D01*
X144994831Y-68443860D01*
X144899593Y-68443860D01*
X144756736Y-68491480D01*
X144709117Y-68539099D01*
X144328164Y-68539099D02*
X144280545Y-68491480D01*
X144185307Y-68443860D01*
X143947212Y-68443860D01*
X143851974Y-68491480D01*
X143804355Y-68539099D01*
X143756736Y-68634337D01*
X143756736Y-68729575D01*
X143804355Y-68872432D01*
X144375783Y-69443860D01*
X143756736Y-69443860D01*
X143185307Y-68872432D02*
X143280545Y-68824813D01*
X143328164Y-68777194D01*
X143375783Y-68681956D01*
X143375783Y-68634337D01*
X143328164Y-68539099D01*
X143280545Y-68491480D01*
X143185307Y-68443860D01*
X142994831Y-68443860D01*
X142899593Y-68491480D01*
X142851974Y-68539099D01*
X142804355Y-68634337D01*
X142804355Y-68681956D01*
X142851974Y-68777194D01*
X142899593Y-68824813D01*
X142994831Y-68872432D01*
X143185307Y-68872432D01*
X143280545Y-68920051D01*
X143328164Y-68967670D01*
X143375783Y-69062908D01*
X143375783Y-69253384D01*
X143328164Y-69348622D01*
X143280545Y-69396241D01*
X143185307Y-69443860D01*
X142994831Y-69443860D01*
X142899593Y-69396241D01*
X142851974Y-69348622D01*
X142804355Y-69253384D01*
X142804355Y-69062908D01*
X142851974Y-68967670D01*
X142899593Y-68920051D01*
X142994831Y-68872432D01*
X135596902Y-98173302D02*
X135644521Y-98125683D01*
X135692140Y-97982826D01*
X135692140Y-97887588D01*
X135644521Y-97744731D01*
X135549283Y-97649493D01*
X135454045Y-97601874D01*
X135263569Y-97554255D01*
X135120712Y-97554255D01*
X134930236Y-97601874D01*
X134834998Y-97649493D01*
X134739760Y-97744731D01*
X134692140Y-97887588D01*
X134692140Y-97982826D01*
X134739760Y-98125683D01*
X134787379Y-98173302D01*
X134787379Y-98554255D02*
X134739760Y-98601874D01*
X134692140Y-98697112D01*
X134692140Y-98935207D01*
X134739760Y-99030445D01*
X134787379Y-99078064D01*
X134882617Y-99125683D01*
X134977855Y-99125683D01*
X135120712Y-99078064D01*
X135692140Y-98506636D01*
X135692140Y-99125683D01*
X134692140Y-99982826D02*
X134692140Y-99792350D01*
X134739760Y-99697112D01*
X134787379Y-99649493D01*
X134930236Y-99554255D01*
X135120712Y-99506636D01*
X135501664Y-99506636D01*
X135596902Y-99554255D01*
X135644521Y-99601874D01*
X135692140Y-99697112D01*
X135692140Y-99887588D01*
X135644521Y-99982826D01*
X135596902Y-100030445D01*
X135501664Y-100078064D01*
X135263569Y-100078064D01*
X135168331Y-100030445D01*
X135120712Y-99982826D01*
X135073093Y-99887588D01*
X135073093Y-99697112D01*
X135120712Y-99601874D01*
X135168331Y-99554255D01*
X135263569Y-99506636D01*
X128774462Y-97830402D02*
X128822081Y-97782783D01*
X128869700Y-97639926D01*
X128869700Y-97544688D01*
X128822081Y-97401831D01*
X128726843Y-97306593D01*
X128631605Y-97258974D01*
X128441129Y-97211355D01*
X128298272Y-97211355D01*
X128107796Y-97258974D01*
X128012558Y-97306593D01*
X127917320Y-97401831D01*
X127869700Y-97544688D01*
X127869700Y-97639926D01*
X127917320Y-97782783D01*
X127964939Y-97830402D01*
X127964939Y-98211355D02*
X127917320Y-98258974D01*
X127869700Y-98354212D01*
X127869700Y-98592307D01*
X127917320Y-98687545D01*
X127964939Y-98735164D01*
X128060177Y-98782783D01*
X128155415Y-98782783D01*
X128298272Y-98735164D01*
X128869700Y-98163736D01*
X128869700Y-98782783D01*
X127869700Y-99687545D02*
X127869700Y-99211355D01*
X128345891Y-99163736D01*
X128298272Y-99211355D01*
X128250653Y-99306593D01*
X128250653Y-99544688D01*
X128298272Y-99639926D01*
X128345891Y-99687545D01*
X128441129Y-99735164D01*
X128679224Y-99735164D01*
X128774462Y-99687545D01*
X128822081Y-99639926D01*
X128869700Y-99544688D01*
X128869700Y-99306593D01*
X128822081Y-99211355D01*
X128774462Y-99163736D01*
X121934242Y-97896442D02*
X121981861Y-97848823D01*
X122029480Y-97705966D01*
X122029480Y-97610728D01*
X121981861Y-97467871D01*
X121886623Y-97372633D01*
X121791385Y-97325014D01*
X121600909Y-97277395D01*
X121458052Y-97277395D01*
X121267576Y-97325014D01*
X121172338Y-97372633D01*
X121077100Y-97467871D01*
X121029480Y-97610728D01*
X121029480Y-97705966D01*
X121077100Y-97848823D01*
X121124719Y-97896442D01*
X121124719Y-98277395D02*
X121077100Y-98325014D01*
X121029480Y-98420252D01*
X121029480Y-98658347D01*
X121077100Y-98753585D01*
X121124719Y-98801204D01*
X121219957Y-98848823D01*
X121315195Y-98848823D01*
X121458052Y-98801204D01*
X122029480Y-98229776D01*
X122029480Y-98848823D01*
X121124719Y-99229776D02*
X121077100Y-99277395D01*
X121029480Y-99372633D01*
X121029480Y-99610728D01*
X121077100Y-99705966D01*
X121124719Y-99753585D01*
X121219957Y-99801204D01*
X121315195Y-99801204D01*
X121458052Y-99753585D01*
X122029480Y-99182157D01*
X122029480Y-99801204D01*
X115259142Y-92637342D02*
X115306761Y-92589723D01*
X115354380Y-92446866D01*
X115354380Y-92351628D01*
X115306761Y-92208771D01*
X115211523Y-92113533D01*
X115116285Y-92065914D01*
X114925809Y-92018295D01*
X114782952Y-92018295D01*
X114592476Y-92065914D01*
X114497238Y-92113533D01*
X114402000Y-92208771D01*
X114354380Y-92351628D01*
X114354380Y-92446866D01*
X114402000Y-92589723D01*
X114449619Y-92637342D01*
X114449619Y-93018295D02*
X114402000Y-93065914D01*
X114354380Y-93161152D01*
X114354380Y-93399247D01*
X114402000Y-93494485D01*
X114449619Y-93542104D01*
X114544857Y-93589723D01*
X114640095Y-93589723D01*
X114782952Y-93542104D01*
X115354380Y-92970676D01*
X115354380Y-93589723D01*
X115354380Y-94542104D02*
X115354380Y-93970676D01*
X115354380Y-94256390D02*
X114354380Y-94256390D01*
X114497238Y-94161152D01*
X114592476Y-94065914D01*
X114640095Y-93970676D01*
X103771937Y-78167502D02*
X103819556Y-78215121D01*
X103962413Y-78262740D01*
X104057651Y-78262740D01*
X104200508Y-78215121D01*
X104295746Y-78119883D01*
X104343365Y-78024645D01*
X104390984Y-77834169D01*
X104390984Y-77691312D01*
X104343365Y-77500836D01*
X104295746Y-77405598D01*
X104200508Y-77310360D01*
X104057651Y-77262740D01*
X103962413Y-77262740D01*
X103819556Y-77310360D01*
X103771937Y-77357979D01*
X102819556Y-78262740D02*
X103390984Y-78262740D01*
X103105270Y-78262740D02*
X103105270Y-77262740D01*
X103200508Y-77405598D01*
X103295746Y-77500836D01*
X103390984Y-77548455D01*
X102343365Y-78262740D02*
X102152889Y-78262740D01*
X102057651Y-78215121D01*
X102010032Y-78167502D01*
X101914794Y-78024645D01*
X101867175Y-77834169D01*
X101867175Y-77453217D01*
X101914794Y-77357979D01*
X101962413Y-77310360D01*
X102057651Y-77262740D01*
X102248127Y-77262740D01*
X102343365Y-77310360D01*
X102390984Y-77357979D01*
X102438603Y-77453217D01*
X102438603Y-77691312D01*
X102390984Y-77786550D01*
X102343365Y-77834169D01*
X102248127Y-77881788D01*
X102057651Y-77881788D01*
X101962413Y-77834169D01*
X101914794Y-77786550D01*
X101867175Y-77691312D01*
X108912897Y-89549242D02*
X108960516Y-89596861D01*
X109103373Y-89644480D01*
X109198611Y-89644480D01*
X109341468Y-89596861D01*
X109436706Y-89501623D01*
X109484325Y-89406385D01*
X109531944Y-89215909D01*
X109531944Y-89073052D01*
X109484325Y-88882576D01*
X109436706Y-88787338D01*
X109341468Y-88692100D01*
X109198611Y-88644480D01*
X109103373Y-88644480D01*
X108960516Y-88692100D01*
X108912897Y-88739719D01*
X107960516Y-89644480D02*
X108531944Y-89644480D01*
X108246230Y-89644480D02*
X108246230Y-88644480D01*
X108341468Y-88787338D01*
X108436706Y-88882576D01*
X108531944Y-88930195D01*
X107389087Y-89073052D02*
X107484325Y-89025433D01*
X107531944Y-88977814D01*
X107579563Y-88882576D01*
X107579563Y-88834957D01*
X107531944Y-88739719D01*
X107484325Y-88692100D01*
X107389087Y-88644480D01*
X107198611Y-88644480D01*
X107103373Y-88692100D01*
X107055754Y-88739719D01*
X107008135Y-88834957D01*
X107008135Y-88882576D01*
X107055754Y-88977814D01*
X107103373Y-89025433D01*
X107198611Y-89073052D01*
X107389087Y-89073052D01*
X107484325Y-89120671D01*
X107531944Y-89168290D01*
X107579563Y-89263528D01*
X107579563Y-89454004D01*
X107531944Y-89549242D01*
X107484325Y-89596861D01*
X107389087Y-89644480D01*
X107198611Y-89644480D01*
X107103373Y-89596861D01*
X107055754Y-89549242D01*
X107008135Y-89454004D01*
X107008135Y-89263528D01*
X107055754Y-89168290D01*
X107103373Y-89120671D01*
X107198611Y-89073052D01*
X112171717Y-82635362D02*
X112219336Y-82682981D01*
X112362193Y-82730600D01*
X112457431Y-82730600D01*
X112600288Y-82682981D01*
X112695526Y-82587743D01*
X112743145Y-82492505D01*
X112790764Y-82302029D01*
X112790764Y-82159172D01*
X112743145Y-81968696D01*
X112695526Y-81873458D01*
X112600288Y-81778220D01*
X112457431Y-81730600D01*
X112362193Y-81730600D01*
X112219336Y-81778220D01*
X112171717Y-81825839D01*
X111219336Y-82730600D02*
X111790764Y-82730600D01*
X111505050Y-82730600D02*
X111505050Y-81730600D01*
X111600288Y-81873458D01*
X111695526Y-81968696D01*
X111790764Y-82016315D01*
X110362193Y-81730600D02*
X110552669Y-81730600D01*
X110647907Y-81778220D01*
X110695526Y-81825839D01*
X110790764Y-81968696D01*
X110838383Y-82159172D01*
X110838383Y-82540124D01*
X110790764Y-82635362D01*
X110743145Y-82682981D01*
X110647907Y-82730600D01*
X110457431Y-82730600D01*
X110362193Y-82682981D01*
X110314574Y-82635362D01*
X110266955Y-82540124D01*
X110266955Y-82302029D01*
X110314574Y-82206791D01*
X110362193Y-82159172D01*
X110457431Y-82111553D01*
X110647907Y-82111553D01*
X110743145Y-82159172D01*
X110790764Y-82206791D01*
X110838383Y-82302029D01*
X138342642Y-63408322D02*
X138390261Y-63360703D01*
X138437880Y-63217846D01*
X138437880Y-63122608D01*
X138390261Y-62979751D01*
X138295023Y-62884513D01*
X138199785Y-62836894D01*
X138009309Y-62789275D01*
X137866452Y-62789275D01*
X137675976Y-62836894D01*
X137580738Y-62884513D01*
X137485500Y-62979751D01*
X137437880Y-63122608D01*
X137437880Y-63217846D01*
X137485500Y-63360703D01*
X137533119Y-63408322D01*
X138437880Y-64360703D02*
X138437880Y-63789275D01*
X138437880Y-64074989D02*
X137437880Y-64074989D01*
X137580738Y-63979751D01*
X137675976Y-63884513D01*
X137723595Y-63789275D01*
X137437880Y-65265465D02*
X137437880Y-64789275D01*
X137914071Y-64741656D01*
X137866452Y-64789275D01*
X137818833Y-64884513D01*
X137818833Y-65122608D01*
X137866452Y-65217846D01*
X137914071Y-65265465D01*
X138009309Y-65313084D01*
X138247404Y-65313084D01*
X138342642Y-65265465D01*
X138390261Y-65217846D01*
X138437880Y-65122608D01*
X138437880Y-64884513D01*
X138390261Y-64789275D01*
X138342642Y-64741656D01*
X143558520Y-98725693D02*
X143082330Y-98392360D01*
X143558520Y-98154264D02*
X142558520Y-98154264D01*
X142558520Y-98535217D01*
X142606140Y-98630455D01*
X142653759Y-98678074D01*
X142748997Y-98725693D01*
X142891854Y-98725693D01*
X142987092Y-98678074D01*
X143034711Y-98630455D01*
X143082330Y-98535217D01*
X143082330Y-98154264D01*
X143558520Y-99201883D02*
X143558520Y-99392360D01*
X143510901Y-99487598D01*
X143463282Y-99535217D01*
X143320425Y-99630455D01*
X143129949Y-99678074D01*
X142748997Y-99678074D01*
X142653759Y-99630455D01*
X142606140Y-99582836D01*
X142558520Y-99487598D01*
X142558520Y-99297121D01*
X142606140Y-99201883D01*
X142653759Y-99154264D01*
X142748997Y-99106645D01*
X142987092Y-99106645D01*
X143082330Y-99154264D01*
X143129949Y-99201883D01*
X143177568Y-99297121D01*
X143177568Y-99487598D01*
X143129949Y-99582836D01*
X143082330Y-99630455D01*
X142987092Y-99678074D01*
X141287760Y-99024202D02*
X140811570Y-98690869D01*
X141287760Y-98452774D02*
X140287760Y-98452774D01*
X140287760Y-98833726D01*
X140335380Y-98928964D01*
X140382999Y-98976583D01*
X140478237Y-99024202D01*
X140621094Y-99024202D01*
X140716332Y-98976583D01*
X140763951Y-98928964D01*
X140811570Y-98833726D01*
X140811570Y-98452774D01*
X141287760Y-99976583D02*
X141287760Y-99405155D01*
X141287760Y-99690869D02*
X140287760Y-99690869D01*
X140430618Y-99595631D01*
X140525856Y-99500393D01*
X140573475Y-99405155D01*
X140287760Y-100595631D02*
X140287760Y-100690869D01*
X140335380Y-100786107D01*
X140382999Y-100833726D01*
X140478237Y-100881345D01*
X140668713Y-100928964D01*
X140906808Y-100928964D01*
X141097284Y-100881345D01*
X141192522Y-100833726D01*
X141240141Y-100786107D01*
X141287760Y-100690869D01*
X141287760Y-100595631D01*
X141240141Y-100500393D01*
X141192522Y-100452774D01*
X141097284Y-100405155D01*
X140906808Y-100357536D01*
X140668713Y-100357536D01*
X140478237Y-100405155D01*
X140382999Y-100452774D01*
X140335380Y-100500393D01*
X140287760Y-100595631D01*
M02*
