M48
; DRILL file {KiCad 6.0.0-unknown-cbea514~86~ubuntu18.04.1} date lun 10 jun 2019 18:18:51 -05
; FORMAT={-:-/ absolute / metric / decimal}
; #@! TF.CreationDate,2019-06-10T18:18:51-05:00
; #@! TF.GenerationSoftware,Kicad,Pcbnew,6.0.0-unknown-cbea514~86~ubuntu18.04.1
; #@! TF.FileFunction,Plated,1,2,PTH
FMAT,2
METRIC
T1C0.300
T2C0.400
T3C0.500
T4C0.762
T5C0.900
T6C1.000
T7C2.700
%
G90
G05
T1
X55.441Y-66.088
X59.847Y-78.204
X59.995Y-65.199
X60.076Y-67.488
X61.476Y-75.717
X62.103Y-87.798
X62.291Y-65.192
X62.296Y-67.488
X63.543Y-75.222
X65.288Y-75.174
X67.968Y-83.421
X68.02Y-82.393
X70.815Y-64.618
X71.161Y-66.744
X72.834Y-66.944
X72.918Y-62.448
X73.969Y-83.779
X73.969Y-84.62
X74.499Y-93.217
X74.879Y-61.722
X75.407Y-71.467
X75.408Y-25.761
X75.532Y-61.469
X75.63Y-73.839
X75.636Y-92.819
X76.382Y-57.357
X76.922Y-71.628
X77.386Y-72.517
X78.19Y-71.796
X78.458Y-73.642
X78.883Y-71.696
X79.009Y-61.338
X79.684Y-71.719
X80.28Y-60.922
X80.577Y-60.18
X82.423Y-95.707
X82.548Y-67.34
X82.634Y-65.036
X83.012Y-69.48
X83.208Y-68.704
X84.074Y-96.774
X85.395Y-90.526
X85.816Y-82.687
X88.923Y-84.094
X89.393Y-91.445
X89.987Y-80.8
X89.997Y-81.473
X90.007Y-82.057
X90.424Y-85.534
X90.655Y-81.46
X90.678Y-80.825
X90.691Y-82.083
X91.135Y-78.232
X91.173Y-91.481
X91.3Y-80.802
X91.3Y-81.486
X91.326Y-82.07
X92.405Y-88.494
X93.04Y-78.842
X93.65Y-60.815
X93.655Y-59.156
X93.807Y-77.465
X95.042Y-54.087
X95.156Y-82.199
X96.258Y-55.26
X97.737Y-52.786
X97.747Y-51.026
X98.168Y-82.593
X98.401Y-71.044
X98.478Y-60.193
X98.499Y-69.286
X98.501Y-65.395
X99.108Y-59.206
X99.159Y-71.052
X99.944Y-71.088
X100.134Y-73.769
X100.246Y-59.289
X100.447Y-79.073
X100.622Y-82.481
X100.792Y-101.511
X101.046Y-60.018
X101.089Y-71.095
X101.665Y-60.636
X102.202Y-76.507
X102.449Y-71.056
X103.049Y-76.018
X103.149Y-71.056
X103.349Y-61.321
X103.95Y-71.056
X104.419Y-90.985
X104.762Y-71.056
X105.321Y-60.515
X105.75Y-88.897
X105.877Y-100.167
X105.895Y-101.298
X106.867Y-71.057
X107.03Y-80.0
X107.101Y-69.47
X107.218Y-60.752
X107.559Y-70.947
X107.828Y-82.545
X107.848Y-62.128
X107.909Y-88.86
X108.098Y-85.105
X108.191Y-69.113
X108.244Y-81.299
X108.267Y-72.047
X108.5Y-63.984
X108.524Y-89.779
X108.712Y-90.985
X108.775Y-70.452
X109.068Y-61.468
X109.314Y-64.771
X109.444Y-68.833
X109.462Y-62.846
X109.537Y-67.239
X109.538Y-68.039
X109.539Y-66.439
X109.85Y-72.371
X109.982Y-63.937
X110.013Y-65.279
X110.429Y-65.909
X110.757Y-72.271
X111.917Y-76.004
X112.399Y-77.164
X112.663Y-73.829
X112.827Y-62.604
X112.999Y-63.282
X113.01Y-86.017
X113.01Y-88.968
X113.01Y-89.695
X113.01Y-92.227
X113.042Y-77.439
X113.05Y-95.75
X113.055Y-97.409
X113.066Y-94.351
X113.066Y-84.78
X113.066Y-95.051
X113.081Y-93.651
X113.119Y-92.952
X113.515Y-100.076
X113.612Y-57.884
X113.614Y-90.05
X113.766Y-55.789
X113.81Y-91.206
X114.226Y-88.438
X114.45Y-101.361
X114.912Y-18.585
X114.969Y-92.176
X114.986Y-96.52
X115.118Y-91.492
X115.126Y-90.472
X115.275Y-88.415
X115.44Y-82.052
X115.557Y-85.629
X115.562Y-43.556
X115.771Y-72.563
X115.773Y-96.393
X115.818Y-71.623
X115.904Y-82.955
X116.007Y-73.637
X116.043Y-83.641
X116.673Y-65.626
X116.813Y-83.608
X116.822Y-86.502
X116.911Y-62.243
X116.914Y-42.174
X116.923Y-71.514
X117.004Y-60.674
X117.074Y-102.283
X117.157Y-59.817
X117.17Y-64.567
X117.339Y-65.841
X117.498Y-83.752
X118.002Y-69.658
X118.041Y-83.053
X118.212Y-91.745
X118.219Y-57.523
X118.278Y-49.852
X118.31Y-70.78
X118.359Y-95.804
X118.57Y-75.377
X118.576Y-76.938
X118.631Y-60.985
X118.75Y-73.571
X118.75Y-74.643
X118.758Y-81.078
X118.808Y-59.436
X118.875Y-40.35
X118.995Y-71.371
X119.127Y-66.158
X119.338Y-87.044
X119.451Y-64.607
X119.501Y-82.377
X119.657Y-97.272
X119.858Y-66.927
X119.988Y-60.581
X120.04Y-91.643
X120.195Y-93.736
X120.335Y-82.218
X120.378Y-86.054
X120.393Y-78.981
X120.397Y-96.456
X120.404Y-62.154
X120.471Y-76.449
X120.652Y-87.315
X121.194Y-66.213
X121.308Y-97.239
X121.346Y-99.908
X121.557Y-58.494
X121.564Y-77.386
X121.57Y-74.795
X121.653Y-78.082
X121.691Y-57.661
X121.801Y-78.791
X121.839Y-56.977
X121.879Y-62.133
X121.879Y-65.695
X121.914Y-88.16
X121.978Y-60.482
X122.008Y-53.773
X122.039Y-55.72
X122.085Y-99.522
X122.192Y-94.727
X122.192Y-94.727
X122.194Y-91.697
X122.232Y-98.222
X122.331Y-101.613
X122.431Y-80.046
X122.801Y-96.103
X122.806Y-91.356
X123.008Y-90.645
X123.051Y-85.522
X123.133Y-84.421
X123.326Y-76.551
X123.442Y-97.762
X123.695Y-69.809
X123.743Y-85.626
X123.805Y-53.191
X123.872Y-78.261
X123.907Y-71.677
X123.937Y-70.577
X124.0Y-72.777
X124.226Y-86.693
X124.445Y-79.701
X124.47Y-72.227
X124.493Y-71.127
X124.543Y-66.487
X124.584Y-53.191
X124.63Y-65.225
X124.686Y-61.13
X124.699Y-87.267
X124.783Y-96.063
X124.793Y-103.571
X125.331Y-53.167
X125.364Y-62.273
X125.39Y-79.968
X125.542Y-40.404
X125.743Y-66.563
X125.793Y-57.848
X126.177Y-80.724
X126.203Y-82.144
X126.279Y-90.724
X126.343Y-39.005
X126.535Y-52.829
X126.594Y-57.848
X126.671Y-85.128
X126.774Y-79.375
X126.901Y-37.963
X127.126Y-91.927
X127.292Y-53.066
X127.389Y-57.933
X127.467Y-85.199
X127.486Y-44.806
X127.652Y-86.912
X127.678Y-87.711
X127.686Y-76.894
X127.874Y-86.242
X128.113Y-65.989
X128.117Y-90.797
X128.188Y-57.982
X128.27Y-77.876
X128.27Y-82.199
X128.458Y-40.578
X128.565Y-104.384
X128.985Y-58.045
X129.032Y-77.267
X129.032Y-82.144
X129.317Y-91.476
X129.317Y-90.714
X129.416Y-40.404
X129.629Y-65.575
X129.634Y-78.981
X129.785Y-58.035
X130.199Y-69.362
X130.222Y-70.089
X130.475Y-92.428
X130.596Y-58.031
X130.604Y-78.788
X130.795Y-91.128
X131.396Y-58.045
X131.501Y-99.517
X131.664Y-70.377
X131.664Y-77.723
X131.884Y-96.731
X132.184Y-69.317
X132.196Y-58.034
X132.448Y-87.838
X132.491Y-77.688
X132.593Y-86.288
X132.621Y-103.632
X132.748Y-91.4
X132.895Y-58.056
X133.012Y-82.978
X133.115Y-82.058
X133.19Y-76.408
X133.198Y-79.832
X133.556Y-71.038
X133.581Y-58.195
X133.588Y-83.644
X133.673Y-64.922
X133.876Y-61.084
X133.888Y-98.257
X134.201Y-84.191
X134.302Y-87.945
X134.344Y-88.736
X134.366Y-86.36
X134.43Y-89.603
X134.714Y-67.699
X134.767Y-65.882
X135.278Y-41.641
X135.278Y-43.543
X135.33Y-62.41
X135.39Y-64.602
X135.854Y-88.527
X135.877Y-95.519
X135.898Y-93.843
X135.908Y-92.596
X135.948Y-63.695
X135.968Y-66.181
X136.324Y-101.087
X136.365Y-99.654
X136.583Y-66.732
X136.713Y-68.377
X136.718Y-41.671
X137.048Y-65.101
X137.292Y-64.4
X137.404Y-59.428
X137.455Y-75.929
X137.579Y-62.639
X137.772Y-51.747
X137.787Y-86.488
X137.825Y-73.147
X138.029Y-96.429
X138.039Y-88.295
X138.416Y-84.444
X138.493Y-70.612
X138.62Y-71.501
X138.758Y-73.095
X138.777Y-73.897
X138.876Y-74.691
X138.938Y-75.501
X139.017Y-90.518
X139.121Y-101.671
X139.192Y-47.6
X140.15Y-86.144
X141.051Y-52.532
X141.541Y-84.135
X141.727Y-65.092
X141.887Y-93.442
X141.968Y-101.951
X142.001Y-79.936
X142.1Y-78.466
X142.593Y-73.017
X142.629Y-68.905
X142.861Y-64.149
X142.964Y-65.763
X143.307Y-88.9
X143.685Y-65.207
X143.967Y-72.473
X144.018Y-93.497
T2
X59.334Y-50.546
X62.23Y-47.803
X66.543Y-100.894
X66.647Y-64.453
X67.615Y-45.771
X68.936Y-47.701
X70.937Y-90.134
X73.579Y-86.822
X76.19Y-104.27
X79.606Y-92.192
X85.029Y-58.666
X85.664Y-86.317
X89.464Y-54.511
X90.038Y-78.471
X91.59Y-70.98
X91.788Y-83.977
X93.035Y-73.744
X93.236Y-80.866
X94.094Y-84.645
X94.531Y-62.827
X94.615Y-60.251
X94.859Y-96.528
X94.874Y-89.393
X95.087Y-71.618
X95.511Y-87.195
X95.822Y-50.406
X96.078Y-70.79
X96.431Y-52.72
X97.038Y-81.849
X97.442Y-91.035
X97.615Y-96.624
X97.642Y-69.322
X98.189Y-89.301
X98.275Y-76.233
X98.29Y-71.785
X98.323Y-53.972
X98.694Y-81.961
X99.096Y-98.009
X99.144Y-87.142
X99.268Y-89.094
X99.979Y-86.258
X100.284Y-89.835
X100.292Y-84.605
X100.757Y-87.142
X100.95Y-81.364
X100.975Y-75.519
X101.084Y-86.251
X102.047Y-91.862
X103.497Y-87.935
X104.071Y-96.794
X104.267Y-83.8
X104.95Y-92.997
X107.038Y-89.835
X107.371Y-96.487
X108.029Y-98.958
X112.243Y-56.543
X113.04Y-51.293
X113.083Y-98.158
X113.388Y-98.969
X116.416Y-91.049
X117.098Y-98.934
X117.394Y-51.43
X118.822Y-100.545
X122.118Y-31.488
X122.954Y-73.784
X123.134Y-31.445
X123.482Y-39.05
X123.518Y-34.953
X124.371Y-41.112
X124.48Y-92.44
X125.057Y-56.104
X125.125Y-34.93
X125.415Y-65.517
X125.821Y-74.905
X125.87Y-76.279
X127.775Y-70.416
X129.365Y-92.227
X130.185Y-76.337
X130.231Y-71.778
X133.581Y-72.906
X133.657Y-77.429
X135.539Y-101.811
X135.964Y-68.925
X135.987Y-37.079
X137.087Y-83.151
X137.782Y-90.538
X137.841Y-93.768
X139.913Y-77.639
X140.178Y-94.145
X140.612Y-78.062
X141.181Y-36.893
X141.307Y-92.591
X143.208Y-67.198
X144.653Y-71.476
X144.874Y-73.5
X146.924Y-70.729
X148.471Y-70.645
T3
X53.767Y-27.424
X53.82Y-41.615
X56.284Y-72.657
X56.413Y-101.316
X56.424Y-103.398
X56.431Y-99.162
X56.487Y-105.997
X56.896Y-83.312
X56.947Y-46.584
X57.897Y-38.303
X58.504Y-107.036
X59.639Y-27.384
X61.788Y-107.13
X62.0Y-78.0
X62.0Y-81.0
X62.123Y-89.86
X62.161Y-91.493
X62.182Y-93.147
X63.289Y-18.788
X64.978Y-107.269
X65.0Y-78.0
X65.0Y-81.0
X65.476Y-68.293
X65.659Y-38.572
X67.0Y-94.0
X67.0Y-96.0
X68.656Y-39.284
X68.778Y-107.224
X69.0Y-94.0
X69.0Y-96.0
X69.0Y-98.0
X69.352Y-64.046
X71.0Y-94.0
X71.0Y-96.0
X71.0Y-98.0
X71.963Y-73.63
X72.202Y-107.081
X73.0Y-94.0
X73.0Y-96.0
X73.0Y-98.0
X73.543Y-33.111
X74.038Y-105.611
X74.256Y-59.765
X75.245Y-101.783
X76.065Y-64.493
X76.086Y-65.639
X76.116Y-66.766
X76.136Y-67.848
X76.136Y-68.875
X77.018Y-36.131
X77.132Y-64.524
X77.153Y-65.629
X77.193Y-66.787
X77.221Y-67.866
X77.239Y-68.849
X77.914Y-75.408
X78.156Y-26.975
X78.168Y-64.511
X78.199Y-65.649
X78.219Y-67.874
X78.229Y-66.797
X78.262Y-68.857
X78.321Y-19.053
X78.768Y-82.062
X79.0Y-107.0
X79.0Y-110.0
X79.096Y-85.674
X79.306Y-64.513
X79.362Y-67.884
X79.367Y-65.618
X79.37Y-68.842
X79.398Y-66.817
X79.472Y-88.631
X79.964Y-77.455
X80.333Y-64.463
X80.383Y-65.598
X80.404Y-66.797
X80.411Y-67.876
X80.429Y-68.842
X80.802Y-101.994
X81.0Y-109.0
X81.064Y-107.655
X81.135Y-17.714
X82.1Y-76.403
X82.141Y-44.133
X83.088Y-65.894
X83.426Y-102.519
X83.927Y-112.453
X84.793Y-105.194
X84.976Y-19.538
X85.0Y-50.0
X85.0Y-54.0
X85.362Y-104.196
X86.0Y-109.0
X86.33Y-78.161
X87.0Y-107.0
X87.0Y-111.0
X87.023Y-19.563
X88.547Y-75.286
X89.675Y-19.563
X90.0Y-107.0
X90.0Y-109.0
X90.0Y-111.0
X91.897Y-64.455
X91.945Y-68.55
X92.0Y-107.0
X92.0Y-109.0
X92.0Y-111.0
X92.4Y-19.492
X94.0Y-107.0
X94.0Y-109.0
X94.0Y-111.0
X94.978Y-19.634
X95.664Y-91.204
X95.763Y-74.877
X95.88Y-63.078
X96.142Y-69.814
X96.363Y-89.362
X96.456Y-105.489
X96.561Y-87.165
X96.749Y-84.889
X96.942Y-71.882
X97.353Y-77.14
X97.417Y-19.708
X99.565Y-19.634
X102.004Y-19.634
X106.878Y-22.502
X107.0Y-49.0
X107.0Y-51.0
X107.236Y-19.421
X108.059Y-36.921
X108.417Y-40.147
X108.956Y-22.431
X109.0Y-49.0
X109.0Y-51.0
X109.0Y-53.0
X110.0Y-55.0
X110.0Y-58.0
X110.03Y-19.35
X110.211Y-35.011
X111.0Y-49.0
X111.046Y-42.057
X111.346Y-37.221
X111.465Y-22.288
X112.0Y-51.0
X112.0Y-53.0
X112.827Y-19.563
X113.017Y-35.011
X113.256Y-44.806
X113.853Y-40.147
X113.972Y-21.786
X116.243Y-45.283
X116.319Y-59.294
X117.861Y-36.213
X117.861Y-38.651
X119.253Y-34.272
X120.526Y-101.948
X121.295Y-34.122
X126.85Y-34.945
X128.059Y-34.463
X129.51Y-34.359
X130.698Y-53.657
X130.894Y-34.496
X132.22Y-52.194
X133.261Y-41.468
X133.345Y-53.205
X134.0Y-107.0
X134.0Y-113.0
X136.0Y-107.0
X136.0Y-113.0
X136.614Y-56.134
X136.693Y-58.321
X138.0Y-107.0
X138.0Y-113.0
X140.0Y-107.0
X140.0Y-113.0
X141.597Y-26.929
X142.855Y-44.407
X143.215Y-48.611
X143.833Y-86.073
X143.906Y-50.477
X144.127Y-96.639
X144.407Y-80.675
X144.978Y-49.304
X145.108Y-44.359
X145.738Y-50.686
X145.87Y-74.64
X148.443Y-24.361
X148.742Y-62.471
X149.131Y-61.209
X149.21Y-58.529
T4
X80.505Y-19.49
X80.505Y-21.49
X80.505Y-23.49
X80.505Y-25.49
X80.505Y-27.49
X80.505Y-29.49
X80.505Y-31.49
X80.505Y-33.49
X80.505Y-35.49
X80.505Y-37.49
X80.505Y-39.49
X80.505Y-41.49
X80.505Y-43.49
X80.505Y-45.49
X80.505Y-47.49
X80.505Y-49.49
X104.905Y-19.49
X104.905Y-21.49
X104.905Y-23.49
X104.905Y-25.49
X104.905Y-27.49
X104.905Y-29.49
X104.905Y-31.49
X104.905Y-33.49
X104.905Y-35.49
X104.905Y-37.49
X104.905Y-39.49
X104.905Y-41.49
X104.905Y-43.49
X104.905Y-45.49
X104.905Y-47.49
X104.905Y-49.49
T6
X137.729Y-17.45
X137.729Y-19.99
X54.861Y-36.931
X57.861Y-41.631
X60.861Y-36.931
X145.981Y-82.497
X145.981Y-85.037
X145.981Y-87.577
X145.981Y-90.117
X145.981Y-92.657
X145.981Y-95.197
X145.981Y-97.737
X145.981Y-100.277
X145.981Y-102.817
X145.981Y-105.357
X148.521Y-82.497
X148.521Y-85.037
X148.521Y-87.577
X148.521Y-90.117
X148.521Y-92.657
X148.521Y-95.197
X148.521Y-97.737
X148.521Y-100.277
X148.521Y-102.817
X148.521Y-105.357
X111.493Y-112.314
X149.352Y-34.455
X111.493Y-109.774
X146.812Y-31.915
X146.812Y-34.455
X146.812Y-36.995
X146.812Y-39.535
X146.812Y-42.075
X149.352Y-31.915
X114.033Y-109.774
X114.033Y-112.314
X146.812Y-29.375
X149.352Y-29.375
X106.413Y-109.774
X106.413Y-112.314
X108.953Y-109.774
X108.953Y-112.314
X149.352Y-36.995
X149.352Y-39.535
X116.573Y-109.774
X149.352Y-42.075
X116.573Y-112.314
X119.113Y-109.774
X119.113Y-112.314
X121.653Y-109.774
X121.653Y-112.314
X124.193Y-109.774
X124.193Y-112.314
X126.733Y-109.774
X126.733Y-112.314
X129.273Y-109.774
X129.273Y-112.314
X117.168Y-17.292
X117.168Y-19.832
X119.708Y-17.292
X119.708Y-19.832
X122.248Y-17.292
X122.248Y-19.832
X124.788Y-17.292
X124.788Y-19.832
X127.328Y-17.292
X127.328Y-19.832
X129.868Y-17.292
X129.868Y-19.832
T7
X56.665Y-110.302
X144.76Y-110.754
X57.099Y-19.789
X145.237Y-20.223
T5
X55.284Y-46.289G85X53.684Y-46.289
G05
X55.284Y-57.689G85X53.684Y-57.689
G05
T0
M30
